<svg xmlns="http://www.w3.org/2000/svg" xmlns:xlink="http://www.w3.org/1999/xlink" width="118.008" height="118.008" viewBox="0 0 118.008 118.008">
  <defs>
    <clipPath id="clip-path">
      <path id="path5583" d="M0-682.665H118.008v118.008H0Z" transform="translate(0 682.665)"/>
    </clipPath>
  </defs>
  <g id="a1" transform="translate(0 682.665)">
    <g id="g5579" transform="translate(0 -682.665)">
      <g id="g5581" transform="translate(0 0)" clip-path="url(#clip-path)">
        <g id="g5587" transform="translate(1.972 14.482)">
          <path id="path5589" d="M-427.13-167.006a8.964,8.964,0,0,0-8.964-8.964h0a9.525,9.525,0,0,0-9.522-9.359h-3.522a12.725,12.725,0,0,0-12.682-11.7c-.18,0-.359.006-.537.014a6.746,6.746,0,0,0-6.484-4.891,6.746,6.746,0,0,0-6.556,5.164h-8.349a9.479,9.479,0,0,0-9.479,9.479v11.936h-5.382a6.274,6.274,0,0,0-5.674-3.593,6.275,6.275,0,0,0-5.674,3.593h-.726a5.709,5.709,0,0,0-5.71,5.71,5.709,5.709,0,0,0,5.71,5.71h17.456v20.786h58.642V-158.17a8.965,8.965,0,0,0,7.459-8.836" transform="translate(516.396 201.909)" fill="#bed9fd"/>
        </g>
        <g id="g5591" transform="translate(1.972 14.482)">
          <path id="path5593" d="M-427.13-167.006a8.964,8.964,0,0,0-8.964-8.964h0a9.525,9.525,0,0,0-9.522-9.359h-3.522a12.725,12.725,0,0,0-12.682-11.7c-.18,0-.359.006-.537.014a6.746,6.746,0,0,0-6.484-4.891,6.746,6.746,0,0,0-6.556,5.164h-8.349a9.479,9.479,0,0,0-9.479,9.479v11.936h-5.382a6.274,6.274,0,0,0-5.674-3.593,6.275,6.275,0,0,0-5.674,3.593h-.726a5.709,5.709,0,0,0-5.71,5.71,5.709,5.709,0,0,0,5.71,5.71h17.456v20.786h58.642V-158.17A8.965,8.965,0,0,0-427.13-167.006Z" transform="translate(516.396 201.909)" fill="none" stroke="#000" stroke-linecap="round" stroke-linejoin="round" stroke-miterlimit="10" stroke-width="2"/>
        </g>
        <g id="g5595" transform="translate(17.103 31.433)">
          <path id="path5597" d="M0-6.938V75.281H44.217V-6.938a1.45,1.45,0,0,0-1.45-1.45H1.45A1.45,1.45,0,0,0,0-6.938" transform="translate(0 8.388)" fill="#6fbbc6"/>
        </g>
        <g id="g5599" transform="translate(54.499 31.433)">
          <path id="path5601" d="M-25.7,0h-5.372a1.45,1.45,0,0,1,1.45,1.45V83.669h5.372V1.45A1.45,1.45,0,0,0-25.7,0" transform="translate(31.075)" fill="#61aab8"/>
        </g>
        <g id="g5603" transform="translate(17.103 31.433)">
          <path id="path5605" d="M-211.576-45.265v-8.01a1.45,1.45,0,0,0-1.45-1.45h-41.317a1.45,1.45,0,0,0-1.45,1.45V28.944" transform="translate(255.793 54.725)" fill="none" stroke="#000" stroke-linecap="round" stroke-linejoin="round" stroke-miterlimit="10" stroke-width="2"/>
        </g>
        <g id="g5607" transform="translate(61.32 48.96)">
          <path id="path5609" d="M0-316.484v-66.142" transform="translate(0 382.626)" fill="none" stroke="#000" stroke-linecap="round" stroke-linejoin="round" stroke-miterlimit="10" stroke-width="2"/>
        </g>
        <g id="g5611" transform="translate(43.915 44.926)">
          <path id="path5613" d="M0-3.548v7.3a.742.742,0,0,0,.741.741h7.3a.741.741,0,0,0,.741-.741v-7.3a.741.741,0,0,0-.741-.741H.741A.742.742,0,0,0,0-3.548" transform="translate(0 4.289)" fill="#4980ac"/>
        </g>
        <g id="g5615" transform="translate(43.915 44.926)">
          <path id="path5617" d="M0-3.548v7.3a.742.742,0,0,0,.741.741h7.3a.741.741,0,0,0,.741-.741v-7.3a.741.741,0,0,0-.741-.741H.741A.742.742,0,0,0,0-3.548Z" transform="translate(0 4.289)" fill="none" stroke="#000" stroke-linecap="round" stroke-linejoin="round" stroke-miterlimit="10" stroke-width="2"/>
        </g>
        <g id="g5619" transform="translate(25.726 44.926)">
          <path id="path5621" d="M0-3.548v7.3a.742.742,0,0,0,.741.741h7.3a.741.741,0,0,0,.741-.741v-7.3a.741.741,0,0,0-.741-.741H.741A.742.742,0,0,0,0-3.548" transform="translate(0 4.289)" fill="#4980ac"/>
        </g>
        <g id="g5623" transform="translate(25.726 44.926)">
          <path id="path5625" d="M0-3.548v7.3a.742.742,0,0,0,.741.741h7.3a.741.741,0,0,0,.741-.741v-7.3a.741.741,0,0,0-.741-.741H.741A.742.742,0,0,0,0-3.548Z" transform="translate(0 4.289)" fill="none" stroke="#000" stroke-linecap="round" stroke-linejoin="round" stroke-miterlimit="10" stroke-width="2"/>
        </g>
        <g id="g5627" transform="translate(43.915 98.632)">
          <path id="path5629" d="M0-3.548v7.3a.742.742,0,0,0,.741.741h7.3a.741.741,0,0,0,.741-.741v-7.3a.741.741,0,0,0-.741-.741H.741A.742.742,0,0,0,0-3.548" transform="translate(0 4.289)" fill="#4980ac"/>
        </g>
        <g id="g5631" transform="translate(43.915 98.632)">
          <path id="path5633" d="M0-3.548v7.3a.742.742,0,0,0,.741.741h7.3a.741.741,0,0,0,.741-.741v-7.3a.741.741,0,0,0-.741-.741H.741A.742.742,0,0,0,0-3.548Z" transform="translate(0 4.289)" fill="none" stroke="#000" stroke-linecap="round" stroke-linejoin="round" stroke-miterlimit="10" stroke-width="2"/>
        </g>
        <g id="g5635" transform="translate(25.726 98.632)">
          <path id="path5637" d="M0-3.548v7.3a.742.742,0,0,0,.741.741h7.3a.741.741,0,0,0,.741-.741v-7.3a.741.741,0,0,0-.741-.741H.741A.742.742,0,0,0,0-3.548" transform="translate(0 4.289)" fill="#4980ac"/>
        </g>
        <g id="g5639" transform="translate(25.726 98.632)">
          <path id="path5641" d="M0-3.548v7.3a.742.742,0,0,0,.741.741h7.3a.741.741,0,0,0,.741-.741v-7.3a.741.741,0,0,0-.741-.741H.741A.742.742,0,0,0,0-3.548Z" transform="translate(0 4.289)" fill="none" stroke="#000" stroke-linecap="round" stroke-linejoin="round" stroke-miterlimit="10" stroke-width="2"/>
        </g>
        <g id="g5643" transform="translate(1.729 60.422)">
          <path id="path5645" d="M-370.611-54.995l-4.95.128a12.18,12.18,0,0,0-11.981-10,12.135,12.135,0,0,0-8.241,3.213,10.593,10.593,0,0,0-8.9-4.837,10.606,10.606,0,0,0-10.464,8.882,6.853,6.853,0,0,0-5.257-2.45,6.868,6.868,0,0,0-6.853,6.425,21.5,21.5,0,0,0-20.811,21.49v20.333h8.352V-26.655a9.95,9.95,0,0,1,9.95-9.95h73.634v-18.39Z" transform="translate(448.066 66.488)" fill="#bed9fd"/>
        </g>
        <g id="g5647" transform="translate(1.729 82.534)">
          <path id="path5649" d="M-18.269,0a21.4,21.4,0,0,0-3.818,12.235V32.567" transform="translate(22.087)" fill="none" stroke="#000" stroke-linecap="round" stroke-linejoin="round" stroke-miterlimit="10" stroke-width="2"/>
        </g>
        <g id="g5651" transform="translate(11.263 60.422)">
          <path id="path5653" d="M-256.709-9.167a12.221,12.221,0,0,0-2.661-.292,12.134,12.134,0,0,0-8.241,3.214,10.594,10.594,0,0,0-8.9-4.838A10.606,10.606,0,0,0-286.972-2.2a6.853,6.853,0,0,0-5.257-2.45,6.868,6.868,0,0,0-6.853,6.425A21.392,21.392,0,0,0-310.359,5.4" transform="translate(310.359 11.083)" fill="none" stroke="#000" stroke-linecap="round" stroke-linejoin="round" stroke-miterlimit="10" stroke-width="2"/>
        </g>
        <g id="g5655" transform="translate(10.081 90.305)">
          <path id="path5657" d="M0-118.65V-133.5a9.95,9.95,0,0,1,9.95-9.95H83.584" transform="translate(0 143.446)" fill="none" stroke="#000" stroke-linecap="round" stroke-linejoin="round" stroke-miterlimit="10" stroke-width="2"/>
        </g>
        <g id="g5659" transform="translate(46.824 75.285)">
          <path id="path5661" d="M0-25.566a5.343,5.343,0,0,1,5.343-5.343,5.343,5.343,0,0,1,5.343,5.343" transform="translate(0 30.909)" fill="none" stroke="#000" stroke-linecap="round" stroke-linejoin="round" stroke-miterlimit="10" stroke-width="2"/>
        </g>
        <g id="g5663" transform="translate(72.095 60.266)">
          <path id="path5665" d="M0-3.579V50.508H28.324V-3.579a.748.748,0,0,0-.748-.748H.748A.748.748,0,0,0,0-3.579" transform="translate(0 4.327)" fill="#5d91b9"/>
        </g>
        <g id="g5667" transform="translate(94.299 60.266)">
          <path id="path5669" d="M-25.7,0h-5.372a.748.748,0,0,1,.748.748V54.835h5.372V.748A.748.748,0,0,0-25.7,0" transform="translate(31.075)" fill="#4980ac"/>
        </g>
        <g id="g5671" transform="translate(72.095 60.266)">
          <path id="path5673" d="M-135.527-262.381v-54.087a.748.748,0,0,0-.748-.748H-163.1a.748.748,0,0,0-.748.748v54.087" transform="translate(163.85 317.217)" fill="none" stroke="#000" stroke-linecap="round" stroke-linejoin="round" stroke-miterlimit="10" stroke-width="2"/>
        </g>
        <g id="g5675" transform="translate(77.359 49.347)">
          <path id="path5677" d="M0-52.249V-62.583a.584.584,0,0,1,.758-.558L16.85-58.109a1.347,1.347,0,0,1,.945,1.286v4.575Z" transform="translate(0 63.168)" fill="#81a9c8"/>
        </g>
        <g id="g5679" transform="translate(90.844 53.354)">
          <path id="path5681" d="M-16.1-5.034l-3.365-1.052a1.659,1.659,0,0,1,.583,1.259V.826h3.727V-3.749A1.347,1.347,0,0,0-16.1-5.034" transform="translate(19.467 6.087)" fill="#5d91b9"/>
        </g>
        <g id="g5683" transform="translate(77.359 49.347)">
          <path id="path5685" d="M0-52.249V-62.583a.584.584,0,0,1,.758-.558L16.85-58.109a1.347,1.347,0,0,1,.945,1.286v4.575Z" transform="translate(0 63.168)" fill="none" stroke="#000" stroke-linecap="round" stroke-linejoin="round" stroke-miterlimit="10" stroke-width="2"/>
        </g>
        <g id="g5687" transform="translate(81.328 69.549)">
          <path id="path5689" d="M0,0V36.27" transform="translate(0)" fill="none" stroke="#000" stroke-linecap="round" stroke-linejoin="round" stroke-miterlimit="10" stroke-width="2"/>
        </g>
        <g id="g5691" transform="translate(91.184 69.549)">
          <path id="path5693" d="M0,0V36.27" transform="translate(0)" fill="none" stroke="#000" stroke-linecap="round" stroke-linejoin="round" stroke-miterlimit="10" stroke-width="2"/>
        </g>
        <g id="g5695" transform="translate(77.359 79.31)">
          <path id="path5697" d="M-164.523-60.173c.032-.351.053-.7.053-1.063a11.3,11.3,0,0,0-.1-1.5,11.511,11.511,0,0,0-11.415-10.016,11.511,11.511,0,0,0-11.412,10.016h-6.439a5.074,5.074,0,0,0-5.073,5.073V-54.1a1.665,1.665,0,0,0,1.665,1.665h37.256v-7.742Z" transform="translate(198.906 72.749)" fill="#ddebfd"/>
        </g>
        <g id="g5699" transform="translate(77.359 79.31)">
          <path id="path5701" d="M-186.23-60.173h-4.537c.032-.351.053-.7.053-1.063a11.257,11.257,0,0,0-.1-1.5,11.511,11.511,0,0,0-11.415-10.016,11.511,11.511,0,0,0-11.413,10.016h-6.439a5.074,5.074,0,0,0-5.073,5.073V-54.1a1.665,1.665,0,0,0,1.664,1.665h37.256" transform="translate(225.15 72.749)" fill="none" stroke="#000" stroke-linecap="round" stroke-linejoin="round" stroke-miterlimit="10" stroke-width="2"/>
        </g>
        <g id="g5703" transform="translate(107.05 91.886)">
          <path id="path5705" d="M-22.455,0h-4.693" transform="translate(27.148 0)" fill="none" stroke="#000" stroke-linecap="round" stroke-linejoin="round" stroke-miterlimit="10" stroke-width="2"/>
        </g>
        <g id="g5707" transform="translate(49.835 2.906)">
          <path id="path5709" d="M-212.511-48.713a5.858,5.858,0,0,0-5.826-5.249,5.856,5.856,0,0,0-5.149,3.061,13.219,13.219,0,0,0-12.144-7.992A13.225,13.225,0,0,0-248.5-48.713h-3.295a5.116,5.116,0,0,0-3.628,1.5,5.116,5.116,0,0,0-1.5,3.628,5.131,5.131,0,0,0,5.132,5.131h44.007V-48.713Z" transform="translate(256.923 58.893)" fill="#bcd1e1"/>
        </g>
        <g id="g5711" transform="translate(49.835 15.737)">
          <path id="path5713" d="M-3.067,0a5.1,5.1,0,0,0-.641,2.482A5.131,5.131,0,0,0,1.424,7.613H45.431V2.647H1.424A5.13,5.13,0,0,1-3.067,0" transform="translate(3.708)" fill="#99bad3"/>
        </g>
        <g id="g5715" transform="translate(49.835 2.906)">
          <path id="path5717" d="M-235.123-48.713h-4.726a5.858,5.858,0,0,0-5.826-5.249,5.856,5.856,0,0,0-5.149,3.061,13.219,13.219,0,0,0-12.144-7.992,13.225,13.225,0,0,0-12.868,10.18h-3.295a5.116,5.116,0,0,0-3.628,1.5,5.116,5.116,0,0,0-1.5,3.628,5.131,5.131,0,0,0,5.132,5.131h44.007" transform="translate(284.262 58.893)" fill="none" stroke="#000" stroke-linecap="round" stroke-linejoin="round" stroke-miterlimit="10" stroke-width="2"/>
        </g>
        <g id="g5719" transform="translate(82.564 8.162)">
          <path id="path5721" d="M-1.02-33.994a5.862,5.862,0,0,1-.213-1.571A5.861,5.861,0,0,1,2.7-41.1" transform="translate(1.233 41.099)" fill="none" stroke="#000" stroke-linecap="round" stroke-linejoin="round" stroke-miterlimit="10" stroke-width="2"/>
        </g>
      </g>
    </g>
  </g>
</svg>
