<svg xmlns="http://www.w3.org/2000/svg" width="124.008" height="104.089" viewBox="0 0 124.008 104.089">
  <g id="a2" transform="translate(-6.016 -16.3)">
    <g id="CO2_2_" transform="translate(6.016 16.3)">
      <g id="CO2_1_" transform="translate(1.866 1.861)">
        <path id="Trazado_725269" data-name="Trazado 725269" d="M135,78.078a6.044,6.044,0,0,0-.67.025,12.885,12.885,0,0,0-4.267-6l-35.25.6L71,92.218A12.83,12.83,0,0,0,83.751,103.7a12.689,12.689,0,0,0,7.839-2.679,12.82,12.82,0,0,0,19.424,3.944,12.835,12.835,0,0,0,18.531-2.481,12.693,12.693,0,0,0,5.482,1.24A12.825,12.825,0,1,0,135,78.078Z" transform="translate(-56.746 -60.118)" fill="#f4b594"/>
        <path id="Trazado_725270" data-name="Trazado 725270" d="M95.011,49.326a24.633,24.633,0,0,1,17.29-6.871h.124a25.982,25.982,0,0,0,17.414-6.673,12.834,12.834,0,0,0-7.864-2.7,13.025,13.025,0,0,0-4.837.943,17.97,17.97,0,0,0-34.184,7.74v.025A12.808,12.808,0,0,0,70.7,54.585a11.356,11.356,0,0,0,.074,1.315,26.65,26.65,0,0,0,6.177.744A25.89,25.89,0,0,0,95.011,49.326Z" transform="translate(-56.52 -23.8)" fill="#f6c4a9"/>
        <path id="Trazado_725271" data-name="Trazado 725271" d="M61.432,211.293a7.63,7.63,0,0,0-7.12-7.07,9.5,9.5,0,0,0-1.687.074,3.084,3.084,0,0,1-1.885-.3l-36.367,6.2a7.1,7.1,0,0,0-.819,2.977,7.611,7.611,0,0,0,7.591,8.112,6.521,6.521,0,0,0,1.216-.1,3.538,3.538,0,0,1,3.25,1.141,7.61,7.61,0,0,0,10.593.893,3.208,3.208,0,0,1,3.7-.2,7.651,7.651,0,0,0,9.9-1.761,4.854,4.854,0,0,1,3.845-1.861h.2a7.583,7.583,0,0,0,7.591-8.112Z" transform="translate(-13.54 -159.298)" fill="#c0f6ff"/>
        <path id="Trazado_725272" data-name="Trazado 725272" d="M33.073,202.03a21.685,21.685,0,0,0,20.094-13.52,2.7,2.7,0,0,1-1.191-1.166A7.591,7.591,0,0,0,45.3,183.4a7.515,7.515,0,0,0-4.589,1.538,3.747,3.747,0,0,1-3.8.447,7.6,7.6,0,0,0-9.823,3.349,3.379,3.379,0,0,1-3.175,1.786,5.676,5.676,0,0,0-.918.025,7.661,7.661,0,0,0-6.2,4.118A21.581,21.581,0,0,0,33.073,202.03Z" transform="translate(-15.991 -143.808)" fill="#e0f4ff"/>
        <path id="Trazado_725273" data-name="Trazado 725273" d="M176.821,159.2l-34.01,4.242L118.5,182.593v.62A34.109,34.109,0,1,0,176.821,159.2Z" transform="translate(-92.463 -125.612)" fill="#75eeff"/>
        <path id="Trazado_725274" data-name="Trazado 725274" d="M143.357,151.092,118.6,168.457a.307.307,0,0,1,.05.074,14.544,14.544,0,0,0,19.821,5.631c7.963-4.44,16.968-9.575,18.357-10.766a30.684,30.684,0,0,1,13.445-6.673,8.648,8.648,0,0,0,6.871-8.434v-.149a12.791,12.791,0,0,0-.223-3.1q-.707-.707-1.488-1.414L143.357,140.4Z" transform="translate(-92.538 -111.475)" fill="#c0f6ff"/>
        <path id="Trazado_725275" data-name="Trazado 725275" d="M175.558,144.547h2.332a4.341,4.341,0,0,0,0-8.682h-.62a4.341,4.341,0,0,1,0-8.682H202.1a34.089,34.089,0,0,0-48,2.53Z" transform="translate(-119.231 -95.008)" fill="#60d243"/>
        <path id="Trazado_725276" data-name="Trazado 725276" d="M129.787,182.876a4.33,4.33,0,0,1,4.341-4.341h14.661A24.633,24.633,0,0,0,127.331,163.7a33.966,33.966,0,0,0-8.831,22.277h8.186A3.1,3.1,0,0,0,129.787,182.876Z" transform="translate(-92.463 -128.995)" fill="#60d243"/>
        <path id="Trazado_725277" data-name="Trazado 725277" d="M230.721,239.175A19.584,19.584,0,0,0,214.745,219.9L160.22,251.851a16.8,16.8,0,0,0-.05,1.935,14,14,0,0,0,18.183,12.7,2.95,2.95,0,0,1,3.026.794,13.975,13.975,0,0,0,17.489,2.282,2.846,2.846,0,0,1,3,0,13.968,13.968,0,0,0,17.911-2.754,3.8,3.8,0,0,1,4.49-.943,13.822,13.822,0,0,0,6.4,1.265,13.991,13.991,0,0,0,.05-27.957Z" transform="translate(-123.789 -171.254)" fill="#f19d71"/>
        <path id="Trazado_725278" data-name="Trazado 725278" d="M219.564,241.794l.695-3.82h.025a24.6,24.6,0,0,0,.174-3.051,25.915,25.915,0,0,0-5.557-16.075,19.281,19.281,0,0,0-3.622-.347,19.6,19.6,0,0,0-16.372,8.806,3.729,3.729,0,0,1-3.845,1.588,14.4,14.4,0,0,0-2.754-.273,13.972,13.972,0,0,0-13,8.831,1.057,1.057,0,0,1-.992.67,13.975,13.975,0,0,0-13.917,12.7c7.74,7.194,21.656,10.171,34.035,10.171a26.1,26.1,0,0,0,25.129-19.2Z" transform="translate(-123.969 -170.201)" fill="#f4b594"/>
      </g>
      <g id="CO2" transform="translate(0)">
        <path id="Trazado_725279" data-name="Trazado 725279" d="M125.7,89.158a15.758,15.758,0,0,0-9.1-4.763,21.535,21.535,0,0,0-13.966-18.456,36.107,36.107,0,0,0-4.068-9.2A14.7,14.7,0,0,0,86.709,34.26a14.656,14.656,0,0,0-13.4-8.707,14.149,14.149,0,0,0-3.944.546,19.829,19.829,0,0,0-36.863,8.36A14.722,14.722,0,0,0,23.65,39.47,1.866,1.866,0,1,0,26.5,41.876a10.956,10.956,0,0,1,7.889-3.87,1.877,1.877,0,0,0,1.786-1.861V36.1a16.107,16.107,0,0,1,30.636-6.921,1.853,1.853,0,0,0,2.381.918,10.7,10.7,0,0,1,4.118-.819,10.947,10.947,0,0,1,10.369,7.442,1.848,1.848,0,0,0,1.861,1.265c.2,0,.4-.025.571-.025A10.968,10.968,0,0,1,97.078,48.921a11.172,11.172,0,0,1-.918,4.416,35.961,35.961,0,0,0-58.147,2.63c-.273-.025-.546-.05-.819-.05a9.4,9.4,0,0,0-5.706,1.91,1.962,1.962,0,0,1-1.91.248,10.272,10.272,0,0,0-1.464-.521,10.994,10.994,0,0,1-4.192-8.633v-.2a1.861,1.861,0,0,0-3.721-.05v.273a14.79,14.79,0,0,0,2.853,8.682,9.421,9.421,0,0,0-5.706,4.614,1.56,1.56,0,0,1-1.439.819,8.764,8.764,0,0,0-1.141.025,9.484,9.484,0,0,0-8.732,8.831,9.375,9.375,0,0,0,2.555,7.095,9.518,9.518,0,0,0,6.921,3,10.1,10.1,0,0,0,1.513-.124,1.707,1.707,0,0,1,1.563.521,9.43,9.43,0,0,0,13.148,1.116,1.267,1.267,0,0,1,1.116-.223,35.576,35.576,0,0,0,9.575,17.687A15.9,15.9,0,0,0,57.337,115.85a16.257,16.257,0,0,0,5.681-.695,1.109,1.109,0,0,1,1.116.3,15.83,15.83,0,0,0,19.8,2.58.986.986,0,0,1,1.042,0,15.833,15.833,0,0,0,20.292-3.126,1.865,1.865,0,1,0-2.828-2.431,12.173,12.173,0,0,1-9.179,4.192,12.037,12.037,0,0,1-6.375-1.811,4.706,4.706,0,0,0-4.961,0,12.118,12.118,0,0,1-15.157-1.96,4.852,4.852,0,0,0-4.912-1.29A12.108,12.108,0,0,1,46.1,100.594,12.126,12.126,0,0,1,58.23,87.917a2.881,2.881,0,0,0,2.7-1.836A12.084,12.084,0,0,1,72.2,78.416a11.324,11.324,0,0,1,2.406.248,5.578,5.578,0,0,0,5.755-2.381A17.743,17.743,0,0,1,112.9,86.057v.025a1.877,1.877,0,0,0,1.786,1.861,12.129,12.129,0,0,1-.025,24.236,13.045,13.045,0,0,1-2.208-.1,1.866,1.866,0,0,0-.521,3.7,18.488,18.488,0,0,0,2.878.149A15.891,15.891,0,0,0,125.7,89.158Zm-93.646-13.4c0,1.29.074,2.555.2,3.8a5.05,5.05,0,0,0-2.9,1.091,5.729,5.729,0,0,1-7.988-.67,5.456,5.456,0,0,0-4.961-1.761,5.75,5.75,0,1,1-1.34-11.411,3.251,3.251,0,0,1,.695,0,5.244,5.244,0,0,0,4.887-2.778,5.762,5.762,0,0,1,5.085-3.051,5.7,5.7,0,0,1,2.332.5,5.609,5.609,0,0,0,5.656-.67,5.468,5.468,0,0,1,2.059-.992,35.843,35.843,0,0,0-3.721,15.951ZM95.193,64.6a21.44,21.44,0,0,0-17.911,9.625,1.846,1.846,0,0,1-1.935.794,16.5,16.5,0,0,0-3.126-.322,15.735,15.735,0,0,0-14.512,9.5A15.88,15.88,0,0,0,42.9,95.955a31.772,31.772,0,0,1-7.095-18.977h6.3a4.976,4.976,0,0,0,4.961-4.961,2.488,2.488,0,0,1,2.481-2.481h4.589a1.861,1.861,0,0,0,0-3.721H49.548a6.2,6.2,0,0,0-6.2,6.2,1.228,1.228,0,0,1-1.24,1.24H35.879A32.249,32.249,0,0,1,85.22,48.45h-19.3a6.2,6.2,0,1,0,0,12.4h.62a2.481,2.481,0,1,1,0,4.961H62.82a1.861,1.861,0,0,0,0,3.721h3.721a6.2,6.2,0,1,0,0-12.4h-.62a2.481,2.481,0,0,1,0-4.961H90.058a32.092,32.092,0,0,1,8.31,12.651,22,22,0,0,0-3.175-.223Z" transform="translate(-6.016 -16.3)"/>
        <path id="Trazado_725280" data-name="Trazado 725280" d="M242.9,318.086a6.2,6.2,0,0,1-6.2-6.2V303.2a6.2,6.2,0,0,1,12.4,0,1.861,1.861,0,1,1-3.721,0,2.481,2.481,0,1,0-4.961,0v8.682a2.481,2.481,0,0,0,4.961,0,1.861,1.861,0,1,1,3.721,0A6.2,6.2,0,0,1,242.9,318.086Z" transform="translate(-179.475 -227.367)"/>
        <path id="Trazado_725281" data-name="Trazado 725281" d="M312.9,318.086a6.2,6.2,0,0,1-6.2-6.2V303.2a6.2,6.2,0,0,1,12.4,0v8.682A6.2,6.2,0,0,1,312.9,318.086Zm0-17.365a2.488,2.488,0,0,0-2.481,2.481v8.682a2.481,2.481,0,0,0,4.961,0V303.2A2.488,2.488,0,0,0,312.9,300.721Z" transform="translate(-232.11 -227.367)"/>
        <path id="Trazado_725282" data-name="Trazado 725282" d="M386,318.011h-4.44a4.859,4.859,0,0,1-1.91-9.327l2.878-1.24a4.718,4.718,0,0,0,2.853-4.341,2.481,2.481,0,0,0-4.961,0,1.861,1.861,0,1,1-3.721,0,6.2,6.2,0,0,1,12.4,0,8.461,8.461,0,0,1-5.11,7.765l-2.878,1.24a1.136,1.136,0,0,0,.447,2.183H386a1.861,1.861,0,0,1,0,3.721Z" transform="translate(-284.745 -227.292)"/>
      </g>
    </g>
  </g>
</svg>
