<?xml version="1.0" encoding="UTF-8" standalone="no"?>
<!DOCTYPE svg PUBLIC "-//W3C//DTD SVG 1.1//EN" "http://www.w3.org/Graphics/SVG/1.1/DTD/svg11.dtd">
<svg width="100%" height="100%" viewBox="0 0 59 67" version="1.1" xmlns="http://www.w3.org/2000/svg" xmlns:xlink="http://www.w3.org/1999/xlink" xml:space="preserve" xmlns:serif="http://www.serif.com/" style="fill-rule:evenodd;clip-rule:evenodd;stroke-linejoin:round;stroke-miterlimit:2;">
    <g transform="matrix(1,0,0,1,-3911.57,-20430)">
        <g transform="matrix(1,0,0,1,3600,13887)">
            <g transform="matrix(1,0,0,-1,306.785,6610.03)">
                <path d="M62.211,62.997L62.211,4.997C62.211,3.34 60.868,1.997 59.211,1.997L14.211,1.997C12.554,1.997 11.211,3.34 11.211,4.997L11.211,52.197L25.001,65.997L59.211,65.997C60.868,65.997 62.211,64.653 62.211,62.997Z" style="fill:white;fill-rule:nonzero;"/>
            </g>
            <g transform="matrix(1,0,0,-1,306.785,6610.03)">
                <path d="M62.209,62.997L62.209,4.997C62.209,3.337 60.869,1.997 59.209,1.997L14.209,1.997C12.549,1.997 11.209,3.337 11.209,4.997L11.209,8.097L11.369,8.007C66.439,6.387 49.789,65.997 49.789,65.997L59.209,65.997C60.869,65.997 62.209,64.656 62.209,62.997Z" style="fill:rgb(222,225,230);fill-rule:nonzero;"/>
            </g>
            <g transform="matrix(0,1,-1,0,333.787,6532.83)">
                <path d="M11.206,2.002L23.006,2.002C24.11,2.002 25.006,2.897 25.006,4.002L25.006,15.792L11.206,2.002Z" style="fill:rgb(222,225,230);fill-rule:nonzero;"/>
            </g>
            <g transform="matrix(1,0,0,-1,306.785,6625.06)">
                <path d="M44.807,48.757L44.807,31.757C44.807,30.657 43.917,29.757 42.807,29.757L8.787,29.757C7.127,29.757 5.787,31.097 5.787,32.757L5.787,53.267L5.837,53.247C5.937,52.627 6.237,52.067 6.667,51.637C7.207,51.097 7.957,50.757 8.787,50.757L42.807,50.757C43.917,50.757 44.807,49.867 44.807,48.757Z" style="fill:rgb(255,126,126);fill-rule:nonzero;"/>
            </g>
            <g transform="matrix(1,0,0,-1,306.785,6627.57)">
                <path d="M44.809,51.267L44.809,34.267C44.809,33.167 43.919,32.267 42.809,32.267L8.779,32.267C7.129,32.267 5.779,33.607 5.779,35.267L5.779,36.917C39.229,34.517 40.649,53.267 40.649,53.267L42.809,53.267C43.919,53.267 44.809,52.377 44.809,51.267Z" style="fill:rgb(239,61,61);fill-rule:nonzero;"/>
            </g>
            <g transform="matrix(1,0,0,-1,306.785,6600.55)">
                <path d="M11.207,32.267L11.207,26.247L8.787,26.247C7.957,26.247 7.207,26.587 6.667,27.127C6.127,27.677 5.787,28.427 5.787,29.257C5.787,30.917 7.127,32.267 8.787,32.267L11.207,32.267Z" style="fill:rgb(239,61,61);fill-rule:nonzero;"/>
            </g>
            <g transform="matrix(1,0,0,-1,306.785,6610.03)">
                <path d="M59.215,66.99L25.005,66.99C24.745,67 24.485,66.9 24.295,66.7L10.505,52.9C10.315,52.71 10.215,52.45 10.215,52.19L10.215,42.74L8.785,42.74C6.585,42.74 4.785,40.94 4.785,38.73L4.785,17.73C4.785,15.52 6.575,13.73 8.785,13.73L10.215,13.73L10.215,4.99C10.215,2.79 12.005,0.99 14.215,0.99L59.215,0.99C61.415,0.99 63.215,2.79 63.215,4.99L63.215,62.99C63.215,65.2 61.415,66.99 59.215,66.99L59.215,66.99ZM24.005,63.58L24.005,54.19C24.005,53.64 23.555,53.19 23.005,53.19L13.625,53.19L24.005,63.58ZM8.785,40.74L10.205,40.74C10.205,40.552 10.205,36.55 10.205,36.72L8.785,36.72C7.427,36.72 6.604,38.1 6.795,38.87C6.865,39.92 7.735,40.74 8.785,40.74ZM8.785,15.73C7.675,15.73 6.785,16.62 6.785,17.73L6.785,35.27C7.385,34.91 8.075,34.72 8.785,34.72C59.289,34.735 33.729,34.727 42.815,34.73C43.365,34.73 43.815,34.28 43.815,33.73L43.815,16.73C43.815,16.17 43.365,15.73 42.815,15.73L8.785,15.73L8.785,15.73ZM61.215,4.99C61.215,3.89 60.315,2.99 59.215,2.99L14.215,2.99C13.105,2.99 12.215,3.89 12.215,4.99L12.215,13.73L42.815,13.73C44.465,13.73 45.815,15.07 45.815,16.73L45.815,33.73C45.815,35.38 44.465,36.73 42.815,36.73L12.215,36.73L12.215,51.19L23.005,51.19C24.655,51.19 26.005,52.54 26.005,54.19L26.005,64.99L59.215,64.99C60.315,64.99 61.215,64.1 61.215,62.99L61.215,4.99Z" style="fill-rule:nonzero;"/>
            </g>
            <g transform="matrix(1,0,0,-1,306.785,6627.33)">
                <path d="M19.899,43.854C19.899,41.631 18.476,40.914 16.263,40.914L14.775,40.914L14.775,38.454L13.359,38.454L13.359,46.842L16.239,46.842C18.482,46.842 19.899,46.115 19.899,43.854L19.899,43.854ZM18.447,43.968C18.447,45.272 17.528,45.558 16.215,45.558L14.775,45.558L14.775,42.198L16.419,42.198C17.771,42.198 18.447,42.615 18.447,43.968Z" style="fill:white;fill-rule:nonzero;"/>
            </g>
            <g transform="matrix(1,0,0,-1,306.785,6627.33)">
                <path d="M29.127,42.69C29.127,40.078 27.578,38.454 24.351,38.454L21.567,38.454L21.567,46.842L24.447,46.842C27.299,46.842 29.127,45.437 29.127,42.69L29.127,42.69ZM27.699,42.654C27.699,44.574 26.599,45.534 24.399,45.534L22.983,45.534L22.983,39.786L24.555,39.786C26.533,39.786 27.699,40.715 27.699,42.654L27.699,42.654Z" style="fill:white;fill-rule:nonzero;"/>
            </g>
            <g transform="matrix(1,0,0,-1,306.785,6627.33)">
                <path d="M32.367,45.522L32.367,43.218L36.086,43.218L36.086,41.91L32.367,41.91L32.367,38.454L30.951,38.454L30.951,46.842L36.543,46.842L36.531,45.522L32.367,45.522Z" style="fill:white;fill-rule:nonzero;"/>
            </g>
        </g>
    </g>
</svg>
