<svg xmlns="http://www.w3.org/2000/svg" xmlns:xlink="http://www.w3.org/1999/xlink" width="610" height="372" viewBox="0 0 610 372">
  <defs>
    <clipPath id="clip-path">
      <path id="path627" d="M0-682.665H87.894v87.894H0Z" transform="translate(0 682.665)"/>
    </clipPath>
  </defs>
  <g id="_2" data-name="2" transform="translate(-495 -2476)">
    <g id="Trazado_725446" data-name="Trazado 725446" transform="translate(495 2476)" fill="#0e494d">
      <path d="M 590 371.5 L 20 371.5 C 17.36730766296387 371.5 14.8136157989502 370.9844665527344 12.40984630584717 369.9677734375 C 10.08792304992676 368.9856872558594 8.002461433410645 367.5796203613281 6.211384773254395 365.7886047363281 C 4.420384407043457 363.9975280761719 3.014307737350464 361.9120788574219 2.032230854034424 359.5901489257812 C 1.015538454055786 357.1863708496094 0.5 354.6326904296875 0.5 352 L 0.5 20 C 0.5 17.36730766296387 1.015538454055786 14.8136157989502 2.032230854034424 12.40984630584717 C 3.014307737350464 10.08792304992676 4.420384407043457 8.002461433410645 6.211384773254395 6.211384773254395 C 8.002461433410645 4.420384407043457 10.08792304992676 3.014307737350464 12.40984630584717 2.032230854034424 C 14.8136157989502 1.015538454055786 17.36730766296387 0.5 20 0.5 L 590 0.5 C 592.6326904296875 0.5 595.1864013671875 1.015538454055786 597.5901489257812 2.032230854034424 C 599.9120483398438 3.014307737350464 601.99755859375 4.420384407043457 603.7886352539062 6.211384773254395 C 605.57958984375 8.002461433410645 606.9857177734375 10.08792304992676 607.9677734375 12.40984630584717 C 608.9844360351562 14.8136157989502 609.5 17.36730766296387 609.5 20 L 609.5 352 C 609.5 354.6326904296875 608.9844360351562 357.1863708496094 607.9677734375 359.5901489257812 C 606.9857177734375 361.9120788574219 605.57958984375 363.9975280761719 603.7886352539062 365.7886047363281 C 601.99755859375 367.5796203613281 599.9120483398438 368.9856872558594 597.5901489257812 369.9677734375 C 595.1864013671875 370.9844665527344 592.6326904296875 371.5 590 371.5 Z" stroke="none"/>
      <path d="M 20 1 C 17.43450927734375 1 14.9464111328125 1.502227783203125 12.6046142578125 2.492706298828125 C 10.34222412109375 3.449615478515625 8.31024169921875 4.8197021484375 6.56500244140625 6.56500244140625 C 4.8197021484375 8.31024169921875 3.4495849609375 10.34222412109375 2.49267578125 12.6046142578125 C 1.50225830078125 14.94638061523438 1 17.43453979492188 1 20 L 1 352 C 1 354.5654602050781 1.50225830078125 357.0536193847656 2.49267578125 359.3953857421875 C 3.4495849609375 361.6577758789062 4.8197021484375 363.6897583007812 6.56500244140625 365.4349975585938 C 8.31024169921875 367.1802978515625 10.34222412109375 368.5503845214844 12.6046142578125 369.5072937011719 C 14.9464111328125 370.4977722167969 17.43450927734375 371 20 371 L 590 371 C 592.5654907226562 371 595.0535888671875 370.4977722167969 597.3953857421875 369.5072937011719 C 599.6577758789062 368.5503845214844 601.6897583007812 367.1802978515625 603.4349975585938 365.4349975585938 C 605.1802978515625 363.6897583007812 606.5504150390625 361.6577758789062 607.50732421875 359.3953857421875 C 608.4977416992188 357.0536193847656 609 354.5654602050781 609 352 L 609 20 C 609 17.43453979492188 608.4977416992188 14.94638061523438 607.50732421875 12.6046142578125 C 606.5504150390625 10.34222412109375 605.1802978515625 8.31024169921875 603.4349975585938 6.56500244140625 C 601.6897583007812 4.8197021484375 599.6577758789062 3.449615478515625 597.3953857421875 2.492706298828125 C 595.0535888671875 1.502227783203125 592.5654907226562 1 590 1 L 20 1 M 20 0 L 590 0 C 601.0457153320312 0 610 8.954315185546875 610 20 L 610 352 C 610 363.0456848144531 601.0457153320312 372 590 372 L 20 372 C 8.95428466796875 372 0 363.0456848144531 0 352 L 0 20 C 0 8.954315185546875 8.95428466796875 0 20 0 Z" stroke="none" fill="#707070"/>
    </g>
    <path id="Trazado_725447" data-name="Trazado 725447" d="M115,0A115,115,0,1,1,0,115,115,115,0,0,1,115,0Z" transform="translate(685 2580)" fill="#d3ede5"/>
    <path id="Trazado_725450" data-name="Trazado 725450" d="M-57.979-4.814a5.193,5.193,0,0,1-.8,2.622A4.833,4.833,0,0,1-60.835-.43,7,7,0,0,1-63.857.2a5.584,5.584,0,0,1-4.414-1.826,7.54,7.54,0,0,1-1.611-5.156v-.7a8.607,8.607,0,0,1,.728-3.657,5.513,5.513,0,0,1,2.095-2.422,5.844,5.844,0,0,1,3.164-.854,6.129,6.129,0,0,1,4.16,1.362,5.383,5.383,0,0,1,1.787,3.755h-3.418a2.547,2.547,0,0,0-.654-1.865,2.691,2.691,0,0,0-1.875-.566,2.048,2.048,0,0,0-1.875.957A6.151,6.151,0,0,0-66.4-7.725v1.006a6.806,6.806,0,0,0,.571,3.252,2.091,2.091,0,0,0,1.968.977,2.632,2.632,0,0,0,1.807-.557,2.363,2.363,0,0,0,.664-1.768Zm1.055-.566A6.236,6.236,0,0,1-56.309-8.2a4.4,4.4,0,0,1,1.768-1.9,5.323,5.323,0,0,1,2.705-.664,4.858,4.858,0,0,1,3.74,1.47,5.64,5.64,0,0,1,1.367,4v.117A5.472,5.472,0,0,1-48.1-1.255,4.871,4.871,0,0,1-51.816.2a4.927,4.927,0,0,1-3.623-1.353,5.29,5.29,0,0,1-1.475-3.667Zm3.291.205a3.932,3.932,0,0,0,.459,2.148,1.529,1.529,0,0,0,1.357.684q1.758,0,1.8-2.705v-.332q0-2.842-1.816-2.842-1.65,0-1.787,2.451Zm11.377-5.391.107,1.24a3.583,3.583,0,0,1,3.018-1.436,3.015,3.015,0,0,1,2.466.986,4.7,4.7,0,0,1,.845,2.969V0h-3.3V-6.67a1.783,1.783,0,0,0-.322-1.177,1.491,1.491,0,0,0-1.172-.376,1.569,1.569,0,0,0-1.436.762V0h-3.291V-10.566Zm12.09-2.627v2.627h1.738v2.285h-1.738v4.834a1.234,1.234,0,0,0,.215.83,1.152,1.152,0,0,0,.85.234,4.828,4.828,0,0,0,.82-.059V-.088A6.074,6.074,0,0,1-30.137.2a3.448,3.448,0,0,1-2.51-.8,3.282,3.282,0,0,1-.811-2.432V-8.281H-34.8v-2.285h1.348v-2.627ZM-21.182,0a3.716,3.716,0,0,1-.312-.947A3.06,3.06,0,0,1-24.033.2a3.749,3.749,0,0,1-2.539-.9,2.875,2.875,0,0,1-1.045-2.271,2.955,2.955,0,0,1,1.27-2.6,6.468,6.468,0,0,1,3.691-.879h1.016v-.557q0-1.455-1.26-1.455a1.027,1.027,0,0,0-1.172,1.152h-3.291a2.955,2.955,0,0,1,1.3-2.49,5.474,5.474,0,0,1,3.325-.957,4.8,4.8,0,0,1,3.193.986,3.429,3.429,0,0,1,1.2,2.705v4.678a4.79,4.79,0,0,0,.449,2.227V0Zm-2.061-2.148a1.836,1.836,0,0,0,1.021-.264,1.653,1.653,0,0,0,.581-.6V-4.7H-22.6q-1.719,0-1.719,1.543a.942.942,0,0,0,.3.728A1.1,1.1,0,0,0-23.242-2.148Zm9.834-8.418.107,1.24a3.633,3.633,0,0,1,3.018-1.436A2.675,2.675,0,0,1-7.578-9.17a3.517,3.517,0,0,1,3.105-1.592q3.213,0,3.3,3.887V0h-3.3V-6.67a2.014,2.014,0,0,0-.273-1.182,1.164,1.164,0,0,0-1-.371A1.559,1.559,0,0,0-7.2-7.354l.01.137V0h-3.3V-6.65a2.117,2.117,0,0,0-.264-1.2,1.161,1.161,0,0,0-1.006-.371,1.578,1.578,0,0,0-1.445.869V0h-3.291V-10.566ZM4.18,0H.879V-10.566h3.3ZM.684-13.291a1.469,1.469,0,0,1,.508-1.152,1.916,1.916,0,0,1,1.318-.449,1.916,1.916,0,0,1,1.318.449,1.469,1.469,0,0,1,.508,1.152,1.469,1.469,0,0,1-.508,1.152,1.916,1.916,0,0,1-1.318.449,1.916,1.916,0,0,1-1.318-.449A1.469,1.469,0,0,1,.684-13.291Zm8.545,2.725.107,1.24a3.583,3.583,0,0,1,3.018-1.436,3.015,3.015,0,0,1,2.466.986,4.7,4.7,0,0,1,.845,2.969V0h-3.3V-6.67a1.783,1.783,0,0,0-.322-1.177,1.491,1.491,0,0,0-1.172-.376,1.569,1.569,0,0,0-1.436.762V0H6.143V-10.566ZM23.438,0a3.716,3.716,0,0,1-.312-.947A3.06,3.06,0,0,1,20.586.2a3.749,3.749,0,0,1-2.539-.9A2.875,2.875,0,0,1,17-2.979a2.955,2.955,0,0,1,1.27-2.6,6.468,6.468,0,0,1,3.691-.879h1.016v-.557q0-1.455-1.26-1.455a1.027,1.027,0,0,0-1.172,1.152H17.256a2.955,2.955,0,0,1,1.3-2.49,5.474,5.474,0,0,1,3.325-.957,4.8,4.8,0,0,1,3.193.986,3.429,3.429,0,0,1,1.2,2.705v4.678a4.79,4.79,0,0,0,.449,2.227V0ZM21.377-2.148A1.836,1.836,0,0,0,22.4-2.412a1.653,1.653,0,0,0,.581-.6V-4.7h-.957Q20.3-4.7,20.3-3.154a.942.942,0,0,0,.3.728A1.1,1.1,0,0,0,21.377-2.148Zm11.191-.2a1.464,1.464,0,0,0,1.074-.376,1.379,1.379,0,0,0,.371-1.05H37.1A3.653,3.653,0,0,1,35.854-.918,4.631,4.631,0,0,1,32.646.2,4.689,4.689,0,0,1,29.014-1.25a5.7,5.7,0,0,1-1.328-4v-.137a6.436,6.436,0,0,1,.591-2.827,4.3,4.3,0,0,1,1.7-1.885,5.081,5.081,0,0,1,2.637-.659,4.573,4.573,0,0,1,3.271,1.143,4.053,4.053,0,0,1,1.211,3.1H34.014a1.807,1.807,0,0,0-.4-1.26,1.382,1.382,0,0,0-1.074-.439q-1.279,0-1.494,1.631a11.508,11.508,0,0,0-.068,1.426,4.52,4.52,0,0,0,.381,2.207A1.319,1.319,0,0,0,32.568-2.344ZM41.963,0h-3.3V-10.566h3.3Zm-3.5-13.291a1.469,1.469,0,0,1,.508-1.152,1.916,1.916,0,0,1,1.318-.449,1.916,1.916,0,0,1,1.318.449,1.469,1.469,0,0,1,.508,1.152,1.469,1.469,0,0,1-.508,1.152,1.916,1.916,0,0,1-1.318.449,1.916,1.916,0,0,1-1.318-.449A1.469,1.469,0,0,1,38.467-13.291Zm5.107,7.91A6.236,6.236,0,0,1,44.189-8.2a4.4,4.4,0,0,1,1.768-1.9,5.323,5.323,0,0,1,2.705-.664,4.858,4.858,0,0,1,3.74,1.47,5.64,5.64,0,0,1,1.367,4v.117A5.472,5.472,0,0,1,52.4-1.255,4.871,4.871,0,0,1,48.682.2a4.927,4.927,0,0,1-3.623-1.353,5.29,5.29,0,0,1-1.475-3.667Zm3.291.205a3.932,3.932,0,0,0,.459,2.148,1.529,1.529,0,0,0,1.357.684q1.758,0,1.8-2.705v-.332q0-2.842-1.816-2.842-1.65,0-1.787,2.451ZM49.111-15h3.477l-2.715,3.066H47.188Zm9.131,4.434.107,1.24a3.583,3.583,0,0,1,3.018-1.436,3.015,3.015,0,0,1,2.466.986,4.7,4.7,0,0,1,.845,2.969V0h-3.3V-6.67a1.783,1.783,0,0,0-.322-1.177,1.491,1.491,0,0,0-1.172-.376,1.569,1.569,0,0,0-1.436.762V0H55.156V-10.566ZM-46.353,25.344h-4.7L-51.87,28h-3.662l5.215-14.219h3.223L-41.841,28h-3.682ZM-50.229,22.7h3.057l-1.533-4.932Zm12.939-7.891v2.627h1.738v2.285H-37.29v4.834a1.234,1.234,0,0,0,.215.83,1.152,1.152,0,0,0,.85.234,4.828,4.828,0,0,0,.82-.059v2.354a6.074,6.074,0,0,1-1.855.283,3.448,3.448,0,0,1-2.51-.8,3.282,3.282,0,0,1-.811-2.432V19.719h-1.348V17.434h1.348V14.807Zm6.143,2.627.107,1.24a3.633,3.633,0,0,1,3.018-1.436,2.675,2.675,0,0,1,2.705,1.592,3.517,3.517,0,0,1,3.105-1.592q3.213,0,3.3,3.887V28h-3.3V21.33a2.014,2.014,0,0,0-.273-1.182,1.164,1.164,0,0,0-1-.371,1.559,1.559,0,0,0-1.455.869l.01.137V28h-3.3V21.35a2.117,2.117,0,0,0-.264-1.2,1.161,1.161,0,0,0-1.006-.371,1.578,1.578,0,0,0-1.445.869V28h-3.291V17.434Zm13.7,5.186a6.236,6.236,0,0,1,.615-2.817,4.4,4.4,0,0,1,1.768-1.9,5.323,5.323,0,0,1,2.705-.664,4.858,4.858,0,0,1,3.74,1.47,5.64,5.64,0,0,1,1.367,4v.117a5.472,5.472,0,0,1-1.372,3.921,4.871,4.871,0,0,1-3.716,1.45,4.927,4.927,0,0,1-3.623-1.353,5.29,5.29,0,0,1-1.475-3.667Zm3.291.205a3.932,3.932,0,0,0,.459,2.148,1.529,1.529,0,0,0,1.357.684q1.758,0,1.8-2.705v-.332q0-2.842-1.816-2.842-1.65,0-1.787,2.451ZM-.269,25.031a.76.76,0,0,0-.439-.674,6.684,6.684,0,0,0-1.67-.527,7.615,7.615,0,0,1-2.031-.718A3.4,3.4,0,0,1-5.63,22.033a2.577,2.577,0,0,1-.42-1.455,2.92,2.92,0,0,1,1.2-2.4A4.948,4.948,0,0,1-1.7,17.238a5.482,5.482,0,0,1,3.359.947,2.962,2.962,0,0,1,1.27,2.49h-3.3q0-1.27-1.338-1.27a1.326,1.326,0,0,0-.869.288.892.892,0,0,0-.352.718.819.819,0,0,0,.43.713,4.06,4.06,0,0,0,1.372.449,11.857,11.857,0,0,1,1.655.42,3.007,3.007,0,0,1,2.383,2.939,2.767,2.767,0,0,1-1.284,2.354A5.632,5.632,0,0,1-1.7,28.2a5.747,5.747,0,0,1-2.422-.488,4.05,4.05,0,0,1-1.66-1.328,3.007,3.007,0,0,1-.6-1.768h3.076a1.272,1.272,0,0,0,.488,1.069,2.009,2.009,0,0,0,1.2.337,1.58,1.58,0,0,0,1.011-.273A.875.875,0,0,0-.269,25.031ZM5.171,28V19.719H3.638V17.434H5.171v-.84a3.651,3.651,0,0,1,1.064-2.8,4.206,4.206,0,0,1,2.988-1A6.544,6.544,0,0,1,10.767,13l.01,2.422a3.007,3.007,0,0,0-.811-.088q-1.494,0-1.494,1.289v.811h2.061v2.285H8.472V28Zm11.4.2a5.432,5.432,0,0,1-3.936-1.45,5.008,5.008,0,0,1-1.5-3.774V22.7a6.489,6.489,0,0,1,.6-2.861,4.395,4.395,0,0,1,1.753-1.919,5.292,5.292,0,0,1,2.734-.679,4.574,4.574,0,0,1,3.516,1.382,5.43,5.43,0,0,1,1.289,3.853v1.279H14.478a2.372,2.372,0,0,0,.771,1.4,2.3,2.3,0,0,0,1.543.508,2.958,2.958,0,0,0,2.441-1.094l1.5,1.777a4.2,4.2,0,0,1-1.743,1.353A5.891,5.891,0,0,1,16.567,28.2ZM16.2,19.777q-1.445,0-1.719,1.914H17.8v-.254a1.63,1.63,0,0,0-.4-1.226A1.593,1.593,0,0,0,16.2,19.777Zm-.039-6.787h3.477l-2.715,3.066H14.233Zm12.578,7.422-1.084-.078a1.947,1.947,0,0,0-1.992.977V28H22.368V17.434h3.086l.107,1.357a2.548,2.548,0,0,1,2.314-1.553,3.209,3.209,0,0,1,.918.117ZM33.394,28h-3.3V17.434h3.3ZM29.9,14.709a1.469,1.469,0,0,1,.508-1.152,2.159,2.159,0,0,1,2.637,0,1.561,1.561,0,0,1,0,2.3,2.159,2.159,0,0,1-2.637,0A1.469,1.469,0,0,1,29.9,14.709Zm9.99,10.947a1.464,1.464,0,0,0,1.074-.376,1.379,1.379,0,0,0,.371-1.05h3.086a3.653,3.653,0,0,1-1.245,2.852A4.631,4.631,0,0,1,39.966,28.2a4.689,4.689,0,0,1-3.633-1.445,5.7,5.7,0,0,1-1.328-4v-.137a6.436,6.436,0,0,1,.591-2.827A4.3,4.3,0,0,1,37.3,17.9a5.081,5.081,0,0,1,2.637-.659,4.573,4.573,0,0,1,3.271,1.143,4.053,4.053,0,0,1,1.211,3.1H41.333a1.807,1.807,0,0,0-.4-1.26,1.382,1.382,0,0,0-1.074-.439q-1.279,0-1.494,1.631a11.507,11.507,0,0,0-.068,1.426,4.52,4.52,0,0,0,.381,2.207A1.319,1.319,0,0,0,39.888,25.656ZM51.763,28a3.716,3.716,0,0,1-.312-.947A3.06,3.06,0,0,1,48.911,28.2a3.749,3.749,0,0,1-2.539-.9,2.875,2.875,0,0,1-1.045-2.271,2.955,2.955,0,0,1,1.27-2.6,6.468,6.468,0,0,1,3.691-.879H51.3v-.557q0-1.455-1.26-1.455a1.027,1.027,0,0,0-1.172,1.152H45.581a2.955,2.955,0,0,1,1.3-2.49,5.474,5.474,0,0,1,3.325-.957,4.8,4.8,0,0,1,3.193.986,3.429,3.429,0,0,1,1.2,2.705v4.678a4.79,4.79,0,0,0,.449,2.227V28ZM49.7,25.852a1.836,1.836,0,0,0,1.021-.264,1.653,1.653,0,0,0,.581-.6V23.3h-.957q-1.719,0-1.719,1.543a.942.942,0,0,0,.3.728A1.1,1.1,0,0,0,49.7,25.852Z" transform="translate(800 2645.92)" fill="#12263f"/>
    <g id="Trazado_725448" data-name="Trazado 725448" transform="translate(749 2507)" fill="#fff">
      <path d="M 52.5 104 C 45.54710006713867 104 38.80271530151367 102.6384887695312 32.45418548583984 99.95328521728516 C 26.32171440124512 97.35947418212891 20.81399917602539 93.64600372314453 16.08399963378906 88.91600036621094 C 11.35401439666748 84.18601226806641 7.640528678894043 78.67828369140625 5.046714305877686 72.54581451416016 C 2.361514329910278 66.19728851318359 1 59.45289993286133 1 52.5 C 1 45.54710006713867 2.361514329910278 38.80271530151367 5.046714305877686 32.45418548583984 C 7.640528678894043 26.32172775268555 11.35401439666748 20.81399917602539 16.08399963378906 16.08399963378906 C 20.81399917602539 11.35401439666748 26.32172775268555 7.640528678894043 32.45418548583984 5.046714305877686 C 38.80271530151367 2.361514329910278 45.54710006713867 1 52.5 1 C 59.45289993286133 1 66.19728851318359 2.361514329910278 72.54581451416016 5.046714305877686 C 78.67828369140625 7.640528678894043 84.18601226806641 11.35401439666748 88.91600036621094 16.08399963378906 C 93.64600372314453 20.81399917602539 97.35947418212891 26.32171440124512 99.95328521728516 32.45418548583984 C 102.6384887695312 38.80271530151367 104 45.54710006713867 104 52.5 C 104 59.45289993286133 102.6384887695312 66.19728851318359 99.95328521728516 72.54581451416016 C 97.35947418212891 78.67828369140625 93.64600372314453 84.18601226806641 88.91600036621094 88.91600036621094 C 84.18601226806641 93.64600372314453 78.67828369140625 97.35947418212891 72.54581451416016 99.95328521728516 C 66.19728851318359 102.6384887695312 59.45289993286133 104 52.5 104 Z" stroke="none"/>
      <path d="M 52.5 2 C 45.68165969848633 2 39.06833648681641 3.334938049316406 32.84373474121094 5.967720031738281 C 26.83045959472656 8.5111083984375 21.42958831787109 12.15263366699219 16.79110717773438 16.79110717773438 C 12.15263366699219 21.42958831787109 8.5111083984375 26.83045959472656 5.967720031738281 32.84373474121094 C 3.334938049316406 39.06833648681641 2 45.68165969848633 2 52.5 C 2 59.31834030151367 3.334938049316406 65.93165588378906 5.967720031738281 72.15626525878906 C 8.5111083984375 78.16954040527344 12.15263366699219 83.57041931152344 16.79110717773438 88.20889282226562 C 21.42958831787109 92.84736633300781 26.83045959472656 96.4888916015625 32.84373474121094 99.03227996826172 C 39.06833648681641 101.6650619506836 45.68165969848633 103 52.5 103 C 59.31834030151367 103 65.93165588378906 101.6650619506836 72.15626525878906 99.03227996826172 C 78.16954040527344 96.4888916015625 83.57041931152344 92.84736633300781 88.20889282226562 88.20889282226562 C 92.84736633300781 83.57041931152344 96.4888916015625 78.16954040527344 99.03227996826172 72.15626525878906 C 101.6650619506836 65.93165588378906 103 59.31834030151367 103 52.5 C 103 45.68165969848633 101.6650619506836 39.06833648681641 99.03227996826172 32.84373474121094 C 96.4888916015625 26.83045959472656 92.84736633300781 21.42958831787109 88.20889282226562 16.79110717773438 C 83.57041931152344 12.15263366699219 78.16954040527344 8.5111083984375 72.15626525878906 5.967720031738281 C 65.93165588378906 3.334938049316406 59.31834030151367 2 52.5 2 M 52.5 0 C 81.49494934082031 0 105 23.50504302978516 105 52.5 C 105 81.49494934082031 81.49494934082031 105 52.5 105 C 23.50504302978516 105 0 81.49494934082031 0 52.5 C 0 23.50504302978516 23.50504302978516 0 52.5 0 Z" stroke="none" fill="#0e494d"/>
    </g>
    <g id="Layer_65" transform="translate(749.534 2690.92)">
      <g id="Grupo_957822" data-name="Grupo 957822" transform="translate(25.289)">
        <g id="Grupo_957787" data-name="Grupo 957787" transform="translate(0.977 43.365)">
          <g id="Grupo_957786" data-name="Grupo 957786">
            <path id="Trazado_725347" data-name="Trazado 725347" d="M49.468,176.055H47.508a1.891,1.891,0,0,1,0-3.782h1.959a3.986,3.986,0,0,0,0-7.973H30.8a1.891,1.891,0,1,1,0-3.782H49.467a7.769,7.769,0,0,1,0,15.537Z" transform="translate(-28.904 -160.518)" fill="#cbeff7"/>
          </g>
        </g>
        <g id="Grupo_957789" data-name="Grupo 957789" transform="translate(0.675 33.118)">
          <g id="Grupo_957788" data-name="Grupo 957788">
            <path id="Trazado_725348" data-name="Trazado 725348" d="M66.6,138.124H64.642a1.891,1.891,0,1,1,0-3.782H66.6a3.986,3.986,0,1,0,0-7.972H29.68a1.891,1.891,0,1,1,0-3.782H66.6a7.768,7.768,0,1,1,0,15.537Z" transform="translate(-27.789 -122.587)" fill="#9be5f9"/>
          </g>
        </g>
        <g id="Grupo_957790" data-name="Grupo 957790" transform="translate(30.585 4.458)">
          <circle id="Elipse_6721" data-name="Elipse 6721" cx="11.887" cy="11.887" r="11.887" fill="#87d147"/>
        </g>
        <g id="Grupo_957791" data-name="Grupo 957791" transform="translate(24.293 10.663)">
          <path id="Trazado_725349" data-name="Trazado 725349" d="M117.1,43.253h1.959a3.965,3.965,0,0,1,2.488.877,11.807,11.807,0,0,1,.991-3.834,7.717,7.717,0,0,0-3.479-.826H117.1a1.891,1.891,0,0,0,0,3.782Z" transform="translate(-115.212 -39.471)" fill="#70d6f9"/>
        </g>
        <g id="Grupo_957792" data-name="Grupo 957792" transform="translate(0.826 20.705)">
          <path id="Trazado_725350" data-name="Trazado 725350" d="M58.934,76.639a3.982,3.982,0,0,1-3.27,1.714H30.238a1.891,1.891,0,0,0,0,3.782H55.664a7.738,7.738,0,0,0,5.315-2.111A11.879,11.879,0,0,1,58.934,76.639Z" transform="translate(-28.347 -76.639)" fill="#70d6f9"/>
        </g>
        <g id="Grupo_957794" data-name="Grupo 957794" transform="translate(35.736 12.542)">
          <g id="Grupo_957793" data-name="Grupo 957793">
            <path id="Trazado_725351" data-name="Trazado 725351" d="M163.362,55.844a1.89,1.89,0,0,1-1.337-.554l-3.9-3.9a1.891,1.891,0,0,1,2.675-2.674l2.564,2.565,4.3-4.3a1.891,1.891,0,0,1,2.675,2.675L164.7,55.29A1.892,1.892,0,0,1,163.362,55.844Z" transform="translate(-157.569 -46.426)" fill="#edf4fc"/>
          </g>
        </g>
        <g id="Grupo_957795" data-name="Grupo 957795" transform="translate(58.857 31.345)">
          <path id="Trazado_725352" data-name="Trazado 725352" d="M246.6,117.693a2.106,2.106,0,0,1-1.675-1.648c0-.027-.081-.027-.081,0a2.106,2.106,0,0,1-1.675,1.648c-.027,0-.027.054,0,.081a2.106,2.106,0,0,1,1.675,1.648c0,.027.081.027.081,0a2.106,2.106,0,0,1,1.675-1.648C246.628,117.747,246.628,117.693,246.6,117.693Z" transform="translate(-243.15 -116.025)" fill="#87d147"/>
        </g>
        <g id="Grupo_957796" data-name="Grupo 957796" transform="translate(54.442 48.79)">
          <path id="Trazado_725353" data-name="Trazado 725353" d="M227.674,183.815h.621v.621a.853.853,0,0,0,.864.865.865.865,0,0,0,.865-.837v-.648h.621a.853.853,0,0,0,.865-.865.865.865,0,0,0-.837-.864h-.648v-.621a.853.853,0,0,0-.865-.865.865.865,0,0,0-.865.837v.648h-.621a.853.853,0,0,0-.865.865.837.837,0,0,0,.865.864h0Z" transform="translate(-226.808 -180.6)" fill="#70d6f9"/>
        </g>
        <g id="Grupo_957797" data-name="Grupo 957797" transform="translate(26.941 2.837)">
          <circle id="Elipse_6722" data-name="Elipse 6722" cx="0.919" cy="0.919" r="0.919" fill="#f5c84c"/>
        </g>
        <g id="Grupo_957798" data-name="Grupo 957798" transform="translate(2.262 55.477)">
          <path id="Trazado_725354" data-name="Trazado 725354" d="M33.7,207.741a3,3,0,0,0,2.4-2.35c0-.054.108-.054.108,0a3,3,0,0,0,2.4,2.35c.054,0,.054.081,0,.108a3,3,0,0,0-2.4,2.35c0,.054-.108.054-.108,0a3,3,0,0,0-2.4-2.35C33.649,207.822,33.649,207.741,33.7,207.741Z" transform="translate(-33.663 -205.35)" fill="#87d147"/>
        </g>
        <g id="Grupo_957800" data-name="Grupo 957800" transform="translate(0.301 42.69)">
          <g id="Grupo_957799" data-name="Grupo 957799">
            <path id="Trazado_725355" data-name="Trazado 725355" d="M47.643,174.906H45.684a2.566,2.566,0,1,1,0-5.133h1.959a3.311,3.311,0,0,0,0-6.622H28.97a2.566,2.566,0,1,1,0-5.133H47.643a8.444,8.444,0,0,1,0,16.888Zm-1.959-3.782a1.216,1.216,0,1,0,0,2.431h1.959a7.093,7.093,0,0,0,0-14.186H28.97a1.216,1.216,0,1,0,0,2.431H47.643a4.662,4.662,0,0,1,0,9.323Z" transform="translate(-26.404 -158.018)"/>
          </g>
        </g>
        <g id="Grupo_957802" data-name="Grupo 957802" transform="translate(0 32.442)">
          <g id="Grupo_957801" data-name="Grupo 957801">
            <path id="Trazado_725356" data-name="Trazado 725356" d="M64.777,136.975H62.818a2.566,2.566,0,0,1,0-5.133h1.959a3.311,3.311,0,1,0,0-6.622H27.855a2.566,2.566,0,0,1,0-5.133H64.777a8.444,8.444,0,1,1,0,16.888Zm-1.959-3.782a1.216,1.216,0,1,0,0,2.431h1.959a7.093,7.093,0,1,0,0-14.186H27.855a1.216,1.216,0,1,0,0,2.431H64.777a4.662,4.662,0,1,1,0,9.323Z" transform="translate(-25.289 -120.087)"/>
          </g>
        </g>
        <g id="Grupo_957809" data-name="Grupo 957809" transform="translate(2.857)">
          <g id="Grupo_957803" data-name="Grupo 957803" transform="translate(7.466)">
            <path id="Trazado_725357" data-name="Trazado 725357" d="M64.175,16.283a.675.675,0,0,1-.675-.675V.675a.675.675,0,1,1,1.351,0V15.607A.675.675,0,0,1,64.175,16.283Z" transform="translate(-63.5)"/>
          </g>
          <g id="Grupo_957804" data-name="Grupo 957804" transform="translate(4.533 1.244)">
            <path id="Trazado_725358" data-name="Trazado 725358" d="M56.252,8.889a.674.674,0,0,1-.478-.2L52.841,5.758A.675.675,0,0,1,53.8,4.8l2.455,2.455L58.707,4.8a.675.675,0,0,1,.955.955L56.729,8.691A.673.673,0,0,1,56.252,8.889Z" transform="translate(-52.643 -4.605)"/>
          </g>
          <g id="Grupo_957805" data-name="Grupo 957805" transform="translate(4.533 10.755)">
            <path id="Trazado_725359" data-name="Trazado 725359" d="M59.185,44.093a.674.674,0,0,1-.478-.2L56.252,41.44,53.8,43.9a.675.675,0,0,1-.955-.955l2.933-2.933a.675.675,0,0,1,.955,0l2.933,2.933a.675.675,0,0,1-.477,1.153Z" transform="translate(-52.644 -39.809)"/>
          </g>
          <g id="Grupo_957806" data-name="Grupo 957806" transform="translate(0 7.466)">
            <path id="Trazado_725360" data-name="Trazado 725360" d="M51.472,28.987H36.539a.675.675,0,0,1,0-1.351H51.471a.675.675,0,0,1,0,1.351Z" transform="translate(-35.864 -27.636)"/>
          </g>
          <g id="Grupo_957807" data-name="Grupo 957807" transform="translate(1.244 4.533)">
            <path id="Trazado_725361" data-name="Trazado 725361" d="M41.146,24a.675.675,0,0,1-.478-1.153l2.455-2.455-2.455-2.455a.675.675,0,0,1,.955-.955l2.933,2.933a.675.675,0,0,1,0,.955L41.623,23.8A.673.673,0,0,1,41.146,24Z" transform="translate(-40.47 -16.779)"/>
          </g>
          <g id="Grupo_957808" data-name="Grupo 957808" transform="translate(10.755 4.533)">
            <path id="Trazado_725362" data-name="Trazado 725362" d="M79.281,24a.674.674,0,0,1-.478-.2l-2.933-2.933a.675.675,0,0,1,0-.955L78.8,16.977a.675.675,0,0,1,.955.955L77.3,20.388l2.455,2.455A.675.675,0,0,1,79.281,24Z" transform="translate(-75.673 -16.779)"/>
          </g>
        </g>
        <g id="Grupo_957816" data-name="Grupo 957816" transform="translate(33.993 53.324)">
          <g id="Grupo_957810" data-name="Grupo 957810" transform="translate(7.243)">
            <path id="Trazado_725363" data-name="Trazado 725363" d="M178.6,213.217a.675.675,0,0,1-.675-.675V198.055a.675.675,0,0,1,1.351,0v14.486A.675.675,0,0,1,178.6,213.217Z" transform="translate(-177.926 -197.38)"/>
          </g>
          <g id="Grupo_957811" data-name="Grupo 957811" transform="translate(4.398 1.207)">
            <path id="Trazado_725364" data-name="Trazado 725364" d="M170.914,206.044a.674.674,0,0,1-.478-.2L167.591,203a.675.675,0,1,1,.955-.955l2.368,2.368,2.368-2.368a.675.675,0,1,1,.955.955l-2.845,2.845A.674.674,0,0,1,170.914,206.044Z" transform="translate(-167.393 -201.848)"/>
          </g>
          <g id="Grupo_957812" data-name="Grupo 957812" transform="translate(4.398 10.434)">
            <path id="Trazado_725365" data-name="Trazado 725365" d="M173.759,240.2a.674.674,0,0,1-.478-.2l-2.368-2.368L168.545,240a.675.675,0,1,1-.955-.955l2.845-2.845a.675.675,0,0,1,.955,0l2.845,2.845a.675.675,0,0,1-.477,1.153Z" transform="translate(-167.393 -236)"/>
          </g>
          <g id="Grupo_957813" data-name="Grupo 957813" transform="translate(0 7.243)">
            <path id="Trazado_725366" data-name="Trazado 725366" d="M166.276,225.54H151.79a.675.675,0,1,1,0-1.351h14.486a.675.675,0,0,1,0,1.351Z" transform="translate(-151.115 -224.189)"/>
          </g>
          <g id="Grupo_957814" data-name="Grupo 957814" transform="translate(1.207 4.398)">
            <path id="Trazado_725367" data-name="Trazado 725367" d="M156.259,220.7a.675.675,0,0,1-.478-1.153l2.368-2.368-2.368-2.368a.675.675,0,1,1,.955-.955l2.845,2.845a.676.676,0,0,1,0,.955l-2.845,2.845A.673.673,0,0,1,156.259,220.7Z" transform="translate(-155.583 -213.659)"/>
          </g>
          <g id="Grupo_957815" data-name="Grupo 957815" transform="translate(10.434 4.398)">
            <path id="Trazado_725368" data-name="Trazado 725368" d="M193.257,220.7a.674.674,0,0,1-.478-.2l-2.845-2.845a.676.676,0,0,1,0-.955l2.845-2.845a.675.675,0,0,1,.955.955l-2.368,2.368,2.368,2.368a.675.675,0,0,1-.477,1.153Z" transform="translate(-189.736 -213.658)"/>
          </g>
        </g>
        <g id="Grupo_957817" data-name="Grupo 957817" transform="translate(29.909 3.782)">
          <path id="Trazado_725369" data-name="Trazado 725369" d="M148.562,39.125a12.562,12.562,0,1,1,12.562-12.562A12.576,12.576,0,0,1,148.562,39.125Zm0-23.774a11.212,11.212,0,1,0,11.212,11.212A11.224,11.224,0,0,0,148.562,15.351Z" transform="translate(-136 -14)"/>
        </g>
        <g id="Grupo_957818" data-name="Grupo 957818" transform="translate(23.618 9.988)">
          <path id="Trazado_725370" data-name="Trazado 725370" d="M119.726,42.981a.674.674,0,0,1-.422-.149,3.271,3.271,0,0,0-2.066-.728h-1.959a2.566,2.566,0,0,1,0-5.133h1.959a8.341,8.341,0,0,1,3.782.9.676.676,0,0,1,.313.88,11.126,11.126,0,0,0-.934,3.614.675.675,0,0,1-.673.618Zm-4.447-4.659a1.216,1.216,0,0,0,0,2.431h1.959a4.658,4.658,0,0,1,1.952.432,12.447,12.447,0,0,1,.652-2.367,6.989,6.989,0,0,0-2.6-.5Z" transform="translate(-112.712 -36.971)"/>
        </g>
        <g id="Grupo_957819" data-name="Grupo 957819" transform="translate(0.151 20.029)">
          <path id="Trazado_725371" data-name="Trazado 725371" d="M53.84,80.986H28.413a2.566,2.566,0,1,1,0-5.133H53.84a3.316,3.316,0,0,0,2.716-1.424.675.675,0,0,1,1.182.138,11.178,11.178,0,0,0,1.929,3.192.675.675,0,0,1-.05.932,8.406,8.406,0,0,1-5.778,2.294ZM28.413,77.2a1.216,1.216,0,1,0,0,2.431H53.84a7.052,7.052,0,0,0,4.377-1.518,12.5,12.5,0,0,1-1.3-2.078A4.658,4.658,0,0,1,53.84,77.2H28.413Z" transform="translate(-25.847 -74.139)"/>
        </g>
        <g id="Grupo_957821" data-name="Grupo 957821" transform="translate(35.061 11.868)">
          <g id="Grupo_957820" data-name="Grupo 957820">
            <path id="Trazado_725372" data-name="Trazado 725372" d="M161.537,54.7a2.55,2.55,0,0,1-1.815-.752l-3.9-3.9a2.566,2.566,0,1,1,3.63-3.629l2.087,2.087,3.821-3.821a2.567,2.567,0,0,1,3.63,3.63l-5.636,5.636a2.552,2.552,0,0,1-1.815.752Zm-3.9-7.683a1.215,1.215,0,0,0-.86,2.075l3.9,3.9a1.216,1.216,0,0,0,1.72,0l5.636-5.636a1.216,1.216,0,1,0-1.72-1.719l-4.3,4.3a.7.7,0,0,1-.955,0L158.5,47.37a1.212,1.212,0,0,0-.86-.356Z" transform="translate(-155.069 -43.93)"/>
          </g>
        </g>
      </g>
    </g>
    <g id="Trazado_725451" data-name="Trazado 725451" transform="translate(854 2721)" fill="#feb12e">
      <path d="M 52.5 104 C 45.54710006713867 104 38.80271530151367 102.6384887695312 32.45418548583984 99.95328521728516 C 26.32171440124512 97.35947418212891 20.81399917602539 93.64600372314453 16.08399963378906 88.91600036621094 C 11.35401439666748 84.18601226806641 7.640528678894043 78.67828369140625 5.046714305877686 72.54581451416016 C 2.361514329910278 66.19728851318359 1 59.45289993286133 1 52.5 C 1 45.54710006713867 2.361514329910278 38.80271530151367 5.046714305877686 32.45418548583984 C 7.640528678894043 26.32172775268555 11.35401439666748 20.81399917602539 16.08399963378906 16.08399963378906 C 20.81399917602539 11.35401439666748 26.32172775268555 7.640528678894043 32.45418548583984 5.046714305877686 C 38.80271530151367 2.361514329910278 45.54710006713867 1 52.5 1 C 59.45289993286133 1 66.19728851318359 2.361514329910278 72.54581451416016 5.046714305877686 C 78.67828369140625 7.640528678894043 84.18601226806641 11.35401439666748 88.91600036621094 16.08399963378906 C 93.64600372314453 20.81399917602539 97.35947418212891 26.32171440124512 99.95328521728516 32.45418548583984 C 102.6384887695312 38.80271530151367 104 45.54710006713867 104 52.5 C 104 59.45289993286133 102.6384887695312 66.19728851318359 99.95328521728516 72.54581451416016 C 97.35947418212891 78.67828369140625 93.64600372314453 84.18601226806641 88.91600036621094 88.91600036621094 C 84.18601226806641 93.64600372314453 78.67828369140625 97.35947418212891 72.54581451416016 99.95328521728516 C 66.19728851318359 102.6384887695312 59.45289993286133 104 52.5 104 Z" stroke="none"/>
      <path d="M 52.5 2 C 45.68165969848633 2 39.06833648681641 3.334938049316406 32.84373474121094 5.967720031738281 C 26.83045959472656 8.5111083984375 21.42958831787109 12.15263366699219 16.79110717773438 16.79110717773438 C 12.15263366699219 21.42958831787109 8.5111083984375 26.83045959472656 5.967720031738281 32.84373474121094 C 3.334938049316406 39.06833648681641 2 45.68165969848633 2 52.5 C 2 59.31834030151367 3.334938049316406 65.93165588378906 5.967720031738281 72.15626525878906 C 8.5111083984375 78.16954040527344 12.15263366699219 83.57041931152344 16.79110717773438 88.20889282226562 C 21.42958831787109 92.84736633300781 26.83045959472656 96.4888916015625 32.84373474121094 99.03227996826172 C 39.06833648681641 101.6650619506836 45.68165969848633 103 52.5 103 C 59.31834030151367 103 65.93165588378906 101.6650619506836 72.15626525878906 99.03227996826172 C 78.16954040527344 96.4888916015625 83.57041931152344 92.84736633300781 88.20889282226562 88.20889282226562 C 92.84736633300781 83.57041931152344 96.4888916015625 78.16954040527344 99.03227996826172 72.15626525878906 C 101.6650619506836 65.93165588378906 103 59.31834030151367 103 52.5 C 103 45.68165969848633 101.6650619506836 39.06833648681641 99.03227996826172 32.84373474121094 C 96.4888916015625 26.83045959472656 92.84736633300781 21.42958831787109 88.20889282226562 16.79110717773438 C 83.57041931152344 12.15263366699219 78.16954040527344 8.5111083984375 72.15626525878906 5.967720031738281 C 65.93165588378906 3.334938049316406 59.31834030151367 2 52.5 2 M 52.5 0 C 81.49494934082031 0 105 23.50504302978516 105 52.5 C 105 81.49494934082031 81.49494934082031 105 52.5 105 C 23.50504302978516 105 0 81.49494934082031 0 52.5 C 0 23.50504302978516 23.50504302978516 0 52.5 0 Z" stroke="none" fill="#0e494d"/>
    </g>
    <path id="Trazado_725453" data-name="Trazado 725453" d="M-22.171-5.122h-4.864V0h-2.1V-12.086h7.678v1.693h-5.578V-6.8h4.864ZM-14.734-.88A3.128,3.128,0,0,1-17.257.166a2.788,2.788,0,0,1-2.212-.855,3.637,3.637,0,0,1-.751-2.474V-8.981H-18.2v5.794q0,1.71,1.419,1.71A1.993,1.993,0,0,0-14.8-2.532v-6.45h2.017V0h-1.9ZM-6.773.166A4.173,4.173,0,0,1-9.882-1.042a4.381,4.381,0,0,1-1.191-3.217v-.249a5.389,5.389,0,0,1,.519-2.4A3.949,3.949,0,0,1-9.1-8.558a3.851,3.851,0,0,1,2.092-.589,3.525,3.525,0,0,1,2.835,1.17,4.949,4.949,0,0,1,1,3.312v.813H-9.04A2.7,2.7,0,0,0-8.3-2.092a2.23,2.23,0,0,0,1.639.647A2.731,2.731,0,0,0-4.4-2.565l1.087,1.038A3.631,3.631,0,0,1-4.752-.278,4.509,4.509,0,0,1-6.773.166Zm-.241-7.695a1.7,1.7,0,0,0-1.341.581,3.012,3.012,0,0,0-.652,1.619h3.843v-.149A2.452,2.452,0,0,0-5.7-7.01,1.686,1.686,0,0,0-7.014-7.529ZM.266-8.981.324-7.944a3.229,3.229,0,0,1,2.615-1.2q2.806,0,2.855,3.212V0H3.777V-5.819a1.85,1.85,0,0,0-.369-1.266A1.554,1.554,0,0,0,2.2-7.5a1.944,1.944,0,0,0-1.818,1.1V0H-1.635V-8.981Zm10.11-2.183v2.183h1.585v1.494H10.376v5.014a1.1,1.1,0,0,0,.2.743.943.943,0,0,0,.726.228,3.107,3.107,0,0,0,.706-.083V-.025a4.968,4.968,0,0,1-1.328.191Q8.359.166,8.359-2.4V-7.487H6.881V-8.981H8.359v-2.183ZM17.457.166a4.173,4.173,0,0,1-3.109-1.208,4.381,4.381,0,0,1-1.191-3.217v-.249a5.389,5.389,0,0,1,.519-2.4,3.949,3.949,0,0,1,1.457-1.648,3.851,3.851,0,0,1,2.092-.589,3.525,3.525,0,0,1,2.835,1.17,4.949,4.949,0,0,1,1,3.312v.813H15.19a2.7,2.7,0,0,0,.743,1.76,2.23,2.23,0,0,0,1.639.647,2.731,2.731,0,0,0,2.258-1.121l1.087,1.038a3.631,3.631,0,0,1-1.44,1.249A4.509,4.509,0,0,1,17.457.166Zm-.241-7.695a1.7,1.7,0,0,0-1.341.581,3.012,3.012,0,0,0-.652,1.619h3.843v-.149a2.452,2.452,0,0,0-.54-1.531A1.686,1.686,0,0,0,17.216-7.529ZM27.658-2.44a.914.914,0,0,0-.444-.822,4.723,4.723,0,0,0-1.473-.5,7.574,7.574,0,0,1-1.718-.548,2.293,2.293,0,0,1-1.511-2.117,2.391,2.391,0,0,1,.979-1.942,3.872,3.872,0,0,1,2.49-.78,4.029,4.029,0,0,1,2.6.8,2.529,2.529,0,0,1,.992,2.067H27.559a1.243,1.243,0,0,0-.432-.967,1.654,1.654,0,0,0-1.146-.386A1.787,1.787,0,0,0,24.9-7.33a.968.968,0,0,0-.419.822.818.818,0,0,0,.39.722,5.365,5.365,0,0,0,1.577.519,7.466,7.466,0,0,1,1.864.623,2.639,2.639,0,0,1,1,.867,2.212,2.212,0,0,1,.328,1.229,2.34,2.34,0,0,1-1,1.963,4.283,4.283,0,0,1-2.631.751,4.644,4.644,0,0,1-1.967-.4,3.238,3.238,0,0,1-1.345-1.1,2.594,2.594,0,0,1-.481-1.5h1.959a1.421,1.421,0,0,0,.54,1.1,2.1,2.1,0,0,0,1.32.386,2.04,2.04,0,0,0,1.212-.3A.938.938,0,0,0,27.658-2.44ZM-25.761,7.914l3.486,9.264L-18.8,7.914h2.714V20h-2.092V16.016l.208-5.329L-21.536,20h-1.5L-26.6,10.695l.208,5.321V20h-2.092V7.914Zm11.588,7.512a5.3,5.3,0,0,1,.523-2.378,3.819,3.819,0,0,1,1.469-1.627,4.14,4.14,0,0,1,2.175-.569,3.923,3.923,0,0,1,2.951,1.17,4.6,4.6,0,0,1,1.224,3.1l.008.473a5.343,5.343,0,0,1-.51,2.374,3.773,3.773,0,0,1-1.461,1.619,4.17,4.17,0,0,1-2.2.573A3.9,3.9,0,0,1-13.032,18.9a4.848,4.848,0,0,1-1.141-3.374Zm2.017.174a3.619,3.619,0,0,0,.573,2.171,1.862,1.862,0,0,0,1.594.784,1.842,1.842,0,0,0,1.59-.8,4,4,0,0,0,.569-2.333,3.572,3.572,0,0,0-.585-2.158,1.869,1.869,0,0,0-1.59-.8,1.852,1.852,0,0,0-1.569.784A3.922,3.922,0,0,0-12.156,15.6ZM-9.45,7.25h2.3l-2.3,2.515h-1.619Zm8.375,10.193,1.9-6.425H2.909L-.2,20H-1.955l-3.138-8.981H-3ZM6.313,20H4.3V11.019H6.313ZM4.171,8.686a1.071,1.071,0,0,1,.295-.772,1.113,1.113,0,0,1,.843-.307,1.127,1.127,0,0,1,.847.307,1.062,1.062,0,0,1,.3.772,1.038,1.038,0,0,1-.3.76,1.136,1.136,0,0,1-.847.3,1.122,1.122,0,0,1-.843-.3A1.046,1.046,0,0,1,4.171,8.686ZM10.654,20H8.637V7.25h2.017Zm6.151.166A4.173,4.173,0,0,1,13.7,18.958a4.381,4.381,0,0,1-1.191-3.217v-.249a5.389,5.389,0,0,1,.519-2.4,3.949,3.949,0,0,1,1.457-1.648,3.851,3.851,0,0,1,2.092-.589,3.525,3.525,0,0,1,2.835,1.17,4.949,4.949,0,0,1,1,3.312v.813H14.539a2.7,2.7,0,0,0,.743,1.76,2.23,2.23,0,0,0,1.639.647,2.731,2.731,0,0,0,2.258-1.121l1.087,1.038a3.631,3.631,0,0,1-1.44,1.249A4.509,4.509,0,0,1,16.8,20.166Zm-.241-7.695a1.7,1.7,0,0,0-1.341.581,3.012,3.012,0,0,0-.652,1.619h3.843v-.149a2.452,2.452,0,0,0-.54-1.531A1.686,1.686,0,0,0,16.564,12.471ZM27.007,17.56a.914.914,0,0,0-.444-.822,4.723,4.723,0,0,0-1.473-.5,7.574,7.574,0,0,1-1.718-.548,2.293,2.293,0,0,1-1.511-2.117,2.391,2.391,0,0,1,.979-1.942,3.872,3.872,0,0,1,2.49-.78,4.029,4.029,0,0,1,2.6.8,2.529,2.529,0,0,1,.992,2.067H26.907a1.243,1.243,0,0,0-.432-.967,1.654,1.654,0,0,0-1.146-.386,1.787,1.787,0,0,0-1.083.307.968.968,0,0,0-.419.822.818.818,0,0,0,.39.722,5.365,5.365,0,0,0,1.577.519,7.466,7.466,0,0,1,1.864.623,2.639,2.639,0,0,1,1,.867,2.212,2.212,0,0,1,.328,1.229,2.34,2.34,0,0,1-1,1.963,4.283,4.283,0,0,1-2.631.751,4.644,4.644,0,0,1-1.967-.4,3.238,3.238,0,0,1-1.345-1.1,2.594,2.594,0,0,1-.481-1.5H23.52a1.421,1.421,0,0,0,.54,1.1,2.1,2.1,0,0,0,1.32.386,2.04,2.04,0,0,0,1.212-.3A.938.938,0,0,0,27.007,17.56Z" transform="translate(908 2768)" fill="#12263f"/>
    <g id="Trazado_725452" data-name="Trazado 725452" transform="translate(656 2721)" fill="#feb12e">
      <path d="M 52.5 104 C 45.54710006713867 104 38.80271530151367 102.6384887695312 32.45418548583984 99.95328521728516 C 26.32171440124512 97.35947418212891 20.81399917602539 93.64600372314453 16.08399963378906 88.91600036621094 C 11.35401439666748 84.18601226806641 7.640528678894043 78.67828369140625 5.046714305877686 72.54581451416016 C 2.361514329910278 66.19728851318359 1 59.45289993286133 1 52.5 C 1 45.54710006713867 2.361514329910278 38.80271530151367 5.046714305877686 32.45418548583984 C 7.640528678894043 26.32172775268555 11.35401439666748 20.81399917602539 16.08399963378906 16.08399963378906 C 20.81399917602539 11.35401439666748 26.32172775268555 7.640528678894043 32.45418548583984 5.046714305877686 C 38.80271530151367 2.361514329910278 45.54710006713867 1 52.5 1 C 59.45289993286133 1 66.19728851318359 2.361514329910278 72.54581451416016 5.046714305877686 C 78.67828369140625 7.640528678894043 84.18601226806641 11.35401439666748 88.91600036621094 16.08399963378906 C 93.64600372314453 20.81399917602539 97.35947418212891 26.32171440124512 99.95328521728516 32.45418548583984 C 102.6384887695312 38.80271530151367 104 45.54710006713867 104 52.5 C 104 59.45289993286133 102.6384887695312 66.19728851318359 99.95328521728516 72.54581451416016 C 97.35947418212891 78.67828369140625 93.64600372314453 84.18601226806641 88.91600036621094 88.91600036621094 C 84.18601226806641 93.64600372314453 78.67828369140625 97.35947418212891 72.54581451416016 99.95328521728516 C 66.19728851318359 102.6384887695312 59.45289993286133 104 52.5 104 Z" stroke="none"/>
      <path d="M 52.5 2 C 45.68165969848633 2 39.06833648681641 3.334938049316406 32.84373474121094 5.967720031738281 C 26.83045959472656 8.5111083984375 21.42958831787109 12.15263366699219 16.79110717773438 16.79110717773438 C 12.15263366699219 21.42958831787109 8.5111083984375 26.83045959472656 5.967720031738281 32.84373474121094 C 3.334938049316406 39.06833648681641 2 45.68165969848633 2 52.5 C 2 59.31834030151367 3.334938049316406 65.93165588378906 5.967720031738281 72.15626525878906 C 8.5111083984375 78.16954040527344 12.15263366699219 83.57041931152344 16.79110717773438 88.20889282226562 C 21.42958831787109 92.84736633300781 26.83045959472656 96.4888916015625 32.84373474121094 99.03227996826172 C 39.06833648681641 101.6650619506836 45.68165969848633 103 52.5 103 C 59.31834030151367 103 65.93165588378906 101.6650619506836 72.15626525878906 99.03227996826172 C 78.16954040527344 96.4888916015625 83.57041931152344 92.84736633300781 88.20889282226562 88.20889282226562 C 92.84736633300781 83.57041931152344 96.4888916015625 78.16954040527344 99.03227996826172 72.15626525878906 C 101.6650619506836 65.93165588378906 103 59.31834030151367 103 52.5 C 103 45.68165969848633 101.6650619506836 39.06833648681641 99.03227996826172 32.84373474121094 C 96.4888916015625 26.83045959472656 92.84736633300781 21.42958831787109 88.20889282226562 16.79110717773438 C 83.57041931152344 12.15263366699219 78.16954040527344 8.5111083984375 72.15626525878906 5.967720031738281 C 65.93165588378906 3.334938049316406 59.31834030151367 2 52.5 2 M 52.5 0 C 81.49494934082031 0 105 23.50504302978516 105 52.5 C 105 81.49494934082031 81.49494934082031 105 52.5 105 C 23.50504302978516 105 0 81.49494934082031 0 52.5 C 0 23.50504302978516 23.50504302978516 0 52.5 0 Z" stroke="none" fill="#0e494d"/>
    </g>
    <path id="Trazado_725454" data-name="Trazado 725454" d="M-22.171-5.122h-4.864V0h-2.1V-12.086h7.678v1.693h-5.578V-6.8h4.864ZM-14.734-.88A3.128,3.128,0,0,1-17.257.166a2.788,2.788,0,0,1-2.212-.855,3.637,3.637,0,0,1-.751-2.474V-8.981H-18.2v5.794q0,1.71,1.419,1.71A1.993,1.993,0,0,0-14.8-2.532v-6.45h2.017V0h-1.9ZM-6.773.166A4.173,4.173,0,0,1-9.882-1.042a4.381,4.381,0,0,1-1.191-3.217v-.249a5.389,5.389,0,0,1,.519-2.4A3.949,3.949,0,0,1-9.1-8.558a3.851,3.851,0,0,1,2.092-.589,3.525,3.525,0,0,1,2.835,1.17,4.949,4.949,0,0,1,1,3.312v.813H-9.04A2.7,2.7,0,0,0-8.3-2.092a2.23,2.23,0,0,0,1.639.647A2.731,2.731,0,0,0-4.4-2.565l1.087,1.038A3.631,3.631,0,0,1-4.752-.278,4.509,4.509,0,0,1-6.773.166Zm-.241-7.695a1.7,1.7,0,0,0-1.341.581,3.012,3.012,0,0,0-.652,1.619h3.843v-.149A2.452,2.452,0,0,0-5.7-7.01,1.686,1.686,0,0,0-7.014-7.529ZM.266-8.981.324-7.944a3.229,3.229,0,0,1,2.615-1.2q2.806,0,2.855,3.212V0H3.777V-5.819a1.85,1.85,0,0,0-.369-1.266A1.554,1.554,0,0,0,2.2-7.5a1.944,1.944,0,0,0-1.818,1.1V0H-1.635V-8.981Zm10.11-2.183v2.183h1.585v1.494H10.376v5.014a1.1,1.1,0,0,0,.2.743.943.943,0,0,0,.726.228,3.107,3.107,0,0,0,.706-.083V-.025a4.968,4.968,0,0,1-1.328.191Q8.359.166,8.359-2.4V-7.487H6.881V-8.981H8.359v-2.183ZM17.457.166a4.173,4.173,0,0,1-3.109-1.208,4.381,4.381,0,0,1-1.191-3.217v-.249a5.389,5.389,0,0,1,.519-2.4,3.949,3.949,0,0,1,1.457-1.648,3.851,3.851,0,0,1,2.092-.589,3.525,3.525,0,0,1,2.835,1.17,4.949,4.949,0,0,1,1,3.312v.813H15.19a2.7,2.7,0,0,0,.743,1.76,2.23,2.23,0,0,0,1.639.647,2.731,2.731,0,0,0,2.258-1.121l1.087,1.038a3.631,3.631,0,0,1-1.44,1.249A4.509,4.509,0,0,1,17.457.166Zm-.241-7.695a1.7,1.7,0,0,0-1.341.581,3.012,3.012,0,0,0-.652,1.619h3.843v-.149a2.452,2.452,0,0,0-.54-1.531A1.686,1.686,0,0,0,17.216-7.529ZM27.658-2.44a.914.914,0,0,0-.444-.822,4.723,4.723,0,0,0-1.473-.5,7.574,7.574,0,0,1-1.718-.548,2.293,2.293,0,0,1-1.511-2.117,2.391,2.391,0,0,1,.979-1.942,3.872,3.872,0,0,1,2.49-.78,4.029,4.029,0,0,1,2.6.8,2.529,2.529,0,0,1,.992,2.067H27.559a1.243,1.243,0,0,0-.432-.967,1.654,1.654,0,0,0-1.146-.386A1.787,1.787,0,0,0,24.9-7.33a.968.968,0,0,0-.419.822.818.818,0,0,0,.39.722,5.365,5.365,0,0,0,1.577.519,7.466,7.466,0,0,1,1.864.623,2.639,2.639,0,0,1,1,.867,2.212,2.212,0,0,1,.328,1.229,2.34,2.34,0,0,1-1,1.963,4.283,4.283,0,0,1-2.631.751,4.644,4.644,0,0,1-1.967-.4,3.238,3.238,0,0,1-1.345-1.1,2.594,2.594,0,0,1-.481-1.5h1.959a1.421,1.421,0,0,0,.54,1.1,2.1,2.1,0,0,0,1.32.386,2.04,2.04,0,0,0,1.212-.3A.938.938,0,0,0,27.658-2.44ZM-9.762,14.878h-4.864V20h-2.1V7.914h7.678V9.607h-5.578V13.2h4.864ZM-5.437,20H-7.454V11.019h2.017ZM-7.579,8.686a1.071,1.071,0,0,1,.295-.772,1.113,1.113,0,0,1,.843-.307,1.127,1.127,0,0,1,.847.307,1.062,1.062,0,0,1,.3.772,1.038,1.038,0,0,1-.3.76,1.136,1.136,0,0,1-.847.3,1.122,1.122,0,0,1-.843-.3A1.046,1.046,0,0,1-7.579,8.686Zm6.441,2.333V20.8a2.955,2.955,0,0,1-.685,2.1,2.625,2.625,0,0,1-2,.726A4.031,4.031,0,0,1-4.9,23.486V21.893a3.108,3.108,0,0,0,.714.075q1,0,1.029-1.1V11.019ZM-3.329,8.686a1.071,1.071,0,0,1,.295-.772,1.113,1.113,0,0,1,.843-.307,1.127,1.127,0,0,1,.847.307,1.062,1.062,0,0,1,.3.772,1.038,1.038,0,0,1-.3.76,1.136,1.136,0,0,1-.847.3,1.122,1.122,0,0,1-.843-.3A1.046,1.046,0,0,1-3.329,8.686ZM6.383,20a3.113,3.113,0,0,1-.232-.838,3.14,3.14,0,0,1-2.357,1,3.169,3.169,0,0,1-2.208-.772A2.47,2.47,0,0,1,.73,17.485a2.55,2.55,0,0,1,1.067-2.2,5.169,5.169,0,0,1,3.051-.768H6.084v-.589a1.573,1.573,0,0,0-.39-1.116,1.547,1.547,0,0,0-1.187-.419,1.777,1.777,0,0,0-1.129.344,1.066,1.066,0,0,0-.44.876H.921a2.239,2.239,0,0,1,.49-1.382,3.263,3.263,0,0,1,1.332-1.009,4.68,4.68,0,0,1,1.88-.365,3.769,3.769,0,0,1,2.515.793A2.827,2.827,0,0,1,8.1,13.874v4.051a4.591,4.591,0,0,0,.34,1.934V20ZM4.167,18.547a2.294,2.294,0,0,0,1.125-.291,1.941,1.941,0,0,0,.793-.78V15.783H5a2.973,2.973,0,0,0-1.685.39,1.264,1.264,0,0,0-.564,1.1,1.179,1.179,0,0,0,.386.926A1.5,1.5,0,0,0,4.167,18.547Zm11.082-.988a.914.914,0,0,0-.444-.822,4.723,4.723,0,0,0-1.473-.5,7.574,7.574,0,0,1-1.718-.548A2.293,2.293,0,0,1,10.1,13.575a2.391,2.391,0,0,1,.979-1.942,3.872,3.872,0,0,1,2.49-.78,4.029,4.029,0,0,1,2.6.8,2.529,2.529,0,0,1,.992,2.067H15.149a1.243,1.243,0,0,0-.432-.967,1.654,1.654,0,0,0-1.146-.386,1.787,1.787,0,0,0-1.083.307.968.968,0,0,0-.419.822.818.818,0,0,0,.39.722,5.365,5.365,0,0,0,1.577.519,7.466,7.466,0,0,1,1.864.623,2.639,2.639,0,0,1,1,.867,2.212,2.212,0,0,1,.328,1.229,2.34,2.34,0,0,1-1,1.963,4.283,4.283,0,0,1-2.631.751,4.644,4.644,0,0,1-1.967-.4,3.238,3.238,0,0,1-1.345-1.1,2.594,2.594,0,0,1-.481-1.5h1.959a1.421,1.421,0,0,0,.54,1.1,2.1,2.1,0,0,0,1.32.386,2.04,2.04,0,0,0,1.212-.3A.938.938,0,0,0,15.249,17.56Z" transform="translate(709 2768)" fill="#12263f"/>
    <g id="g621" transform="translate(612.053 2660)">
      <g id="g623" transform="translate(0 0)">
        <g id="g625" clip-path="url(#clip-path)">
          <g id="g631" transform="translate(7.725 1.288)">
            <path id="path633" d="M-438.41-330.891a5.157,5.157,0,0,0,5.157-5.157,5.156,5.156,0,0,0-5.506-5.145,6.851,6.851,0,0,0-6.75-8.008,6.848,6.848,0,0,0-6.848,6.848,6.856,6.856,0,0,0,8.8,6.566,5.157,5.157,0,0,0,5.15,4.9M-492.9-364.78c5.7-.236,7.625-4.384,7.719-7h10.224a5.159,5.159,0,0,0-5.068,5.15,5.15,5.15,0,0,0,5.15,5.15v5.211h5.15v-8.508a7.056,7.056,0,0,0,5.694-.216,10.171,10.171,0,0,0,10.149,9.505,10.155,10.155,0,0,0,8.11-4.033,12.2,12.2,0,0,0,9.222,4.2,12.231,12.231,0,0,0,12.231-12.231,12.231,12.231,0,0,0-12.231-12.231,12.228,12.228,0,0,0-10.743,6.379,10.132,10.132,0,0,0-6.589-2.423,10.124,10.124,0,0,0-5.794,1.811,7.728,7.728,0,0,0-7.475-5.767h-23.175a7.724,7.724,0,0,0-7.719,8.007,5.157,5.157,0,0,0-5.156,5.15,5.15,5.15,0,0,0,5.15,5.15v5.212h5.15Z" transform="translate(503.197 379.79)" fill="#dededf" fill-rule="evenodd"/>
          </g>
          <g id="g635" transform="translate(9.528 35.106)">
            <path id="path637" d="M0-69.7H11.845L11.073-80H.773Z" transform="translate(0 79.998)" fill="#6b809a" fill-rule="evenodd"/>
          </g>
          <path id="path639" d="M53.862-479.7h10.3V-490h-10.3ZM50-428.2H68.025l-3.09-41.2H53.09Z" transform="translate(-43.562 514.806)" fill="#6b809a" fill-rule="evenodd"/>
          <g id="g641" transform="translate(22.531 60.856)">
            <path id="path643" d="M-13.069-174.249h5.15L-5.987-200H-15Z" transform="translate(15 200)" fill="#a8c6e2" fill-rule="evenodd"/>
          </g>
          <g id="g645" transform="translate(45.707 55.706)">
            <path id="path647" d="M-13.069-209.1H20.75V-240L3.025-234.935V-240L-15-234.849Z" transform="translate(15 239.999)" fill="#e3edf6" fill-rule="evenodd"/>
          </g>
          <g id="g649" transform="translate(9.528 35.106)">
            <path id="path651" d="M0-69.7H3.863L4.635-80H.773Z" transform="translate(0 79.998)" fill="#6b809a" fill-rule="evenodd"/>
          </g>
          <path id="path653" d="M53.862-479.7h3.863V-490H53.862ZM50-428.2h3.863l3.09-41.2H53.09Z" transform="translate(-43.562 514.806)" fill="#6b809a" fill-rule="evenodd"/>
          <path id="path655" d="M53.862-479.7h10.3V-490h-10.3Zm23.175,0h10.3V-490h-10.3Zm-3.863,51.5H91.2l-3.09-41.2H76.265ZM50-428.2H68.025l-3.09-41.2H53.09Z" transform="translate(-43.562 514.806)" fill="#f88fa4" fill-rule="evenodd"/>
          <g id="g657" transform="translate(9.528 35.106)">
            <path id="path659" d="M0-69.7H11.845L11.073-80H.773Zm23.175,0H35.02L34.248-80h-10.3Z" transform="translate(0 79.998)" fill="#e3edf6" fill-rule="evenodd"/>
          </g>
          <g id="g661" transform="translate(9.527 35.106)">
            <path id="path663" d="M-156.824-69.7h3.863l.773-10.3h-3.863ZM-180-69.7h3.863l.773-10.3h-3.863Z" transform="translate(180 79.998)" fill="#6b809a" fill-rule="evenodd"/>
          </g>
          <path id="path665" d="M53.862-479.7h3.863V-490H53.862Zm23.175,0H80.9V-490H77.038Zm-3.863,51.5h3.863l3.09-41.2H76.265ZM50-428.2h3.863l3.09-41.2H53.09Z" transform="translate(-43.562 514.806)" fill="#f05475" fill-rule="evenodd"/>
          <g id="g667" transform="translate(45.707 59.667)">
            <path id="path669" d="M-121.975-182.3h3.863v-26.94l-3.863,1.1Zm-16.094,0h3.863l-2.038-26.823L-140-208.049Z" transform="translate(140 209.238)" fill="#a8c6e2" fill-rule="evenodd"/>
          </g>
          <path id="path671" d="M100-579.447h5.15v-3.863H100Zm34.019-8.725a10.172,10.172,0,0,0,10.149,9.505,10.155,10.155,0,0,0,8.11-4.032,12.2,12.2,0,0,0,9.222,4.2,12.236,12.236,0,0,0,12.079-14.163c-1.634,10.3-16.115,12.148-21.3,4.816-3.581,8.121-14.478,7.351-18.259-.323M154.473-572.1a6.859,6.859,0,0,0-8.783,6.572,6.856,6.856,0,0,0,8.784,6.57,6.842,6.842,0,0,1-4.922-6.57,6.851,6.851,0,0,1,4.92-6.572m-31.3-7.347h5.15v-3.862h-5.15Z" transform="translate(-87.125 604.253)" fill="#9c9a9f" fill-rule="evenodd"/>
          <g id="g673" transform="translate(14.163 9.656)">
            <path id="path675" d="M-156.824-137.365h2.575m-25.75,0h2.575m60.213-20.3h2.575" transform="translate(180 157.665)" fill="none" stroke="#fff" stroke-miterlimit="2.613" stroke-width="2"/>
          </g>
          <g id="g677" transform="translate(6.438 24.806)">
            <path id="path679" d="M-11.107-270.111l2.221-29.616v-10.3m-3.862,61.8,1.449-19.316M1.415-310.027v10.3l3.863,51.5m-18.025-61.8H5.277" transform="translate(12.748 310.027)" fill="none" stroke="#000" stroke-miterlimit="22.926" stroke-width="2"/>
          </g>
          <g id="g681" transform="translate(29.613 24.806)">
            <path id="path683" d="M0-418.2l3.863-51.5V-480m10.3,0v10.3l3.863,51.5M0-480H18.025" transform="translate(0 480)" fill="none" stroke="#000" stroke-miterlimit="22.926" stroke-width="2"/>
          </g>
          <g id="g685" transform="translate(45.707 55.706)">
            <path id="path687" d="M0-34.85,18.025-40V-9.1m0-25.836L35.75-40V-9.1" transform="translate(0 40)" fill="none" stroke="#000" stroke-miterlimit="22.926" stroke-width="2"/>
          </g>
          <g id="g689" transform="translate(0 86.606)">
            <path id="path691" d="M-594.774,0h-87.895" transform="translate(682.669)" fill="none" stroke="#000" stroke-miterlimit="22.926" stroke-width="2"/>
          </g>
          <g id="g693" transform="translate(36.05 13.218)">
            <path id="path695" d="M0-78.412v-9.074M5.15-90v11.588" transform="translate(0 90)" fill="none" stroke="#000" stroke-miterlimit="22.926" stroke-width="2"/>
          </g>
          <g id="g697" transform="translate(12.875 12.435)">
            <path id="path699" d="M0-83.713v-9.074m5.15-3.3v12.371" transform="translate(0 96.084)" fill="none" stroke="#000" stroke-miterlimit="22.926" stroke-width="2"/>
          </g>
          <g id="g701" transform="translate(7.725 1.288)">
            <path id="path703" d="M-191.674-123.881a5.15,5.15,0,0,1-5.15-5.15,5.157,5.157,0,0,1,5.156-5.15H-201.98c-.094,2.619-2.016,6.768-7.719,7m65.86-10.47a12.179,12.179,0,0,1,2.722,7.692,12.231,12.231,0,0,1-12.231,12.231,12.2,12.2,0,0,1-9.222-4.2,10.155,10.155,0,0,1-8.11,4.032,10.172,10.172,0,0,1-10.149-9.505,7.056,7.056,0,0,1-5.694.216m-28.325,3.3a5.15,5.15,0,0,1-5.15-5.15,5.157,5.157,0,0,1,5.156-5.15,7.724,7.724,0,0,1,7.719-8.007h23.175a7.728,7.728,0,0,1,7.475,5.767,10.124,10.124,0,0,1,5.794-1.811,10.131,10.131,0,0,1,6.589,2.423,12.228,12.228,0,0,1,10.743-6.379,12.178,12.178,0,0,1,7.692,2.722" transform="translate(219.999 142.188)" fill="none" stroke="#000" stroke-miterlimit="22.926" stroke-width="2"/>
          </g>
          <g id="g705" transform="translate(58.566 31.877)">
            <path id="path707" d="M-46.339,0a6.851,6.851,0,0,1,6.749,8.008,5.156,5.156,0,0,1,5.506,5.145,5.157,5.157,0,0,1-5.157,5.157,5.157,5.157,0,0,1-5.15-4.895,6.856,6.856,0,0,1-8.8-6.566A6.848,6.848,0,0,1-46.339,0Z" transform="translate(53.187)" fill="none" stroke="#000" stroke-miterlimit="22.926" stroke-width="2"/>
          </g>
          <g id="g709" transform="translate(9.528 35.106)">
            <path id="path711" d="M0-69.7H11.845m11.33,0H35.02M23.948-80h10.3M22.016-54.248H13M.773-80h10.3" transform="translate(0 79.998)" fill="none" stroke="#000" stroke-miterlimit="22.926" stroke-width="2"/>
          </g>
          <g id="g713" transform="translate(53.432 65.92)">
            <path id="path715" d="M-34.85,0V16.823M-22.275,0V16.823M-17.125,0V16.823M-40,0V16.823" transform="translate(40)" fill="none" stroke="#000" stroke-miterlimit="22.926" stroke-width="2"/>
          </g>
        </g>
      </g>
    </g>
    <path id="Trazado_725449" data-name="Trazado 725449" d="M-34-3.935A4.364,4.364,0,0,1-35.424-.917,4.867,4.867,0,0,1-38.736.166,4.713,4.713,0,0,1-41.28-.519a4.5,4.5,0,0,1-1.7-1.947A7.024,7.024,0,0,1-43.6-5.4V-6.524a7.075,7.075,0,0,1,.606-3.013,4.567,4.567,0,0,1,1.739-2.009,4.851,4.851,0,0,1,2.619-.706,4.66,4.66,0,0,1,3.221,1.087A4.543,4.543,0,0,1-34-8.093h-2.092a2.985,2.985,0,0,0-.76-1.88,2.51,2.51,0,0,0-1.789-.577,2.453,2.453,0,0,0-2.1,1,5,5,0,0,0-.751,2.934v1.071a5.3,5.3,0,0,0,.7,2.988,2.328,2.328,0,0,0,2.054,1.029,2.715,2.715,0,0,0,1.859-.556,2.9,2.9,0,0,0,.789-1.851ZM-26.948,0a3.113,3.113,0,0,1-.232-.838,3.14,3.14,0,0,1-2.357,1,3.169,3.169,0,0,1-2.208-.772A2.47,2.47,0,0,1-32.6-2.515a2.55,2.55,0,0,1,1.067-2.2,5.169,5.169,0,0,1,3.051-.768h1.237v-.589a1.573,1.573,0,0,0-.39-1.116,1.547,1.547,0,0,0-1.187-.419,1.777,1.777,0,0,0-1.129.344,1.066,1.066,0,0,0-.44.876H-32.41a2.239,2.239,0,0,1,.49-1.382,3.263,3.263,0,0,1,1.332-1.009,4.68,4.68,0,0,1,1.88-.365,3.769,3.769,0,0,1,2.515.793,2.827,2.827,0,0,1,.963,2.229v4.051a4.591,4.591,0,0,0,.34,1.934V0Zm-2.216-1.453a2.294,2.294,0,0,0,1.125-.291,1.941,1.941,0,0,0,.793-.78V-4.217h-1.087a2.973,2.973,0,0,0-1.685.39,1.264,1.264,0,0,0-.564,1.1A1.179,1.179,0,0,0-30.2-1.8,1.5,1.5,0,0,0-29.165-1.453ZM-20.972,0h-2.017V-12.75h2.017Zm4.341,0h-2.017V-8.981h2.017Zm-2.142-11.314a1.071,1.071,0,0,1,.295-.772,1.113,1.113,0,0,1,.843-.307,1.127,1.127,0,0,1,.847.307,1.062,1.062,0,0,1,.3.772,1.038,1.038,0,0,1-.3.76,1.136,1.136,0,0,1-.847.3,1.122,1.122,0,0,1-.843-.3A1.046,1.046,0,0,1-18.772-11.314Zm3.959,6.757A5.34,5.34,0,0,1-13.85-7.89a3.085,3.085,0,0,1,2.582-1.258,2.931,2.931,0,0,1,2.308,1v-4.6h2.017V0H-8.77l-.1-.93a2.973,2.973,0,0,1-2.416,1.1A3.068,3.068,0,0,1-13.837-1.1,5.535,5.535,0,0,1-14.813-4.557Zm2.017.174a3.739,3.739,0,0,0,.527,2.137,1.71,1.71,0,0,0,1.5.768,1.9,1.9,0,0,0,1.81-1.1V-6.417A1.876,1.876,0,0,0-10.754-7.5a1.723,1.723,0,0,0-1.511.776A4.163,4.163,0,0,0-12.8-4.383ZM.527,0A3.113,3.113,0,0,1,.295-.838a3.14,3.14,0,0,1-2.357,1A3.169,3.169,0,0,1-4.271-.606a2.47,2.47,0,0,1-.855-1.909,2.55,2.55,0,0,1,1.067-2.2,5.169,5.169,0,0,1,3.051-.768H.228v-.589a1.573,1.573,0,0,0-.39-1.116,1.547,1.547,0,0,0-1.187-.419,1.777,1.777,0,0,0-1.129.344,1.066,1.066,0,0,0-.44.876H-4.935a2.239,2.239,0,0,1,.49-1.382A3.263,3.263,0,0,1-3.113-8.782a4.68,4.68,0,0,1,1.88-.365,3.769,3.769,0,0,1,2.515.793,2.827,2.827,0,0,1,.963,2.229v4.051a4.591,4.591,0,0,0,.34,1.934V0ZM-1.689-1.453A2.294,2.294,0,0,0-.564-1.743a1.941,1.941,0,0,0,.793-.78V-4.217H-.859a2.973,2.973,0,0,0-1.685.39,1.264,1.264,0,0,0-.564,1.1,1.179,1.179,0,0,0,.386.926A1.5,1.5,0,0,0-1.689-1.453Zm5.669-3.1A5.34,5.34,0,0,1,4.943-7.89,3.085,3.085,0,0,1,7.525-9.147a2.931,2.931,0,0,1,2.308,1v-4.6h2.017V0H10.023l-.1-.93A2.973,2.973,0,0,1,7.508.166,3.068,3.068,0,0,1,4.956-1.1,5.535,5.535,0,0,1,3.98-4.557ZM6-4.383a3.739,3.739,0,0,0,.527,2.137,1.71,1.71,0,0,0,1.5.768,1.9,1.9,0,0,0,1.81-1.1V-6.417A1.876,1.876,0,0,0,8.039-7.5a1.723,1.723,0,0,0-1.511.776A4.163,4.163,0,0,0,6-4.383Zm11.812-.174a5.34,5.34,0,0,1,.963-3.333,3.085,3.085,0,0,1,2.582-1.258,2.931,2.931,0,0,1,2.308,1v-4.6h2.017V0H23.852l-.1-.93a2.973,2.973,0,0,1-2.416,1.1A3.068,3.068,0,0,1,18.785-1.1,5.535,5.535,0,0,1,17.809-4.557Zm2.017.174a3.739,3.739,0,0,0,.527,2.137,1.71,1.71,0,0,0,1.5.768,1.9,1.9,0,0,0,1.81-1.1V-6.417A1.876,1.876,0,0,0,21.868-7.5a1.723,1.723,0,0,0-1.511.776A4.163,4.163,0,0,0,19.826-4.383ZM31.738.166a4.173,4.173,0,0,1-3.109-1.208,4.381,4.381,0,0,1-1.191-3.217v-.249a5.389,5.389,0,0,1,.519-2.4,3.949,3.949,0,0,1,1.457-1.648,3.851,3.851,0,0,1,2.092-.589,3.525,3.525,0,0,1,2.835,1.17,4.949,4.949,0,0,1,1,3.312v.813H29.472a2.7,2.7,0,0,0,.743,1.76,2.23,2.23,0,0,0,1.639.647,2.731,2.731,0,0,0,2.258-1.121L35.2-1.527a3.631,3.631,0,0,1-1.44,1.249A4.509,4.509,0,0,1,31.738.166ZM31.5-7.529a1.7,1.7,0,0,0-1.341.581,3.012,3.012,0,0,0-.652,1.619h3.843v-.149a2.452,2.452,0,0,0-.54-1.531A1.686,1.686,0,0,0,31.5-7.529ZM39.051,0H37.034V-12.75h2.017ZM-7.3,17.186h-4.682L-12.966,20h-2.183l4.565-12.086H-8.7L-4.125,20H-6.317ZM-11.4,15.493h3.5l-1.751-5.014ZM-.805,20H-2.822V11.019H-.805ZM-2.947,8.686a1.071,1.071,0,0,1,.295-.772,1.113,1.113,0,0,1,.843-.307,1.127,1.127,0,0,1,.847.307,1.062,1.062,0,0,1,.3.772,1.038,1.038,0,0,1-.3.76,1.136,1.136,0,0,1-.847.3,1.122,1.122,0,0,1-.843-.3A1.046,1.046,0,0,1-2.947,8.686Zm9.04,4.175a4.991,4.991,0,0,0-.822-.066A1.85,1.85,0,0,0,3.4,13.857V20H1.386V11.019H3.312l.05,1a2.273,2.273,0,0,1,2.025-1.17,1.888,1.888,0,0,1,.714.116Zm5.072,7.3a4.173,4.173,0,0,1-3.109-1.208,4.381,4.381,0,0,1-1.191-3.217v-.249a5.389,5.389,0,0,1,.519-2.4A3.949,3.949,0,0,1,8.84,11.442a3.851,3.851,0,0,1,2.092-.589,3.525,3.525,0,0,1,2.835,1.17,4.949,4.949,0,0,1,1,3.312v.813H8.9a2.7,2.7,0,0,0,.743,1.76,2.23,2.23,0,0,0,1.639.647,2.731,2.731,0,0,0,2.258-1.121l1.087,1.038a3.631,3.631,0,0,1-1.44,1.249A4.509,4.509,0,0,1,11.165,20.166Zm-.241-7.695a1.7,1.7,0,0,0-1.341.581,3.012,3.012,0,0,0-.652,1.619h3.843v-.149a2.452,2.452,0,0,0-.54-1.531A1.686,1.686,0,0,0,10.924,12.471Z" transform="translate(803 2555)" fill="#12263f"/>
    <g id="sin-carro" transform="translate(895 2665.84)">
      <g id="Grupo_957832" data-name="Grupo 957832" transform="translate(72.566 44.494)">
        <path id="Trazado_725385" data-name="Trazado 725385" d="M48.827,199.259a9.01,9.01,0,0,1-11.43-9.97,5.415,5.415,0,1,1-3.749-10.127,7.146,7.146,0,0,1,3.063-.124,8.76,8.76,0,0,1-2.074-2.982,8.115,8.115,0,0,1,15.322-5.29c.307-.117.617-.229.938-.321a11.753,11.753,0,1,1,3.988,23.021H49.369" transform="translate(-27.91 -163.864)" fill="#fff"/>
        <path id="Trazado_725386" data-name="Trazado 725386" d="M44.117,199.23a10.88,10.88,0,0,0,3.011-.426,1.808,1.808,0,0,0-1-3.475,7.2,7.2,0,0,1-9.14-7.975,1.809,1.809,0,0,0-2.541-1.9,3.689,3.689,0,0,1-.5.208,3.616,3.616,0,1,1-2-6.951,5.389,5.389,0,0,1,2.177-.1,1.808,1.808,0,0,0,1.759-2.945l-.417-.474a5.74,5.74,0,0,1-1.291-1.83,6.307,6.307,0,0,1,11.91-4.109,1.806,1.806,0,0,0,2.32,1.009c.258-.1.519-.194.789-.272a9.945,9.945,0,1,1,5.493,19.116,10.091,10.091,0,0,1-2.119.362l-5.4,0a1.808,1.808,0,1,0,0,3.616h5.516a13.763,13.763,0,0,0,3-.5,13.561,13.561,0,0,0-7.014-26.2A9.923,9.923,0,0,0,30.7,174.362a5.176,5.176,0,0,0,.327.848l-.078.022a7.234,7.234,0,0,0,2.387,14.175,10.508,10.508,0,0,0,.369,1.965,10.862,10.862,0,0,0,10.411,7.856Z" transform="translate(-25.712 -161.67)"/>
      </g>
      <g id="Grupo_957833" data-name="Grupo 957833" transform="translate(7.233 0)">
        <path id="Trazado_725387" data-name="Trazado 725387" d="M108.1,206.856h7.233a1.808,1.808,0,1,0,0-3.616H108.1a1.808,1.808,0,1,0,0,3.616Z" transform="translate(-48.427 -139.955)" fill="#4c241d"/>
        <path id="Trazado_725388" data-name="Trazado 725388" d="M64.1,194.856h7.233a1.808,1.808,0,1,0,0-3.616H64.1a1.808,1.808,0,1,0,0,3.616Z" transform="translate(15.463 -133.379)"/>
        <ellipse id="Elipse_6749" data-name="Elipse 6749" cx="2.712" cy="2.712" rx="2.712" ry="2.712" transform="translate(0 0)"/>
        <path id="Trazado_725389" data-name="Trazado 725389" d="M211.329,102.089A1.808,1.808,0,0,0,212.607,99l-7.233-7.233a1.808,1.808,0,0,0-2.557,2.557l7.233,7.233A1.8,1.8,0,0,0,211.329,102.089Z" transform="translate(-182.823 -78.583)"/>
        <path id="Trazado_725390" data-name="Trazado 725390" d="M204.1,102.089a1.8,1.8,0,0,0,1.278-.53l7.233-7.233a1.808,1.808,0,1,0-2.557-2.557L202.818,99a1.808,1.808,0,0,0,1.278,3.087Z" transform="translate(-182.823 -78.583)"/>
      </g>
      <g id="Grupo_957834" data-name="Grupo 957834" transform="translate(0 30.739)">
        <path id="Trazado_725391" data-name="Trazado 725391" d="M142.288,135.24h27.1a6.993,6.993,0,0,1,5.728,2.983l8.644,12.348a6.448,6.448,0,0,0,5.283,2.75h4.991a6.117,6.117,0,0,1,6.117,6.117V171.4l-18.082,3.616H142.288Z" transform="translate(-140.48 -133.432)" fill="#34bc85"/>
        <path id="Trazado_725392" data-name="Trazado 725392" d="M140.1,174.636h39.779a1.769,1.769,0,0,0,.355-.035l18.082-3.616a1.809,1.809,0,0,0,1.453-1.773V157.246a7.933,7.933,0,0,0-7.925-7.925h-4.992a4.643,4.643,0,0,1-3.8-1.979l-8.645-12.35a8.809,8.809,0,0,0-7.21-3.753H140.1a1.808,1.808,0,0,0-1.808,1.808v39.779a1.807,1.807,0,0,0,1.808,1.808Zm39.6-3.616H141.9V134.856h25.289a5.189,5.189,0,0,1,4.247,2.211l8.645,12.35a8.263,8.263,0,0,0,6.763,3.521h4.992a4.314,4.314,0,0,1,4.308,4.308v10.482Z" transform="translate(-138.288 -131.24)"/>
      </g>
      <g id="Grupo_957835" data-name="Grupo 957835" transform="translate(43.396 65.094)">
        <path id="Trazado_725393" data-name="Trazado 725393" d="M134.288,218.473h14.465a3.616,3.616,0,1,0,0-7.233H134.288Z" transform="translate(-132.48 -209.432)" fill="#fc8c29"/>
        <path id="Trazado_725394" data-name="Trazado 725394" d="M132.1,218.089h14.465a5.424,5.424,0,1,0,0-10.849H132.1a1.808,1.808,0,0,0-1.808,1.808v7.233A1.808,1.808,0,0,0,132.1,218.089Zm14.465-7.233a1.808,1.808,0,1,1,0,3.616H133.9v-3.616Z" transform="translate(-130.288 -207.24)"/>
      </g>
      <path id="Trazado_725395" data-name="Trazado 725395" d="M252.1,190.856H253.9a1.808,1.808,0,1,0,0-3.616H252.1a1.808,1.808,0,0,0,0,3.616Z" transform="translate(-244.864 -131.187)"/>
      <path id="Trazado_725396" data-name="Trazado 725396" d="M240.1,185.595a1.808,1.808,0,0,0,1.808-1.808V153.048a1.808,1.808,0,1,0-3.616,0v30.739A1.808,1.808,0,0,0,240.1,185.595Z" transform="translate(-225.631 -111.46)"/>
      <g id="Grupo_957836" data-name="Grupo 957836" transform="translate(35.579 64.509)">
        <ellipse id="Elipse_6750" data-name="Elipse 6750" cx="6.913" cy="6.913" rx="6.913" ry="6.913" transform="translate(1.808 1.808)" fill="#fff"/>
        <path id="Trazado_725397" data-name="Trazado 725397" d="M165.716,223.389a8.721,8.721,0,1,0-8.721-8.721A8.731,8.731,0,0,0,165.716,223.389Zm0-13.826a5.1,5.1,0,1,1-5.1,5.1A5.111,5.111,0,0,1,165.716,209.563Z" transform="translate(-156.995 -205.947)"/>
      </g>
      <ellipse id="Elipse_6751" data-name="Elipse 6751" cx="1.828" cy="1.828" rx="1.828" ry="1.828" transform="translate(42.472 71.402)"/>
      <g id="Grupo_957837" data-name="Grupo 957837" transform="translate(0 39.78)">
        <path id="Trazado_725398" data-name="Trazado 725398" d="M194.288,155.325a5.46,5.46,0,0,1,.764-.085h23.418a5.493,5.493,0,0,1,4.57,2.446l5.6,8.4H194.288Z" transform="translate(-192.48 -153.432)" fill="#9dc1e4"/>
        <path id="Trazado_725399" data-name="Trazado 725399" d="M192.092,165.706h34.36a1.81,1.81,0,0,0,1.444-2.894l-5.547-8.32a7.294,7.294,0,0,0-6.076-3.251H192.857a5.835,5.835,0,0,0-.881.082,1.978,1.978,0,0,0-1.692,1.811V163.9A1.808,1.808,0,0,0,192.092,165.706Zm30.977-3.616H193.9v-7.233h22.374a3.686,3.686,0,0,1,3.069,1.642Z" transform="translate(-190.284 -151.241)"/>
      </g>
      <path id="Trazado_725400" data-name="Trazado 725400" d="M108.1,206.856h7.233a1.808,1.808,0,1,0,0-3.616H108.1a1.808,1.808,0,1,0,0,3.616Z" transform="translate(-41.194 -139.954)"/>
    </g>
  </g>
</svg>
