<svg xmlns="http://www.w3.org/2000/svg" width="190" height="157.18" viewBox="0 0 190 157.18">
  <g id="_3" data-name="3" transform="translate(-180 -3719.82)">
    <g id="Grupo_957824" data-name="Grupo 957824" transform="translate(0 18)">
      <rect id="Rectángulo_340114" data-name="Rectángulo 340114" width="190" height="135" transform="translate(180 3724)" fill="#badc61"/>
      <g id="hecho" transform="translate(202 3702.57)">
        <path id="Trazado_725335" data-name="Trazado 725335" d="M44.958,102.1H8.848A1.348,1.348,0,0,1,7.5,100.756V45.041a1.348,1.348,0,0,1,1.348-1.348h36.11a1.348,1.348,0,0,1,1.348,1.348v55.715A1.348,1.348,0,0,1,44.958,102.1Z" transform="translate(-7.5 -39.107)" fill="#e7e2e6"/>
        <path id="Trazado_725336" data-name="Trazado 725336" d="M7.5,53.28v47.476A1.348,1.348,0,0,0,8.848,102.1h36.11a1.348,1.348,0,0,0,1.348-1.348V45.041a1.348,1.348,0,0,0-1.348-1.348H8.848A1.348,1.348,0,0,0,7.5,45.041V49.6" transform="translate(-7.5 -39.107)" fill="none" stroke="#000" stroke-linecap="round" stroke-linejoin="round" stroke-miterlimit="10" stroke-width="1.5"/>
        <path id="Trazado_725337" data-name="Trazado 725337" d="M91.148,65.926H55.038a1.348,1.348,0,0,1-1.348-1.348V8.863a1.348,1.348,0,0,1,1.348-1.348h36.11A1.348,1.348,0,0,1,92.5,8.863V64.578A1.348,1.348,0,0,1,91.148,65.926Z" transform="translate(-47.835 -7.515)" fill="#faf7f8"/>
        <path id="Trazado_725338" data-name="Trazado 725338" d="M329.91,7.516h-2.8a1.348,1.348,0,0,1,1.348,1.348V64.579a1.348,1.348,0,0,1-1.348,1.348h2.8a1.348,1.348,0,0,0,1.348-1.348V8.864A1.348,1.348,0,0,0,329.91,7.516Z" transform="translate(-286.598 -7.516)" fill="#f0eef0"/>
        <path id="Trazado_725339" data-name="Trazado 725339" d="M71.843,65.926h19.3A1.348,1.348,0,0,0,92.5,64.578V8.863a1.348,1.348,0,0,0-1.348-1.348H55.038A1.348,1.348,0,0,0,53.69,8.863V64.578a1.348,1.348,0,0,0,1.348,1.348h13.13" transform="translate(-47.835 -7.515)" fill="none" stroke="#000" stroke-linecap="round" stroke-linejoin="round" stroke-miterlimit="10" stroke-width="1.5"/>
        <path id="Trazado_725340" data-name="Trazado 725340" d="M138.747,46.166H118.678a1.3,1.3,0,0,1-1.295-1.295v-3.15a1.3,1.3,0,0,1,1.295-1.295h20.07a1.3,1.3,0,0,1,1.295,1.295v3.15A1.3,1.3,0,0,1,138.747,46.166Z" transform="translate(-103.455 -36.255)" fill="#6ce79a"/>
        <path id="Trazado_725341" data-name="Trazado 725341" d="M268.91,40.426h-2.471a1.3,1.3,0,0,1,1.295,1.295v3.15a1.3,1.3,0,0,1-1.295,1.3h2.471a1.3,1.3,0,0,0,1.295-1.3v-3.15A1.3,1.3,0,0,0,268.91,40.426Z" transform="translate(-233.618 -36.254)" fill="#00d8a2"/>
        <path id="Trazado_725342" data-name="Trazado 725342" d="M138.747,46.166H118.678a1.3,1.3,0,0,1-1.295-1.295v-3.15a1.3,1.3,0,0,1,1.295-1.295h20.07a1.3,1.3,0,0,1,1.295,1.295v3.15A1.3,1.3,0,0,1,138.747,46.166Z" transform="translate(-103.455 -36.255)" fill="none" stroke="#000" stroke-linecap="round" stroke-linejoin="round" stroke-miterlimit="10" stroke-width="1.5"/>
        <g id="Grupo_957781" data-name="Grupo 957781" transform="translate(11.253 14.685)">
          <line id="Línea_157" data-name="Línea 157" x2="28.008" transform="translate(0 36.35)" fill="none" stroke="#000" stroke-linecap="round" stroke-linejoin="round" stroke-miterlimit="10" stroke-width="1.5"/>
          <line id="Línea_158" data-name="Línea 158" x2="28.008" transform="translate(0 31.806)" fill="none" stroke="#000" stroke-linecap="round" stroke-linejoin="round" stroke-miterlimit="10" stroke-width="1.5"/>
          <line id="Línea_159" data-name="Línea 159" x2="28.008" transform="translate(0 27.263)" fill="none" stroke="#000" stroke-linecap="round" stroke-linejoin="round" stroke-miterlimit="10" stroke-width="1.5"/>
          <line id="Línea_160" data-name="Línea 160" x2="28.008" transform="translate(0 22.719)" fill="none" stroke="#000" stroke-linecap="round" stroke-linejoin="round" stroke-miterlimit="10" stroke-width="1.5"/>
          <line id="Línea_161" data-name="Línea 161" x2="28.008" transform="translate(0 18.175)" fill="none" stroke="#000" stroke-linecap="round" stroke-linejoin="round" stroke-miterlimit="10" stroke-width="1.5"/>
          <line id="Línea_162" data-name="Línea 162" x2="28.008" transform="translate(0 13.631)" fill="none" stroke="#000" stroke-linecap="round" stroke-linejoin="round" stroke-miterlimit="10" stroke-width="1.5"/>
          <line id="Línea_163" data-name="Línea 163" x2="28.008" transform="translate(0 9.088)" fill="none" stroke="#000" stroke-linecap="round" stroke-linejoin="round" stroke-miterlimit="10" stroke-width="1.5"/>
          <line id="Línea_164" data-name="Línea 164" x2="28.008" transform="translate(0 4.544)" fill="none" stroke="#000" stroke-linecap="round" stroke-linejoin="round" stroke-miterlimit="10" stroke-width="1.5"/>
          <line id="Línea_165" data-name="Línea 165" x2="28.008" transform="translate(0)" fill="none" stroke="#000" stroke-linecap="round" stroke-linejoin="round" stroke-miterlimit="10" stroke-width="1.5"/>
        </g>
        <circle id="Elipse_6719" data-name="Elipse 6719" cx="15.083" cy="15.083" r="15.083" transform="translate(32.834 23.772)" fill="#6ce79a"/>
        <path id="Trazado_725343" data-name="Trazado 725343" d="M373.637,195.063a15.23,15.23,0,0,0-1.727.1,15.083,15.083,0,0,1,0,29.968,15.237,15.237,0,0,0,1.727.1,15.083,15.083,0,1,0,0-30.166Z" transform="translate(-325.72 -171.291)" fill="#00d8a2"/>
        <g id="Grupo_957782" data-name="Grupo 957782" transform="translate(38.837 32.062)">
          <path id="Trazado_725344" data-name="Trazado 725344" d="M320.593,274.051a2.113,2.113,0,0,1-1.5-.621l-4.574-4.574a2.12,2.12,0,0,1,3-3l3.075,3.075,7.847-7.846a2.12,2.12,0,1,1,3,3l-9.346,9.346A2.113,2.113,0,0,1,320.593,274.051Z" transform="translate(-313.899 -260.465)" fill="#faf7f8"/>
        </g>
        <g id="Grupo_957783" data-name="Grupo 957783" transform="translate(38.837 32.062)">
          <path id="Trazado_725345" data-name="Trazado 725345" d="M320.593,274.051a2.113,2.113,0,0,1-1.5-.621l-4.574-4.574a2.12,2.12,0,0,1,3-3l3.075,3.075,7.847-7.846a2.12,2.12,0,1,1,3,3l-9.346,9.346A2.113,2.113,0,0,1,320.593,274.051Z" transform="translate(-313.899 -260.465)" fill="none" stroke="#000" stroke-linecap="round" stroke-linejoin="round" stroke-miterlimit="10" stroke-width="1.5"/>
        </g>
        <path id="Trazado_725346" data-name="Trazado 725346" d="M291.346,198.616a15.075,15.075,0,1,0,2.5,2.7" transform="translate(-233.706 -171.291)" fill="none" stroke="#000" stroke-linecap="round" stroke-linejoin="round" stroke-miterlimit="10" stroke-width="1.5"/>
      </g>
    </g>
    <g id="Grupo_957838" data-name="Grupo 957838" transform="translate(273 3766)">
      <g id="Grupo_957787" data-name="Grupo 957787" transform="translate(1.314 58.363)">
        <g id="Grupo_957786" data-name="Grupo 957786">
          <path id="Trazado_725347" data-name="Trazado 725347" d="M56.58,181.429H53.943a2.545,2.545,0,0,1,0-5.09H56.58a5.365,5.365,0,0,0,0-10.73H31.449a2.545,2.545,0,1,1,0-5.09h25.13a10.455,10.455,0,0,1,0,20.911Z" transform="translate(-28.904 -160.518)" fill="#cbeff7"/>
        </g>
      </g>
      <g id="Grupo_957789" data-name="Grupo 957789" transform="translate(0.909 44.572)">
        <g id="Grupo_957788" data-name="Grupo 957788">
          <path id="Trazado_725348" data-name="Trazado 725348" d="M80.025,143.5H77.389a2.545,2.545,0,0,1,0-5.09h2.637a5.365,5.365,0,1,0,0-10.73H30.334a2.545,2.545,0,1,1,0-5.09H80.025a10.455,10.455,0,1,1,0,20.91Z" transform="translate(-27.789 -122.587)" fill="#9be5f9"/>
        </g>
      </g>
      <g id="Grupo_957790" data-name="Grupo 957790" transform="translate(41.163 5.999)">
        <circle id="Elipse_6721" data-name="Elipse 6721" cx="15.998" cy="15.998" r="15.998" fill="#87d147"/>
      </g>
      <g id="Grupo_957791" data-name="Grupo 957791" transform="translate(32.695 14.351)">
        <path id="Trazado_725349" data-name="Trazado 725349" d="M117.757,44.561h2.637a5.337,5.337,0,0,1,3.349,1.18,15.891,15.891,0,0,1,1.334-5.159,10.386,10.386,0,0,0-4.682-1.111h-2.637a2.545,2.545,0,0,0,0,5.09Z" transform="translate(-115.212 -39.471)" fill="#70d6f9"/>
      </g>
      <g id="Grupo_957792" data-name="Grupo 957792" transform="translate(1.112 27.865)">
        <path id="Trazado_725350" data-name="Trazado 725350" d="M69.513,76.639a5.36,5.36,0,0,1-4.4,2.306H30.892a2.545,2.545,0,0,0,0,5.09h34.22a10.414,10.414,0,0,0,7.153-2.841A15.988,15.988,0,0,1,69.513,76.639Z" transform="translate(-28.347 -76.639)" fill="#70d6f9"/>
      </g>
      <g id="Grupo_957794" data-name="Grupo 957794" transform="translate(48.096 16.88)">
        <g id="Grupo_957793" data-name="Grupo 957793">
          <path id="Trazado_725351" data-name="Trazado 725351" d="M165.365,59.1a2.544,2.544,0,0,1-1.8-.746L158.315,53.1a2.545,2.545,0,1,1,3.6-3.6l3.451,3.452,5.786-5.786a2.545,2.545,0,0,1,3.6,3.6l-7.585,7.585A2.546,2.546,0,0,1,165.365,59.1Z" transform="translate(-157.569 -46.426)" fill="#edf4fc"/>
        </g>
      </g>
      <g id="Grupo_957795" data-name="Grupo 957795" transform="translate(79.213 42.186)">
        <path id="Trazado_725352" data-name="Trazado 725352" d="M247.795,118.27a2.834,2.834,0,0,1-2.254-2.218c0-.036-.109-.036-.109,0a2.834,2.834,0,0,1-2.254,2.218c-.036,0-.036.073,0,.109a2.834,2.834,0,0,1,2.254,2.218c0,.036.109.036.109,0a2.834,2.834,0,0,1,2.254-2.218C247.831,118.343,247.831,118.27,247.795,118.27Z" transform="translate(-243.15 -116.025)" fill="#87d147"/>
      </g>
      <g id="Grupo_957796" data-name="Grupo 957796" transform="translate(73.271 65.665)">
        <path id="Trazado_725353" data-name="Trazado 725353" d="M227.973,184.927h.836v.836a1.149,1.149,0,0,0,1.163,1.164,1.165,1.165,0,0,0,1.163-1.127v-.873h.836a1.149,1.149,0,0,0,1.164-1.163,1.165,1.165,0,0,0-1.127-1.163h-.873v-.836a1.149,1.149,0,0,0-1.163-1.163,1.165,1.165,0,0,0-1.164,1.127v.873h-.836a1.149,1.149,0,0,0-1.164,1.163,1.126,1.126,0,0,0,1.164,1.163h0Z" transform="translate(-226.808 -180.6)" fill="#70d6f9"/>
      </g>
      <g id="Grupo_957797" data-name="Grupo 957797" transform="translate(36.259 3.818)">
        <circle id="Elipse_6722" data-name="Elipse 6722" cx="1.236" cy="1.236" r="1.236" fill="#f5c84c"/>
      </g>
      <g id="Grupo_957798" data-name="Grupo 957798" transform="translate(3.045 74.664)">
        <path id="Trazado_725354" data-name="Trazado 725354" d="M33.718,208.568a4.035,4.035,0,0,0,3.236-3.163c0-.073.145-.073.145,0a4.035,4.035,0,0,0,3.236,3.163c.073,0,.073.109,0,.145a4.035,4.035,0,0,0-3.236,3.163c0,.073-.145.073-.145,0a4.035,4.035,0,0,0-3.236-3.163C33.645,208.677,33.645,208.568,33.718,208.568Z" transform="translate(-33.663 -205.35)" fill="#87d147"/>
      </g>
      <g id="Grupo_957800" data-name="Grupo 957800" transform="translate(0.405 57.454)">
        <g id="Grupo_957799" data-name="Grupo 957799">
          <path id="Trazado_725355" data-name="Trazado 725355" d="M54.989,180.747H52.352a3.454,3.454,0,0,1,0-6.908h2.637a4.456,4.456,0,0,0,0-8.912H29.858a3.454,3.454,0,0,1,0-6.908h25.13a11.364,11.364,0,0,1,0,22.729Zm-2.637-5.09a1.636,1.636,0,1,0,0,3.272h2.637a9.546,9.546,0,0,0,0-19.093H29.858a1.636,1.636,0,1,0,0,3.272h25.13a6.274,6.274,0,0,1,0,12.548Z" transform="translate(-26.404 -158.018)"/>
        </g>
      </g>
      <g id="Grupo_957802" data-name="Grupo 957802" transform="translate(0 43.663)">
        <g id="Grupo_957801" data-name="Grupo 957801">
          <path id="Trazado_725356" data-name="Trazado 725356" d="M78.434,142.815H75.8a3.454,3.454,0,1,1,0-6.908h2.637a4.456,4.456,0,1,0,0-8.912H28.743a3.454,3.454,0,0,1,0-6.908H78.434a11.364,11.364,0,1,1,0,22.728Zm-2.637-5.09a1.636,1.636,0,1,0,0,3.272h2.637a9.546,9.546,0,1,0,0-19.092H28.743a1.636,1.636,0,0,0,0,3.272H78.434a6.274,6.274,0,1,1,0,12.548Z" transform="translate(-25.289 -120.087)"/>
        </g>
      </g>
      <g id="Grupo_957809" data-name="Grupo 957809" transform="translate(3.845)">
        <g id="Grupo_957803" data-name="Grupo 957803" transform="translate(10.048)">
          <path id="Trazado_725357" data-name="Trazado 725357" d="M64.409,21.914a.909.909,0,0,1-.909-.909V.909a.909.909,0,1,1,1.818,0v20.1A.909.909,0,0,1,64.409,21.914Z" transform="translate(-63.5)"/>
        </g>
        <g id="Grupo_957804" data-name="Grupo 957804" transform="translate(6.101 1.674)">
          <path id="Trazado_725358" data-name="Trazado 725358" d="M57.5,10.371a.907.907,0,0,1-.643-.266L52.91,6.157a.909.909,0,0,1,1.285-1.285l3.3,3.3,3.3-3.3A.909.909,0,0,1,62.09,6.157L58.143,10.1A.906.906,0,0,1,57.5,10.371Z" transform="translate(-52.643 -4.605)"/>
        </g>
        <g id="Grupo_957805" data-name="Grupo 957805" transform="translate(6.101 14.474)">
          <path id="Trazado_725359" data-name="Trazado 725359" d="M61.447,45.574a.907.907,0,0,1-.643-.266L57.5,42l-3.3,3.3a.909.909,0,1,1-1.285-1.285l3.947-3.947a.908.908,0,0,1,1.285,0l3.947,3.947a.909.909,0,0,1-.642,1.551Z" transform="translate(-52.644 -39.809)"/>
        </g>
        <g id="Grupo_957806" data-name="Grupo 957806" transform="translate(0 10.048)">
          <path id="Trazado_725360" data-name="Trazado 725360" d="M56.87,29.454h-20.1a.909.909,0,1,1,0-1.818h20.1a.909.909,0,0,1,0,1.818Z" transform="translate(-35.864 -27.636)"/>
        </g>
        <g id="Grupo_957807" data-name="Grupo 957807" transform="translate(1.675 6.101)">
          <path id="Trazado_725361" data-name="Trazado 725361" d="M41.38,26.492a.909.909,0,0,1-.643-1.551l3.3-3.3-3.3-3.3a.909.909,0,1,1,1.285-1.285l3.947,3.947a.908.908,0,0,1,0,1.285l-3.947,3.948A.906.906,0,0,1,41.38,26.492Z" transform="translate(-40.47 -16.779)"/>
        </g>
        <g id="Grupo_957808" data-name="Grupo 957808" transform="translate(14.474 6.101)">
          <path id="Trazado_725362" data-name="Trazado 725362" d="M80.529,26.492a.907.907,0,0,1-.643-.266L75.94,22.278a.908.908,0,0,1,0-1.285l3.947-3.947a.909.909,0,1,1,1.285,1.285l-3.3,3.3,3.3,3.3a.909.909,0,0,1-.642,1.551Z" transform="translate(-75.673 -16.779)"/>
        </g>
      </g>
      <g id="Grupo_957816" data-name="Grupo 957816" transform="translate(45.75 71.766)">
        <g id="Grupo_957810" data-name="Grupo 957810" transform="translate(9.748)">
          <path id="Trazado_725363" data-name="Trazado 725363" d="M178.835,218.694a.909.909,0,0,1-.909-.909v-19.5a.909.909,0,0,1,1.818,0v19.5A.909.909,0,0,1,178.835,218.694Z" transform="translate(-177.926 -197.38)"/>
        </g>
        <g id="Grupo_957811" data-name="Grupo 957811" transform="translate(5.919 1.625)">
          <path id="Trazado_725364" data-name="Trazado 725364" d="M172.132,207.5a.907.907,0,0,1-.643-.266L167.66,203.4a.909.909,0,1,1,1.285-1.285l3.187,3.187,3.187-3.187A.909.909,0,0,1,176.6,203.4l-3.829,3.829A.907.907,0,0,1,172.132,207.5Z" transform="translate(-167.393 -201.848)"/>
        </g>
        <g id="Grupo_957812" data-name="Grupo 957812" transform="translate(5.918 14.042)">
          <path id="Trazado_725365" data-name="Trazado 725365" d="M175.961,241.647a.907.907,0,0,1-.643-.266l-3.187-3.187-3.187,3.187a.909.909,0,1,1-1.285-1.285l3.829-3.829a.908.908,0,0,1,1.285,0L176.6,240.1a.909.909,0,0,1-.642,1.551Z" transform="translate(-167.393 -236)"/>
        </g>
        <g id="Grupo_957813" data-name="Grupo 957813" transform="translate(0 9.748)">
          <path id="Trazado_725366" data-name="Trazado 725366" d="M171.52,226.007h-19.5a.909.909,0,1,1,0-1.818h19.5a.909.909,0,0,1,0,1.818Z" transform="translate(-151.115 -224.189)"/>
        </g>
        <g id="Grupo_957814" data-name="Grupo 957814" transform="translate(1.625 5.919)">
          <path id="Trazado_725367" data-name="Trazado 725367" d="M156.493,223.135a.909.909,0,0,1-.643-1.551l3.187-3.187-3.187-3.187a.909.909,0,0,1,1.285-1.285l3.829,3.829a.909.909,0,0,1,0,1.286l-3.829,3.829A.906.906,0,0,1,156.493,223.135Z" transform="translate(-155.583 -213.659)"/>
        </g>
        <g id="Grupo_957815" data-name="Grupo 957815" transform="translate(14.042 5.919)">
          <path id="Trazado_725368" data-name="Trazado 725368" d="M194.474,223.135a.907.907,0,0,1-.643-.266L190,219.039a.909.909,0,0,1,0-1.286l3.829-3.829a.909.909,0,0,1,1.285,1.285L191.93,218.4l3.187,3.187a.909.909,0,0,1-.642,1.551Z" transform="translate(-189.736 -213.658)"/>
        </g>
      </g>
      <g id="Grupo_957817" data-name="Grupo 957817" transform="translate(40.254 5.09)">
        <path id="Trazado_725369" data-name="Trazado 725369" d="M152.907,47.814a16.907,16.907,0,1,1,16.907-16.907A16.926,16.926,0,0,1,152.907,47.814Zm0-32A15.089,15.089,0,1,0,168,30.907,15.106,15.106,0,0,0,152.907,15.818Z" transform="translate(-136 -14)"/>
      </g>
      <g id="Grupo_957818" data-name="Grupo 957818" transform="translate(31.787 13.442)">
        <path id="Trazado_725370" data-name="Trazado 725370" d="M122.151,45.06a.908.908,0,0,1-.568-.2,4.4,4.4,0,0,0-2.78-.98h-2.637a3.454,3.454,0,0,1,0-6.908H118.8a11.226,11.226,0,0,1,5.091,1.208.909.909,0,0,1,.421,1.184,14.975,14.975,0,0,0-1.257,4.865.909.909,0,0,1-.906.832Zm-5.985-6.271a1.636,1.636,0,1,0,0,3.272H118.8a6.27,6.27,0,0,1,2.627.581,16.753,16.753,0,0,1,.877-3.185,9.406,9.406,0,0,0-3.5-.668Z" transform="translate(-112.712 -36.971)"/>
      </g>
      <g id="Grupo_957819" data-name="Grupo 957819" transform="translate(0.203 26.957)">
        <path id="Trazado_725371" data-name="Trazado 725371" d="M63.521,83.353H29.3a3.454,3.454,0,1,1,0-6.908h34.22a4.464,4.464,0,0,0,3.656-1.917.909.909,0,0,1,1.591.186,15.045,15.045,0,0,0,2.6,4.3.908.908,0,0,1-.067,1.255,11.313,11.313,0,0,1-7.776,3.088ZM29.3,78.263a1.636,1.636,0,1,0,0,3.272h34.22a9.491,9.491,0,0,0,5.891-2.043,16.823,16.823,0,0,1-1.75-2.8,6.27,6.27,0,0,1-4.14,1.567H29.3Z" transform="translate(-25.847 -74.139)"/>
      </g>
      <g id="Grupo_957821" data-name="Grupo 957821" transform="translate(47.187 15.973)">
        <g id="Grupo_957820" data-name="Grupo 957820">
          <path id="Trazado_725372" data-name="Trazado 725372" d="M163.774,58.422a3.432,3.432,0,0,1-2.443-1.012l-5.251-5.251a3.454,3.454,0,1,1,4.885-4.885l2.809,2.809,5.143-5.143a3.455,3.455,0,0,1,4.886,4.885l-7.586,7.585a3.434,3.434,0,0,1-2.443,1.012Zm-5.251-10.341a1.636,1.636,0,0,0-1.157,2.792l5.251,5.251a1.637,1.637,0,0,0,2.315,0l7.585-7.585a1.636,1.636,0,1,0-2.314-2.314l-5.786,5.786a.935.935,0,0,1-1.285,0L159.68,48.56a1.631,1.631,0,0,0-1.157-.478Z" transform="translate(-155.069 -43.93)"/>
        </g>
      </g>
    </g>
  </g>
</svg>
