<svg xmlns="http://www.w3.org/2000/svg" width="190" height="158.18" viewBox="0 0 190 158.18">
  <g id="_4" data-name="4" transform="translate(-1230 -3858.25)">
    <g id="Grupo_957825" data-name="Grupo 957825" transform="translate(1155 156.43)">
      <rect id="Rectángulo_340114" data-name="Rectángulo 340114" width="190" height="135" transform="translate(75 3725)" fill="#feb12e"/>
      <g id="hecho" transform="translate(117 3702.57)">
        <path id="Trazado_725335" data-name="Trazado 725335" d="M44.958,102.1H8.848A1.348,1.348,0,0,1,7.5,100.756V45.041a1.348,1.348,0,0,1,1.348-1.348h36.11a1.348,1.348,0,0,1,1.348,1.348v55.715A1.348,1.348,0,0,1,44.958,102.1Z" transform="translate(-7.5 -39.107)" fill="#e7e2e6"/>
        <path id="Trazado_725336" data-name="Trazado 725336" d="M7.5,53.28v47.476A1.348,1.348,0,0,0,8.848,102.1h36.11a1.348,1.348,0,0,0,1.348-1.348V45.041a1.348,1.348,0,0,0-1.348-1.348H8.848A1.348,1.348,0,0,0,7.5,45.041V49.6" transform="translate(-7.5 -39.107)" fill="none" stroke="#000" stroke-linecap="round" stroke-linejoin="round" stroke-miterlimit="10" stroke-width="1.5"/>
        <path id="Trazado_725337" data-name="Trazado 725337" d="M91.148,65.926H55.038a1.348,1.348,0,0,1-1.348-1.348V8.863a1.348,1.348,0,0,1,1.348-1.348h36.11A1.348,1.348,0,0,1,92.5,8.863V64.578A1.348,1.348,0,0,1,91.148,65.926Z" transform="translate(-47.835 -7.515)" fill="#faf7f8"/>
        <path id="Trazado_725338" data-name="Trazado 725338" d="M329.91,7.516h-2.8a1.348,1.348,0,0,1,1.348,1.348V64.579a1.348,1.348,0,0,1-1.348,1.348h2.8a1.348,1.348,0,0,0,1.348-1.348V8.864A1.348,1.348,0,0,0,329.91,7.516Z" transform="translate(-286.598 -7.516)" fill="#f0eef0"/>
        <path id="Trazado_725339" data-name="Trazado 725339" d="M71.843,65.926h19.3A1.348,1.348,0,0,0,92.5,64.578V8.863a1.348,1.348,0,0,0-1.348-1.348H55.038A1.348,1.348,0,0,0,53.69,8.863V64.578a1.348,1.348,0,0,0,1.348,1.348h13.13" transform="translate(-47.835 -7.515)" fill="none" stroke="#000" stroke-linecap="round" stroke-linejoin="round" stroke-miterlimit="10" stroke-width="1.5"/>
        <path id="Trazado_725340" data-name="Trazado 725340" d="M138.747,46.166H118.678a1.3,1.3,0,0,1-1.295-1.295v-3.15a1.3,1.3,0,0,1,1.295-1.295h20.07a1.3,1.3,0,0,1,1.295,1.295v3.15A1.3,1.3,0,0,1,138.747,46.166Z" transform="translate(-103.455 -36.255)" fill="#6ce79a"/>
        <path id="Trazado_725341" data-name="Trazado 725341" d="M268.91,40.426h-2.471a1.3,1.3,0,0,1,1.295,1.295v3.15a1.3,1.3,0,0,1-1.295,1.3h2.471a1.3,1.3,0,0,0,1.295-1.3v-3.15A1.3,1.3,0,0,0,268.91,40.426Z" transform="translate(-233.618 -36.254)" fill="#00d8a2"/>
        <path id="Trazado_725342" data-name="Trazado 725342" d="M138.747,46.166H118.678a1.3,1.3,0,0,1-1.295-1.295v-3.15a1.3,1.3,0,0,1,1.295-1.295h20.07a1.3,1.3,0,0,1,1.295,1.295v3.15A1.3,1.3,0,0,1,138.747,46.166Z" transform="translate(-103.455 -36.255)" fill="none" stroke="#000" stroke-linecap="round" stroke-linejoin="round" stroke-miterlimit="10" stroke-width="1.5"/>
        <g id="Grupo_957781" data-name="Grupo 957781" transform="translate(11.253 14.685)">
          <line id="Línea_157" data-name="Línea 157" x2="28.008" transform="translate(0 36.35)" fill="none" stroke="#000" stroke-linecap="round" stroke-linejoin="round" stroke-miterlimit="10" stroke-width="1.5"/>
          <line id="Línea_158" data-name="Línea 158" x2="28.008" transform="translate(0 31.806)" fill="none" stroke="#000" stroke-linecap="round" stroke-linejoin="round" stroke-miterlimit="10" stroke-width="1.5"/>
          <line id="Línea_159" data-name="Línea 159" x2="28.008" transform="translate(0 27.263)" fill="none" stroke="#000" stroke-linecap="round" stroke-linejoin="round" stroke-miterlimit="10" stroke-width="1.5"/>
          <line id="Línea_160" data-name="Línea 160" x2="28.008" transform="translate(0 22.719)" fill="none" stroke="#000" stroke-linecap="round" stroke-linejoin="round" stroke-miterlimit="10" stroke-width="1.5"/>
          <line id="Línea_161" data-name="Línea 161" x2="28.008" transform="translate(0 18.175)" fill="none" stroke="#000" stroke-linecap="round" stroke-linejoin="round" stroke-miterlimit="10" stroke-width="1.5"/>
          <line id="Línea_162" data-name="Línea 162" x2="28.008" transform="translate(0 13.631)" fill="none" stroke="#000" stroke-linecap="round" stroke-linejoin="round" stroke-miterlimit="10" stroke-width="1.5"/>
          <line id="Línea_163" data-name="Línea 163" x2="28.008" transform="translate(0 9.088)" fill="none" stroke="#000" stroke-linecap="round" stroke-linejoin="round" stroke-miterlimit="10" stroke-width="1.5"/>
          <line id="Línea_164" data-name="Línea 164" x2="28.008" transform="translate(0 4.544)" fill="none" stroke="#000" stroke-linecap="round" stroke-linejoin="round" stroke-miterlimit="10" stroke-width="1.5"/>
          <line id="Línea_165" data-name="Línea 165" x2="28.008" transform="translate(0)" fill="none" stroke="#000" stroke-linecap="round" stroke-linejoin="round" stroke-miterlimit="10" stroke-width="1.5"/>
        </g>
        <circle id="Elipse_6719" data-name="Elipse 6719" cx="15.083" cy="15.083" r="15.083" transform="translate(32.834 23.772)" fill="#6ce79a"/>
        <path id="Trazado_725343" data-name="Trazado 725343" d="M373.637,195.063a15.23,15.23,0,0,0-1.727.1,15.083,15.083,0,0,1,0,29.968,15.237,15.237,0,0,0,1.727.1,15.083,15.083,0,1,0,0-30.166Z" transform="translate(-325.72 -171.291)" fill="#00d8a2"/>
        <g id="Grupo_957782" data-name="Grupo 957782" transform="translate(38.837 32.062)">
          <path id="Trazado_725344" data-name="Trazado 725344" d="M320.593,274.051a2.113,2.113,0,0,1-1.5-.621l-4.574-4.574a2.12,2.12,0,0,1,3-3l3.075,3.075,7.847-7.846a2.12,2.12,0,1,1,3,3l-9.346,9.346A2.113,2.113,0,0,1,320.593,274.051Z" transform="translate(-313.899 -260.465)" fill="#faf7f8"/>
        </g>
        <g id="Grupo_957783" data-name="Grupo 957783" transform="translate(38.837 32.062)">
          <path id="Trazado_725345" data-name="Trazado 725345" d="M320.593,274.051a2.113,2.113,0,0,1-1.5-.621l-4.574-4.574a2.12,2.12,0,0,1,3-3l3.075,3.075,7.847-7.846a2.12,2.12,0,1,1,3,3l-9.346,9.346A2.113,2.113,0,0,1,320.593,274.051Z" transform="translate(-313.899 -260.465)" fill="none" stroke="#000" stroke-linecap="round" stroke-linejoin="round" stroke-miterlimit="10" stroke-width="1.5"/>
        </g>
        <path id="Trazado_725346" data-name="Trazado 725346" d="M291.346,198.616a15.075,15.075,0,1,0,2.5,2.7" transform="translate(-233.706 -171.291)" fill="none" stroke="#000" stroke-linecap="round" stroke-linejoin="round" stroke-miterlimit="10" stroke-width="1.5"/>
      </g>
    </g>
    <g id="pulmones-infectados" transform="translate(1323.953 3912.943)">
      <path id="Trazado_725373" data-name="Trazado 725373" d="M38,57.427c1.437,5.762.6,18.382-.915,25.354-1.924,8.825-9.321,11.7-16.116,12.794-6.742,1.084-11.69.7-13.561-5.163C.23,67.919,16.16,51.2,23.881,47.963c5.868-2.457,11.584-.7,14.122,9.464Z" transform="translate(-1.279 -17.19)" fill="#ff5581"/>
      <path id="Trazado_725374" data-name="Trazado 725374" d="M70.388,57.427c-1.437,5.762-.6,18.382.915,25.354,1.924,8.825,9.321,11.7,16.114,12.794,6.742,1.084,11.69.7,13.561-5.163,7.181-22.494-8.749-39.215-16.47-42.449C78.643,45.507,72.929,47.265,70.388,57.427Z" transform="translate(-25.301 -17.19)" fill="#ff5581"/>
      <path id="Trazado_725375" data-name="Trazado 725375" d="M15.438,96.426c-4.269,0-7.9-1.369-9.469-6.288-7.317-22.918,8.975-40.238,17-43.6,3.229-1.352,6.256-1.4,8.749-.154,3.093,1.551,5.328,5,6.64,10.253C39.793,62.4,39.064,75,37.448,82.42,35.8,89.958,30.282,94.381,20.567,95.942a32.882,32.882,0,0,1-5.129.484ZM27.788,47.35a10.668,10.668,0,0,0-4.1.918C16.131,51.434.809,67.815,7.757,89.568,9.2,94.1,12.6,95.327,20.277,94.091c8.867-1.425,13.887-5.374,15.347-12.071,1.54-7.068,2.279-19.5.922-24.927-1.174-4.7-3.079-7.737-5.661-9.032a6.819,6.819,0,0,0-3.1-.711Z" transform="translate(-0.727 -16.631)" fill="#332c44"/>
      <path id="Trazado_725376" data-name="Trazado 725376" d="M91.84,96.427a32.881,32.881,0,0,1-5.134-.484C76.989,94.38,71.468,89.958,69.824,82.42,68.208,75,67.476,62.4,68.916,56.639c1.312-5.253,3.547-8.7,6.64-10.253,2.5-1.25,5.524-1.2,8.749.154,8.027,3.362,24.318,20.681,17,43.6-1.565,4.919-5.2,6.288-9.463,6.288ZM70.734,57.094c-1.357,5.43-.619,17.859.922,24.927,1.46,6.7,6.48,10.646,15.347,12.071,7.678,1.234,11.073.008,12.519-4.523,6.946-21.753-8.378-38.134-15.936-41.3-2.75-1.151-5.166-1.22-7.187-.207-2.582,1.295-4.487,4.333-5.661,9.032Z" transform="translate(-24.738 -16.631)" fill="#332c44"/>
      <path id="Trazado_725377" data-name="Trazado 725377" d="M104.358,18.617a1.5,1.5,0,0,0-1.375.292.1.1,0,0,1-.086.022l-1.021-.232a.7.7,0,0,1-.546-.549,5.658,5.658,0,0,0-.7-1.875.694.694,0,0,1,.011-.759l.875-1.262a.133.133,0,0,1,.1-.056,1.587,1.587,0,0,0,1.28-.756,1.687,1.687,0,0,0-.068-1.75,1.579,1.579,0,0,0-2.854,1.037.141.141,0,0,1-.044.116l-1.129,1a.711.711,0,0,1-.754.125,5.674,5.674,0,0,0-2.853-.458.709.709,0,0,1-.687-.363l-.521-.912a.125.125,0,0,1,0-.114,1.551,1.551,0,0,0-2.317-1.879,1.655,1.655,0,0,0-.625,1.6,1.562,1.562,0,0,0,.937,1.109.129.129,0,0,1,.08.082l.289,1.03a.711.711,0,0,1-.226.742,5.465,5.465,0,0,0-.611.589,5.572,5.572,0,0,0-.977,1.555.71.71,0,0,1-.659.43H88.811a.071.071,0,0,1-.057-.031,1.4,1.4,0,0,0-2.5.987,1.364,1.364,0,0,0,.875,1.159,1.5,1.5,0,0,0,1.456-.23l1.051.257a.708.708,0,0,1,.537.567A5.624,5.624,0,0,0,91.05,22.3a.714.714,0,0,1-.015.8l-.3.437a.213.213,0,0,1-.167.087,1.788,1.788,0,0,0-.784,3.348,1.763,1.763,0,0,0,1.9-.1,1.8,1.8,0,0,0,.75-1.585.212.212,0,0,1,.062-.178l.569-.5a.75.75,0,0,1,.755-.125,5.687,5.687,0,0,0,2.607.3.722.722,0,0,1,.683.347l.641,1.028a.071.071,0,0,1,.007.062,1.422,1.422,0,0,0,.983,1.89,1.393,1.393,0,0,0,.342.042,1.437,1.437,0,0,0,.866-.292,1.389,1.389,0,0,0,.535-1.375,1.42,1.42,0,0,0-.937-1.094.076.076,0,0,1-.046-.047l-.344-1.052a.712.712,0,0,1,.22-.774,5.567,5.567,0,0,0,1.587-2.131.711.711,0,0,1,.646-.427l1.082-.019a.107.107,0,0,1,.082.043,1.492,1.492,0,0,0,2.651-1.1,1.6,1.6,0,0,0-1.064-1.263Z" transform="translate(-31.529 -3.308)" fill="#4accbc"/>
      <circle id="Elipse_6729" data-name="Elipse 6729" cx="0.961" cy="0.961" r="0.961" transform="translate(62.46 17.402)" fill="#332c44"/>
      <circle id="Elipse_6730" data-name="Elipse 6730" cx="0.777" cy="0.777" r="0.777" transform="translate(60.754 13.76)" fill="#332c44"/>
      <circle id="Elipse_6731" data-name="Elipse 6731" cx="0.68" cy="0.68" r="0.68" transform="translate(66.123 12.846)" fill="#332c44"/>
      <circle id="Elipse_6732" data-name="Elipse 6732" cx="0.553" cy="0.553" r="0.553" transform="translate(63.933 14.652)" fill="#332c44"/>
      <circle id="Elipse_6733" data-name="Elipse 6733" cx="0.539" cy="0.539" r="0.539" transform="translate(66.474 16.871)" fill="#332c44"/>
      <path id="Trazado_725378" data-name="Trazado 725378" d="M34.282,29.223a2.448,2.448,0,0,0-2.093-1.36,2.274,2.274,0,0,0-1.859,1.009.38.38,0,0,1-.289.177l-1.674.114a1.274,1.274,0,0,1-1.236-.681,8.461,8.461,0,0,0-.7-1.1A8.591,8.591,0,0,0,24.4,25.418a1.292,1.292,0,0,1-.523-1.332l.341-1.654a.294.294,0,0,1,.162-.2,2.014,2.014,0,0,0-.662-3.815,1.968,1.968,0,0,0-1.892.891,2.018,2.018,0,0,0-.106,2.04.279.279,0,0,1,.005.25L21,23.129a1.257,1.257,0,0,1-1.212.746,8.71,8.71,0,0,0-3.6.625,1.3,1.3,0,0,1-1.419-.321l-.576-.606a.509.509,0,0,1-.128-.437,2.635,2.635,0,1,0-2.947,2.187.512.512,0,0,1,.383.25l.592,1.036a1.348,1.348,0,0,1-.049,1.382,8.766,8.766,0,0,0-1.274,3.83A1.306,1.306,0,0,1,9.9,32.911l-1.785.654a.293.293,0,0,1-.259-.027,2.053,2.053,0,0,0-2.963,2.616A2,2,0,0,0,6.68,37.316h.038a2.057,2.057,0,0,0,1.79-1,.292.292,0,0,1,.22-.142l1.727-.191a1.292,1.292,0,0,1,1.3.68,8.494,8.494,0,0,0,.7,1.116,8.606,8.606,0,0,0,2.01,1.944,1.294,1.294,0,0,1,.523,1.308l-.317,1.668a.342.342,0,0,1-.187.241,2.163,2.163,0,0,0,.774,4.088c.051.005.1.007.154.007a2.367,2.367,0,0,0,1.949-1.149,2.178,2.178,0,0,0-.008-2.04.332.332,0,0,1-.009-.3l.683-1.494a1.259,1.259,0,0,1,1.187-.766,8.865,8.865,0,0,0,3.038-.462,1.267,1.267,0,0,1,1.35.307l1.66,1.75a.379.379,0,0,1,.1.326,2.316,2.316,0,0,0,.7,2.054,2.5,2.5,0,0,0,2.511.422,2.3,2.3,0,0,0-.632-4.381.4.4,0,0,1-.295-.192l-1.181-2.052a1.289,1.289,0,0,1,.056-1.393A8.718,8.718,0,0,0,28.1,33.509a1.3,1.3,0,0,1,.9-1.091l1.589-.507a.375.375,0,0,1,.331.055,2.257,2.257,0,0,0,3.364-2.744Z" transform="translate(-0.939 -6.473)" fill="#3abaae"/>
      <circle id="Elipse_6734" data-name="Elipse 6734" cx="1.507" cy="1.507" r="1.507" transform="translate(13.387 22.546)" fill="#332c44"/>
      <circle id="Elipse_6735" data-name="Elipse 6735" cx="1.219" cy="1.219" r="1.219" transform="translate(20.158 21.157)" fill="#332c44"/>
      <circle id="Elipse_6736" data-name="Elipse 6736" cx="1.067" cy="1.067" r="1.067" transform="translate(20.176 29.733)" fill="#332c44"/>
      <circle id="Elipse_6737" data-name="Elipse 6737" cx="0.868" cy="0.868" r="0.868" transform="translate(18.537 25.835)" fill="#332c44"/>
      <circle id="Elipse_6738" data-name="Elipse 6738" cx="0.847" cy="0.847" r="0.847" transform="translate(14.36 29.032)" fill="#332c44"/>
      <path id="Trazado_725379" data-name="Trazado 725379" d="M115.375,58.709a1.2,1.2,0,0,0-1.125.125l-.726-.245a.421.421,0,0,1-.289-.357,4.014,4.014,0,0,0-.106-.613,4.1,4.1,0,0,0-.538-1.234.42.42,0,0,1,.009-.466l.406-.62a1.089,1.089,0,0,0,.459-2.044,1.069,1.069,0,0,0-1.132.055,1.026,1.026,0,0,0-.46.962l-.576.519a.42.42,0,0,1-.456.076,4.108,4.108,0,0,0-1.7-.38.424.424,0,0,1-.386-.274l-.129-.412a1.37,1.37,0,1,0-2.537-.691,1.468,1.468,0,0,0,.717,1.2l.069.541a.447.447,0,0,1-.192.415,4.164,4.164,0,0,0-1.257,1.454.417.417,0,0,1-.4.217l-.84-.019a1.108,1.108,0,0,0-2.016.692,1.085,1.085,0,0,0,.654.95,1.055,1.055,0,0,0,1.084-.12l.761.221a.422.422,0,0,1,.307.366,4.036,4.036,0,0,0,.106.619,4.1,4.1,0,0,0,.532,1.221.422.422,0,0,1-.007.459l-.417.641a1.157,1.157,0,0,0-.455,2.179,1.232,1.232,0,0,0,1.276-.133,1.131,1.131,0,0,0,.408-.995l.549-.512a.41.41,0,0,1,.449-.086,4.135,4.135,0,0,0,1.421.349.415.415,0,0,1,.369.256l.394,1.035a1.233,1.233,0,0,0-.076,1.147,1.312,1.312,0,0,0,1.114.717h.034a1.225,1.225,0,0,0,.937-.489,1.211,1.211,0,0,0,.207-1.031,1.23,1.23,0,0,0-.578-.764l-.138-1.074a.417.417,0,0,1,.187-.411,4.158,4.158,0,0,0,1.452-1.54.425.425,0,0,1,.408-.215l.76.066a1.2,1.2,0,0,0,2.21-.663,1.281,1.281,0,0,0-.745-1.1Z" transform="translate(-37.5 -18.968)" fill="#4ccca7"/>
      <g id="Grupo_957826" data-name="Grupo 957826" transform="translate(2.187 5.09)">
        <circle id="Elipse_6739" data-name="Elipse 6739" cx="0.689" cy="0.689" r="0.689" transform="translate(67.565 32.391)" fill="#332c44"/>
        <circle id="Elipse_6740" data-name="Elipse 6740" cx="0.557" cy="0.557" r="0.557" transform="translate(70.726 32.947)" fill="#332c44"/>
        <circle id="Elipse_6741" data-name="Elipse 6741" cx="0.487" cy="0.487" r="0.487" transform="translate(69.268 36.548)" fill="#332c44"/>
        <circle id="Elipse_6742" data-name="Elipse 6742" cx="0.396" cy="0.396" r="0.396" transform="translate(69.299 34.589)" fill="#332c44"/>
        <circle id="Elipse_6743" data-name="Elipse 6743" cx="0.387" cy="0.387" r="0.387" transform="translate(66.982 35.207)" fill="#332c44"/>
        <path id="Trazado_725380" data-name="Trazado 725380" d="M106.041,18.771a3.144,3.144,0,0,0-2.2-2.6,3.09,3.09,0,0,0-.84-.117,3.042,3.042,0,0,0-1.214.25,7.142,7.142,0,0,0-.489-1.288,4.341,4.341,0,0,0,2-1.7,3.235,3.235,0,0,0-.139-3.5,3.143,3.143,0,0,0-4.886-.233,4.668,4.668,0,0,0-1.049,1.8,7.166,7.166,0,0,0-2.4-.408h-.114A3.115,3.115,0,0,0,89.85,8.015a3.205,3.205,0,0,0-1.261,3.23,3.13,3.13,0,0,0,1.169,1.812c-.119.116-.233.236-.342.359a7.128,7.128,0,0,0-.99,1.437,2.973,2.973,0,0,0-1.367-.531,3.033,3.033,0,0,0-.351-.021,2.96,2.96,0,0,0-2.944,3.238,2.918,2.918,0,0,0,1.87,2.476A2.965,2.965,0,0,0,87.821,20a7.159,7.159,0,0,0,.521,1.41A3.35,3.35,0,1,0,92.981,25.2a7.2,7.2,0,0,0,1.844.239c.1,0,.192,0,.287-.006a3.458,3.458,0,0,0,.332,1.615,2.985,2.985,0,0,0,4.51,1.115,2.942,2.942,0,0,0,1.129-2.917,3.02,3.02,0,0,0-1.194-1.879c.116-.114.229-.232.336-.354a7.151,7.151,0,0,0,.987-1.43,3.029,3.029,0,0,0,1.481.562,2.971,2.971,0,0,0,.312.016,3.054,3.054,0,0,0,3.033-3.391Zm-3.033,1.516a1.157,1.157,0,0,1-.125-.006,1.172,1.172,0,0,1-.8-.441.42.42,0,0,0-.327-.162h-.007l-1.081.019a1.023,1.023,0,0,0-.928.617,5.287,5.287,0,0,1-.916,1.452,5.169,5.169,0,0,1-.582.562,1.027,1.027,0,0,0-.318,1.112l.344,1.052a.388.388,0,0,0,.241.246,1.113,1.113,0,0,1,.733.857,1.077,1.077,0,0,1-.416,1.069,1.109,1.109,0,0,1-1.711-1.279.385.385,0,0,0-.034-.341l-.64-1.029a1.039,1.039,0,0,0-.875-.5.865.865,0,0,0-.113.007,5.443,5.443,0,0,1-.63.037,5.347,5.347,0,0,1-1.834-.324,1.125,1.125,0,0,0-.383-.068,1.024,1.024,0,0,0-.687.256l-.569.5a.527.527,0,0,0-.171.437A1.473,1.473,0,1,1,89.637,23a.523.523,0,0,0,.409-.222l.3-.437a1.024,1.024,0,0,0,.018-1.151,5.334,5.334,0,0,1-.827-2.086,1.024,1.024,0,0,0-.772-.819l-1.051-.256a.361.361,0,0,0-.089-.011.375.375,0,0,0-.239.086,1.082,1.082,0,0,1-.684.244,1.125,1.125,0,0,1-.406-.077,1.051,1.051,0,0,1-.674-.9A1.084,1.084,0,0,1,86.7,16.179a1.125,1.125,0,0,1,.129.007,1.083,1.083,0,0,1,.732.417.383.383,0,0,0,.3.154h1.075a1.025,1.025,0,0,0,.946-.625,5.286,5.286,0,0,1,.922-1.467,5.186,5.186,0,0,1,.577-.556,1.026,1.026,0,0,0,.328-1.069l-.289-1.029a.437.437,0,0,0-.266-.288,1.239,1.239,0,0,1-.75-.887,1.354,1.354,0,0,1,.5-1.275,1.239,1.239,0,0,1,1.852,1.5.437.437,0,0,0,.018.39l.523.925a1.029,1.029,0,0,0,.891.526.871.871,0,0,0,.1,0q.264-.026.53-.026a5.337,5.337,0,0,1,2.165.457.98.98,0,0,0,.4.085,1.039,1.039,0,0,0,.687-.264l1.129-1a.451.451,0,0,0,.147-.375,1.267,1.267,0,0,1,2.292-.832,1.384,1.384,0,0,1,.054,1.4,1.269,1.269,0,0,1-1.029.608.441.441,0,0,0-.345.187L99.447,14.4a1.012,1.012,0,0,0-.023,1.1,5.335,5.335,0,0,1,.658,1.769,1.016,1.016,0,0,0,.784.8l1.021.232a.406.406,0,0,0,.356-.086,1.177,1.177,0,0,1,.758-.277,1.227,1.227,0,0,1,.331.046,1.286,1.286,0,0,1,.841.993,1.179,1.179,0,0,1-1.165,1.316Z" transform="translate(-32.779 -7.458)" fill="#332c44"/>
        <path id="Trazado_725381" data-name="Trazado 725381" d="M34.783,27.679a4,4,0,0,0-3.506-2.318h-.052a3.842,3.842,0,0,0-2.756,1.225l-.984.067a10.012,10.012,0,0,0-.736-1.147A10.186,10.186,0,0,0,24.5,23.3l.195-.946a3.577,3.577,0,0,0-1.737-6.43,3.62,3.62,0,0,0-.411-.024,3.52,3.52,0,0,0-2.97,1.625,3.567,3.567,0,0,0-.437,2.966l-.42.881H18.5a10.189,10.189,0,0,0-3.658.675l-.125-.132a4.189,4.189,0,1,0-5.274,3.915l.277.486a10.331,10.331,0,0,0-1.431,4.24l-1.136.416A3.616,3.616,0,0,0,2.54,35.882,3.558,3.558,0,0,0,5.714,37.94h.062a3.613,3.613,0,0,0,2.731-1.216l1.008-.112a10.128,10.128,0,0,0,2.963,3.343l-.187.978a3.726,3.726,0,0,0,1.866,6.706c.1.01.207.016.312.016a3.937,3.937,0,0,0,3.33-1.99,3.745,3.745,0,0,0,.241-2.9l.391-.855H18.5a10.239,10.239,0,0,0,3.157-.5l1.162,1.225a3.886,3.886,0,0,0,1.214,2.817,4.021,4.021,0,0,0,2.721,1.025,3.614,3.614,0,0,0,1.516-.316,3.865,3.865,0,0,0-.481-7.223l-.839-1.464a10.282,10.282,0,0,0,1.737-4.562l.93-.3a3.79,3.79,0,0,0,1.65.375,3.82,3.82,0,0,0,3.514-5.318Zm-3.147,3.407a1.937,1.937,0,0,1-1.478-.312.7.7,0,0,0-.4-.129.669.669,0,0,0-.2.032l-1.589.507a1.611,1.611,0,0,0-1.117,1.355,8.4,8.4,0,0,1-1.529,4,1.6,1.6,0,0,0-.074,1.73l1.178,2.056a.709.709,0,0,0,.524.346,1.989,1.989,0,0,1,.544,3.787,1.781,1.781,0,0,1-.736.146,2.153,2.153,0,0,1-1.43-.51,1.99,1.99,0,0,1-.6-1.777.7.7,0,0,0-.181-.591l-1.659-1.75a1.544,1.544,0,0,0-1.131-.479,1.687,1.687,0,0,0-.546.091,8.374,8.374,0,0,1-2.7.447h-.267a1.6,1.6,0,0,0-1.437.949l-.682,1.494a.646.646,0,0,0,.019.575,1.852,1.852,0,0,1,.006,1.75,2.047,2.047,0,0,1-1.667.982.8.8,0,0,1-.125-.006,1.851,1.851,0,0,1-.666-3.5.656.656,0,0,0,.356-.462l.315-1.672a1.607,1.607,0,0,0-.652-1.625,8.3,8.3,0,0,1-1.937-1.875,8.2,8.2,0,0,1-.676-1.074,1.609,1.609,0,0,0-1.427-.855,1.589,1.589,0,0,0-.18.01l-1.727.191a.607.607,0,0,0-.454.293,1.75,1.75,0,0,1-1.519.851H5.746a1.687,1.687,0,0,1-1.51-.979A1.742,1.742,0,0,1,5.4,32.633a1.762,1.762,0,0,1,.4-.046,1.74,1.74,0,0,1,.944.279.6.6,0,0,0,.325.1.616.616,0,0,0,.211-.037l1.786-.657a1.62,1.62,0,0,0,1.071-1.357,8.4,8.4,0,0,1,1.229-3.693,1.659,1.659,0,0,0,.056-1.7l-.592-1.036a.825.825,0,0,0-.612-.4,2.309,2.309,0,1,1,2.6-1.927.819.819,0,0,0,.21.7l.576.607a1.625,1.625,0,0,0,1.177.509,1.563,1.563,0,0,0,.586-.114,8.356,8.356,0,0,1,3.137-.61c.111,0,.222,0,.333.006H18.9a1.609,1.609,0,0,0,1.444-.926l.725-1.529a.594.594,0,0,0-.009-.529,1.709,1.709,0,0,1,.092-1.727,1.646,1.646,0,0,1,1.4-.761,1.625,1.625,0,0,1,.2.012,1.7,1.7,0,0,1,.562,3.225.6.6,0,0,0-.334.42l-.344,1.655a1.609,1.609,0,0,0,.652,1.653,8.267,8.267,0,0,1,1.96,1.888,8.051,8.051,0,0,1,.669,1.062,1.607,1.607,0,0,0,1.425.85c.037,0,.074,0,.112,0l1.674-.114a.694.694,0,0,0,.528-.316,1.946,1.946,0,0,1,1.6-.87h.022a2.129,2.129,0,0,1,1.778,1.171,1.945,1.945,0,0,1-1.419,2.679Z" transform="translate(-2.187 -10.625)" fill="#332c44"/>
        <path id="Trazado_725382" data-name="Trazado 725382" d="M115.007,56.335a2.767,2.767,0,0,0-1.342-.176,5.6,5.6,0,0,0-.223-.641A2.651,2.651,0,1,0,110.5,51.1a2.678,2.678,0,0,0-.9,1.08l-.146-.036a2.931,2.931,0,1,0-5.394,1.6,5.7,5.7,0,0,0-.452.53,2.67,2.67,0,0,0-3.934,2.486,2.638,2.638,0,0,0,1.593,2.307,2.69,2.69,0,0,0,1.075.224,2.615,2.615,0,0,0,.336-.022,5.673,5.673,0,0,0,.217.625,2.718,2.718,0,0,0,.169,4.706,2.75,2.75,0,0,0,3.774-1.34l.125.028a2.794,2.794,0,0,0,.2,1.63,2.854,2.854,0,0,0,2.54,1.644h.094a2.78,2.78,0,0,0,2.081-4.513,5.749,5.749,0,0,0,.734-.757,2.746,2.746,0,0,0,1.375.368,2.782,2.782,0,0,0,1.96-.816,2.754,2.754,0,0,0,.8-1.977,2.847,2.847,0,0,0-1.743-2.54Zm-1.019,3.454a.886.886,0,0,1-.75-.409.312.312,0,0,0-.239-.146l-.759-.062h-.062a.735.735,0,0,0-.646.379,3.832,3.832,0,0,1-1.34,1.421.731.731,0,0,0-.333.717L110,62.762a.323.323,0,0,0,.161.237.909.909,0,0,1-.431,1.694H109.7a1,1,0,0,1-.827-.534.909.909,0,0,1,.055-.855.317.317,0,0,0,.027-.281l-.395-1.029a.726.726,0,0,0-.641-.456,3.831,3.831,0,0,1-1.312-.323.687.687,0,0,0-.282-.062.75.75,0,0,0-.507.2l-.549.511a.3.3,0,0,0-.092.246.846.846,0,0,1-.3.743.9.9,0,0,1-.562.181.784.784,0,0,1-.368-.082.846.846,0,0,1,.329-1.592.3.3,0,0,0,.231-.133l.425-.649a.733.733,0,0,0,.008-.8,3.784,3.784,0,0,1-.491-1.129,3.726,3.726,0,0,1-.1-.571.735.735,0,0,0-.531-.637l-.76-.221a.274.274,0,0,0-.077-.011.277.277,0,0,0-.166.056.8.8,0,0,1-.475.158.823.823,0,0,1-.329-.07.771.771,0,0,1-.466-.677.8.8,0,0,1,.793-.842.744.744,0,0,1,.125.011.792.792,0,0,1,.526.332.276.276,0,0,0,.216.118l.868.036h.031a.737.737,0,0,0,.657-.387,3.833,3.833,0,0,1,1.163-1.344.757.757,0,0,0,.32-.709l-.069-.54a.375.375,0,0,0-.187-.277,1.057,1.057,0,0,1,.054-1.857,1.081,1.081,0,0,1,.477-.112,1.057,1.057,0,0,1,.9,1.61.375.375,0,0,0-.033.332l.137.356a.733.733,0,0,0,.675.474,3.831,3.831,0,0,1,1.57.351.713.713,0,0,0,.3.062.744.744,0,0,0,.5-.192l.575-.519a.272.272,0,0,0,.089-.225.781.781,0,0,1,.34-.713A.755.755,0,0,1,112,52.5a.779.779,0,0,1,.049,1.557.275.275,0,0,0-.214.119l-.432.638a.734.734,0,0,0-.013.812,3.783,3.783,0,0,1,.5,1.139,3.729,3.729,0,0,1,.1.566.735.735,0,0,0,.5.625l.727.244a.3.3,0,0,0,.1.016.326.326,0,0,0,.182-.057.891.891,0,0,1,.495-.151.909.909,0,0,1,.334.062.969.969,0,0,1,.552.812.889.889,0,0,1-.887.9Z" transform="translate(-38.75 -23.137)" fill="#332c44"/>
      </g>
      <path id="Trazado_725383" data-name="Trazado 725383" d="M46.387,36.166a1.187,1.187,0,0,0-2.092,0C41.72,41,35.9,46.846,33.783,48.549a2.445,2.445,0,0,0-.542,2.427,11.894,11.894,0,0,0,2.25,3.266,1.707,1.707,0,0,1-1.629,2.928,7.09,7.09,0,0,1-2.714-1.589,1.424,1.424,0,0,0-2,.085,34.153,34.153,0,0,0-2.239,2.769,1.325,1.325,0,0,0,.344,1.9,8.637,8.637,0,0,1,2.527,2.26,1.827,1.827,0,0,1-2.54,2.5,19.713,19.713,0,0,0-2.48-1.2,1.125,1.125,0,0,0-1.414.447c-.888,1.464-2.275,3.738-2.733,4.389a1.937,1.937,0,0,1-2.28.875,1.852,1.852,0,0,1-1.087-2.352c.044-.116.5-1.43.9-2.449a.464.464,0,0,0-.362-.625,6.712,6.712,0,0,1-3.084-.962,1.676,1.676,0,0,1-.559-1.995l.014-.035a1.709,1.709,0,0,1,1.984-1.03,20.143,20.143,0,0,0,3.228.427,1.312,1.312,0,0,0,1.209-.631c.465-.769.969-1.595,1.42-2.434a1.987,1.987,0,0,0-.617-2.588,6.658,6.658,0,0,0-4.019-1.146,1.709,1.709,0,0,1-1.739-1.722v-.045a1.926,1.926,0,0,1,1.672-1.875,10.182,10.182,0,0,1,6.342,1.194,1.965,1.965,0,0,0,2.467-.562c.143-.187.288-.375.429-.553a1.963,1.963,0,0,0-.2-2.642,10.151,10.151,0,0,1-2.952-4.2,1.6,1.6,0,0,1,.967-1.894,1.68,1.68,0,0,1,1.812.437,11.261,11.261,0,0,0,2.433,2.415,2.227,2.227,0,0,0,2.562-.125c2.53-2.134,8.242-6.411,9.834-14.866,1.34-7.12.431-17.755.152-24.428a2.183,2.183,0,0,1,2.18-2.278h4.043a2.183,2.183,0,0,1,2.18,2.278c-.279,6.673-1.187,17.311.152,24.428C51.287,37.8,57,42.081,59.529,44.209a2.227,2.227,0,0,0,2.562.125,11.261,11.261,0,0,0,2.434-2.41,1.68,1.68,0,0,1,1.812-.437,1.6,1.6,0,0,1,.965,1.894,10.156,10.156,0,0,1-2.95,4.2,1.963,1.963,0,0,0-.2,2.642c.141.179.286.366.429.553a1.965,1.965,0,0,0,2.467.562,10.182,10.182,0,0,1,6.342-1.194,1.926,1.926,0,0,1,1.672,1.875v.045a1.709,1.709,0,0,1-1.739,1.722,6.658,6.658,0,0,0-4.019,1.146,1.987,1.987,0,0,0-.617,2.588c.451.839.955,1.665,1.42,2.434a1.312,1.312,0,0,0,1.209.631,20.144,20.144,0,0,0,3.228-.427,1.709,1.709,0,0,1,1.984,1.03l.014.035a1.676,1.676,0,0,1-.559,1.995,6.712,6.712,0,0,1-3.084.962.465.465,0,0,0-.362.625c.4,1.019.852,2.332.9,2.448A1.852,1.852,0,0,1,72.347,69.6a1.937,1.937,0,0,1-2.28-.875c-.458-.651-1.845-2.925-2.733-4.389a1.125,1.125,0,0,0-1.414-.447,19.716,19.716,0,0,0-2.48,1.2,1.827,1.827,0,0,1-2.54-2.5,8.636,8.636,0,0,1,2.527-2.26,1.325,1.325,0,0,0,.344-1.9,34.152,34.152,0,0,0-2.239-2.769,1.424,1.424,0,0,0-2-.085,7.09,7.09,0,0,1-2.714,1.589,1.707,1.707,0,0,1-1.634-2.932,11.894,11.894,0,0,0,2.25-3.266,2.446,2.446,0,0,0-.542-2.427c-2.112-1.7-7.934-7.539-10.509-12.377Z" transform="translate(-4.435 -0.563)" fill="#ffe3de"/>
      <path id="Trazado_725384" data-name="Trazado 725384" d="M71.177,70.095A3.027,3.027,0,0,1,68.734,68.7c-.457-.651-1.719-2.715-2.767-4.441a.187.187,0,0,0-.238-.074l-.187.081a17.437,17.437,0,0,0-2.159,1.051,2.766,2.766,0,0,1-3.838-3.8,9.17,9.17,0,0,1,2.812-2.54.358.358,0,0,0,.163-.242.406.406,0,0,0-.072-.317,33.205,33.205,0,0,0-2.171-2.687.494.494,0,0,0-.7-.009A7.937,7.937,0,0,1,56.5,57.508a2.8,2.8,0,0,1-3.153-1.382,2.763,2.763,0,0,1,.625-3.12,10.9,10.9,0,0,0,2.05-2.975,1.6,1.6,0,0,0-.272-1.317c-2.062-1.657-8.085-7.657-10.753-12.669a.246.246,0,0,0-.437,0C41.888,41.056,35.865,47.056,33.8,48.714a1.59,1.59,0,0,0-.267,1.329,10.893,10.893,0,0,0,2.045,2.963,2.763,2.763,0,0,1,.625,3.12,2.8,2.8,0,0,1-3.153,1.382,7.937,7.937,0,0,1-3.08-1.782.493.493,0,0,0-.7.009A33.212,33.212,0,0,0,27.1,58.423a.406.406,0,0,0-.073.317.358.358,0,0,0,.163.242,9.163,9.163,0,0,1,2.812,2.541,2.766,2.766,0,0,1-3.838,3.8A17.436,17.436,0,0,0,24.01,64.27l-.187-.081a.187.187,0,0,0-.238.074c-1.047,1.725-2.309,3.79-2.767,4.441a2.77,2.77,0,0,1-4.922-.227,2.67,2.67,0,0,1-.085-2.129l.079-.222c.125-.357.363-1.025.608-1.679a6.526,6.526,0,0,1-2.907-1.03,2.6,2.6,0,0,1-.885-3.111A2.667,2.667,0,0,1,15.8,58.681a19.467,19.467,0,0,0,3.062.4.375.375,0,0,0,.346-.18l.1-.174c.437-.72.886-1.464,1.292-2.22a1.052,1.052,0,0,0-.322-1.371,5.754,5.754,0,0,0-3.459-.982,2.568,2.568,0,0,1-1.892-.732,2.692,2.692,0,0,1-.812-1.923,2.887,2.887,0,0,1,2.515-2.853,11.114,11.114,0,0,1,6.874,1.3,1.034,1.034,0,0,0,1.285-.3c.146-.191.294-.381.437-.562a1.025,1.025,0,0,0-.109-1.382,10.789,10.789,0,0,1-3.205-4.619,2.522,2.522,0,0,1,1.5-3.014,2.6,2.6,0,0,1,2.927.727,10.279,10.279,0,0,0,2.23,2.22,1.3,1.3,0,0,0,1.419-.082l.5-.416c2.647-2.2,7.58-6.294,9.011-13.9,1.092-5.8.664-13.95.319-20.5-.069-1.33-.132-2.582-.181-3.718a3.121,3.121,0,0,1,3.117-3.255H46.8A3.121,3.121,0,0,1,49.914,4.4c-.047,1.136-.113,2.387-.183,3.716-.344,6.549-.772,14.7.319,20.5,1.433,7.61,6.366,11.7,9.017,13.9l.5.416a1.3,1.3,0,0,0,1.417.081,10.261,10.261,0,0,0,2.23-2.22,2.6,2.6,0,0,1,2.928-.728,2.523,2.523,0,0,1,1.5,3.014A10.8,10.8,0,0,1,64.433,47.7a1.025,1.025,0,0,0-.107,1.383c.142.181.289.371.437.562a1.034,1.034,0,0,0,1.285.3,11.094,11.094,0,0,1,6.874-1.3,2.875,2.875,0,0,1,2.514,2.808,2.716,2.716,0,0,1-.812,1.968,2.614,2.614,0,0,1-1.892.736,5.812,5.812,0,0,0-3.459.982,1.052,1.052,0,0,0-.322,1.371c.407.756.857,1.5,1.292,2.22l.1.173a.365.365,0,0,0,.346.181,19.468,19.468,0,0,0,3.062-.4,2.657,2.657,0,0,1,3.078,1.587,2.61,2.61,0,0,1-.87,3.147,6.524,6.524,0,0,1-2.907,1.03c.245.654.482,1.322.608,1.679l.082.231a2.665,2.665,0,0,1-.088,2.121,2.828,2.828,0,0,1-1.535,1.437,2.589,2.589,0,0,1-.949.18ZM65.8,62.3a2.07,2.07,0,0,1,1.769.991c.549.9,2.218,3.653,2.7,4.336.092.132.581.774,1.171.543a.974.974,0,0,0,.522-.491.826.826,0,0,0,.034-.648c-.013-.035-.048-.132-.1-.279-.158-.446-.494-1.394-.8-2.17a1.4,1.4,0,0,1,1.089-1.893,5.931,5.931,0,0,0,2.687-.8.741.741,0,0,0,.233-.879.785.785,0,0,0-.9-.507,20.84,20.84,0,0,1-3.394.452,2.244,2.244,0,0,1-2.07-1.082l-.1-.172c-.447-.739-.909-1.5-1.339-2.3a2.924,2.924,0,0,1,.912-3.806,7.565,7.565,0,0,1,4.58-1.309.735.735,0,0,0,.527-.209.8.8,0,0,0,.244-.576,1,1,0,0,0-.831-.988,9.234,9.234,0,0,0-5.812,1.09,2.89,2.89,0,0,1-3.648-.82c-.14-.184-.282-.367-.421-.543a2.892,2.892,0,0,1,.293-3.9,9.083,9.083,0,0,0,2.693-3.774.668.668,0,0,0-.437-.776.8.8,0,0,0-.7.145,12.225,12.225,0,0,1-2.636,2.61,3.158,3.158,0,0,1-3.708-.176l-.49-.408c-2.833-2.349-8.1-6.722-9.661-15-1.134-6.021-.7-14.3-.35-20.944.069-1.322.135-2.567.182-3.7a1.245,1.245,0,0,0-1.244-1.3h-4.04a1.246,1.246,0,0,0-1.244,1.3c.047,1.13.112,2.375.182,3.7.349,6.649.784,14.923-.35,20.944-1.557,8.274-6.829,12.647-9.661,15l-.489.408a3.158,3.158,0,0,1-3.709.175,12.225,12.225,0,0,1-2.636-2.61.8.8,0,0,0-.7-.141.664.664,0,0,0-.429.772,9.08,9.08,0,0,0,2.693,3.775,2.892,2.892,0,0,1,.294,3.9c-.14.177-.282.36-.422.544a2.889,2.889,0,0,1-3.648.82,9.233,9.233,0,0,0-5.812-1.09.984.984,0,0,0-.831.943.837.837,0,0,0,.244.621.75.75,0,0,0,.527.209,7.567,7.567,0,0,1,4.58,1.309,2.924,2.924,0,0,1,.912,3.806c-.429.8-.891,1.562-1.339,2.3l-.1.173a2.25,2.25,0,0,1-2.07,1.082,20.839,20.839,0,0,1-3.394-.452.774.774,0,0,0-.889.471.754.754,0,0,0,.218.915,5.925,5.925,0,0,0,2.687.8,1.4,1.4,0,0,1,1.09,1.894c-.3.776-.638,1.724-.8,2.17-.052.146-.087.244-.1.272a.826.826,0,0,0,.032.654.969.969,0,0,0,.521.49c.588.231,1.079-.411,1.172-.542.481-.684,2.15-3.433,2.7-4.336a2.071,2.071,0,0,1,2.59-.82l.187.081a18.51,18.51,0,0,1,2.43,1.2.891.891,0,0,0,1.247-1.2,7.589,7.589,0,0,0-2.244-1.98,2.224,2.224,0,0,1-1-1.477,2.293,2.293,0,0,1,.4-1.771A35.269,35.269,0,0,1,27.9,54.462a2.37,2.37,0,0,1,3.292-.161,6.166,6.166,0,0,0,2.348,1.4.949.949,0,0,0,1.029-.482,1.041,1.041,0,0,0-.3-.87,12.864,12.864,0,0,1-2.452-3.557,3.368,3.368,0,0,1,.812-3.536C34.6,45.666,40.364,39.934,42.9,35.164a2.122,2.122,0,0,1,3.75,0c2.533,4.77,8.295,10.5,10.268,12.089a3.368,3.368,0,0,1,.812,3.536,12.85,12.85,0,0,1-2.452,3.557,1.039,1.039,0,0,0-.3.87.948.948,0,0,0,1.028.482,6.166,6.166,0,0,0,2.348-1.4,2.37,2.37,0,0,1,3.292.161,35.142,35.142,0,0,1,2.308,2.852,2.29,2.29,0,0,1,.4,1.771,2.224,2.224,0,0,1-1,1.477,7.589,7.589,0,0,0-2.244,1.98.892.892,0,0,0,1.247,1.2,18.509,18.509,0,0,1,2.431-1.2l.187-.081A2.054,2.054,0,0,1,65.8,62.3Z" transform="translate(-3.87 0)" fill="#332c44"/>
    </g>
  </g>
</svg>
