<svg xmlns="http://www.w3.org/2000/svg" xmlns:xlink="http://www.w3.org/1999/xlink" width="1240" height="711" viewBox="0 0 1240 711">
  <defs>
    <linearGradient id="linear-gradient" x1="-0.55" y1="1.495" x2="-0.534" y2="1.495" gradientUnits="objectBoundingBox">
      <stop offset="0" stop-color="#deefff"/>
      <stop offset="0.3" stop-color="#f7f7f8"/>
      <stop offset="0.758" stop-color="#e2e4e6"/>
      <stop offset="1" stop-color="#d4d8db"/>
    </linearGradient>
    <clipPath id="clip-path">
      <path id="Trazado_105229" data-name="Trazado 105229" d="M163.606,0a12.32,12.32,0,0,0-6.168,1.654l-61.676,35.6A12.34,12.34,0,0,0,89.59,47.944v71.217a12.335,12.335,0,0,0,6.172,10.686l61.676,35.608a12.346,12.346,0,0,0,12.336,0l61.673-35.608a12.332,12.332,0,0,0,6.168-10.686V47.944a12.336,12.336,0,0,0-6.168-10.686l-61.673-35.6A12.32,12.32,0,0,0,163.606,0Z" transform="translate(-89.59 0)" fill="#feb12e"/>
    </clipPath>
    <clipPath id="clip-path-2">
      <path id="Trazado_105231" data-name="Trazado 105231" d="M269.424,40.444,207.747,76.056a12.336,12.336,0,0,0-6.168,10.679v71.22a12.334,12.334,0,0,0,6.168,10.682l61.676,35.608a12.329,12.329,0,0,0,12.336,0l61.676-35.608a12.334,12.334,0,0,0,6.168-10.682V86.735a12.337,12.337,0,0,0-6.168-10.679L281.76,40.444a12.352,12.352,0,0,0-12.336,0" transform="translate(-201.579 -38.794)" fill="#34bc85"/>
    </clipPath>
    <clipPath id="clip-path-3">
      <path id="Trazado_105232" data-name="Trazado 105232" d="M224.628,118.032l-61.676,35.608a12.339,12.339,0,0,0-6.168,10.686v71.217a12.344,12.344,0,0,0,6.168,10.686l61.676,35.6a12.329,12.329,0,0,0,12.336,0l61.676-35.6a12.341,12.341,0,0,0,6.164-10.686V164.326a12.336,12.336,0,0,0-6.164-10.686l-61.676-35.608a12.352,12.352,0,0,0-12.336,0" transform="translate(-156.784 -116.382)" fill="#0e494d"/>
    </clipPath>
    <clipPath id="clip-path-4">
      <path id="Trazado_105233" data-name="Trazado 105233" d="M157.438,79.242,95.762,114.85a12.33,12.33,0,0,0-6.172,10.682v71.217a12.334,12.334,0,0,0,6.172,10.682l61.676,35.612a12.346,12.346,0,0,0,12.336,0l61.673-35.612a12.331,12.331,0,0,0,6.168-10.682V125.532a12.326,12.326,0,0,0-6.168-10.682L169.774,79.242a12.328,12.328,0,0,0-12.336,0" transform="translate(-89.59 -77.588)" fill="#badc61"/>
    </clipPath>
    <clipPath id="clip-path-5">
      <path id="Trazado_105234" data-name="Trazado 105234" d="M291.821,79.242,230.145,114.85a12.334,12.334,0,0,0-6.168,10.682v71.217a12.338,12.338,0,0,0,6.168,10.682l61.676,35.612a12.346,12.346,0,0,0,12.336,0l61.677-35.612A12.342,12.342,0,0,0,372,196.749V125.532a12.338,12.338,0,0,0-6.164-10.682L304.158,79.242a12.328,12.328,0,0,0-12.336,0" transform="translate(-223.977 -77.588)" fill="#feb12e"/>
    </clipPath>
    <clipPath id="clip-path-6">
      <path id="Trazado_105235" data-name="Trazado 105235" d="M90.245,40.444,28.569,76.056A12.332,12.332,0,0,0,22.4,86.735v71.22a12.33,12.33,0,0,0,6.172,10.682l61.676,35.608a12.329,12.329,0,0,0,12.336,0l61.673-35.608a12.326,12.326,0,0,0,6.168-10.682V86.735a12.329,12.329,0,0,0-6.168-10.679L102.581,40.444a12.352,12.352,0,0,0-12.336,0" transform="translate(-22.397 -38.794)" fill="#34bc85"/>
    </clipPath>
    <clipPath id="clip-path-7">
      <path id="Trazado_105236" data-name="Trazado 105236" d="M202.231,79.242,140.554,114.85a12.334,12.334,0,0,0-6.168,10.682v71.217a12.338,12.338,0,0,0,6.168,10.682l61.677,35.612a12.346,12.346,0,0,0,12.336,0l61.676-35.612a12.338,12.338,0,0,0,6.168-10.682V125.532a12.334,12.334,0,0,0-6.168-10.682L214.567,79.242a12.328,12.328,0,0,0-12.336,0" transform="translate(-134.386 -77.588)" fill="none"/>
    </clipPath>
    <linearGradient id="linear-gradient-2" x1="-1.987" y1="1.495" x2="-1.971" y2="1.495" gradientUnits="objectBoundingBox">
      <stop offset="0" stop-color="#fff"/>
      <stop offset="0.3" stop-color="#f7f7f8"/>
      <stop offset="0.758" stop-color="#e2e4e6"/>
      <stop offset="1" stop-color="#d4d8db"/>
    </linearGradient>
    <clipPath id="clip-path-8">
      <path id="Trazado_105238" data-name="Trazado 105238" d="M314.216,40.444,252.543,76.056a12.329,12.329,0,0,0-6.168,10.679v71.22a12.326,12.326,0,0,0,6.168,10.682l61.673,35.608a12.329,12.329,0,0,0,12.336,0l61.677-35.608a12.33,12.33,0,0,0,6.172-10.682V86.735a12.333,12.333,0,0,0-6.172-10.679L326.552,40.444a12.352,12.352,0,0,0-12.336,0" transform="translate(-246.375 -38.794)" fill="none"/>
    </clipPath>
    <linearGradient id="linear-gradient-3" x1="-3.783" y1="2.117" x2="-3.767" y2="2.117" xlink:href="#linear-gradient-2"/>
    <clipPath id="clip-path-9">
      <path id="Trazado_105240" data-name="Trazado 105240" d="M179.83,40.444,118.153,76.056a12.329,12.329,0,0,0-6.164,10.679v71.22a12.33,12.33,0,0,0,6.164,10.682l61.677,35.608a12.328,12.328,0,0,0,12.336,0l61.677-35.608a12.334,12.334,0,0,0,6.168-10.682V86.735a12.332,12.332,0,0,0-6.168-10.679L192.166,40.444a12.351,12.351,0,0,0-12.336,0" transform="translate(-111.989 -38.794)" fill="none"/>
    </clipPath>
    <linearGradient id="linear-gradient-4" x1="-1.628" y1="2.117" x2="-1.612" y2="2.117" xlink:href="#linear-gradient-2"/>
    <clipPath id="clip-path-10">
      <path id="Trazado_105242" data-name="Trazado 105242" d="M314.216,118.032l-61.673,35.608a12.332,12.332,0,0,0-6.168,10.686v71.217a12.336,12.336,0,0,0,6.168,10.686l61.673,35.6a12.329,12.329,0,0,0,12.336,0l61.677-35.6a12.34,12.34,0,0,0,6.172-10.686V164.326a12.335,12.335,0,0,0-6.172-10.686l-61.677-35.608a12.352,12.352,0,0,0-12.336,0" transform="translate(-246.375 -116.382)" fill="none"/>
    </clipPath>
    <linearGradient id="linear-gradient-5" x1="-3.783" y1="0.873" x2="-3.767" y2="0.873" xlink:href="#linear-gradient-2"/>
    <clipPath id="clip-path-11">
      <path id="Trazado_105244" data-name="Trazado 105244" d="M247.023,79.242,185.346,114.85a12.33,12.33,0,0,0-6.164,10.682v71.217a12.335,12.335,0,0,0,6.164,10.682l61.676,35.612a12.346,12.346,0,0,0,12.336,0l61.677-35.612a12.338,12.338,0,0,0,6.168-10.682V125.532a12.334,12.334,0,0,0-6.168-10.682L259.359,79.242a12.328,12.328,0,0,0-12.336,0" transform="translate(-179.182 -77.588)" fill="none"/>
    </clipPath>
    <linearGradient id="linear-gradient-6" x1="-2.705" y1="1.495" x2="-2.689" y2="1.495" xlink:href="#linear-gradient-2"/>
    <clipPath id="clip-path-12">
      <path id="Trazado_105246" data-name="Trazado 105246" d="M112.637,79.242,50.96,114.85A12.33,12.33,0,0,0,44.8,125.532v71.217a12.335,12.335,0,0,0,6.164,10.682l61.677,35.612a12.346,12.346,0,0,0,12.336,0l61.677-35.612a12.338,12.338,0,0,0,6.168-10.682V125.532a12.334,12.334,0,0,0-6.168-10.682L124.973,79.242a12.328,12.328,0,0,0-12.336,0" transform="translate(-44.796 -77.588)" fill="url(#linear-gradient)"/>
    </clipPath>
    <clipPath id="clip-path-13">
      <path id="Trazado_105248" data-name="Trazado 105248" d="M135.038,118.032,73.361,153.641a12.34,12.34,0,0,0-6.168,10.686v71.217a12.344,12.344,0,0,0,6.168,10.686l61.676,35.6a12.322,12.322,0,0,0,12.332,0l61.68-35.6a12.344,12.344,0,0,0,6.168-10.686V164.326a12.34,12.34,0,0,0-6.168-10.686l-61.68-35.608a12.345,12.345,0,0,0-12.332,0" transform="translate(-67.193 -116.382)" fill="none"/>
    </clipPath>
    <linearGradient id="linear-gradient-8" x1="-0.909" y1="0.873" x2="-0.893" y2="0.873" xlink:href="#linear-gradient-2"/>
    <clipPath id="clip-path-14">
      <path id="path3957" d="M0-682.665H90.834v90.834H0Z" transform="translate(0 682.665)"/>
    </clipPath>
    <clipPath id="clip-path-15">
      <path id="path1773" d="M0-682.665H82v82H0Z" transform="translate(0 682.665)"/>
    </clipPath>
    <clipPath id="clip-path-16">
      <path id="path2481" d="M0-682.665H89.268V-593.4H0Z" transform="translate(0 682.665)"/>
    </clipPath>
  </defs>
  <g id="_4" data-name="4" transform="translate(-180 -3066)">
    <g id="_4-2" data-name="4">
      <rect id="Rectángulo_338162" data-name="Rectángulo 338162" width="1240" height="711" transform="translate(180 3066)" fill="#f3f9ff"/>
    </g>
    <g id="Grupo_957852" data-name="Grupo 957852" transform="translate(-3 15.648)">
      <g id="Grupo_56884" data-name="Grupo 56884" transform="translate(553.988 3089.548)" clip-path="url(#clip-path)">
        <rect id="Rectángulo_5761" data-name="Rectángulo 5761" width="223.221" height="223.221" transform="translate(-83.828 83.828) rotate(-45)" fill="#feb12e"/>
      </g>
      <g id="Grupo_56888" data-name="Grupo 56888" transform="translate(945.605 3226.518)" clip-path="url(#clip-path-2)">
        <rect id="Rectángulo_5763" data-name="Rectángulo 5763" width="223.221" height="223.221" transform="translate(-83.828 83.828) rotate(-45)" fill="#34bc85"/>
      </g>
      <g id="Grupo_56890" data-name="Grupo 56890" transform="translate(785.955 3489.133)" clip-path="url(#clip-path-3)">
        <rect id="Rectángulo_5764" data-name="Rectángulo 5764" width="223.218" height="223.218" transform="translate(-83.828 83.828) rotate(-45)" fill="#0e494d"/>
      </g>
      <g id="Grupo_56892" data-name="Grupo 56892" transform="translate(553.028 3354.666)" clip-path="url(#clip-path-4)">
        <rect id="Rectángulo_5765" data-name="Rectángulo 5765" width="223.221" height="223.221" transform="translate(-83.828 83.828) rotate(-45)" fill="#badc61"/>
      </g>
      <g id="Grupo_56894" data-name="Grupo 56894" transform="translate(1018.966 3361.199)" clip-path="url(#clip-path-5)">
        <rect id="Rectángulo_5766" data-name="Rectángulo 5766" width="223.218" height="223.218" transform="translate(-83.828 83.828) rotate(-45)" fill="#feb12e"/>
      </g>
      <g id="Grupo_56896" data-name="Grupo 56896" transform="translate(316.988 3225.333)" clip-path="url(#clip-path-6)">
        <rect id="Rectángulo_5767" data-name="Rectángulo 5767" width="223.221" height="223.221" transform="translate(-83.828 83.828) rotate(-45)" fill="#34bc85"/>
      </g>
      <g id="Grupo_56898" data-name="Grupo 56898" transform="translate(706.962 3356.159)" clip-path="url(#clip-path-7)">
        <rect id="Rectángulo_5768" data-name="Rectángulo 5768" width="223.221" height="223.221" transform="translate(-83.828 83.828) rotate(-45)" fill="url(#linear-gradient-2)"/>
      </g>
      <g id="Grupo_56902" data-name="Grupo 56902" transform="translate(1098.988 3230.203)" clip-path="url(#clip-path-8)">
        <rect id="Rectángulo_5770" data-name="Rectángulo 5770" width="223.221" height="223.221" transform="matrix(0.707, -0.707, 0.707, 0.707, -83.828, 83.828)" fill="url(#linear-gradient-3)"/>
      </g>
      <g id="Grupo_56906" data-name="Grupo 56906" transform="translate(630.988 3221.848)" clip-path="url(#clip-path-9)">
        <rect id="Rectángulo_5772" data-name="Rectángulo 5772" width="223.218" height="223.218" transform="translate(-83.828 83.828) rotate(-45)" fill="url(#linear-gradient-4)"/>
      </g>
      <g id="Grupo_56910" data-name="Grupo 56910" transform="translate(1095.962 3493.049)" clip-path="url(#clip-path-10)">
        <rect id="Rectángulo_5774" data-name="Rectángulo 5774" width="223.221" height="223.221" transform="translate(-83.828 83.828) rotate(-45)" fill="url(#linear-gradient-5)"/>
      </g>
      <g id="Grupo_56914" data-name="Grupo 56914" transform="translate(863.988 3357.395)" clip-path="url(#clip-path-11)">
        <rect id="Rectángulo_5776" data-name="Rectángulo 5776" width="223.218" height="223.218" transform="translate(-83.828 83.828) rotate(-45)" fill="url(#linear-gradient-6)"/>
      </g>
      <g id="Grupo_56918" data-name="Grupo 56918" transform="translate(397.349 3355.666)" clip-path="url(#clip-path-12)">
        <rect id="Rectángulo_5778" data-name="Rectángulo 5778" width="223.218" height="223.218" transform="translate(-83.828 83.828) rotate(-45)" fill="url(#linear-gradient)"/>
      </g>
      <g id="Grupo_56922" data-name="Grupo 56922" transform="translate(474.988 3487.516)" clip-path="url(#clip-path-13)">
        <rect id="Rectángulo_5780" data-name="Rectángulo 5780" width="223.221" height="223.221" transform="translate(-83.828 83.828) rotate(-45)" fill="url(#linear-gradient-8)"/>
      </g>
      <path id="Trazado_725486" data-name="Trazado 725486" d="M34.17,14.658V19H31.085V6.2h5.106a5.948,5.948,0,0,1,2.6.541,4.074,4.074,0,0,1,1.749,1.538,4.2,4.2,0,0,1,.62,2.263,3.7,3.7,0,0,1-1.34,2.993,5.561,5.561,0,0,1-3.678,1.121Zm0-2.382h2.021a1.906,1.906,0,0,0,1.367-.448,1.665,1.665,0,0,0,.47-1.266,2.059,2.059,0,0,0-.483-1.433,1.712,1.712,0,0,0-1.318-.545H34.17Zm14.247-.105-.976-.07a1.752,1.752,0,0,0-1.793.879V19H42.687V9.49h2.777l.1,1.222a2.294,2.294,0,0,1,2.083-1.4,2.888,2.888,0,0,1,.826.105Zm5.669,7a4.889,4.889,0,0,1-3.542-1.305,4.507,4.507,0,0,1-1.354-3.4v-.246a5.84,5.84,0,0,1,.541-2.575,3.955,3.955,0,0,1,1.578-1.727,4.763,4.763,0,0,1,2.461-.611,4.117,4.117,0,0,1,3.164,1.244,4.887,4.887,0,0,1,1.16,3.467v1.151H52.206a2.135,2.135,0,0,0,.694,1.257,2.066,2.066,0,0,0,1.389.457,2.662,2.662,0,0,0,2.2-.984l1.354,1.6a3.784,3.784,0,0,1-1.569,1.217A5.3,5.3,0,0,1,54.086,19.176ZM53.752,11.6q-1.3,0-1.547,1.723h2.988v-.229a1.467,1.467,0,0,0-.36-1.1A1.434,1.434,0,0,0,53.752,11.6Zm10.512,4.729a.684.684,0,0,0-.4-.606,6.016,6.016,0,0,0-1.5-.475,6.853,6.853,0,0,1-1.828-.646,3.062,3.062,0,0,1-1.1-.971,2.319,2.319,0,0,1-.378-1.31,2.628,2.628,0,0,1,1.081-2.158,4.453,4.453,0,0,1,2.83-.848A4.934,4.934,0,0,1,66,10.167a2.666,2.666,0,0,1,1.143,2.241H64.167q0-1.143-1.2-1.143a1.194,1.194,0,0,0-.782.259.8.8,0,0,0-.316.646.737.737,0,0,0,.387.642,3.654,3.654,0,0,0,1.235.4,10.671,10.671,0,0,1,1.49.378,2.706,2.706,0,0,1,2.145,2.646,2.491,2.491,0,0,1-1.156,2.118,5.068,5.068,0,0,1-2.993.817,5.172,5.172,0,0,1-2.18-.439,3.645,3.645,0,0,1-1.494-1.2,2.707,2.707,0,0,1-.536-1.591h2.769a1.145,1.145,0,0,0,.439.962,1.808,1.808,0,0,0,1.081.3,1.422,1.422,0,0,0,.91-.246A.787.787,0,0,0,64.264,16.328ZM71.629,19H68.659V9.49h2.971ZM68.483,7.038A1.322,1.322,0,0,1,68.94,6a1.943,1.943,0,0,1,2.373,0,1.322,1.322,0,0,1,.457,1.037,1.322,1.322,0,0,1-.457,1.037,1.943,1.943,0,0,1-2.373,0A1.322,1.322,0,0,1,68.483,7.038Zm4.6,7.119a5.613,5.613,0,0,1,.554-2.536,3.96,3.96,0,0,1,1.591-1.709,4.791,4.791,0,0,1,2.435-.6,4.373,4.373,0,0,1,3.366,1.323,5.076,5.076,0,0,1,1.23,3.6v.105a4.925,4.925,0,0,1-1.235,3.529,4.384,4.384,0,0,1-3.344,1.305,4.434,4.434,0,0,1-3.261-1.217,4.761,4.761,0,0,1-1.327-3.3Zm2.962.185a3.538,3.538,0,0,0,.413,1.934,1.376,1.376,0,0,0,1.222.615q1.582,0,1.617-2.435v-.3q0-2.558-1.635-2.558-1.485,0-1.608,2.206ZM78.063,5.5h3.129L78.749,8.26l-2.417,0Zm8.218,3.99.1,1.116a3.225,3.225,0,0,1,2.716-1.292,2.713,2.713,0,0,1,2.219.888,4.226,4.226,0,0,1,.76,2.672V19H89.1V13a1.6,1.6,0,0,0-.29-1.059,1.342,1.342,0,0,0-1.055-.338,1.413,1.413,0,0,0-1.292.686V19H83.5V9.49ZM18.908,44a3.344,3.344,0,0,1-.281-.853,2.754,2.754,0,0,1-2.285,1.028,3.374,3.374,0,0,1-2.285-.813,2.588,2.588,0,0,1-.94-2.043,2.66,2.66,0,0,1,1.143-2.338,5.821,5.821,0,0,1,3.322-.791H18.5v-.5q0-1.316-1.134-1.316a.927.927,0,0,0-1.055,1.042H13.345a2.655,2.655,0,0,1,1.173-2.239,4.931,4.931,0,0,1,2.993-.86,4.323,4.323,0,0,1,2.874.888,3.086,3.086,0,0,1,1.081,2.435v4.21a4.311,4.311,0,0,0,.4,2V44Zm-1.854-1.934a1.652,1.652,0,0,0,.918-.237,1.487,1.487,0,0,0,.523-.536V39.772h-.861q-1.547,0-1.547,1.389a.848.848,0,0,0,.272.655A.986.986,0,0,0,17.054,42.066Zm9.5-9.94V34.49h1.564v2.057H26.555V40.9a1.111,1.111,0,0,0,.193.747,1.037,1.037,0,0,0,.765.211,4.345,4.345,0,0,0,.738-.053v2.118a5.466,5.466,0,0,1-1.67.255,3.1,3.1,0,0,1-2.259-.721,2.954,2.954,0,0,1-.729-2.188v-4.72H22.38V34.49h1.213V32.126Zm5.528,2.364.1,1.116A3.27,3.27,0,0,1,34.9,34.314a2.407,2.407,0,0,1,2.435,1.433,3.165,3.165,0,0,1,2.795-1.433q2.892,0,2.971,3.5V44H40.125V38a1.813,1.813,0,0,0-.246-1.063,1.048,1.048,0,0,0-.9-.334,1.4,1.4,0,0,0-1.31.782l.009.123V44H34.711V38.015a1.906,1.906,0,0,0-.237-1.081,1.045,1.045,0,0,0-.905-.334,1.42,1.42,0,0,0-1.3.782V44H29.306V34.49Zm12.331,4.667a5.613,5.613,0,0,1,.554-2.536,3.96,3.96,0,0,1,1.591-1.709,4.791,4.791,0,0,1,2.435-.6,4.373,4.373,0,0,1,3.366,1.323,5.076,5.076,0,0,1,1.23,3.6v.105a4.925,4.925,0,0,1-1.235,3.529,4.384,4.384,0,0,1-3.344,1.305,4.434,4.434,0,0,1-3.261-1.217,4.761,4.761,0,0,1-1.327-3.3Zm2.962.185a3.538,3.538,0,0,0,.413,1.934,1.376,1.376,0,0,0,1.222.615q1.582,0,1.617-2.435v-.3q0-2.558-1.635-2.558-1.485,0-1.608,2.206Zm12.5,1.986a.684.684,0,0,0-.4-.606,6.016,6.016,0,0,0-1.5-.475,6.853,6.853,0,0,1-1.828-.646,3.062,3.062,0,0,1-1.1-.971,2.319,2.319,0,0,1-.378-1.31,2.628,2.628,0,0,1,1.081-2.158,4.453,4.453,0,0,1,2.83-.848,4.934,4.934,0,0,1,3.023.853,2.666,2.666,0,0,1,1.143,2.241H59.777q0-1.143-1.2-1.143a1.194,1.194,0,0,0-.782.259.8.8,0,0,0-.316.646.737.737,0,0,0,.387.642,3.654,3.654,0,0,0,1.235.4,10.671,10.671,0,0,1,1.49.378A2.706,2.706,0,0,1,62.73,41.24a2.491,2.491,0,0,1-1.156,2.118,5.068,5.068,0,0,1-2.993.817,5.172,5.172,0,0,1-2.18-.439,3.645,3.645,0,0,1-1.494-1.2,2.707,2.707,0,0,1-.536-1.591h2.769a1.145,1.145,0,0,0,.439.962,1.808,1.808,0,0,0,1.081.3,1.422,1.422,0,0,0,.91-.246A.787.787,0,0,0,59.874,41.328ZM64.77,44V36.547H63.39V34.49h1.38v-.756a3.286,3.286,0,0,1,.958-2.522,3.785,3.785,0,0,1,2.689-.9,5.89,5.89,0,0,1,1.389.185l.009,2.18a2.706,2.706,0,0,0-.729-.079q-1.345,0-1.345,1.16v.729h1.854v2.057H67.74V44Zm10.468.176A4.889,4.889,0,0,1,71.7,42.871a4.507,4.507,0,0,1-1.354-3.4v-.246a5.84,5.84,0,0,1,.541-2.575,3.955,3.955,0,0,1,1.578-1.727,4.763,4.763,0,0,1,2.461-.611,4.117,4.117,0,0,1,3.164,1.244,4.887,4.887,0,0,1,1.16,3.467v1.151H73.356a2.135,2.135,0,0,0,.694,1.257,2.066,2.066,0,0,0,1.389.457,2.662,2.662,0,0,0,2.2-.984l1.354,1.6a3.784,3.784,0,0,1-1.569,1.217A5.3,5.3,0,0,1,75.237,44.176ZM74.9,36.6q-1.3,0-1.547,1.723h2.988v-.229a1.467,1.467,0,0,0-.36-1.1A1.434,1.434,0,0,0,74.9,36.6Zm-.035-6.108H78l-2.443,2.76-2.417,0Zm11.32,6.68-.976-.07a1.752,1.752,0,0,0-1.793.879V44H80.458V34.49h2.777l.1,1.222a2.294,2.294,0,0,1,2.083-1.4,2.888,2.888,0,0,1,.826.105ZM90.381,44H87.41V34.49h2.971ZM87.234,32.038A1.322,1.322,0,0,1,87.691,31a1.943,1.943,0,0,1,2.373,0,1.405,1.405,0,0,1,0,2.074,1.943,1.943,0,0,1-2.373,0A1.322,1.322,0,0,1,87.234,32.038Zm8.991,9.853a1.317,1.317,0,0,0,.967-.338,1.241,1.241,0,0,0,.334-.945H100.3a3.288,3.288,0,0,1-1.121,2.566,4.168,4.168,0,0,1-2.887,1,4.22,4.22,0,0,1-3.27-1.3,5.125,5.125,0,0,1-1.2-3.6v-.123a5.792,5.792,0,0,1,.532-2.544,3.872,3.872,0,0,1,1.534-1.7,4.573,4.573,0,0,1,2.373-.593,4.116,4.116,0,0,1,2.944,1.028,3.647,3.647,0,0,1,1.09,2.786H97.526A1.626,1.626,0,0,0,97.166,37a1.244,1.244,0,0,0-.967-.4q-1.151,0-1.345,1.468a10.357,10.357,0,0,0-.062,1.283,4.068,4.068,0,0,0,.343,1.986A1.187,1.187,0,0,0,96.226,41.891ZM106.913,44a3.344,3.344,0,0,1-.281-.853,2.754,2.754,0,0,1-2.285,1.028,3.374,3.374,0,0,1-2.285-.813,2.588,2.588,0,0,1-.94-2.043,2.66,2.66,0,0,1,1.143-2.338,5.821,5.821,0,0,1,3.322-.791h.914v-.5q0-1.316-1.134-1.316a.927.927,0,0,0-1.055,1.042H101.35a2.655,2.655,0,0,1,1.173-2.239,4.931,4.931,0,0,1,2.993-.86,4.323,4.323,0,0,1,2.874.888,3.086,3.086,0,0,1,1.081,2.435v4.21a4.311,4.311,0,0,0,.4,2V44Zm-1.854-1.934a1.652,1.652,0,0,0,.918-.237,1.487,1.487,0,0,0,.523-.536V39.772h-.861q-1.547,0-1.547,1.389a.848.848,0,0,0,.272.655A.986.986,0,0,0,105.059,42.066Z" transform="translate(408.988 3411)" fill="#12263f"/>
      <path id="Trazado_725484" data-name="Trazado 725484" d="M11.547,14.658V19H8.462V6.2h5.106a5.948,5.948,0,0,1,2.6.541,4.074,4.074,0,0,1,1.749,1.538,4.2,4.2,0,0,1,.62,2.263,3.7,3.7,0,0,1-1.34,2.993,5.561,5.561,0,0,1-3.678,1.121Zm0-2.382h2.021a1.906,1.906,0,0,0,1.367-.448,1.665,1.665,0,0,0,.47-1.266,2.059,2.059,0,0,0-.483-1.433A1.712,1.712,0,0,0,13.6,8.585H11.547Zm14.247-.105-.976-.07a1.752,1.752,0,0,0-1.793.879V19H20.064V9.49h2.777l.1,1.222a2.294,2.294,0,0,1,2.083-1.4,2.888,2.888,0,0,1,.826.105Zm5.669,7a4.889,4.889,0,0,1-3.542-1.305,4.507,4.507,0,0,1-1.354-3.4v-.246a5.84,5.84,0,0,1,.541-2.575,3.955,3.955,0,0,1,1.578-1.727,4.763,4.763,0,0,1,2.461-.611,4.117,4.117,0,0,1,3.164,1.244,4.887,4.887,0,0,1,1.16,3.467v1.151H29.583a2.135,2.135,0,0,0,.694,1.257,2.066,2.066,0,0,0,1.389.457,2.662,2.662,0,0,0,2.2-.984l1.354,1.6a3.784,3.784,0,0,1-1.569,1.217A5.3,5.3,0,0,1,31.463,19.176ZM31.129,11.6q-1.3,0-1.547,1.723h2.988v-.229a1.467,1.467,0,0,0-.36-1.1A1.434,1.434,0,0,0,31.129,11.6Zm9.554,5.291a1.317,1.317,0,0,0,.967-.338,1.241,1.241,0,0,0,.334-.945h2.777a3.288,3.288,0,0,1-1.121,2.566,4.168,4.168,0,0,1-2.887,1,4.22,4.22,0,0,1-3.27-1.3,5.125,5.125,0,0,1-1.2-3.6v-.123A5.792,5.792,0,0,1,36.82,11.6a3.872,3.872,0,0,1,1.534-1.7,4.573,4.573,0,0,1,2.373-.593,4.116,4.116,0,0,1,2.944,1.028,3.647,3.647,0,0,1,1.09,2.786H41.984A1.626,1.626,0,0,0,41.624,12a1.244,1.244,0,0,0-.967-.4q-1.151,0-1.345,1.468a10.357,10.357,0,0,0-.062,1.283,4.068,4.068,0,0,0,.343,1.986A1.187,1.187,0,0,0,40.683,16.891ZM49.138,19H46.167V9.49h2.971ZM45.992,7.038A1.322,1.322,0,0,1,46.449,6a1.943,1.943,0,0,1,2.373,0,1.322,1.322,0,0,1,.457,1.037,1.322,1.322,0,0,1-.457,1.037,1.943,1.943,0,0,1-2.373,0A1.322,1.322,0,0,1,45.992,7.038Zm13.8,7.277a5.735,5.735,0,0,1-1,3.538A3.2,3.2,0,0,1,56.1,19.176a2.742,2.742,0,0,1-2.153-.958v4.438H50.984V9.49h2.769l.088.879a2.742,2.742,0,0,1,2.241-1.055,3.224,3.224,0,0,1,2.733,1.3,5.805,5.805,0,0,1,.976,3.564Zm-2.962-.185q0-2.531-1.477-2.531a1.394,1.394,0,0,0-1.406.756V16.1a1.439,1.439,0,0,0,1.424.791q1.415,0,1.459-2.443ZM64.22,19H61.25V9.49H64.22ZM61.074,7.038A1.322,1.322,0,0,1,61.531,6,1.943,1.943,0,0,1,63.9,6a1.322,1.322,0,0,1,.457,1.037A1.322,1.322,0,0,1,63.9,8.075a1.943,1.943,0,0,1-2.373,0A1.322,1.322,0,0,1,61.074,7.038Zm8.42.088V9.49h1.564v2.057H69.494V15.9a1.111,1.111,0,0,0,.193.747,1.037,1.037,0,0,0,.765.211,4.345,4.345,0,0,0,.738-.053v2.118a5.466,5.466,0,0,1-1.67.255,3.1,3.1,0,0,1-2.259-.721,2.954,2.954,0,0,1-.729-2.188v-4.72H65.319V9.49h1.213V7.126ZM77.58,19a3.344,3.344,0,0,1-.281-.853,2.754,2.754,0,0,1-2.285,1.028,3.374,3.374,0,0,1-2.285-.813,2.588,2.588,0,0,1-.94-2.043,2.66,2.66,0,0,1,1.143-2.338,5.821,5.821,0,0,1,3.322-.791h.914v-.5q0-1.316-1.134-1.316a.927.927,0,0,0-1.055,1.042H72.016a2.655,2.655,0,0,1,1.173-2.239,4.931,4.931,0,0,1,2.993-.86,4.323,4.323,0,0,1,2.874.888,3.086,3.086,0,0,1,1.081,2.435v4.21a4.311,4.311,0,0,0,.4,2V19Zm-1.854-1.934a1.652,1.652,0,0,0,.918-.237,1.487,1.487,0,0,0,.523-.536V14.772h-.861q-1.547,0-1.547,1.389a.848.848,0,0,0,.272.655A.986.986,0,0,0,75.725,17.066ZM85.8,16.891a1.317,1.317,0,0,0,.967-.338,1.241,1.241,0,0,0,.334-.945h2.777a3.288,3.288,0,0,1-1.121,2.566,4.168,4.168,0,0,1-2.887,1,4.22,4.22,0,0,1-3.27-1.3,5.125,5.125,0,0,1-1.2-3.6v-.123a5.792,5.792,0,0,1,.532-2.544,3.872,3.872,0,0,1,1.534-1.7,4.573,4.573,0,0,1,2.373-.593,4.116,4.116,0,0,1,2.944,1.028,3.647,3.647,0,0,1,1.09,2.786H87.1A1.626,1.626,0,0,0,86.738,12a1.244,1.244,0,0,0-.967-.4q-1.151,0-1.345,1.468a10.357,10.357,0,0,0-.062,1.283,4.068,4.068,0,0,0,.343,1.986A1.187,1.187,0,0,0,85.8,16.891ZM94.252,19H91.282V9.49h2.971ZM91.106,7.038A1.322,1.322,0,0,1,91.563,6a1.943,1.943,0,0,1,2.373,0,1.322,1.322,0,0,1,.457,1.037,1.322,1.322,0,0,1-.457,1.037,1.943,1.943,0,0,1-2.373,0A1.322,1.322,0,0,1,91.106,7.038Zm4.6,7.119a5.613,5.613,0,0,1,.554-2.536,3.96,3.96,0,0,1,1.591-1.709,4.791,4.791,0,0,1,2.435-.6,4.373,4.373,0,0,1,3.366,1.323,5.076,5.076,0,0,1,1.23,3.6v.105a4.925,4.925,0,0,1-1.235,3.529,4.384,4.384,0,0,1-3.344,1.305,4.434,4.434,0,0,1-3.261-1.217,4.761,4.761,0,0,1-1.327-3.3Zm2.962.185a3.538,3.538,0,0,0,.413,1.934,1.376,1.376,0,0,0,1.222.615q1.582,0,1.617-2.435v-.3q0-2.558-1.635-2.558-1.485,0-1.608,2.206ZM100.686,5.5h3.129l-2.443,2.76-2.417,0ZM108.9,9.49l.1,1.116a3.225,3.225,0,0,1,2.716-1.292,2.713,2.713,0,0,1,2.219.888,4.226,4.226,0,0,1,.76,2.672V19h-2.971V13a1.6,1.6,0,0,0-.29-1.059,1.342,1.342,0,0,0-1.055-.338,1.413,1.413,0,0,0-1.292.686V19h-2.962V9.49Z" transform="translate(718.878 3423.752)" fill="#12263f"/>
      <path id="Trazado_725485" data-name="Trazado 725485" d="M12.33,15.52,14.878,6.2h3.445L14.017,19H10.642L6.371,6.2H9.79ZM23.72,19.176a4.889,4.889,0,0,1-3.542-1.305,4.507,4.507,0,0,1-1.354-3.4v-.246a5.84,5.84,0,0,1,.541-2.575,3.955,3.955,0,0,1,1.578-1.727A4.763,4.763,0,0,1,23.4,9.314a4.117,4.117,0,0,1,3.164,1.244,4.887,4.887,0,0,1,1.16,3.467v1.151H21.839a2.135,2.135,0,0,0,.694,1.257,2.066,2.066,0,0,0,1.389.457,2.662,2.662,0,0,0,2.2-.984l1.354,1.6A3.784,3.784,0,0,1,25.9,18.723,5.3,5.3,0,0,1,23.72,19.176ZM23.386,11.6q-1.3,0-1.547,1.723h2.988v-.229a1.467,1.467,0,0,0-.36-1.1A1.434,1.434,0,0,0,23.386,11.6ZM32.043,19H29.073V5.5h2.971Zm1.45-4.843a5.613,5.613,0,0,1,.554-2.536,3.96,3.96,0,0,1,1.591-1.709,4.791,4.791,0,0,1,2.435-.6,4.373,4.373,0,0,1,3.366,1.323,5.076,5.076,0,0,1,1.23,3.6v.105a4.925,4.925,0,0,1-1.235,3.529,4.384,4.384,0,0,1-3.344,1.305,4.434,4.434,0,0,1-3.261-1.217,4.761,4.761,0,0,1-1.327-3.3Zm2.962.185a3.538,3.538,0,0,0,.413,1.934,1.376,1.376,0,0,0,1.222.615q1.582,0,1.617-2.435v-.3q0-2.558-1.635-2.558-1.485,0-1.608,2.206ZM48,16.891a1.317,1.317,0,0,0,.967-.338,1.241,1.241,0,0,0,.334-.945h2.777a3.288,3.288,0,0,1-1.121,2.566,4.168,4.168,0,0,1-2.887,1,4.22,4.22,0,0,1-3.27-1.3,5.125,5.125,0,0,1-1.2-3.6v-.123a5.792,5.792,0,0,1,.532-2.544,3.872,3.872,0,0,1,1.534-1.7,4.573,4.573,0,0,1,2.373-.593,4.116,4.116,0,0,1,2.944,1.028,3.647,3.647,0,0,1,1.09,2.786H49.3A1.626,1.626,0,0,0,48.936,12a1.244,1.244,0,0,0-.967-.4q-1.151,0-1.345,1.468a10.357,10.357,0,0,0-.062,1.283,4.068,4.068,0,0,0,.343,1.986A1.187,1.187,0,0,0,48,16.891ZM56.451,19H53.48V9.49h2.971ZM53.3,7.038A1.322,1.322,0,0,1,53.761,6a1.943,1.943,0,0,1,2.373,0,1.322,1.322,0,0,1,.457,1.037,1.322,1.322,0,0,1-.457,1.037,1.943,1.943,0,0,1-2.373,0A1.322,1.322,0,0,1,53.3,7.038Zm4.6,7.137a5.809,5.809,0,0,1,.976-3.56,3.211,3.211,0,0,1,2.725-1.3,2.731,2.731,0,0,1,2.145,1V5.5h2.971V19H64.053L63.9,17.98a2.8,2.8,0,0,1-2.32,1.2,3.205,3.205,0,0,1-2.689-1.3A5.993,5.993,0,0,1,57.9,14.175Zm2.962.185q0,2.531,1.477,2.531a1.458,1.458,0,0,0,1.406-.826V12.443a1.419,1.419,0,0,0-1.389-.844q-1.371,0-1.485,2.215ZM73.756,19a3.344,3.344,0,0,1-.281-.853,2.754,2.754,0,0,1-2.285,1.028,3.374,3.374,0,0,1-2.285-.813,2.588,2.588,0,0,1-.94-2.043,2.66,2.66,0,0,1,1.143-2.338,5.821,5.821,0,0,1,3.322-.791h.914v-.5q0-1.316-1.134-1.316a.927.927,0,0,0-1.055,1.042H68.193a2.655,2.655,0,0,1,1.173-2.239,4.931,4.931,0,0,1,2.993-.86,4.323,4.323,0,0,1,2.874.888,3.086,3.086,0,0,1,1.081,2.435v4.21a4.311,4.311,0,0,0,.4,2V19ZM71.9,17.066a1.652,1.652,0,0,0,.918-.237,1.487,1.487,0,0,0,.523-.536V14.772h-.861q-1.547,0-1.547,1.389a.848.848,0,0,0,.272.655A.986.986,0,0,0,71.9,17.066Zm5.678-2.892a5.809,5.809,0,0,1,.976-3.56,3.211,3.211,0,0,1,2.725-1.3,2.731,2.731,0,0,1,2.145,1V5.5H86.4V19H83.732l-.149-1.02a2.8,2.8,0,0,1-2.32,1.2,3.205,3.205,0,0,1-2.689-1.3A5.993,5.993,0,0,1,77.58,14.175Zm2.962.185q0,2.531,1.477,2.531a1.458,1.458,0,0,0,1.406-.826V12.443a1.419,1.419,0,0,0-1.389-.844q-1.371,0-1.485,2.215Zm11.646-.185a5.809,5.809,0,0,1,.976-3.56,3.211,3.211,0,0,1,2.725-1.3,2.731,2.731,0,0,1,2.145,1V5.5H101V19H98.339l-.149-1.02a2.8,2.8,0,0,1-2.32,1.2,3.205,3.205,0,0,1-2.689-1.3A5.993,5.993,0,0,1,92.187,14.175Zm2.962.185q0,2.531,1.477,2.531a1.458,1.458,0,0,0,1.406-.826V12.443a1.419,1.419,0,0,0-1.389-.844q-1.371,0-1.485,2.215Zm12.138,4.816a4.889,4.889,0,0,1-3.542-1.305,4.507,4.507,0,0,1-1.354-3.4v-.246a5.84,5.84,0,0,1,.541-2.575,3.955,3.955,0,0,1,1.578-1.727,4.763,4.763,0,0,1,2.461-.611,4.117,4.117,0,0,1,3.164,1.244,4.887,4.887,0,0,1,1.16,3.467v1.151h-5.889a2.135,2.135,0,0,0,.694,1.257,2.066,2.066,0,0,0,1.389.457,2.662,2.662,0,0,0,2.2-.984l1.354,1.6a3.784,3.784,0,0,1-1.569,1.217A5.3,5.3,0,0,1,107.287,19.176Zm-.334-7.576q-1.3,0-1.547,1.723h2.988v-.229a1.467,1.467,0,0,0-.36-1.1A1.434,1.434,0,0,0,106.953,11.6ZM115.61,19h-2.971V5.5h2.971Zm-74.6,21.476,1.5-5.985h3.12L42.533,44H39.51l-3.1-9.51h3.129ZM49.644,44H46.673V34.49h2.971ZM46.5,32.038A1.322,1.322,0,0,1,46.954,31a1.943,1.943,0,0,1,2.373,0,1.405,1.405,0,0,1,0,2.074,1.943,1.943,0,0,1-2.373,0A1.322,1.322,0,0,1,46.5,32.038Zm9.571,12.138a4.889,4.889,0,0,1-3.542-1.305,4.507,4.507,0,0,1-1.354-3.4v-.246a5.84,5.84,0,0,1,.541-2.575,3.955,3.955,0,0,1,1.578-1.727,4.763,4.763,0,0,1,2.461-.611,4.117,4.117,0,0,1,3.164,1.244,4.887,4.887,0,0,1,1.16,3.467v1.151H54.188a2.135,2.135,0,0,0,.694,1.257,2.066,2.066,0,0,0,1.389.457,2.662,2.662,0,0,0,2.2-.984l1.354,1.6a3.784,3.784,0,0,1-1.569,1.217A5.3,5.3,0,0,1,56.068,44.176ZM55.734,36.6q-1.3,0-1.547,1.723h2.988v-.229a1.467,1.467,0,0,0-.36-1.1A1.434,1.434,0,0,0,55.734,36.6Zm8.253-2.109.1,1.116A3.225,3.225,0,0,1,66.8,34.314a2.713,2.713,0,0,1,2.219.888,4.226,4.226,0,0,1,.76,2.672V44H66.809V38a1.6,1.6,0,0,0-.29-1.059,1.342,1.342,0,0,0-1.055-.338,1.413,1.413,0,0,0-1.292.686V44H61.21V34.49Zm10.881-2.364V34.49h1.564v2.057H74.868V40.9a1.111,1.111,0,0,0,.193.747,1.037,1.037,0,0,0,.765.211,4.345,4.345,0,0,0,.738-.053v2.118a5.466,5.466,0,0,1-1.67.255,3.1,3.1,0,0,1-2.259-.721,2.954,2.954,0,0,1-.729-2.188v-4.72H70.693V34.49h1.213V32.126Zm2.092,7.031a5.613,5.613,0,0,1,.554-2.536A3.96,3.96,0,0,1,79.1,34.912a4.791,4.791,0,0,1,2.435-.6,4.373,4.373,0,0,1,3.366,1.323,5.076,5.076,0,0,1,1.23,3.6v.105A4.925,4.925,0,0,1,84.9,42.871a4.384,4.384,0,0,1-3.344,1.305A4.434,4.434,0,0,1,78.3,42.958a4.761,4.761,0,0,1-1.327-3.3Zm2.962.185a3.538,3.538,0,0,0,.413,1.934,1.376,1.376,0,0,0,1.222.615q1.582,0,1.617-2.435v-.3q0-2.558-1.635-2.558-1.485,0-1.608,2.206Z" transform="translate(643.078 3281.645)" fill="#12263f"/>
      <path id="Trazado_725487" data-name="Trazado 725487" d="M19.945,8.585H16.1V19H13.02V8.585H9.249V6.2h10.7Zm5.766,10.591a4.889,4.889,0,0,1-3.542-1.305,4.507,4.507,0,0,1-1.354-3.4v-.246a5.84,5.84,0,0,1,.541-2.575,3.955,3.955,0,0,1,1.578-1.727,4.763,4.763,0,0,1,2.461-.611,4.117,4.117,0,0,1,3.164,1.244,4.887,4.887,0,0,1,1.16,3.467v1.151H23.83a2.135,2.135,0,0,0,.694,1.257,2.066,2.066,0,0,0,1.389.457,2.662,2.662,0,0,0,2.2-.984l1.354,1.6A3.784,3.784,0,0,1,27.9,18.723,5.3,5.3,0,0,1,25.711,19.176ZM25.377,11.6q-1.3,0-1.547,1.723h2.988v-.229a1.467,1.467,0,0,0-.36-1.1A1.434,1.434,0,0,0,25.377,11.6ZM33.709,9.49l.1,1.116a3.27,3.27,0,0,1,2.716-1.292,2.407,2.407,0,0,1,2.435,1.433,3.165,3.165,0,0,1,2.795-1.433q2.892,0,2.971,3.5V19H41.751V13a1.813,1.813,0,0,0-.246-1.063,1.048,1.048,0,0,0-.9-.334,1.4,1.4,0,0,0-1.31.782l.009.123V19H36.337V13.015a1.906,1.906,0,0,0-.237-1.081,1.045,1.045,0,0,0-.905-.334,1.42,1.42,0,0,0-1.3.782V19H30.932V9.49Zm21.533,4.825a5.735,5.735,0,0,1-1,3.538,3.2,3.2,0,0,1-2.694,1.323,2.742,2.742,0,0,1-2.153-.958v4.438H46.436V9.49H49.2l.088.879a2.742,2.742,0,0,1,2.241-1.055,3.224,3.224,0,0,1,2.733,1.3,5.805,5.805,0,0,1,.976,3.564Zm-2.962-.185q0-2.531-1.477-2.531a1.394,1.394,0,0,0-1.406.756V16.1a1.439,1.439,0,0,0,1.424.791q1.415,0,1.459-2.443Zm8.868,5.045a4.889,4.889,0,0,1-3.542-1.305,4.507,4.507,0,0,1-1.354-3.4v-.246a5.84,5.84,0,0,1,.541-2.575,3.955,3.955,0,0,1,1.578-1.727,4.763,4.763,0,0,1,2.461-.611A4.117,4.117,0,0,1,64,10.558a4.887,4.887,0,0,1,1.16,3.467v1.151H59.268a2.135,2.135,0,0,0,.694,1.257,2.066,2.066,0,0,0,1.389.457,2.662,2.662,0,0,0,2.2-.984l1.354,1.6a3.784,3.784,0,0,1-1.569,1.217A5.3,5.3,0,0,1,61.148,19.176ZM60.814,11.6q-1.3,0-1.547,1.723h2.988v-.229a1.467,1.467,0,0,0-.36-1.1A1.434,1.434,0,0,0,60.814,11.6Zm11.285.571-.976-.07a1.752,1.752,0,0,0-1.793.879V19H66.369V9.49h2.777l.1,1.222a2.294,2.294,0,0,1,2.083-1.4,2.888,2.888,0,0,1,.826.105ZM78.261,19a3.344,3.344,0,0,1-.281-.853,2.754,2.754,0,0,1-2.285,1.028,3.374,3.374,0,0,1-2.285-.813,2.588,2.588,0,0,1-.94-2.043,2.66,2.66,0,0,1,1.143-2.338,5.821,5.821,0,0,1,3.322-.791h.914v-.5q0-1.316-1.134-1.316a.927.927,0,0,0-1.055,1.042H72.7a2.655,2.655,0,0,1,1.173-2.239,4.931,4.931,0,0,1,2.993-.86,4.323,4.323,0,0,1,2.874.888,3.086,3.086,0,0,1,1.081,2.435v4.21a4.311,4.311,0,0,0,.4,2V19Zm-1.854-1.934a1.652,1.652,0,0,0,.918-.237,1.487,1.487,0,0,0,.523-.536V14.772h-.861q-1.547,0-1.547,1.389a.848.848,0,0,0,.272.655A.986.986,0,0,0,76.406,17.066Zm9.5-9.94V9.49h1.564v2.057H85.907V15.9a1.111,1.111,0,0,0,.193.747,1.037,1.037,0,0,0,.765.211A4.345,4.345,0,0,0,87.6,16.8v2.118a5.466,5.466,0,0,1-1.67.255,3.1,3.1,0,0,1-2.259-.721,2.954,2.954,0,0,1-.729-2.188v-4.72H81.732V9.49h1.213V7.126ZM94.3,17.972a3.054,3.054,0,0,1-2.54,1.2,3,3,0,0,1-2.369-.91,3.826,3.826,0,0,1-.8-2.615V9.49H91.55v6.179a1.065,1.065,0,0,0,1.187,1.222,1.548,1.548,0,0,0,1.45-.729V9.49h2.979V19H94.389Zm10.239-5.8-.976-.07a1.752,1.752,0,0,0-1.793.879V19H98.81V9.49h2.777l.1,1.222a2.294,2.294,0,0,1,2.083-1.4,2.888,2.888,0,0,1,.826.105ZM110.7,19a3.344,3.344,0,0,1-.281-.853,2.754,2.754,0,0,1-2.285,1.028,3.374,3.374,0,0,1-2.285-.813,2.588,2.588,0,0,1-.94-2.043,2.66,2.66,0,0,1,1.143-2.338,5.821,5.821,0,0,1,3.322-.791h.914v-.5q0-1.316-1.134-1.316a.927.927,0,0,0-1.055,1.042h-2.962a2.655,2.655,0,0,1,1.173-2.239,4.931,4.931,0,0,1,2.993-.86,4.323,4.323,0,0,1,2.874.888,3.086,3.086,0,0,1,1.081,2.435v4.21a4.311,4.311,0,0,0,.4,2V19Zm-1.854-1.934a1.652,1.652,0,0,0,.918-.237,1.487,1.487,0,0,0,.523-.536V14.772h-.861q-1.547,0-1.547,1.389a.848.848,0,0,0,.272.655A.986.986,0,0,0,108.847,17.066Z" transform="translate(488.435 3555.891)" fill="#12263f"/>
      <path id="Trazado_725481" data-name="Trazado 725481" d="M9.231,19V6.2h4.122a6.064,6.064,0,0,1,3.05.769,5.406,5.406,0,0,1,2.114,2.171,6.554,6.554,0,0,1,.769,3.142v.589a6.592,6.592,0,0,1-.743,3.151,5.429,5.429,0,0,1-2.092,2.18,5.93,5.93,0,0,1-3.01.8ZM12.316,8.585v8.042h1.072a2.4,2.4,0,0,0,2.039-.945,4.63,4.63,0,0,0,.712-2.808V12.32a4.592,4.592,0,0,0-.712-2.795,2.442,2.442,0,0,0-2.074-.94ZM23.856,19H20.886V9.49h2.971ZM20.71,7.038A1.322,1.322,0,0,1,21.167,6,1.943,1.943,0,0,1,23.54,6,1.322,1.322,0,0,1,24,7.038a1.322,1.322,0,0,1-.457,1.037,1.943,1.943,0,0,1-2.373,0A1.322,1.322,0,0,1,20.71,7.038Zm10.723,5.133-.976-.07a1.752,1.752,0,0,0-1.793.879V19H25.7V9.49h2.777l.1,1.222a2.294,2.294,0,0,1,2.083-1.4,2.888,2.888,0,0,1,.826.105Zm5.669,7a4.889,4.889,0,0,1-3.542-1.305,4.507,4.507,0,0,1-1.354-3.4v-.246a5.84,5.84,0,0,1,.541-2.575,3.955,3.955,0,0,1,1.578-1.727,4.763,4.763,0,0,1,2.461-.611,4.117,4.117,0,0,1,3.164,1.244,4.887,4.887,0,0,1,1.16,3.467v1.151H35.221a2.135,2.135,0,0,0,.694,1.257,2.066,2.066,0,0,0,1.389.457,2.662,2.662,0,0,0,2.2-.984l1.354,1.6a3.784,3.784,0,0,1-1.569,1.217A5.3,5.3,0,0,1,37.1,19.176ZM36.768,11.6q-1.3,0-1.547,1.723h2.988v-.229a1.467,1.467,0,0,0-.36-1.1A1.434,1.434,0,0,0,36.768,11.6Zm9.554,5.291a1.317,1.317,0,0,0,.967-.338,1.241,1.241,0,0,0,.334-.945H50.4a3.288,3.288,0,0,1-1.121,2.566,4.168,4.168,0,0,1-2.887,1,4.22,4.22,0,0,1-3.27-1.3,5.125,5.125,0,0,1-1.2-3.6v-.123a5.792,5.792,0,0,1,.532-2.544,3.872,3.872,0,0,1,1.534-1.7,4.573,4.573,0,0,1,2.373-.593,4.116,4.116,0,0,1,2.944,1.028,3.647,3.647,0,0,1,1.09,2.786H47.622A1.626,1.626,0,0,0,47.262,12a1.244,1.244,0,0,0-.967-.4q-1.151,0-1.345,1.468a10.357,10.357,0,0,0-.062,1.283,4.068,4.068,0,0,0,.343,1.986A1.187,1.187,0,0,0,46.321,16.891Zm9.352,0a1.317,1.317,0,0,0,.967-.338,1.241,1.241,0,0,0,.334-.945h2.777a3.288,3.288,0,0,1-1.121,2.566,4.168,4.168,0,0,1-2.887,1,4.22,4.22,0,0,1-3.27-1.3,5.125,5.125,0,0,1-1.2-3.6v-.123A5.792,5.792,0,0,1,51.81,11.6a3.872,3.872,0,0,1,1.534-1.7,4.573,4.573,0,0,1,2.373-.593,4.116,4.116,0,0,1,2.944,1.028,3.647,3.647,0,0,1,1.09,2.786H56.974A1.626,1.626,0,0,0,56.613,12a1.244,1.244,0,0,0-.967-.4q-1.151,0-1.345,1.468a10.357,10.357,0,0,0-.062,1.283,4.068,4.068,0,0,0,.343,1.986A1.187,1.187,0,0,0,55.673,16.891ZM64.128,19H61.157V9.49h2.971ZM60.981,7.038A1.322,1.322,0,0,1,61.438,6a1.943,1.943,0,0,1,2.373,0,1.322,1.322,0,0,1,.457,1.037,1.322,1.322,0,0,1-.457,1.037,1.943,1.943,0,0,1-2.373,0A1.322,1.322,0,0,1,60.981,7.038Zm4.6,7.119a5.613,5.613,0,0,1,.554-2.536,3.96,3.96,0,0,1,1.591-1.709,4.791,4.791,0,0,1,2.435-.6,4.373,4.373,0,0,1,3.366,1.323,5.076,5.076,0,0,1,1.23,3.6v.105a4.925,4.925,0,0,1-1.235,3.529,4.384,4.384,0,0,1-3.344,1.305,4.434,4.434,0,0,1-3.261-1.217,4.761,4.761,0,0,1-1.327-3.3Zm2.962.185a3.538,3.538,0,0,0,.413,1.934,1.376,1.376,0,0,0,1.222.615q1.582,0,1.617-2.435v-.3q0-2.558-1.635-2.558-1.485,0-1.608,2.206ZM70.562,5.5H73.69L71.247,8.26l-2.417,0Zm8.218,3.99.1,1.116a3.225,3.225,0,0,1,2.716-1.292,2.713,2.713,0,0,1,2.219.888,4.226,4.226,0,0,1,.76,2.672V19H81.6V13a1.6,1.6,0,0,0-.29-1.059,1.342,1.342,0,0,0-1.055-.338,1.413,1.413,0,0,0-1.292.686V19H76V9.49Zm11.54,4.685a5.809,5.809,0,0,1,.976-3.56,3.211,3.211,0,0,1,2.725-1.3,2.731,2.731,0,0,1,2.145,1V5.5h2.971V19H96.472l-.149-1.02a2.8,2.8,0,0,1-2.32,1.2,3.205,3.205,0,0,1-2.689-1.3A5.993,5.993,0,0,1,90.319,14.175Zm2.962.185q0,2.531,1.477,2.531a1.458,1.458,0,0,0,1.406-.826V12.443a1.419,1.419,0,0,0-1.389-.844q-1.371,0-1.485,2.215Zm12.138,4.816a4.889,4.889,0,0,1-3.542-1.305,4.507,4.507,0,0,1-1.354-3.4v-.246a5.84,5.84,0,0,1,.541-2.575,3.955,3.955,0,0,1,1.578-1.727,4.763,4.763,0,0,1,2.461-.611,4.117,4.117,0,0,1,3.164,1.244,4.887,4.887,0,0,1,1.16,3.467v1.151h-5.889a2.135,2.135,0,0,0,.694,1.257,2.066,2.066,0,0,0,1.389.457,2.662,2.662,0,0,0,2.2-.984l1.354,1.6a3.784,3.784,0,0,1-1.569,1.217A5.3,5.3,0,0,1,105.419,19.176Zm-.334-7.576q-1.3,0-1.547,1.723h2.988v-.229a1.467,1.467,0,0,0-.36-1.1A1.434,1.434,0,0,0,105.085,11.6Zm8.657,7.4h-2.971V5.5h2.971ZM41.013,40.476l1.5-5.985h3.12L42.533,44H39.51l-3.1-9.51h3.129ZM49.644,44H46.673V34.49h2.971ZM46.5,32.038A1.322,1.322,0,0,1,46.954,31a1.943,1.943,0,0,1,2.373,0,1.405,1.405,0,0,1,0,2.074,1.943,1.943,0,0,1-2.373,0A1.322,1.322,0,0,1,46.5,32.038Zm9.571,12.138a4.889,4.889,0,0,1-3.542-1.305,4.507,4.507,0,0,1-1.354-3.4v-.246a5.84,5.84,0,0,1,.541-2.575,3.955,3.955,0,0,1,1.578-1.727,4.763,4.763,0,0,1,2.461-.611,4.117,4.117,0,0,1,3.164,1.244,4.887,4.887,0,0,1,1.16,3.467v1.151H54.188a2.135,2.135,0,0,0,.694,1.257,2.066,2.066,0,0,0,1.389.457,2.662,2.662,0,0,0,2.2-.984l1.354,1.6a3.784,3.784,0,0,1-1.569,1.217A5.3,5.3,0,0,1,56.068,44.176ZM55.734,36.6q-1.3,0-1.547,1.723h2.988v-.229a1.467,1.467,0,0,0-.36-1.1A1.434,1.434,0,0,0,55.734,36.6Zm8.253-2.109.1,1.116A3.225,3.225,0,0,1,66.8,34.314a2.713,2.713,0,0,1,2.219.888,4.226,4.226,0,0,1,.76,2.672V44H66.809V38a1.6,1.6,0,0,0-.29-1.059,1.342,1.342,0,0,0-1.055-.338,1.413,1.413,0,0,0-1.292.686V44H61.21V34.49Zm10.881-2.364V34.49h1.564v2.057H74.868V40.9a1.111,1.111,0,0,0,.193.747,1.037,1.037,0,0,0,.765.211,4.345,4.345,0,0,0,.738-.053v2.118a5.466,5.466,0,0,1-1.67.255,3.1,3.1,0,0,1-2.259-.721,2.954,2.954,0,0,1-.729-2.188v-4.72H70.693V34.49h1.213V32.126Zm2.092,7.031a5.613,5.613,0,0,1,.554-2.536A3.96,3.96,0,0,1,79.1,34.912a4.791,4.791,0,0,1,2.435-.6,4.373,4.373,0,0,1,3.366,1.323,5.076,5.076,0,0,1,1.23,3.6v.105A4.925,4.925,0,0,1,84.9,42.871a4.384,4.384,0,0,1-3.344,1.305A4.434,4.434,0,0,1,78.3,42.958a4.761,4.761,0,0,1-1.327-3.3Zm2.962.185a3.538,3.538,0,0,0,.413,1.934,1.376,1.376,0,0,0,1.222.615q1.582,0,1.617-2.435v-.3q0-2.558-1.635-2.558-1.485,0-1.608,2.206Z" transform="translate(876.545 3415.987)" fill="#12263f"/>
      <path id="Trazado_725482" data-name="Trazado 725482" d="M16.2,13.463a5.964,5.964,0,0,1-.268,2.026,3.026,3.026,0,0,1-.9,1.244l-.58.536a2.292,2.292,0,0,0-.817,1.635,1.221,1.221,0,0,0,.294.91,1.046,1.046,0,0,0,.76.286,1.161,1.161,0,0,0,.918-.374,1.615,1.615,0,0,0,.347-1.059h2.979a3.6,3.6,0,0,1-1.121,2.742,4.411,4.411,0,0,1-3.054.976,4.535,4.535,0,0,1-3.028-.91A3.192,3.192,0,0,1,10.664,18.9,2.953,2.953,0,0,1,11,17.528a5.455,5.455,0,0,1,1.143-1.4l.747-.686a2.019,2.019,0,0,0,.756-1.345l.044-.633Zm-1.178-1.187a1.7,1.7,0,0,1-1.173-.417,1.448,1.448,0,0,1,0-2.136,1.7,1.7,0,0,1,1.173-.417,1.674,1.674,0,0,1,1.182.426,1.446,1.446,0,0,1,0,2.118A1.674,1.674,0,0,1,15.023,12.276Zm9.888,2.2h-1.67V19H20.156V6.2h5.036a5.621,5.621,0,0,1,3.56,1.01,3.421,3.421,0,0,1,1.283,2.853,4.155,4.155,0,0,1-.541,2.213A3.837,3.837,0,0,1,27.8,13.7l2.672,5.167V19h-3.3ZM23.241,12.1h1.951a1.751,1.751,0,0,0,1.323-.463,1.788,1.788,0,0,0,.444-1.291,1.809,1.809,0,0,0-.448-1.3,1.735,1.735,0,0,0-1.318-.471H23.241Zm8.147,2.057a5.613,5.613,0,0,1,.554-2.536,3.96,3.96,0,0,1,1.591-1.709,4.791,4.791,0,0,1,2.435-.6,4.373,4.373,0,0,1,3.366,1.323,5.076,5.076,0,0,1,1.23,3.6v.105a4.925,4.925,0,0,1-1.235,3.529,4.384,4.384,0,0,1-3.344,1.305,4.434,4.434,0,0,1-3.261-1.217,4.761,4.761,0,0,1-1.327-3.3Zm2.962.185a3.538,3.538,0,0,0,.413,1.934,1.376,1.376,0,0,0,1.222.615q1.582,0,1.617-2.435v-.3q0-2.558-1.635-2.558-1.485,0-1.608,2.206Zm12.5,1.986a.684.684,0,0,0-.4-.606,6.016,6.016,0,0,0-1.5-.475,6.853,6.853,0,0,1-1.828-.646,3.062,3.062,0,0,1-1.1-.971,2.319,2.319,0,0,1-.378-1.31,2.628,2.628,0,0,1,1.081-2.158,4.453,4.453,0,0,1,2.83-.848,4.934,4.934,0,0,1,3.023.853,2.666,2.666,0,0,1,1.143,2.241H46.752q0-1.143-1.2-1.143a1.194,1.194,0,0,0-.782.259.8.8,0,0,0-.316.646.737.737,0,0,0,.387.642,3.654,3.654,0,0,0,1.235.4,10.671,10.671,0,0,1,1.49.378,2.706,2.706,0,0,1,2.145,2.646,2.491,2.491,0,0,1-1.156,2.118,5.068,5.068,0,0,1-2.993.817,5.172,5.172,0,0,1-2.18-.439,3.645,3.645,0,0,1-1.494-1.2,2.707,2.707,0,0,1-.536-1.591h2.769a1.145,1.145,0,0,0,.439.962,1.808,1.808,0,0,0,1.081.3,1.422,1.422,0,0,0,.91-.246A.787.787,0,0,0,46.849,16.328ZM56.446,19a3.344,3.344,0,0,1-.281-.853,2.754,2.754,0,0,1-2.285,1.028,3.374,3.374,0,0,1-2.285-.813,2.588,2.588,0,0,1-.94-2.043A2.66,2.66,0,0,1,51.8,13.981a5.821,5.821,0,0,1,3.322-.791h.914v-.5q0-1.316-1.134-1.316a.927.927,0,0,0-1.055,1.042H50.883a2.655,2.655,0,0,1,1.173-2.239,4.931,4.931,0,0,1,2.993-.86,4.323,4.323,0,0,1,2.874.888A3.086,3.086,0,0,1,59,12.637v4.21a4.311,4.311,0,0,0,.4,2V19Zm-1.854-1.934a1.652,1.652,0,0,0,.918-.237,1.487,1.487,0,0,0,.523-.536V14.772h-.861q-1.547,0-1.547,1.389a.848.848,0,0,0,.272.655A.986.986,0,0,0,54.592,17.066Zm10.16-2.892a5.809,5.809,0,0,1,.976-3.56,3.211,3.211,0,0,1,2.725-1.3,2.731,2.731,0,0,1,2.145,1V5.5h2.971V19H70.9l-.149-1.02a2.8,2.8,0,0,1-2.32,1.2,3.205,3.205,0,0,1-2.689-1.3A5.993,5.993,0,0,1,64.752,14.175Zm2.962.185q0,2.531,1.477,2.531a1.458,1.458,0,0,0,1.406-.826V12.443a1.419,1.419,0,0,0-1.389-.844q-1.371,0-1.485,2.215Zm12.138,4.816a4.889,4.889,0,0,1-3.542-1.305,4.507,4.507,0,0,1-1.354-3.4v-.246a5.84,5.84,0,0,1,.541-2.575,3.955,3.955,0,0,1,1.578-1.727,4.763,4.763,0,0,1,2.461-.611A4.117,4.117,0,0,1,82.7,10.558a4.887,4.887,0,0,1,1.16,3.467v1.151H77.971a2.135,2.135,0,0,0,.694,1.257,2.066,2.066,0,0,0,1.389.457,2.662,2.662,0,0,0,2.2-.984l1.354,1.6a3.784,3.784,0,0,1-1.569,1.217A5.3,5.3,0,0,1,79.852,19.176ZM79.518,11.6q-1.3,0-1.547,1.723h2.988v-.229a1.467,1.467,0,0,0-.36-1.1A1.434,1.434,0,0,0,79.518,11.6ZM92.657,19H89.687V5.5h2.971Zm1.45-4.843a5.613,5.613,0,0,1,.554-2.536,3.96,3.96,0,0,1,1.591-1.709,4.791,4.791,0,0,1,2.435-.6,4.373,4.373,0,0,1,3.366,1.323,5.076,5.076,0,0,1,1.23,3.6v.105a4.925,4.925,0,0,1-1.235,3.529A4.384,4.384,0,0,1,98.7,19.176a4.434,4.434,0,0,1-3.261-1.217,4.761,4.761,0,0,1-1.327-3.3Zm2.962.185a3.538,3.538,0,0,0,.413,1.934,1.376,1.376,0,0,0,1.222.615q1.582,0,1.617-2.435v-.3q0-2.558-1.635-2.558-1.485,0-1.608,2.206Zm12.5,1.986a.684.684,0,0,0-.4-.606,6.016,6.016,0,0,0-1.5-.475,6.853,6.853,0,0,1-1.828-.646,3.062,3.062,0,0,1-1.1-.971,2.319,2.319,0,0,1-.378-1.31,2.628,2.628,0,0,1,1.081-2.158,4.453,4.453,0,0,1,2.83-.848,4.934,4.934,0,0,1,3.023.853,2.666,2.666,0,0,1,1.143,2.241h-2.971q0-1.143-1.2-1.143a1.194,1.194,0,0,0-.782.259.8.8,0,0,0-.316.646.737.737,0,0,0,.387.642,3.654,3.654,0,0,0,1.235.4,10.671,10.671,0,0,1,1.49.378,2.706,2.706,0,0,1,2.145,2.646,2.491,2.491,0,0,1-1.156,2.118,5.068,5.068,0,0,1-2.993.817,5.172,5.172,0,0,1-2.18-.439,3.645,3.645,0,0,1-1.494-1.2,2.707,2.707,0,0,1-.536-1.591h2.769a1.145,1.145,0,0,0,.439.962,1.808,1.808,0,0,0,1.081.3,1.422,1.422,0,0,0,.91-.246A.787.787,0,0,0,109.567,16.328ZM31.819,40.476l1.5-5.985h3.12L33.34,44H30.316l-3.1-9.51h3.129ZM40.45,44H37.479V34.49H40.45ZM37.3,32.038A1.322,1.322,0,0,1,37.761,31a1.943,1.943,0,0,1,2.373,0,1.405,1.405,0,0,1,0,2.074,1.943,1.943,0,0,1-2.373,0A1.322,1.322,0,0,1,37.3,32.038Zm9.571,12.138a4.889,4.889,0,0,1-3.542-1.305,4.507,4.507,0,0,1-1.354-3.4v-.246a5.84,5.84,0,0,1,.541-2.575A3.955,3.955,0,0,1,44.1,34.925a4.763,4.763,0,0,1,2.461-.611,4.117,4.117,0,0,1,3.164,1.244,4.887,4.887,0,0,1,1.16,3.467v1.151H44.994a2.135,2.135,0,0,0,.694,1.257,2.066,2.066,0,0,0,1.389.457,2.662,2.662,0,0,0,2.2-.984l1.354,1.6a3.784,3.784,0,0,1-1.569,1.217A5.3,5.3,0,0,1,46.875,44.176ZM46.541,36.6q-1.3,0-1.547,1.723h2.988v-.229a1.467,1.467,0,0,0-.36-1.1A1.434,1.434,0,0,0,46.541,36.6Zm8.253-2.109.1,1.116a3.225,3.225,0,0,1,2.716-1.292,2.713,2.713,0,0,1,2.219.888,4.226,4.226,0,0,1,.76,2.672V44H57.615V38a1.6,1.6,0,0,0-.29-1.059,1.342,1.342,0,0,0-1.055-.338,1.413,1.413,0,0,0-1.292.686V44H52.017V34.49Zm10.881-2.364V34.49h1.564v2.057H65.675V40.9a1.111,1.111,0,0,0,.193.747,1.037,1.037,0,0,0,.765.211,4.345,4.345,0,0,0,.738-.053v2.118a5.466,5.466,0,0,1-1.67.255,3.1,3.1,0,0,1-2.259-.721,2.954,2.954,0,0,1-.729-2.188v-4.72H61.5V34.49h1.213V32.126Zm2.092,7.031a5.613,5.613,0,0,1,.554-2.536,3.96,3.96,0,0,1,1.591-1.709,4.791,4.791,0,0,1,2.435-.6,4.373,4.373,0,0,1,3.366,1.323,5.076,5.076,0,0,1,1.23,3.6v.105a4.925,4.925,0,0,1-1.235,3.529,4.384,4.384,0,0,1-3.344,1.305A4.434,4.434,0,0,1,69.1,42.958a4.761,4.761,0,0,1-1.327-3.3Zm2.962.185a3.538,3.538,0,0,0,.413,1.934,1.376,1.376,0,0,0,1.222.615q1.582,0,1.617-2.435v-.3q0-2.558-1.635-2.558-1.485,0-1.608,2.206Zm12.5,1.986a.684.684,0,0,0-.4-.606,6.016,6.016,0,0,0-1.5-.475A6.853,6.853,0,0,1,79.5,39.6a3.062,3.062,0,0,1-1.1-.971,2.319,2.319,0,0,1-.378-1.31A2.628,2.628,0,0,1,79.1,35.163a4.453,4.453,0,0,1,2.83-.848,4.934,4.934,0,0,1,3.023.853A2.666,2.666,0,0,1,86.1,37.408H83.13q0-1.143-1.2-1.143a1.194,1.194,0,0,0-.782.259.8.8,0,0,0-.316.646.737.737,0,0,0,.387.642,3.654,3.654,0,0,0,1.235.4,10.671,10.671,0,0,1,1.49.378,2.706,2.706,0,0,1,2.145,2.646,2.491,2.491,0,0,1-1.156,2.118,5.068,5.068,0,0,1-2.993.817,5.172,5.172,0,0,1-2.18-.439,3.645,3.645,0,0,1-1.494-1.2,2.707,2.707,0,0,1-.536-1.591h2.769a1.145,1.145,0,0,0,.439.962,1.808,1.808,0,0,0,1.081.3,1.422,1.422,0,0,0,.91-.246A.787.787,0,0,0,83.227,41.328Zm6.434-1.38a5.721,5.721,0,0,1,.29-2.026,3.168,3.168,0,0,1,.94-1.288,6.253,6.253,0,0,0,.989-1,1.628,1.628,0,0,0,.338-1q0-1.327-1.143-1.327a1.06,1.06,0,0,0-.853.387,1.645,1.645,0,0,0-.343,1.046H86.909a3.544,3.544,0,0,1,1.107-2.738,4.415,4.415,0,0,1,3.059-.98,4.587,4.587,0,0,1,3.037.905,3.177,3.177,0,0,1,1.077,2.575,3,3,0,0,1-.29,1.327,4.485,4.485,0,0,1-.932,1.222L92.956,38a2.378,2.378,0,0,0-.6.848,3.361,3.361,0,0,0-.185,1.1ZM89.3,42.62a1.364,1.364,0,0,1,.47-1.068,1.858,1.858,0,0,1,2.347,0,1.448,1.448,0,0,1,0,2.136,1.858,1.858,0,0,1-2.347,0A1.364,1.364,0,0,1,89.3,42.62Z" transform="translate(1111.012 3290)" fill="#12263f"/>
      <path id="Trazado_725483" data-name="Trazado 725483" d="M39.33,13.463a5.964,5.964,0,0,1-.268,2.026,3.026,3.026,0,0,1-.9,1.244l-.58.536a2.292,2.292,0,0,0-.817,1.635,1.221,1.221,0,0,0,.294.91,1.046,1.046,0,0,0,.76.286,1.161,1.161,0,0,0,.918-.374,1.615,1.615,0,0,0,.347-1.059h2.979a3.6,3.6,0,0,1-1.121,2.742,4.411,4.411,0,0,1-3.054.976,4.535,4.535,0,0,1-3.028-.91A3.192,3.192,0,0,1,33.792,18.9a2.953,2.953,0,0,1,.334-1.375,5.455,5.455,0,0,1,1.143-1.4l.747-.686a2.019,2.019,0,0,0,.756-1.345l.044-.633Zm-1.178-1.187a1.7,1.7,0,0,1-1.173-.417,1.448,1.448,0,0,1,0-2.136,1.7,1.7,0,0,1,1.173-.417,1.674,1.674,0,0,1,1.182.426,1.446,1.446,0,0,1,0,2.118A1.674,1.674,0,0,1,38.152,12.276Zm15.486,2.391a4.673,4.673,0,0,1-.721,2.36,4.35,4.35,0,0,1-1.85,1.586,6.3,6.3,0,0,1-2.72.563,5.025,5.025,0,0,1-3.973-1.644,6.786,6.786,0,0,1-1.45-4.641v-.633a7.746,7.746,0,0,1,.655-3.292,4.961,4.961,0,0,1,1.885-2.18,5.26,5.26,0,0,1,2.848-.769,5.516,5.516,0,0,1,3.744,1.226,4.844,4.844,0,0,1,1.608,3.379H50.588A2.292,2.292,0,0,0,50,8.945a2.422,2.422,0,0,0-1.687-.51,1.843,1.843,0,0,0-1.687.861,5.536,5.536,0,0,0-.562,2.751v.905a6.126,6.126,0,0,0,.514,2.927,1.882,1.882,0,0,0,1.771.879,2.369,2.369,0,0,0,1.626-.5,2.126,2.126,0,0,0,.6-1.591Zm.949-.51a5.613,5.613,0,0,1,.554-2.536,3.96,3.96,0,0,1,1.591-1.709,4.791,4.791,0,0,1,2.435-.6,4.373,4.373,0,0,1,3.366,1.323,5.076,5.076,0,0,1,1.23,3.6v.105a4.925,4.925,0,0,1-1.235,3.529,4.384,4.384,0,0,1-3.344,1.305,4.434,4.434,0,0,1-3.261-1.217,4.761,4.761,0,0,1-1.327-3.3Zm2.962.185a3.538,3.538,0,0,0,.413,1.934,1.376,1.376,0,0,0,1.222.615q1.582,0,1.617-2.435v-.3q0-2.558-1.635-2.558-1.485,0-1.608,2.206ZM59.571,5.5H62.7L60.256,8.26l-2.417,0Zm8.3,3.99.1,1.116A3.27,3.27,0,0,1,70.68,9.314a2.407,2.407,0,0,1,2.435,1.433A3.165,3.165,0,0,1,75.91,9.314q2.892,0,2.971,3.5V19H75.91V13a1.813,1.813,0,0,0-.246-1.063,1.048,1.048,0,0,0-.9-.334,1.4,1.4,0,0,0-1.31.782l.009.123V19H70.5V13.015a1.906,1.906,0,0,0-.237-1.081,1.045,1.045,0,0,0-.905-.334,1.42,1.42,0,0,0-1.3.782V19H65.09V9.49ZM80.2,14.157a5.613,5.613,0,0,1,.554-2.536,3.96,3.96,0,0,1,1.591-1.709,4.791,4.791,0,0,1,2.435-.6,4.373,4.373,0,0,1,3.366,1.323,5.076,5.076,0,0,1,1.23,3.6v.105a4.925,4.925,0,0,1-1.235,3.529A4.384,4.384,0,0,1,84.8,19.176a4.434,4.434,0,0,1-3.261-1.217,4.761,4.761,0,0,1-1.327-3.3Zm2.962.185a3.538,3.538,0,0,0,.413,1.934,1.376,1.376,0,0,0,1.222.615q1.582,0,1.617-2.435v-.3q0-2.558-1.635-2.558-1.485,0-1.608,2.206ZM32.039,34.49l.1,1.116a3.27,3.27,0,0,1,2.716-1.292,2.407,2.407,0,0,1,2.435,1.433,3.165,3.165,0,0,1,2.795-1.433q2.892,0,2.971,3.5V44H40.081V38a1.813,1.813,0,0,0-.246-1.063,1.048,1.048,0,0,0-.9-.334,1.4,1.4,0,0,0-1.31.782l.009.123V44H34.667V38.015a1.906,1.906,0,0,0-.237-1.081,1.045,1.045,0,0,0-.905-.334,1.42,1.42,0,0,0-1.3.782V44H29.262V34.49Zm17.306,9.686A4.889,4.889,0,0,1,45.8,42.871a4.507,4.507,0,0,1-1.354-3.4v-.246a5.84,5.84,0,0,1,.541-2.575,3.955,3.955,0,0,1,1.578-1.727,4.763,4.763,0,0,1,2.461-.611,4.117,4.117,0,0,1,3.164,1.244,4.887,4.887,0,0,1,1.16,3.467v1.151H47.464a2.135,2.135,0,0,0,.694,1.257,2.066,2.066,0,0,0,1.389.457,2.662,2.662,0,0,0,2.2-.984l1.354,1.6a3.784,3.784,0,0,1-1.569,1.217A5.3,5.3,0,0,1,49.345,44.176ZM49.011,36.6q-1.3,0-1.547,1.723h2.988v-.229a1.467,1.467,0,0,0-.36-1.1A1.434,1.434,0,0,0,49.011,36.6Zm5.159,2.575a5.809,5.809,0,0,1,.976-3.56,3.211,3.211,0,0,1,2.725-1.3,2.731,2.731,0,0,1,2.145,1V30.5h2.971V44H60.322l-.149-1.02a2.8,2.8,0,0,1-2.32,1.2,3.205,3.205,0,0,1-2.689-1.3A5.993,5.993,0,0,1,54.17,39.175Zm2.962.185q0,2.531,1.477,2.531a1.458,1.458,0,0,0,1.406-.826V37.443a1.419,1.419,0,0,0-1.389-.844q-1.371,0-1.485,2.215ZM67.793,44H64.822V34.49h2.971ZM64.646,32.038A1.322,1.322,0,0,1,65.1,31a1.943,1.943,0,0,1,2.373,0,1.405,1.405,0,0,1,0,2.074,1.943,1.943,0,0,1-2.373,0A1.322,1.322,0,0,1,64.646,32.038Zm10.723,5.133-.976-.07a1.752,1.752,0,0,0-1.793.879V44H69.639V34.49h2.777l.1,1.222a2.294,2.294,0,0,1,2.083-1.4,2.888,2.888,0,0,1,.826.105ZM84.044,44H81.073V30.5h2.971Zm7.181,0a3.344,3.344,0,0,1-.281-.853,2.754,2.754,0,0,1-2.285,1.028,3.374,3.374,0,0,1-2.285-.813,2.588,2.588,0,0,1-.94-2.043,2.66,2.66,0,0,1,1.143-2.338A5.821,5.821,0,0,1,89.9,38.19h.914v-.5q0-1.316-1.134-1.316a.927.927,0,0,0-1.055,1.042H85.661a2.655,2.655,0,0,1,1.173-2.239,4.931,4.931,0,0,1,2.993-.86A4.323,4.323,0,0,1,92.7,35.2a3.086,3.086,0,0,1,1.081,2.435v4.21a4.311,4.311,0,0,0,.4,2V44ZM89.37,42.066a1.652,1.652,0,0,0,.918-.237,1.487,1.487,0,0,0,.523-.536V39.772H89.95q-1.547,0-1.547,1.389a.848.848,0,0,0,.272.655A.986.986,0,0,0,89.37,42.066ZM13.362,64.315a5.735,5.735,0,0,1-1,3.538,3.2,3.2,0,0,1-2.694,1.323,2.742,2.742,0,0,1-2.153-.958v4.438H4.556V59.49H7.324l.088.879a2.742,2.742,0,0,1,2.241-1.055,3.224,3.224,0,0,1,2.733,1.3,5.805,5.805,0,0,1,.976,3.564ZM10.4,64.131q0-2.531-1.477-2.531a1.394,1.394,0,0,0-1.406.756V66.1a1.439,1.439,0,0,0,1.424.791q1.415,0,1.459-2.443Zm10.02-1.96-.976-.07a1.752,1.752,0,0,0-1.793.879V69H14.689V59.49h2.777l.1,1.222a2.294,2.294,0,0,1,2.083-1.4,2.888,2.888,0,0,1,.826.105Zm5.669,7a4.889,4.889,0,0,1-3.542-1.305,4.507,4.507,0,0,1-1.354-3.4v-.246a5.84,5.84,0,0,1,.541-2.575,3.955,3.955,0,0,1,1.578-1.727,4.763,4.763,0,0,1,2.461-.611,4.117,4.117,0,0,1,3.164,1.244,4.887,4.887,0,0,1,1.16,3.467v1.151H24.208a2.135,2.135,0,0,0,.694,1.257,2.066,2.066,0,0,0,1.389.457,2.662,2.662,0,0,0,2.2-.984l1.354,1.6a3.784,3.784,0,0,1-1.569,1.217A5.3,5.3,0,0,1,26.089,69.176ZM25.755,61.6q-1.3,0-1.547,1.723H27.2v-.229a1.467,1.467,0,0,0-.36-1.1A1.434,1.434,0,0,0,25.755,61.6Zm9.554,5.291a1.317,1.317,0,0,0,.967-.338,1.241,1.241,0,0,0,.334-.945h2.777a3.288,3.288,0,0,1-1.121,2.566,4.168,4.168,0,0,1-2.887,1,4.22,4.22,0,0,1-3.27-1.3,5.125,5.125,0,0,1-1.2-3.6v-.123a5.792,5.792,0,0,1,.532-2.544,3.872,3.872,0,0,1,1.534-1.7,4.573,4.573,0,0,1,2.373-.593A4.116,4.116,0,0,1,38.3,60.343a3.647,3.647,0,0,1,1.09,2.786H36.609A1.626,1.626,0,0,0,36.249,62a1.244,1.244,0,0,0-.967-.4q-1.151,0-1.345,1.468a10.357,10.357,0,0,0-.062,1.283,4.068,4.068,0,0,0,.343,1.986A1.187,1.187,0,0,0,35.309,66.891ZM43.764,69H40.793V59.49h2.971ZM40.617,57.038A1.322,1.322,0,0,1,41.074,56a1.943,1.943,0,0,1,2.373,0,1.405,1.405,0,0,1,0,2.074,1.943,1.943,0,0,1-2.373,0A1.322,1.322,0,0,1,40.617,57.038Zm13.8,7.277a5.735,5.735,0,0,1-1,3.538,3.2,3.2,0,0,1-2.694,1.323,2.742,2.742,0,0,1-2.153-.958v4.438H45.609V59.49h2.769l.088.879a2.742,2.742,0,0,1,2.241-1.055,3.224,3.224,0,0,1,2.733,1.3,5.805,5.805,0,0,1,.976,3.564Zm-2.962-.185q0-2.531-1.477-2.531a1.394,1.394,0,0,0-1.406.756V66.1A1.439,1.439,0,0,0,50,66.891q1.415,0,1.459-2.443ZM58.846,69H55.875V59.49h2.971ZM55.7,57.038A1.322,1.322,0,0,1,56.156,56a1.943,1.943,0,0,1,2.373,0,1.405,1.405,0,0,1,0,2.074,1.943,1.943,0,0,1-2.373,0A1.322,1.322,0,0,1,55.7,57.038Zm8.42.088V59.49h1.564v2.057H64.119V65.9a1.111,1.111,0,0,0,.193.747,1.037,1.037,0,0,0,.765.211,4.345,4.345,0,0,0,.738-.053v2.118a5.466,5.466,0,0,1-1.67.255,3.1,3.1,0,0,1-2.259-.721,2.954,2.954,0,0,1-.729-2.188v-4.72H59.944V59.49h1.213V57.126ZM72.205,69a3.344,3.344,0,0,1-.281-.853,2.754,2.754,0,0,1-2.285,1.028,3.374,3.374,0,0,1-2.285-.813,2.588,2.588,0,0,1-.94-2.043,2.66,2.66,0,0,1,1.143-2.338,5.821,5.821,0,0,1,3.322-.791h.914v-.5q0-1.316-1.134-1.316A.927.927,0,0,0,69.6,62.413H66.642a2.655,2.655,0,0,1,1.173-2.239,4.931,4.931,0,0,1,2.993-.86,4.323,4.323,0,0,1,2.874.888,3.086,3.086,0,0,1,1.081,2.435v4.21a4.311,4.311,0,0,0,.4,2V69Zm-1.854-1.934a1.652,1.652,0,0,0,.918-.237,1.487,1.487,0,0,0,.523-.536V64.772h-.861q-1.547,0-1.547,1.389a.848.848,0,0,0,.272.655A.986.986,0,0,0,70.351,67.066Zm10.072-.176a1.317,1.317,0,0,0,.967-.338,1.241,1.241,0,0,0,.334-.945H84.5a3.288,3.288,0,0,1-1.121,2.566,4.168,4.168,0,0,1-2.887,1,4.22,4.22,0,0,1-3.27-1.3,5.125,5.125,0,0,1-1.2-3.6v-.123A5.792,5.792,0,0,1,76.56,61.6a3.872,3.872,0,0,1,1.534-1.7,4.573,4.573,0,0,1,2.373-.593,4.116,4.116,0,0,1,2.944,1.028,3.647,3.647,0,0,1,1.09,2.786H81.724A1.626,1.626,0,0,0,81.363,62a1.244,1.244,0,0,0-.967-.4q-1.151,0-1.345,1.468a10.357,10.357,0,0,0-.062,1.283,4.068,4.068,0,0,0,.343,1.986A1.187,1.187,0,0,0,80.423,66.891ZM88.878,69H85.907V59.49h2.971ZM85.731,57.038A1.322,1.322,0,0,1,86.188,56a1.943,1.943,0,0,1,2.373,0,1.405,1.405,0,0,1,0,2.074,1.943,1.943,0,0,1-2.373,0A1.322,1.322,0,0,1,85.731,57.038Zm4.6,7.119a5.613,5.613,0,0,1,.554-2.536,3.96,3.96,0,0,1,1.591-1.709,4.791,4.791,0,0,1,2.435-.6,4.373,4.373,0,0,1,3.366,1.323,5.076,5.076,0,0,1,1.23,3.6v.105a4.925,4.925,0,0,1-1.235,3.529,4.384,4.384,0,0,1-3.344,1.305,4.434,4.434,0,0,1-3.261-1.217,4.761,4.761,0,0,1-1.327-3.3Zm2.962.185a3.538,3.538,0,0,0,.413,1.934,1.376,1.376,0,0,0,1.222.615q1.582,0,1.617-2.435v-.3q0-2.558-1.635-2.558-1.485,0-1.608,2.206ZM95.312,55.5H98.44L96,58.26l-2.417,0Zm8.218,3.99.1,1.116a3.225,3.225,0,0,1,2.716-1.292,2.713,2.713,0,0,1,2.219.888,4.226,4.226,0,0,1,.76,2.672V69h-2.971V63a1.6,1.6,0,0,0-.29-1.059,1.342,1.342,0,0,0-1.055-.338,1.413,1.413,0,0,0-1.292.686V69h-2.962V59.49Zm9.624,5.458a5.721,5.721,0,0,1,.29-2.026,3.168,3.168,0,0,1,.94-1.288,6.253,6.253,0,0,0,.989-1,1.628,1.628,0,0,0,.338-1q0-1.327-1.143-1.327a1.06,1.06,0,0,0-.853.387,1.645,1.645,0,0,0-.343,1.046H110.4a3.544,3.544,0,0,1,1.107-2.738,4.415,4.415,0,0,1,3.059-.98,4.587,4.587,0,0,1,3.037.905,3.177,3.177,0,0,1,1.077,2.575,3,3,0,0,1-.29,1.327,4.485,4.485,0,0,1-.932,1.222l-1.011.94a2.378,2.378,0,0,0-.6.848,3.361,3.361,0,0,0-.185,1.1Zm-.36,2.672a1.364,1.364,0,0,1,.47-1.068,1.858,1.858,0,0,1,2.347,0,1.448,1.448,0,0,1,0,2.136,1.858,1.858,0,0,1-2.347,0A1.364,1.364,0,0,1,112.793,67.62Z" transform="translate(1107.988 3537.424)" fill="#12263f"/>
      <g id="g3951" transform="translate(342.166 3943.134)">
        <g id="g3953" transform="translate(0 -682.665)">
          <g id="g3955" clip-path="url(#clip-path-14)">
            <g id="g3961" transform="translate(58.297 1.331)">
              <path id="path3963" d="M-116.124-44.228h-1.013a8.493,8.493,0,0,0-8.32-6.788,8.493,8.493,0,0,0-8.32,6.788,8.569,8.569,0,0,0-.17,1.7,8.454,8.454,0,0,0,2.065,5.55h15.757a3.616,3.616,0,0,0,2.564-1.062A3.615,3.615,0,0,0-112.5-40.6a3.627,3.627,0,0,0-3.627-3.626" transform="translate(133.946 51.016)" fill="#ddebfd"/>
            </g>
            <g id="g3965" transform="translate(11.088 1.331)">
              <path id="path3967" d="M-436.541-193.757a5.644,5.644,0,0,0-4-1.658h-8.032a20.3,20.3,0,0,0,1.516-7.54,20.414,20.414,0,0,0-20.2-20.539A20.353,20.353,0,0,0-487.75-203.96a.7.7,0,0,1-.7.676h-5.5a9.593,9.593,0,0,0-9.593,9.593,9.593,9.593,0,0,0,9.593,9.593h53.314a5.718,5.718,0,0,0,5.748-5.5,5.644,5.644,0,0,0-1.655-4.162" transform="translate(503.541 223.495)" fill="#ddebfd"/>
            </g>
            <g id="g3969" transform="translate(68.886 29.411)">
              <path id="path3971" d="M-59.961-10.8a5.644,5.644,0,0,0-4-1.658h-5.11a5.643,5.643,0,0,1,4,1.658,5.645,5.645,0,0,1,1.655,4.162,5.718,5.718,0,0,1-5.748,5.5h5.11a5.718,5.718,0,0,0,5.748-5.5A5.644,5.644,0,0,0-59.961-10.8" transform="translate(69.164 12.457)" fill="#cde2ff"/>
            </g>
            <g id="g3973" transform="translate(44.656 1.331)">
              <path id="path3975" d="M-116.009-133.829a20.317,20.317,0,0,1-1.264,6.894.479.479,0,0,0,.449.646h4.409a20.3,20.3,0,0,0,1.516-7.54,20.414,20.414,0,0,0-20.2-20.539,20.581,20.581,0,0,0-2.718.16,20.427,20.427,0,0,1,17.805,20.379" transform="translate(133.814 154.369)" fill="#cde2ff"/>
            </g>
            <g id="g3977" transform="translate(26.891 26.45)">
              <path id="path3979" d="M-120.7,0a18.525,18.525,0,0,0-18.525,18.526A18.525,18.525,0,0,0-120.7,37.051a18.526,18.526,0,0,0,18.526-18.526A18.525,18.525,0,0,0-120.7,0" transform="translate(139.228)" fill="#ddebfd"/>
            </g>
            <g id="g3981" transform="translate(26.891 26.45)">
              <path id="path3983" d="M-43.111-213.155l3.784-4.509a12.611,12.611,0,0,1-4.516-9.681,12.64,12.64,0,0,1,12.64-12.64,12.64,12.64,0,0,1,12.641,12.64,12.612,12.612,0,0,1-4.516,9.681l3.784,4.508a18.484,18.484,0,0,0,6.617-14.189A18.525,18.525,0,0,0-31.2-245.87a18.525,18.525,0,0,0-18.525,18.526,18.485,18.485,0,0,0,6.617,14.189" transform="translate(49.728 245.87)" fill="#6cbff8"/>
            </g>
            <g id="g3985" transform="translate(53.541 44.975)">
              <path id="path3987" d="M-67.769,0a18.483,18.483,0,0,1-6.617,14.189L-78.17,9.68A12.61,12.61,0,0,0-73.654,0Z" transform="translate(78.17 0.001)" fill="#df646e"/>
            </g>
            <g id="g3989" transform="translate(42.426 41.985)">
              <path id="path3991" d="M-19.486,0a2.991,2.991,0,0,0-2.991,2.991,2.991,2.991,0,0,0,2.991,2.991A2.991,2.991,0,0,0-16.5,2.991,2.991,2.991,0,0,0-19.486,0" transform="translate(22.477)" fill="#6bbdd5"/>
            </g>
            <g id="g3993" transform="translate(59.491 1.331)">
              <path id="path3995" d="M-46.063-91.479H-36.5a3.615,3.615,0,0,0,2.564-1.063,3.611,3.611,0,0,0,1.063-2.563A3.627,3.627,0,0,0-36.5-98.732h-1.013a8.495,8.495,0,0,0-8.32-6.788,8.487,8.487,0,0,0-7.3,4.146" transform="translate(53.133 105.52)" fill="none" stroke="#000" stroke-linecap="round" stroke-linejoin="round" stroke-miterlimit="10" stroke-width="3"/>
            </g>
            <g id="g3997" transform="translate(65.397 21.685)">
              <path id="path3999" d="M-14.166,0a20.311,20.311,0,0,1-1.517,7.726q-.3.734-.657,1.438" transform="translate(16.34)" fill="none" stroke="#000" stroke-linecap="round" stroke-linejoin="round" stroke-miterlimit="10" stroke-width="3"/>
            </g>
            <g id="g4001" transform="translate(33.33 1.33)">
              <path id="path4003" d="M0-35.665a20.283,20.283,0,0,1,14.044-5.473A20.417,20.417,0,0,1,34.242-20.6a20.307,20.307,0,0,1-1.517,7.54h8.031a5.646,5.646,0,0,1,4,1.657,5.645,5.645,0,0,1,1.655,4.162,5.721,5.721,0,0,1-5.748,5.5H30.122" transform="translate(0 41.139)" fill="none" stroke="#000" stroke-linecap="round" stroke-linejoin="round" stroke-miterlimit="10" stroke-width="3"/>
            </g>
            <g id="g4005" transform="translate(11.088 11.768)">
              <path id="path4007" d="M-106.16-188.691h-6.7a9.593,9.593,0,0,1-9.593-9.594,9.593,9.593,0,0,1,9.593-9.592h5.5a.7.7,0,0,0,.7-.676,20.229,20.229,0,0,1,2.558-9.1" transform="translate(122.453 217.651)" fill="none" stroke="#000" stroke-linecap="round" stroke-linejoin="round" stroke-miterlimit="10" stroke-width="3"/>
            </g>
            <g id="g4009" transform="translate(26.891 26.451)">
              <path id="path4011" d="M-238.39-147.625a18.588,18.588,0,0,0,.462-4.132,18.525,18.525,0,0,0-18.525-18.525,18.525,18.525,0,0,0-18.525,18.525,18.525,18.525,0,0,0,18.525,18.525,18.512,18.512,0,0,0,15.649-8.606" transform="translate(274.978 170.282)" fill="none" stroke="#000" stroke-linecap="round" stroke-linejoin="round" stroke-miterlimit="10" stroke-width="3"/>
            </g>
            <g id="g4013" transform="translate(32.776 32.336)">
              <path id="path4015" d="M-4.768-174.81l3.784-4.509A12.611,12.611,0,0,1-5.5-189,12.64,12.64,0,0,1,7.14-201.64,12.64,12.64,0,0,1,19.781-189a12.611,12.611,0,0,1-4.516,9.681l3.784,4.509" transform="translate(5.5 201.64)" fill="none" stroke="#000" stroke-linecap="round" stroke-linejoin="round" stroke-miterlimit="10" stroke-width="3"/>
            </g>
            <g id="g4017" transform="translate(40.398 39.957)">
              <path id="path4019" d="M-18.922-18.922l-2.9-2.9" transform="translate(21.827 21.827)" fill="none" stroke="#000" stroke-linecap="round" stroke-linejoin="round" stroke-miterlimit="10" stroke-width="3"/>
            </g>
            <g id="g4021" transform="translate(42.426 41.985)">
              <path id="path4023" d="M-19.486,0a2.991,2.991,0,0,0-2.991,2.991,2.991,2.991,0,0,0,2.991,2.991A2.991,2.991,0,0,0-16.5,2.991,2.99,2.99,0,0,0-19.486,0Z" transform="translate(22.477)" fill="none" stroke="#000" stroke-linecap="round" stroke-linejoin="round" stroke-miterlimit="10" stroke-width="3"/>
            </g>
            <g id="g4025" transform="translate(40.284 85.913)">
              <path id="path4027" d="M0,0,5.133,3.59,10.267,0" fill="none" stroke="#000" stroke-linecap="round" stroke-linejoin="round" stroke-miterlimit="10" stroke-width="3"/>
            </g>
            <g id="g4029" transform="translate(45.417 72.838)">
              <path id="path4031" d="M0-108.585V-125.25" transform="translate(0 125.25)" fill="none" stroke="#000" stroke-linecap="round" stroke-linejoin="round" stroke-miterlimit="10" stroke-width="3"/>
            </g>
            <g id="g4033" transform="translate(65.488 85.913)">
              <path id="path4035" d="M0,0,5.134,3.59,10.267,0" fill="none" stroke="#000" stroke-linecap="round" stroke-linejoin="round" stroke-miterlimit="10" stroke-width="3"/>
            </g>
            <g id="g4037" transform="translate(70.621 62.068)">
              <path id="path4039" d="M0-178.757v-27.436" transform="translate(0 206.193)" fill="none" stroke="#000" stroke-linecap="round" stroke-linejoin="round" stroke-miterlimit="10" stroke-width="3"/>
            </g>
            <g id="g4041" transform="translate(15.079 85.913)">
              <path id="path4043" d="M0,0,5.133,3.59,10.267,0" fill="none" stroke="#000" stroke-linecap="round" stroke-linejoin="round" stroke-miterlimit="10" stroke-width="3"/>
            </g>
            <g id="g4045" transform="translate(20.212 62.068)">
              <path id="path4047" d="M0-178.757v-27.436" transform="translate(0 206.193)" fill="none" stroke="#000" stroke-linecap="round" stroke-linejoin="round" stroke-miterlimit="10" stroke-width="3"/>
            </g>
            <g id="g4049" transform="translate(58.057 44.976)">
              <path id="path4051" d="M-38.343,0h-5.885" transform="translate(44.228)" fill="none" stroke="#000" stroke-linecap="round" stroke-linejoin="round" stroke-miterlimit="10" stroke-width="3"/>
            </g>
          </g>
        </g>
      </g>
      <g id="ventoso" transform="translate(585.578 3127.391)">
        <g id="Grupo_957843" data-name="Grupo 957843" transform="translate(1.31 1.31)">
          <path id="Trazado_725401" data-name="Trazado 725401" d="M263.341,30.647a7.234,7.234,0,1,1,.675-14.436,1.386,1.386,0,0,0,1.425-.943,11.526,11.526,0,0,1,20.148-3.118,2.8,2.8,0,0,0,2.268,1.136h.055a8.68,8.68,0,0,1,8.679,8.828,8.773,8.773,0,0,1-8.822,8.532H263.341Z" transform="translate(-212.706 -7.5)" fill="#ddeafb"/>
          <path id="Trazado_725402" data-name="Trazado 725402" d="M373.935,13.287h-.055a2.8,2.8,0,0,1-2.268-1.136,11.524,11.524,0,0,0-11.256-4.475,11.524,11.524,0,0,1,7.238,4.475,2.8,2.8,0,0,0,2.268,1.136h.055a8.68,8.68,0,0,1,8.679,8.828,8.773,8.773,0,0,1-8.822,8.532h4.017a8.773,8.773,0,0,0,8.822-8.532,8.68,8.68,0,0,0-8.679-8.828Z" transform="translate(-298.729 -7.5)" fill="#bed8fb"/>
          <g id="Grupo_957841" data-name="Grupo 957841" transform="translate(0 5.787)">
            <g id="Grupo_957840" data-name="Grupo 957840">
              <path id="Trazado_725403" data-name="Trazado 725403" d="M82.728,63.781h0a.477.477,0,0,1-.456-.348,11.576,11.576,0,0,0-16.559-6.971,1.4,1.4,0,0,1-1.83-.435,8.687,8.687,0,0,0-9.224-3.58,1.4,1.4,0,0,1-1.663-.9,15.916,15.916,0,0,0-31.025,5c0,.2.005.4.013.6a.826.826,0,0,1-.176.541l-.012.016a.846.846,0,0,1-.624.32,14.465,14.465,0,0,0,.98,28.907H82.556a11.574,11.574,0,1,0,.173-23.147Z" transform="translate(-7.5 -40.634)" fill="#ecf4ff"/>
              <path id="Trazado_725404" data-name="Trazado 725404" d="M82.728,63.781h0a.477.477,0,0,1-.456-.348,11.576,11.576,0,0,0-16.559-6.971,1.4,1.4,0,0,1-1.83-.435,8.687,8.687,0,0,0-9.224-3.58,1.4,1.4,0,0,1-1.663-.9,15.916,15.916,0,0,0-31.025,5c0,.2.005.4.013.6a.826.826,0,0,1-.176.541l-.012.016a.846.846,0,0,1-.624.32,14.465,14.465,0,0,0,.98,28.907H82.556a11.574,11.574,0,1,0,.173-23.147Z" transform="translate(-7.5 -40.634)" fill="#ecf4ff"/>
              <path id="Trazado_725405" data-name="Trazado 725405" d="M374.055,132.147h0a.477.477,0,0,1-.456-.348,11.577,11.577,0,0,0-13.12-8.157,11.588,11.588,0,0,1,9.1,8.157.477.477,0,0,0,.456.348h0a11.574,11.574,0,1,1-.173,23.147h4.017a11.574,11.574,0,1,0,.173-23.147Z" transform="translate(-298.826 -109)" fill="#ddeafb"/>
            </g>
          </g>
          <g id="Grupo_957842" data-name="Grupo 957842" transform="translate(63.658 57.868)">
            <path id="Trazado_725406" data-name="Trazado 725406" d="M371.984,344.621a5.787,5.787,0,0,1,5.787-5.787h4.34a1.447,1.447,0,0,1,1.447,1.447v4.34a5.787,5.787,0,0,1-5.787,5.787h-5.787Z" transform="translate(-371.984 -338.834)" fill="#b3e59f"/>
            <path id="Trazado_725407" data-name="Trazado 725407" d="M390.476,338.833h-4.017a1.447,1.447,0,0,1,1.447,1.447v4.34a5.787,5.787,0,0,1-5.787,5.787h4.017a5.787,5.787,0,0,0,5.787-5.787v-4.34A1.447,1.447,0,0,0,390.476,338.833Z" transform="translate(-380.349 -338.833)" fill="#95d6a4"/>
          </g>
        </g>
        <g id="Grupo_957844" data-name="Grupo 957844" transform="translate(0 0)">
          <path id="Trazado_725408" data-name="Trazado 725408" d="M15.777,114.768h2.812a1.31,1.31,0,0,0,0-2.62H15.777a13.157,13.157,0,0,1-.013-26.314l.079,0h0A13.171,13.171,0,0,1,28.934,98.991a1.31,1.31,0,1,0,2.62,0A15.8,15.8,0,0,0,17.091,83.27c0-.064,0-.129,0-.192a14.522,14.522,0,0,1,2.551-8.249,1.31,1.31,0,0,0-2.16-1.482,17.131,17.131,0,0,0-3.01,9.73c0,.063,0,.127,0,.191a15.777,15.777,0,0,0,1.309,31.5Z" transform="translate(0 -60.067)"/>
          <path id="Trazado_725409" data-name="Trazado 725409" d="M175.679,28.948a12.821,12.821,0,0,0-1.616-3.183l1,0a9.99,9.99,0,0,0,0-19.98c-.272,0-.548.012-.824.035a12.838,12.838,0,0,0-22.911,2.9c-.278-.027-.557-.041-.836-.041a8.577,8.577,0,0,0-6.885,3.5A17.22,17.22,0,0,0,119.9,9.217a1.31,1.31,0,0,0,1.571,2.1,14.607,14.607,0,0,1,22.678,7.313,9.991,9.991,0,0,0-5.115,8.723,1.31,1.31,0,1,0,2.62,0,7.368,7.368,0,0,1,4.537-6.806l.013,0a7.325,7.325,0,0,1,2.82-.56,7.408,7.408,0,0,1,6.666,4.224,1.31,1.31,0,0,0,1.934.514,10.263,10.263,0,0,1,15.809,5.86,1.31,1.31,0,0,0,1.309.984s.244-.009.322-.009A10.264,10.264,0,1,1,164.8,41.818a1.31,1.31,0,0,0-2.62,0,12.87,12.87,0,0,0,5.108,10.264H122.356a1.31,1.31,0,0,0,0,2.62h52.71a12.884,12.884,0,0,0,.614-25.753Zm-18.338-7.132a10,10,0,0,0-10.749-4.157,17.206,17.206,0,0,0-1.372-3.1,5.9,5.9,0,0,1,6.727-3.079,1.31,1.31,0,0,0,1.6-.972,10.216,10.216,0,0,1,17.925-4.054,9.968,9.968,0,0,0-6.393,9.323,1.31,1.31,0,0,0,2.62,0,7.352,7.352,0,0,1,6.092-7.26,7.458,7.458,0,0,1,1.278-.11,7.37,7.37,0,0,1,0,14.741l-3.446-.007a12.889,12.889,0,0,0-14.281-1.323Z" transform="translate(-98.527 0)"/>
          <path id="Trazado_725410" data-name="Trazado 725410" d="M46.022,338.431a7.1,7.1,0,1,0-14.193,0,1.31,1.31,0,0,0,2.62,0,4.477,4.477,0,1,1,4.477,4.477H1.312a1.31,1.31,0,1,0,0,2.62H38.926A7.1,7.1,0,0,0,46.022,338.431Z" transform="translate(-0.002 -273.466)"/>
          <path id="Trazado_725411" data-name="Trazado 725411" d="M151.2,210.374h-17.36a1.31,1.31,0,0,0,0,2.62H151.2a7.1,7.1,0,1,0-7.1-7.1,1.31,1.31,0,0,0,2.62,0,4.477,4.477,0,1,1,4.477,4.477Z" transform="translate(-109.386 -164.079)"/>
          <path id="Trazado_725412" data-name="Trazado 725412" d="M105.192,430.733H67.578a1.31,1.31,0,1,0,0,2.62h37.614a4.477,4.477,0,1,1-4.477,4.477,1.31,1.31,0,1,0-2.62,0,7.1,7.1,0,1,0,7.1-7.1Z" transform="translate(-54.694 -355.505)"/>
          <path id="Trazado_725413" data-name="Trazado 725413" d="M362.23,331.333h-4.34a7.1,7.1,0,0,0-7.1,7.1v5.244l-2.51,2.51a1.31,1.31,0,1,0,1.852,1.852l2.51-2.51h5.244a7.1,7.1,0,0,0,7.1-7.1v-4.34A2.76,2.76,0,0,0,362.23,331.333Zm.137,7.1a4.482,4.482,0,0,1-4.477,4.477h-2.625l3.551-3.551a1.31,1.31,0,0,0-1.852-1.852l-3.551,3.551V338.43a4.482,4.482,0,0,1,4.477-4.477h4.34a.137.137,0,0,1,.137.137Z" transform="translate(-287.139 -273.465)"/>
        </g>
      </g>
      <g id="_x34_8_Temprature" transform="translate(475.174 3373.801)">
        <g id="Grupo_957846" data-name="Grupo 957846" transform="translate(119.034 13.121)">
          <path id="Trazado_725414" data-name="Trazado 725414" d="M223.871,81.83V24.611a6.412,6.412,0,1,0-12.825,0V81.827a18.777,18.777,0,1,0,12.825,0Z" transform="translate(-181.935 -17.131)" fill="#f4f4f4"/>
          <path id="Trazado_725415" data-name="Trazado 725415" d="M294.123,99.455a18.776,18.776,0,0,1-19.7,18.75,18.4,18.4,0,0,1-2.437-.287,18.756,18.756,0,0,0,3.054-36.084V24.616a6.406,6.406,0,0,0-3.054-5.459,6.321,6.321,0,0,1,3.352-.958,6.417,6.417,0,0,1,6.417,6.417V81.833A18.762,18.762,0,0,1,294.123,99.455Z" transform="translate(-239.823 -17.131)" opacity="0.15"/>
          <path id="Trazado_725416" data-name="Trazado 725416" d="M274.6,386.371a4.845,4.845,0,1,1-4.845-4.845A4.844,4.844,0,0,1,274.6,386.371Z" transform="translate(-234.232 -304.049)" fill="#ff6761"/>
          <path id="Trazado_725417" data-name="Trazado 725417" d="M145.618,26.589a5.972,5.972,0,1,1-8.447,8.444C134.837,32.7,128.786,18.2,128.786,18.2S143.285,24.256,145.618,26.589Z" transform="translate(-126.735 -17.13)" fill="#7bffcd"/>
          <path id="Trazado_725418" data-name="Trazado 725418" d="M140.925,119.251a5.972,5.972,0,1,1-8.447,8.444c-2.333-2.333-8.385-16.835-8.385-16.835S138.592,116.918,140.925,119.251Z" transform="translate(-123.029 -90.305)" fill="#7bffcd"/>
          <g id="Grupo_957845" data-name="Grupo 957845" transform="translate(0 0)">
            <path id="Trazado_725419" data-name="Trazado 725419" d="M253.459,226.9a1.064,1.064,0,0,0-1.064,1.064v3.555a1.064,1.064,0,0,0,2.128,0v-3.555A1.064,1.064,0,0,0,253.459,226.9Z" transform="translate(-224.349 -181.944)" fill="#2b3c65"/>
            <path id="Trazado_725420" data-name="Trazado 725420" d="M220.947,77.091V20.6A7.475,7.475,0,1,0,206,20.6V54.856a1.064,1.064,0,0,0,2.128,0V20.6a5.347,5.347,0,1,1,10.694,0V77.82a1.064,1.064,0,0,0,.7,1,17.7,17.7,0,1,1-12.095,0,1.062,1.062,0,0,0,.7-1v-5.8a1.064,1.064,0,0,0-2.128,0V77.09a19.84,19.84,0,0,0-12.354,18.643,20.068,20.068,0,0,0,19.835,19.545,19.821,19.821,0,0,0,7.47-38.187Z" transform="translate(-177.951 -13.121)" fill="#2b3c65"/>
            <path id="Trazado_725421" data-name="Trazado 725421" d="M265.761,126.885a1.063,1.063,0,0,0-1.064,1.064v51.525a5.91,5.91,0,1,0,2.128,0V127.949A1.064,1.064,0,0,0,265.761,126.885Zm3.782,58.4a3.781,3.781,0,1,1-3.782-3.781A3.785,3.785,0,0,1,269.542,185.282Z" transform="translate(-230.238 -102.96)" fill="#2b3c65"/>
            <path id="Trazado_725422" data-name="Trazado 725422" d="M358.329,44.182h-6.813a1.064,1.064,0,0,0,0,2.128h6.813a1.064,1.064,0,1,0,0-2.128Z" transform="translate(-301.784 -37.65)" fill="#2b3c65"/>
            <path id="Trazado_725423" data-name="Trazado 725423" d="M358.329,102.307h-6.813a1.064,1.064,0,0,0,0,2.128h6.813a1.064,1.064,0,1,0,0-2.128Z" transform="translate(-301.784 -83.551)" fill="#2b3c65"/>
            <path id="Trazado_725424" data-name="Trazado 725424" d="M351.515,75.37h3.406a1.064,1.064,0,0,0,0-2.128h-3.406a1.064,1.064,0,1,0,0,2.128Z" transform="translate(-301.783 -60.598)" fill="#2b3c65"/>
            <path id="Trazado_725425" data-name="Trazado 725425" d="M358.329,160.437h-6.813a1.064,1.064,0,0,0,0,2.128h6.813a1.064,1.064,0,1,0,0-2.128Z" transform="translate(-301.784 -129.456)" fill="#2b3c65"/>
            <path id="Trazado_725426" data-name="Trazado 725426" d="M351.515,133.5h3.406a1.064,1.064,0,0,0,0-2.128h-3.406a1.064,1.064,0,1,0,0,2.128Z" transform="translate(-301.783 -106.504)" fill="#2b3c65"/>
            <path id="Trazado_725427" data-name="Trazado 725427" d="M358.329,218.562h-6.813a1.064,1.064,0,0,0,0,2.128h6.813a1.064,1.064,0,1,0,0-2.128Z" transform="translate(-301.784 -175.357)" fill="#2b3c65"/>
            <path id="Trazado_725428" data-name="Trazado 725428" d="M351.515,191.63h3.406a1.064,1.064,0,0,0,0-2.128h-3.406a1.064,1.064,0,1,0,0,2.128Z" transform="translate(-301.783 -152.409)" fill="#2b3c65"/>
            <path id="Trazado_725429" data-name="Trazado 725429" d="M358.329,276.692h-6.813a1.064,1.064,0,0,0,0,2.128h6.813a1.064,1.064,0,1,0,0-2.128Z" transform="translate(-301.784 -221.262)" fill="#2b3c65"/>
            <path id="Trazado_725430" data-name="Trazado 725430" d="M351.515,249.755h3.406a1.064,1.064,0,0,0,0-2.128h-3.406a1.064,1.064,0,1,0,0,2.128Z" transform="translate(-301.783 -198.31)" fill="#2b3c65"/>
            <path id="Trazado_725431" data-name="Trazado 725431" d="M142.374,21.838c-2.412-2.412-15.67-7.992-17.174-8.621a1.064,1.064,0,0,0-1.392,1.391c.628,1.5,6.2,14.766,8.615,17.179a7.033,7.033,0,0,0,9.138.692l3.034,3.034a1.064,1.064,0,0,0,1.5-1.5l-3.032-3.032a7.02,7.02,0,0,0-.693-9.138Zm-8.447,8.444c-1.391-1.392-4.706-8.467-7.127-14.072,5.6,2.422,12.677,5.74,14.069,7.132a4.892,4.892,0,0,1,.668,6.1l-7.578-7.578a1.064,1.064,0,0,0-1.5,1.5l7.578,7.578A4.915,4.915,0,0,1,133.927,30.282Z" transform="translate(-122.739 -13.132)" fill="#2b3c65"/>
            <path id="Trazado_725432" data-name="Trazado 725432" d="M139.9,128.177a1.064,1.064,0,1,0,1.5-1.5l-3.032-3.032a7.019,7.019,0,0,0-.692-9.138c-2.412-2.413-15.67-7.992-17.174-8.621a1.064,1.064,0,0,0-1.392,1.391c.628,1.5,6.2,14.766,8.615,17.178a7.034,7.034,0,0,0,9.137.693Zm-10.667-5.231c-1.391-1.391-4.706-8.466-7.127-14.071,5.6,2.422,12.676,5.739,14.069,7.132a4.89,4.89,0,0,1,.667,6.1l-7.578-7.578a1.064,1.064,0,1,0-1.5,1.5l7.577,7.577a4.918,4.918,0,0,1-6.1-.668Z" transform="translate(-119.034 -86.308)" fill="#2b3c65"/>
          </g>
        </g>
      </g>
      <g id="g1767" transform="translate(818.988 4212.556)">
        <g id="g1769" transform="translate(0 -682.665)">
          <g id="g1771" clip-path="url(#clip-path-15)">
            <g id="g1777" transform="translate(52.736 3.316)">
              <path id="path1779" d="M-170.812-65.056h-1.325a11.112,11.112,0,0,0-10.885-8.881,11.113,11.113,0,0,0-10.885,8.881,11.222,11.222,0,0,0-.223,2.227,11.062,11.062,0,0,0,2.7,7.261h20.616a4.731,4.731,0,0,0,3.355-1.39,4.728,4.728,0,0,0,1.39-3.355,4.745,4.745,0,0,0-4.745-4.743" transform="translate(194.13 73.937)" fill="#ddebfd"/>
            </g>
            <g id="g1781" transform="translate(1.201 6.028)">
              <path id="path1783" d="M-524.783-232.923a6.034,6.034,0,0,0-4.279-1.772h-8.588a21.705,21.705,0,0,0,1.621-8.062,21.828,21.828,0,0,0-21.6-21.962,21.763,21.763,0,0,0-21.914,20.887.752.752,0,0,1-.752.722h-5.876a10.257,10.257,0,0,0-10.258,10.257,10.257,10.257,0,0,0,10.258,10.257h57.007a6.115,6.115,0,0,0,6.146-5.877,6.036,6.036,0,0,0-1.77-4.451" transform="translate(596.424 264.721)" fill="#ddebfd"/>
            </g>
            <g id="g1785" transform="translate(63.002 36.054)">
              <path id="path1787" d="M-72.081-12.982a6.034,6.034,0,0,0-4.279-1.772h-5.464a6.035,6.035,0,0,1,4.279,1.772,6.036,6.036,0,0,1,1.77,4.451,6.115,6.115,0,0,1-6.146,5.877h5.464a6.115,6.115,0,0,0,6.146-5.877,6.035,6.035,0,0,0-1.77-4.451" transform="translate(81.921 14.755)" fill="#bed9fd"/>
            </g>
            <g id="g1789" transform="translate(37.094 6.029)">
              <path id="path1791" d="M-139.461-160.881a21.723,21.723,0,0,1-1.351,7.372.512.512,0,0,0,.48.691h4.714A21.7,21.7,0,0,0-134-160.881a21.828,21.828,0,0,0-21.6-21.962,21.991,21.991,0,0,0-2.906.171,21.842,21.842,0,0,1,19.039,21.791" transform="translate(158.5 182.843)" fill="#bed9fd"/>
            </g>
            <g id="g1793" transform="translate(26.49 40.492)">
              <path id="path1795" d="M-212.578-173.473a14.51,14.51,0,0,1-14.51,14.51,14.51,14.51,0,0,1-14.51-14.51c0-10.138,12.029-23.682,14.51-23.682,1.991,0,14.51,13.544,14.51,23.682" transform="translate(241.598 197.154)" fill="#6cbff8"/>
            </g>
            <g id="g1797" transform="translate(32.402 40.492)">
              <path id="path1799" d="M-62.978,0a1.783,1.783,0,0,0-.773.255c4.363,4.3,11.377,13.793,11.377,21.381a14.51,14.51,0,0,1-14.51,14.51,14.489,14.489,0,0,1-4.692-.776,14.444,14.444,0,0,0,8.6,2.821,14.51,14.51,0,0,0,14.51-14.51C-48.468,13.544-60.987,0-62.978,0" transform="translate(71.576)" fill="#5fa7ee"/>
            </g>
            <g id="g1801" transform="translate(63.079 57.157)">
              <path id="path1803" d="M-85.064-69.416a5.806,5.806,0,0,1-5.806,5.806,5.806,5.806,0,0,1-5.806-5.806c0-4.057,4.814-9.476,5.806-9.476.8,0,5.806,5.419,5.806,9.476" transform="translate(96.677 78.892)" fill="#6cbff8"/>
            </g>
            <g id="g1805" transform="translate(7.308 57.157)">
              <path id="path1807" d="M-85.064-69.416a5.806,5.806,0,0,1-5.806,5.806,5.806,5.806,0,0,1-5.806-5.806c0-4.057,4.814-9.476,5.806-9.476.8,0,5.806,5.419,5.806,9.476" transform="translate(96.677 78.892)" fill="#6cbff8"/>
            </g>
            <g id="g1809" transform="translate(53.353 3.316)">
              <path id="path1811" d="M-53.954-134.563h15.335a4.732,4.732,0,0,0,3.355-1.39,4.729,4.729,0,0,0,1.39-3.355,4.745,4.745,0,0,0-4.745-4.742h-1.325a11.114,11.114,0,0,0-10.886-8.882,11.111,11.111,0,0,0-10.481,7.426.093.093,0,0,0-.01.027" transform="translate(61.32 152.933)" fill="none" stroke="#000" stroke-linecap="round" stroke-linejoin="round" stroke-miterlimit="10" stroke-width="3"/>
            </g>
            <g id="g1813" transform="translate(39.834 6.029)">
              <path id="path1815" d="M0,0A21.764,21.764,0,0,1,21.764,21.764a21.716,21.716,0,0,1-1.622,8.261,21.716,21.716,0,0,1-2.114,3.936" fill="none" stroke="#000" stroke-linecap="round" stroke-linejoin="round" stroke-miterlimit="10" stroke-width="3"/>
            </g>
            <g id="g1817" transform="translate(23.831 6.029)">
              <path id="path1819" d="M-272.108-308.577h7.488a6.114,6.114,0,0,0,6.146-5.877,6.036,6.036,0,0,0-1.77-4.451,6.034,6.034,0,0,0-4.279-1.772h-8.588a21.7,21.7,0,0,0,1.621-8.062,21.828,21.828,0,0,0-21.6-21.962,21.708,21.708,0,0,0-16.17,7.011" transform="translate(309.255 350.703)" fill="none" stroke="#000" stroke-linecap="round" stroke-linejoin="round" stroke-miterlimit="10" stroke-width="3"/>
            </g>
            <g id="g1821" transform="translate(48.724 48.154)">
              <path id="path1823" d="M-48.7,0h-6.648" transform="translate(55.347)" fill="none" stroke="#000" stroke-linecap="round" stroke-linejoin="round" stroke-miterlimit="10" stroke-width="3"/>
            </g>
            <g id="g1825" transform="translate(1.201 17.6)">
              <path id="path1827" d="M-142.083,0a21.638,21.638,0,0,0-2.511,9.316.752.752,0,0,1-.751.722c-1.723,0-5.876,0-5.876,0A10.256,10.256,0,0,0-161.48,20.3a10.257,10.257,0,0,0,10.258,10.258h21.628" transform="translate(161.48)" fill="none" stroke="#000" stroke-linecap="round" stroke-linejoin="round" stroke-miterlimit="10" stroke-width="3"/>
            </g>
            <g id="g1829" transform="translate(26.49 40.493)">
              <path id="path1831" d="M-212.578-173.473a14.51,14.51,0,0,1-14.51,14.51,14.51,14.51,0,0,1-14.51-14.51c0-10.138,12.029-23.682,14.51-23.682C-225.1-197.154-212.578-183.611-212.578-173.473Z" transform="translate(241.598 197.154)" fill="none" stroke="#000" stroke-linecap="round" stroke-linejoin="round" stroke-miterlimit="10" stroke-width="3"/>
            </g>
            <g id="g1833" transform="translate(63.079 57.157)">
              <path id="path1835" d="M-85.064-69.417a5.806,5.806,0,0,1-5.806,5.806,5.806,5.806,0,0,1-5.806-5.806c0-4.057,4.814-9.476,5.806-9.476C-90.074-78.893-85.064-73.474-85.064-69.417Z" transform="translate(96.677 78.893)" fill="none" stroke="#000" stroke-linecap="round" stroke-linejoin="round" stroke-miterlimit="10" stroke-width="3"/>
            </g>
            <g id="g1837" transform="translate(7.308 57.157)">
              <path id="path1839" d="M-85.064-69.417a5.806,5.806,0,0,1-5.806,5.806,5.806,5.806,0,0,1-5.806-5.806c0-4.057,4.814-9.476,5.806-9.476C-90.074-78.893-85.064-73.474-85.064-69.417Z" transform="translate(96.677 78.893)" fill="none" stroke="#000" stroke-linecap="round" stroke-linejoin="round" stroke-miterlimit="10" stroke-width="3"/>
            </g>
            <g id="g1841" transform="translate(43.213 66.679)">
              <path id="path1843" d="M-16.532,0a2.257,2.257,0,0,0-2.257,2.257,2.257,2.257,0,0,0,2.257,2.257,2.257,2.257,0,0,0,2.257-2.257A2.257,2.257,0,0,0-16.532,0Z" transform="translate(18.789)" fill="none" stroke="#000" stroke-linecap="round" stroke-linejoin="round" stroke-miterlimit="10" stroke-width="3"/>
            </g>
            <g id="g1845" transform="translate(34.274 57.157)">
              <path id="path1847" d="M-16.531,0a2.257,2.257,0,0,0-2.257,2.257,2.257,2.257,0,0,0,2.257,2.257,2.257,2.257,0,0,0,2.257-2.257A2.257,2.257,0,0,0-16.531,0Z" transform="translate(18.788)" fill="none" stroke="#000" stroke-linecap="round" stroke-linejoin="round" stroke-miterlimit="10" stroke-width="3"/>
            </g>
            <g id="g1849" transform="translate(35.733 58.907)">
              <path id="path1851" d="M-77.163,0-87.7,10.534" transform="translate(87.697)" fill="none" stroke="#000" stroke-linecap="round" stroke-linejoin="round" stroke-miterlimit="10" stroke-width="3"/>
            </g>
          </g>
        </g>
      </g>
      <g id="ventoso-2" data-name="ventoso" transform="translate(977.328 3263.723)">
        <g id="Grupo_957850" data-name="Grupo 957850" transform="translate(1.328 1.328)">
          <path id="Trazado_725433" data-name="Trazado 725433" d="M263.441,30.971a7.335,7.335,0,1,1,.684-14.637,1.405,1.405,0,0,0,1.445-.956A11.687,11.687,0,0,1,286,12.216a2.838,2.838,0,0,0,2.3,1.152h.056a8.8,8.8,0,0,1,8.8,8.952,8.9,8.9,0,0,1-8.945,8.651h-24.77Z" transform="translate(-212.099 -7.5)" fill="#ddeafb"/>
          <path id="Trazado_725434" data-name="Trazado 725434" d="M374.125,13.368h-.056a2.838,2.838,0,0,1-2.3-1.152,11.685,11.685,0,0,0-11.413-4.538,11.685,11.685,0,0,1,7.34,4.538,2.838,2.838,0,0,0,2.3,1.152h.056a8.8,8.8,0,0,1,8.8,8.952,8.9,8.9,0,0,1-8.945,8.651h4.073a8.9,8.9,0,0,0,8.945-8.651,8.8,8.8,0,0,0-8.8-8.952Z" transform="translate(-297.867 -7.5)" fill="#bed8fb"/>
          <g id="Grupo_957848" data-name="Grupo 957848" transform="translate(0 5.868)">
            <g id="Grupo_957847" data-name="Grupo 957847">
              <path id="Trazado_725435" data-name="Trazado 725435" d="M83.78,64.1h0a.484.484,0,0,1-.463-.353,11.738,11.738,0,0,0-16.79-7.068,1.422,1.422,0,0,1-1.856-.441,8.809,8.809,0,0,0-9.352-3.63,1.416,1.416,0,0,1-1.687-.912A16.138,16.138,0,0,0,22.169,56.77c0,.2.005.4.014.6a.837.837,0,0,1-.179.549l-.013.016a.858.858,0,0,1-.632.325,14.667,14.667,0,0,0,.994,29.311H83.6A11.736,11.736,0,1,0,83.78,64.1Z" transform="translate(-7.5 -40.634)" fill="#ecf4ff"/>
              <path id="Trazado_725436" data-name="Trazado 725436" d="M83.78,64.1h0a.484.484,0,0,1-.463-.353,11.738,11.738,0,0,0-16.79-7.068,1.422,1.422,0,0,1-1.856-.441,8.809,8.809,0,0,0-9.352-3.63,1.416,1.416,0,0,1-1.687-.912A16.138,16.138,0,0,0,22.169,56.77c0,.2.005.4.014.6a.837.837,0,0,1-.179.549l-.013.016a.858.858,0,0,1-.632.325,14.667,14.667,0,0,0,.994,29.311H83.6A11.736,11.736,0,1,0,83.78,64.1Z" transform="translate(-7.5 -40.634)" fill="#ecf4ff"/>
              <path id="Trazado_725437" data-name="Trazado 725437" d="M374.245,132.269h0a.484.484,0,0,1-.463-.353,11.739,11.739,0,0,0-13.3-8.271,11.75,11.75,0,0,1,9.231,8.271.484.484,0,0,0,.463.353h0A11.736,11.736,0,1,1,370,155.739h4.073a11.736,11.736,0,1,0,.175-23.471Z" transform="translate(-297.965 -108.798)" fill="#ddeafb"/>
            </g>
          </g>
          <g id="Grupo_957849" data-name="Grupo 957849" transform="translate(64.548 58.677)">
            <path id="Trazado_725438" data-name="Trazado 725438" d="M371.984,344.7a5.868,5.868,0,0,1,5.868-5.868h4.4a1.467,1.467,0,0,1,1.467,1.467v4.4a5.868,5.868,0,0,1-5.868,5.868h-5.868Z" transform="translate(-371.984 -338.834)" fill="#b3e59f"/>
            <path id="Trazado_725439" data-name="Trazado 725439" d="M390.593,338.833H386.52a1.467,1.467,0,0,1,1.467,1.467v4.4a5.868,5.868,0,0,1-5.868,5.868h4.073a5.868,5.868,0,0,0,5.868-5.868v-4.4A1.467,1.467,0,0,0,390.593,338.833Z" transform="translate(-380.324 -338.833)" fill="#95d6a4"/>
          </g>
        </g>
        <g id="Grupo_957851" data-name="Grupo 957851" transform="translate(0 0)">
          <path id="Trazado_725440" data-name="Trazado 725440" d="M16,115.355h2.851a1.328,1.328,0,1,0,0-2.656H16a13.341,13.341,0,0,1-.013-26.682l.08,0h0A13.355,13.355,0,0,1,29.339,99.358a1.328,1.328,0,1,0,2.656,0A16.018,16.018,0,0,0,17.33,83.416c0-.065,0-.131,0-.195a14.725,14.725,0,0,1,2.586-8.364,1.328,1.328,0,1,0-2.191-1.5,17.37,17.37,0,0,0-3.052,9.866c0,.064,0,.129,0,.193A16,16,0,0,0,16,115.355Z" transform="translate(0 -59.889)"/>
          <path id="Trazado_725441" data-name="Trazado 725441" d="M176.466,29.353a13,13,0,0,0-1.638-3.228l1.016,0a10.13,10.13,0,0,0,0-20.259c-.276,0-.555.012-.835.035a13.018,13.018,0,0,0-23.232,2.94c-.281-.028-.565-.041-.848-.041a8.7,8.7,0,0,0-6.981,3.554,17.423,17.423,0,0,0-13.579-6.488,17.318,17.318,0,0,0-10.461,3.478,1.328,1.328,0,0,0,1.593,2.126,14.811,14.811,0,0,1,23,7.415,10.131,10.131,0,0,0-5.187,8.845,1.328,1.328,0,0,0,2.656,0,7.471,7.471,0,0,1,4.6-6.9l.013,0a7.427,7.427,0,0,1,2.86-.568,7.512,7.512,0,0,1,6.759,4.283,1.328,1.328,0,0,0,1.961.521,10.407,10.407,0,0,1,16.03,5.942,1.328,1.328,0,0,0,1.328,1s.248-.009.326-.009A10.407,10.407,0,1,1,165.437,42.4a1.328,1.328,0,0,0-2.656,0,13.049,13.049,0,0,0,5.179,10.407H122.4a1.328,1.328,0,1,0,0,2.656h53.447a13.064,13.064,0,0,0,.622-26.113Zm-18.595-7.231a10.139,10.139,0,0,0-10.9-4.216,17.446,17.446,0,0,0-1.391-3.143,5.986,5.986,0,0,1,6.821-3.122,1.328,1.328,0,0,0,1.619-.986A10.359,10.359,0,0,1,172.2,6.544,10.108,10.108,0,0,0,165.714,16a1.328,1.328,0,0,0,2.656,0,7.455,7.455,0,0,1,6.178-7.362,7.562,7.562,0,0,1,1.3-.112,7.473,7.473,0,0,1,0,14.947l-3.495-.007a13.07,13.07,0,0,0-14.48-1.342Z" transform="translate(-98.236 0)"/>
          <path id="Trazado_725442" data-name="Trazado 725442" d="M46.666,338.53a7.2,7.2,0,0,0-14.392,0,1.328,1.328,0,1,0,2.656,0,4.539,4.539,0,1,1,4.539,4.539H1.33a1.328,1.328,0,0,0,0,2.656H39.47A7.2,7.2,0,0,0,46.666,338.53Z" transform="translate(-0.002 -272.657)"/>
          <path id="Trazado_725443" data-name="Trazado 725443" d="M151.464,210.535h-17.6a1.328,1.328,0,0,0,0,2.656h17.6a7.2,7.2,0,1,0-7.2-7.2,1.328,1.328,0,1,0,2.656,0,4.54,4.54,0,1,1,4.539,4.54Z" transform="translate(-109.062 -163.594)"/>
          <path id="Trazado_725444" data-name="Trazado 725444" d="M105.736,430.733H67.6a1.328,1.328,0,1,0,0,2.656h38.14a4.54,4.54,0,1,1-4.539,4.54,1.328,1.328,0,0,0-2.656,0,7.2,7.2,0,1,0,7.2-7.2Z" transform="translate(-54.532 -354.453)"/>
          <path id="Trazado_725445" data-name="Trazado 725445" d="M362.431,331.333h-4.4a7.2,7.2,0,0,0-7.2,7.2v5.318l-2.545,2.545a1.328,1.328,0,1,0,1.878,1.878l2.545-2.545h5.318a7.2,7.2,0,0,0,7.2-7.2v-4.4a2.8,2.8,0,0,0-2.8-2.8Zm.139,7.2a4.545,4.545,0,0,1-4.539,4.539h-2.661l3.6-3.6a1.328,1.328,0,0,0-1.878-1.878l-3.6,3.6v-2.661a4.545,4.545,0,0,1,4.539-4.539h4.4a.139.139,0,0,1,.139.139Z" transform="translate(-286.289 -272.656)"/>
        </g>
      </g>
      <g id="g2475" transform="translate(1052.691 4073.288)">
        <g id="g2477" transform="translate(0 -682.665)">
          <g id="g2479" clip-path="url(#clip-path-16)">
            <g id="g2485" transform="translate(2.146 50.043)">
              <path id="path2487" d="M-188.288-58.089-193.7-63.3a12.62,12.62,0,0,0-17.508,0l-5.409,5.209,14.291,16.877Z" transform="translate(216.613 66.828)" fill="#00bdfd"/>
            </g>
            <g id="g2489" transform="translate(16.437 50.043)">
              <path id="path2491" d="M0-170.276H56.394l14.291-16.877-5.409-5.209a12.62,12.62,0,0,0-17.508,0l-5.409,5.209-5.409-5.209a12.62,12.62,0,0,0-17.508,0l-5.409,5.209Z" transform="translate(0 195.892)" fill="#30cefb"/>
            </g>
            <g id="g2493" transform="translate(1.308 53.081)">
              <path id="path2495" d="M-542.952-3.861-545.2-2.738a16.147,16.147,0,0,1-14.442,0,16.146,16.146,0,0,0-14.442,0,16.147,16.147,0,0,1-14.442,0,16.146,16.146,0,0,0-14.442,0,16.147,16.147,0,0,1-14.442,0l-2.248-1.124a3.437,3.437,0,0,0-4.973,3.074v15.27A10.234,10.234,0,0,0-614.4,24.716h66.186a10.234,10.234,0,0,0,10.234-10.234V-.788a3.437,3.437,0,0,0-4.973-3.074" transform="translate(624.632 4.442)" fill="#82defe"/>
            </g>
            <g id="g2497" transform="translate(1.308 53.295)">
              <path id="path2499" d="M-120.2-18.477a16.147,16.147,0,0,1-10.861-1.289l-2.248-1.124a3.436,3.436,0,0,0-4.973,3.074v15.27A10.233,10.233,0,0,0-128.045,7.688h18.811C-120.3,4-122.087-9.381-120.2-18.477" transform="translate(138.278 21.257)" fill="#30cefb"/>
            </g>
            <g id="g2501" transform="translate(10.66 21.659)">
              <path id="path2503" d="M-57.6-138.2a8.292,8.292,0,0,0,7.791-8.492c-.112-4.179-2.776-8.185-5.483-11.106a3.751,3.751,0,0,0-5.507.023c-2.759,2.982-5.466,7.09-5.466,11.357A8.23,8.23,0,0,0-57.6-138.2" transform="translate(66.264 158.99)" fill="#30cefb"/>
            </g>
            <g id="g2505" transform="translate(10.66 23.404)">
              <path id="path2507" d="M-98.665-104.236c-11.51,1.353-12.086-10.485-9.855-15.681-2.585,2.929-4.988,6.807-4.988,10.827a8.23,8.23,0,0,0,8.665,8.219,8.19,8.19,0,0,0,6.178-3.365" transform="translate(113.508 119.917)" fill="#00bdfd"/>
            </g>
            <g id="g2509" transform="translate(33.145 7.029)">
              <path id="path2511" d="M-57.6-138.2a8.292,8.292,0,0,0,7.791-8.492c-.112-4.179-2.776-8.185-5.483-11.106a3.751,3.751,0,0,0-5.507.023c-2.759,2.982-5.466,7.09-5.466,11.357A8.23,8.23,0,0,0-57.6-138.2" transform="translate(66.264 158.99)" fill="#30cefb"/>
            </g>
            <g id="g2513" transform="translate(33.145 8.774)">
              <path id="path2515" d="M-98.665-104.236c-11.51,1.353-12.086-10.485-9.855-15.681-2.585,2.929-4.988,6.807-4.988,10.827a8.23,8.23,0,0,0,8.665,8.219,8.19,8.19,0,0,0,6.178-3.365" transform="translate(113.508 119.917)" fill="#00bdfd"/>
            </g>
            <g id="g2517" transform="translate(11.223 66.912)">
              <path id="path2519" d="M-68.972-27.493c0,2.282-2.326,4.129-5.192,4.127s-5.186-1.854-5.184-4.136,2.326-4.13,5.192-4.127,5.186,1.854,5.184,4.136" transform="translate(79.348 31.629)" fill="#fff"/>
            </g>
            <g id="g2521" transform="translate(39.344 66.937)">
              <path id="path2523" d="M0-27.433C0-25.151,2.319-23.3,5.184-23.3s5.19-1.845,5.192-4.127S8.057-31.557,5.192-31.56,0-29.715,0-27.433" transform="translate(0 31.56)" fill="#fff"/>
            </g>
            <g id="g2525" transform="translate(59.287 26.841)">
              <path id="path2527" d="M-69.367-329.143H-75.31a4.492,4.492,0,0,1-4.492-4.492v-40.531a4.492,4.492,0,0,1,4.492-4.492h5.943a4.492,4.492,0,0,1,4.492,4.492v40.531a4.492,4.492,0,0,1-4.492,4.492" transform="translate(79.802 378.658)" fill="#f4e74d"/>
            </g>
            <g id="g2529" transform="translate(10.66 21.659)">
              <path id="path2531" d="M-13.087-39.34a13.673,13.673,0,0,0-1.969,6.654,8.23,8.23,0,0,0,8.665,8.219A8.292,8.292,0,0,0,1.4-32.96c-.112-4.179-2.776-8.185-5.483-11.106a3.747,3.747,0,0,0-5.15-.317" transform="translate(15.056 45.258)" fill="none" stroke="#000" stroke-linecap="round" stroke-linejoin="round" stroke-miterlimit="10" stroke-width="3"/>
            </g>
            <g id="g2533" transform="translate(33.145 7.029)">
              <path id="path2535" d="M-57.6-138.2a8.292,8.292,0,0,0,7.791-8.492c-.112-4.179-2.776-8.185-5.483-11.106a3.751,3.751,0,0,0-5.507.023c-2.759,2.982-5.466,7.09-5.466,11.357A8.23,8.23,0,0,0-57.6-138.2Z" transform="translate(66.264 158.99)" fill="none" stroke="#000" stroke-linecap="round" stroke-linejoin="round" stroke-miterlimit="10" stroke-width="3"/>
            </g>
            <g id="g2537" transform="translate(59.287 26.841)">
              <path id="path2539" d="M-69.367-329.143H-75.31a4.492,4.492,0,0,1-4.492-4.492v-40.531a4.492,4.492,0,0,1,4.492-4.492h5.943a4.492,4.492,0,0,1,4.492,4.492v40.531A4.492,4.492,0,0,1-69.367-329.143Z" transform="translate(79.802 378.658)" fill="none" stroke="#000" stroke-linecap="round" stroke-linejoin="round" stroke-miterlimit="10" stroke-width="3"/>
            </g>
            <g id="g2541" transform="translate(74.214 53.295)">
              <path id="path2543" d="M-86.918-148.659a10.21,10.21,0,0,0,.671-3.653v-15.27a3.437,3.437,0,0,0-4.973-3.074l-2.248,1.124a16.138,16.138,0,0,1-6.526,1.688" transform="translate(99.993 171.022)" fill="none" stroke="#000" stroke-linecap="round" stroke-linejoin="round" stroke-miterlimit="10" stroke-width="3"/>
            </g>
            <g id="g2545" transform="translate(1.308 53.081)">
              <path id="path2547" d="M-385.406-.02a16.139,16.139,0,0,0-7.431,1.7h0a16.147,16.147,0,0,1-14.442,0h0a16.147,16.147,0,0,0-14.442,0h0a16.147,16.147,0,0,1-14.442,0L-438.412.558a3.437,3.437,0,0,0-4.973,3.074V18.9a10.234,10.234,0,0,0,10.234,10.234h66.186a10.186,10.186,0,0,0,5.655-1.7" transform="translate(443.386 0.023)" fill="none" stroke="#000" stroke-linecap="round" stroke-linejoin="round" stroke-miterlimit="10" stroke-width="3"/>
            </g>
            <g id="g2549" transform="translate(74.214 50.106)">
              <path id="path2551" d="M-53.152-26.22l-.5-.478a12.57,12.57,0,0,0-7.5-3.466" transform="translate(61.148 30.164)" fill="none" stroke="#000" stroke-linecap="round" stroke-linejoin="round" stroke-miterlimit="10" stroke-width="3"/>
            </g>
            <g id="g2553" transform="translate(35.468 50.043)">
              <path id="path2555" d="M-121.858-26.1l-.412-.4a12.62,12.62,0,0,0-17.508,0l-.412.4" transform="translate(140.19 30.028)" fill="none" stroke="#000" stroke-linecap="round" stroke-linejoin="round" stroke-miterlimit="10" stroke-width="3"/>
            </g>
            <g id="g2557" transform="translate(65.057 68.66)">
              <path id="path2559" d="M0,0H3.387" fill="none" stroke="#000" stroke-linecap="round" stroke-linejoin="round" stroke-miterlimit="10" stroke-width="3"/>
            </g>
            <g id="g2561" transform="translate(65.057 51.598)">
              <path id="path2563" d="M0,0H3.387" fill="none" stroke="#000" stroke-linecap="round" stroke-linejoin="round" stroke-miterlimit="10" stroke-width="3"/>
            </g>
            <g id="g2565" transform="translate(65.057 60.129)">
              <path id="path2567" d="M0,0H3.387" fill="none" stroke="#000" stroke-linecap="round" stroke-linejoin="round" stroke-miterlimit="10" stroke-width="3"/>
            </g>
            <g id="g2569" transform="translate(65.057 43.067)">
              <path id="path2571" d="M0,0H3.387" fill="none" stroke="#000" stroke-linecap="round" stroke-linejoin="round" stroke-miterlimit="10" stroke-width="3"/>
            </g>
            <g id="g2573" transform="translate(65.057 34.536)">
              <path id="path2575" d="M0,0H3.387" fill="none" stroke="#000" stroke-linecap="round" stroke-linejoin="round" stroke-miterlimit="10" stroke-width="3"/>
            </g>
            <g id="g2577" transform="translate(7.058 50.043)">
              <path id="path2579" d="M-121.47-25.185l-.269-.259a12.62,12.62,0,0,0-17.508,0l-.5.478" transform="translate(139.744 28.974)" fill="none" stroke="#000" stroke-linecap="round" stroke-linejoin="round" stroke-miterlimit="10" stroke-width="3"/>
            </g>
            <g id="g2581" transform="translate(19.438 64.972)">
              <path id="path2583" d="M-.01,0l0,2.071" transform="translate(0.012)" fill="none" stroke="#000" stroke-linecap="round" stroke-linejoin="round" stroke-miterlimit="10" stroke-width="3"/>
            </g>
            <g id="g2585" transform="translate(41.512 64.994)">
              <path id="path2587" d="M-.01,0l0,2.071" transform="translate(0.012)" fill="none" stroke="#000" stroke-linecap="round" stroke-linejoin="round" stroke-miterlimit="10" stroke-width="3"/>
            </g>
            <g id="g2589" transform="translate(27.564 67.971)">
              <path id="path2591" d="M0,0,5.82.005" fill="none" stroke="#000" stroke-linecap="round" stroke-linejoin="round" stroke-miterlimit="10" stroke-width="3"/>
            </g>
          </g>
        </g>
      </g>
    </g>
  </g>
</svg>
