<svg xmlns="http://www.w3.org/2000/svg" xmlns:xlink="http://www.w3.org/1999/xlink" width="190" height="157.18" viewBox="0 0 190 157.18">
  <defs>
    <clipPath id="clip-path">
      <path id="path627" d="M0-682.665H87.894v87.894H0Z" transform="translate(0 682.665)"/>
    </clipPath>
  </defs>
  <g id="_5" data-name="5" transform="translate(-180 -3701.82)">
    <rect id="Rectángulo_340114" data-name="Rectángulo 340114" width="190" height="135" transform="translate(180 3724)" fill="#badc61"/>
    <g id="g621" transform="translate(265 3752.553)">
      <g id="g623" transform="translate(0 0)">
        <g id="g625" clip-path="url(#clip-path)">
          <g id="g631" transform="translate(7.725 1.288)">
            <path id="path633" d="M-438.41-330.891a5.157,5.157,0,0,0,5.157-5.157,5.156,5.156,0,0,0-5.506-5.145,6.851,6.851,0,0,0-6.75-8.008,6.848,6.848,0,0,0-6.848,6.848,6.856,6.856,0,0,0,8.8,6.566,5.157,5.157,0,0,0,5.15,4.9M-492.9-364.78c5.7-.236,7.625-4.384,7.719-7h10.224a5.159,5.159,0,0,0-5.068,5.15,5.15,5.15,0,0,0,5.15,5.15v5.211h5.15v-8.508a7.056,7.056,0,0,0,5.694-.216,10.171,10.171,0,0,0,10.149,9.505,10.155,10.155,0,0,0,8.11-4.033,12.2,12.2,0,0,0,9.222,4.2,12.231,12.231,0,0,0,12.231-12.231,12.231,12.231,0,0,0-12.231-12.231,12.228,12.228,0,0,0-10.743,6.379,10.132,10.132,0,0,0-6.589-2.423,10.124,10.124,0,0,0-5.794,1.811,7.728,7.728,0,0,0-7.475-5.767h-23.175a7.724,7.724,0,0,0-7.719,8.007,5.157,5.157,0,0,0-5.156,5.15,5.15,5.15,0,0,0,5.15,5.15v5.212h5.15Z" transform="translate(503.197 379.79)" fill="#dededf" fill-rule="evenodd"/>
          </g>
          <g id="g635" transform="translate(9.528 35.106)">
            <path id="path637" d="M0-69.7H11.845L11.073-80H.773Z" transform="translate(0 79.998)" fill="#6b809a" fill-rule="evenodd"/>
          </g>
          <path id="path639" d="M53.862-479.7h10.3V-490h-10.3ZM50-428.2H68.025l-3.09-41.2H53.09Z" transform="translate(-43.562 514.806)" fill="#6b809a" fill-rule="evenodd"/>
          <g id="g641" transform="translate(22.531 60.856)">
            <path id="path643" d="M-13.069-174.249h5.15L-5.987-200H-15Z" transform="translate(15 200)" fill="#a8c6e2" fill-rule="evenodd"/>
          </g>
          <g id="g645" transform="translate(45.707 55.706)">
            <path id="path647" d="M-13.069-209.1H20.75V-240L3.025-234.935V-240L-15-234.849Z" transform="translate(15 239.999)" fill="#e3edf6" fill-rule="evenodd"/>
          </g>
          <g id="g649" transform="translate(9.528 35.106)">
            <path id="path651" d="M0-69.7H3.863L4.635-80H.773Z" transform="translate(0 79.998)" fill="#6b809a" fill-rule="evenodd"/>
          </g>
          <path id="path653" d="M53.862-479.7h3.863V-490H53.862ZM50-428.2h3.863l3.09-41.2H53.09Z" transform="translate(-43.562 514.806)" fill="#6b809a" fill-rule="evenodd"/>
          <path id="path655" d="M53.862-479.7h10.3V-490h-10.3Zm23.175,0h10.3V-490h-10.3Zm-3.863,51.5H91.2l-3.09-41.2H76.265ZM50-428.2H68.025l-3.09-41.2H53.09Z" transform="translate(-43.562 514.806)" fill="#f88fa4" fill-rule="evenodd"/>
          <g id="g657" transform="translate(9.528 35.106)">
            <path id="path659" d="M0-69.7H11.845L11.073-80H.773Zm23.175,0H35.02L34.248-80h-10.3Z" transform="translate(0 79.998)" fill="#e3edf6" fill-rule="evenodd"/>
          </g>
          <g id="g661" transform="translate(9.527 35.106)">
            <path id="path663" d="M-156.824-69.7h3.863l.773-10.3h-3.863ZM-180-69.7h3.863l.773-10.3h-3.863Z" transform="translate(180 79.998)" fill="#6b809a" fill-rule="evenodd"/>
          </g>
          <path id="path665" d="M53.862-479.7h3.863V-490H53.862Zm23.175,0H80.9V-490H77.038Zm-3.863,51.5h3.863l3.09-41.2H76.265ZM50-428.2h3.863l3.09-41.2H53.09Z" transform="translate(-43.562 514.806)" fill="#f05475" fill-rule="evenodd"/>
          <g id="g667" transform="translate(45.707 59.667)">
            <path id="path669" d="M-121.975-182.3h3.863v-26.94l-3.863,1.1Zm-16.094,0h3.863l-2.038-26.823L-140-208.049Z" transform="translate(140 209.238)" fill="#a8c6e2" fill-rule="evenodd"/>
          </g>
          <path id="path671" d="M100-579.447h5.15v-3.863H100Zm34.019-8.725a10.172,10.172,0,0,0,10.149,9.505,10.155,10.155,0,0,0,8.11-4.032,12.2,12.2,0,0,0,9.222,4.2,12.236,12.236,0,0,0,12.079-14.163c-1.634,10.3-16.115,12.148-21.3,4.816-3.581,8.121-14.478,7.351-18.259-.323M154.473-572.1a6.859,6.859,0,0,0-8.783,6.572,6.856,6.856,0,0,0,8.784,6.57,6.842,6.842,0,0,1-4.922-6.57,6.851,6.851,0,0,1,4.92-6.572m-31.3-7.347h5.15v-3.862h-5.15Z" transform="translate(-87.125 604.253)" fill="#9c9a9f" fill-rule="evenodd"/>
          <g id="g673" transform="translate(14.163 9.656)">
            <path id="path675" d="M-156.824-137.365h2.575m-25.75,0h2.575m60.213-20.3h2.575" transform="translate(180 157.665)" fill="none" stroke="#fff" stroke-miterlimit="2.613" stroke-width="2"/>
          </g>
          <g id="g677" transform="translate(6.438 24.806)">
            <path id="path679" d="M-11.107-270.111l2.221-29.616v-10.3m-3.862,61.8,1.449-19.316M1.415-310.027v10.3l3.863,51.5m-18.025-61.8H5.277" transform="translate(12.748 310.027)" fill="none" stroke="#000" stroke-miterlimit="22.926" stroke-width="2"/>
          </g>
          <g id="g681" transform="translate(29.613 24.806)">
            <path id="path683" d="M0-418.2l3.863-51.5V-480m10.3,0v10.3l3.863,51.5M0-480H18.025" transform="translate(0 480)" fill="none" stroke="#000" stroke-miterlimit="22.926" stroke-width="2"/>
          </g>
          <g id="g685" transform="translate(45.707 55.706)">
            <path id="path687" d="M0-34.85,18.025-40V-9.1m0-25.836L35.75-40V-9.1" transform="translate(0 40)" fill="none" stroke="#000" stroke-miterlimit="22.926" stroke-width="2"/>
          </g>
          <g id="g689" transform="translate(0 86.606)">
            <path id="path691" d="M-594.774,0h-87.895" transform="translate(682.669)" fill="none" stroke="#000" stroke-miterlimit="22.926" stroke-width="2"/>
          </g>
          <g id="g693" transform="translate(36.05 13.218)">
            <path id="path695" d="M0-78.412v-9.074M5.15-90v11.588" transform="translate(0 90)" fill="none" stroke="#000" stroke-miterlimit="22.926" stroke-width="2"/>
          </g>
          <g id="g697" transform="translate(12.875 12.435)">
            <path id="path699" d="M0-83.713v-9.074m5.15-3.3v12.371" transform="translate(0 96.084)" fill="none" stroke="#000" stroke-miterlimit="22.926" stroke-width="2"/>
          </g>
          <g id="g701" transform="translate(7.725 1.288)">
            <path id="path703" d="M-191.674-123.881a5.15,5.15,0,0,1-5.15-5.15,5.157,5.157,0,0,1,5.156-5.15H-201.98c-.094,2.619-2.016,6.768-7.719,7m65.86-10.47a12.179,12.179,0,0,1,2.722,7.692,12.231,12.231,0,0,1-12.231,12.231,12.2,12.2,0,0,1-9.222-4.2,10.155,10.155,0,0,1-8.11,4.032,10.172,10.172,0,0,1-10.149-9.505,7.056,7.056,0,0,1-5.694.216m-28.325,3.3a5.15,5.15,0,0,1-5.15-5.15,5.157,5.157,0,0,1,5.156-5.15,7.724,7.724,0,0,1,7.719-8.007h23.175a7.728,7.728,0,0,1,7.475,5.767,10.124,10.124,0,0,1,5.794-1.811,10.131,10.131,0,0,1,6.589,2.423,12.228,12.228,0,0,1,10.743-6.379,12.178,12.178,0,0,1,7.692,2.722" transform="translate(219.999 142.188)" fill="none" stroke="#000" stroke-miterlimit="22.926" stroke-width="2"/>
          </g>
          <g id="g705" transform="translate(58.566 31.877)">
            <path id="path707" d="M-46.339,0a6.851,6.851,0,0,1,6.749,8.008,5.156,5.156,0,0,1,5.506,5.145,5.157,5.157,0,0,1-5.157,5.157,5.157,5.157,0,0,1-5.15-4.895,6.856,6.856,0,0,1-8.8-6.566A6.848,6.848,0,0,1-46.339,0Z" transform="translate(53.187)" fill="none" stroke="#000" stroke-miterlimit="22.926" stroke-width="2"/>
          </g>
          <g id="g709" transform="translate(9.528 35.106)">
            <path id="path711" d="M0-69.7H11.845m11.33,0H35.02M23.948-80h10.3M22.016-54.248H13M.773-80h10.3" transform="translate(0 79.998)" fill="none" stroke="#000" stroke-miterlimit="22.926" stroke-width="2"/>
          </g>
          <g id="g713" transform="translate(53.432 65.92)">
            <path id="path715" d="M-34.85,0V16.823M-22.275,0V16.823M-17.125,0V16.823M-40,0V16.823" transform="translate(40)" fill="none" stroke="#000" stroke-miterlimit="22.926" stroke-width="2"/>
          </g>
        </g>
      </g>
    </g>
    <g id="hecho" transform="translate(202 3702.57)">
      <path id="Trazado_725335" data-name="Trazado 725335" d="M44.958,102.1H8.848A1.348,1.348,0,0,1,7.5,100.756V45.041a1.348,1.348,0,0,1,1.348-1.348h36.11a1.348,1.348,0,0,1,1.348,1.348v55.715A1.348,1.348,0,0,1,44.958,102.1Z" transform="translate(-7.5 -39.107)" fill="#e7e2e6"/>
      <path id="Trazado_725336" data-name="Trazado 725336" d="M7.5,53.28v47.476A1.348,1.348,0,0,0,8.848,102.1h36.11a1.348,1.348,0,0,0,1.348-1.348V45.041a1.348,1.348,0,0,0-1.348-1.348H8.848A1.348,1.348,0,0,0,7.5,45.041V49.6" transform="translate(-7.5 -39.107)" fill="none" stroke="#000" stroke-linecap="round" stroke-linejoin="round" stroke-miterlimit="10" stroke-width="1.5"/>
      <path id="Trazado_725337" data-name="Trazado 725337" d="M91.148,65.926H55.038a1.348,1.348,0,0,1-1.348-1.348V8.863a1.348,1.348,0,0,1,1.348-1.348h36.11A1.348,1.348,0,0,1,92.5,8.863V64.578A1.348,1.348,0,0,1,91.148,65.926Z" transform="translate(-47.835 -7.515)" fill="#faf7f8"/>
      <path id="Trazado_725338" data-name="Trazado 725338" d="M329.91,7.516h-2.8a1.348,1.348,0,0,1,1.348,1.348V64.579a1.348,1.348,0,0,1-1.348,1.348h2.8a1.348,1.348,0,0,0,1.348-1.348V8.864A1.348,1.348,0,0,0,329.91,7.516Z" transform="translate(-286.598 -7.516)" fill="#f0eef0"/>
      <path id="Trazado_725339" data-name="Trazado 725339" d="M71.843,65.926h19.3A1.348,1.348,0,0,0,92.5,64.578V8.863a1.348,1.348,0,0,0-1.348-1.348H55.038A1.348,1.348,0,0,0,53.69,8.863V64.578a1.348,1.348,0,0,0,1.348,1.348h13.13" transform="translate(-47.835 -7.515)" fill="none" stroke="#000" stroke-linecap="round" stroke-linejoin="round" stroke-miterlimit="10" stroke-width="1.5"/>
      <path id="Trazado_725340" data-name="Trazado 725340" d="M138.747,46.166H118.678a1.3,1.3,0,0,1-1.295-1.295v-3.15a1.3,1.3,0,0,1,1.295-1.295h20.07a1.3,1.3,0,0,1,1.295,1.295v3.15A1.3,1.3,0,0,1,138.747,46.166Z" transform="translate(-103.455 -36.255)" fill="#6ce79a"/>
      <path id="Trazado_725341" data-name="Trazado 725341" d="M268.91,40.426h-2.471a1.3,1.3,0,0,1,1.295,1.295v3.15a1.3,1.3,0,0,1-1.295,1.3h2.471a1.3,1.3,0,0,0,1.295-1.3v-3.15A1.3,1.3,0,0,0,268.91,40.426Z" transform="translate(-233.618 -36.254)" fill="#00d8a2"/>
      <path id="Trazado_725342" data-name="Trazado 725342" d="M138.747,46.166H118.678a1.3,1.3,0,0,1-1.295-1.295v-3.15a1.3,1.3,0,0,1,1.295-1.295h20.07a1.3,1.3,0,0,1,1.295,1.295v3.15A1.3,1.3,0,0,1,138.747,46.166Z" transform="translate(-103.455 -36.255)" fill="none" stroke="#000" stroke-linecap="round" stroke-linejoin="round" stroke-miterlimit="10" stroke-width="1.5"/>
      <g id="Grupo_957781" data-name="Grupo 957781" transform="translate(11.253 14.685)">
        <line id="Línea_157" data-name="Línea 157" x2="28.008" transform="translate(0 36.35)" fill="none" stroke="#000" stroke-linecap="round" stroke-linejoin="round" stroke-miterlimit="10" stroke-width="1.5"/>
        <line id="Línea_158" data-name="Línea 158" x2="28.008" transform="translate(0 31.806)" fill="none" stroke="#000" stroke-linecap="round" stroke-linejoin="round" stroke-miterlimit="10" stroke-width="1.5"/>
        <line id="Línea_159" data-name="Línea 159" x2="28.008" transform="translate(0 27.263)" fill="none" stroke="#000" stroke-linecap="round" stroke-linejoin="round" stroke-miterlimit="10" stroke-width="1.5"/>
        <line id="Línea_160" data-name="Línea 160" x2="28.008" transform="translate(0 22.719)" fill="none" stroke="#000" stroke-linecap="round" stroke-linejoin="round" stroke-miterlimit="10" stroke-width="1.5"/>
        <line id="Línea_161" data-name="Línea 161" x2="28.008" transform="translate(0 18.175)" fill="none" stroke="#000" stroke-linecap="round" stroke-linejoin="round" stroke-miterlimit="10" stroke-width="1.5"/>
        <line id="Línea_162" data-name="Línea 162" x2="28.008" transform="translate(0 13.631)" fill="none" stroke="#000" stroke-linecap="round" stroke-linejoin="round" stroke-miterlimit="10" stroke-width="1.5"/>
        <line id="Línea_163" data-name="Línea 163" x2="28.008" transform="translate(0 9.088)" fill="none" stroke="#000" stroke-linecap="round" stroke-linejoin="round" stroke-miterlimit="10" stroke-width="1.5"/>
        <line id="Línea_164" data-name="Línea 164" x2="28.008" transform="translate(0 4.544)" fill="none" stroke="#000" stroke-linecap="round" stroke-linejoin="round" stroke-miterlimit="10" stroke-width="1.5"/>
        <line id="Línea_165" data-name="Línea 165" x2="28.008" transform="translate(0)" fill="none" stroke="#000" stroke-linecap="round" stroke-linejoin="round" stroke-miterlimit="10" stroke-width="1.5"/>
      </g>
      <circle id="Elipse_6719" data-name="Elipse 6719" cx="15.083" cy="15.083" r="15.083" transform="translate(32.834 23.772)" fill="#6ce79a"/>
      <path id="Trazado_725343" data-name="Trazado 725343" d="M373.637,195.063a15.23,15.23,0,0,0-1.727.1,15.083,15.083,0,0,1,0,29.968,15.237,15.237,0,0,0,1.727.1,15.083,15.083,0,1,0,0-30.166Z" transform="translate(-325.72 -171.291)" fill="#00d8a2"/>
      <g id="Grupo_957782" data-name="Grupo 957782" transform="translate(38.837 32.062)">
        <path id="Trazado_725344" data-name="Trazado 725344" d="M320.593,274.051a2.113,2.113,0,0,1-1.5-.621l-4.574-4.574a2.12,2.12,0,0,1,3-3l3.075,3.075,7.847-7.846a2.12,2.12,0,1,1,3,3l-9.346,9.346A2.113,2.113,0,0,1,320.593,274.051Z" transform="translate(-313.899 -260.465)" fill="#faf7f8"/>
      </g>
      <g id="Grupo_957783" data-name="Grupo 957783" transform="translate(38.837 32.062)">
        <path id="Trazado_725345" data-name="Trazado 725345" d="M320.593,274.051a2.113,2.113,0,0,1-1.5-.621l-4.574-4.574a2.12,2.12,0,0,1,3-3l3.075,3.075,7.847-7.846a2.12,2.12,0,1,1,3,3l-9.346,9.346A2.113,2.113,0,0,1,320.593,274.051Z" transform="translate(-313.899 -260.465)" fill="none" stroke="#000" stroke-linecap="round" stroke-linejoin="round" stroke-miterlimit="10" stroke-width="1.5"/>
      </g>
      <path id="Trazado_725346" data-name="Trazado 725346" d="M291.346,198.616a15.075,15.075,0,1,0,2.5,2.7" transform="translate(-233.706 -171.291)" fill="none" stroke="#000" stroke-linecap="round" stroke-linejoin="round" stroke-miterlimit="10" stroke-width="1.5"/>
    </g>
  </g>
</svg>
