<svg xmlns="http://www.w3.org/2000/svg" width="190" height="157.18" viewBox="0 0 190 157.18">
  <g id="_6" data-name="6" transform="translate(-180 -6402.881)">
    <g id="Grupo_957831" data-name="Grupo 957831" transform="translate(0 2701.062)">
      <rect id="Rectángulo_340114" data-name="Rectángulo 340114" width="190" height="135" transform="translate(180 3724)" fill="#badc61"/>
      <g id="hecho" transform="translate(202 3702.57)">
        <path id="Trazado_725335" data-name="Trazado 725335" d="M44.958,102.1H8.848A1.348,1.348,0,0,1,7.5,100.756V45.041a1.348,1.348,0,0,1,1.348-1.348h36.11a1.348,1.348,0,0,1,1.348,1.348v55.715A1.348,1.348,0,0,1,44.958,102.1Z" transform="translate(-7.5 -39.107)" fill="#e7e2e6"/>
        <path id="Trazado_725336" data-name="Trazado 725336" d="M7.5,53.28v47.476A1.348,1.348,0,0,0,8.848,102.1h36.11a1.348,1.348,0,0,0,1.348-1.348V45.041a1.348,1.348,0,0,0-1.348-1.348H8.848A1.348,1.348,0,0,0,7.5,45.041V49.6" transform="translate(-7.5 -39.107)" fill="none" stroke="#000" stroke-linecap="round" stroke-linejoin="round" stroke-miterlimit="10" stroke-width="1.5"/>
        <path id="Trazado_725337" data-name="Trazado 725337" d="M91.148,65.926H55.038a1.348,1.348,0,0,1-1.348-1.348V8.863a1.348,1.348,0,0,1,1.348-1.348h36.11A1.348,1.348,0,0,1,92.5,8.863V64.578A1.348,1.348,0,0,1,91.148,65.926Z" transform="translate(-47.835 -7.515)" fill="#faf7f8"/>
        <path id="Trazado_725338" data-name="Trazado 725338" d="M329.91,7.516h-2.8a1.348,1.348,0,0,1,1.348,1.348V64.579a1.348,1.348,0,0,1-1.348,1.348h2.8a1.348,1.348,0,0,0,1.348-1.348V8.864A1.348,1.348,0,0,0,329.91,7.516Z" transform="translate(-286.598 -7.516)" fill="#f0eef0"/>
        <path id="Trazado_725339" data-name="Trazado 725339" d="M71.843,65.926h19.3A1.348,1.348,0,0,0,92.5,64.578V8.863a1.348,1.348,0,0,0-1.348-1.348H55.038A1.348,1.348,0,0,0,53.69,8.863V64.578a1.348,1.348,0,0,0,1.348,1.348h13.13" transform="translate(-47.835 -7.515)" fill="none" stroke="#000" stroke-linecap="round" stroke-linejoin="round" stroke-miterlimit="10" stroke-width="1.5"/>
        <path id="Trazado_725340" data-name="Trazado 725340" d="M138.747,46.166H118.678a1.3,1.3,0,0,1-1.295-1.295v-3.15a1.3,1.3,0,0,1,1.295-1.295h20.07a1.3,1.3,0,0,1,1.295,1.295v3.15A1.3,1.3,0,0,1,138.747,46.166Z" transform="translate(-103.455 -36.255)" fill="#6ce79a"/>
        <path id="Trazado_725341" data-name="Trazado 725341" d="M268.91,40.426h-2.471a1.3,1.3,0,0,1,1.295,1.295v3.15a1.3,1.3,0,0,1-1.295,1.3h2.471a1.3,1.3,0,0,0,1.295-1.3v-3.15A1.3,1.3,0,0,0,268.91,40.426Z" transform="translate(-233.618 -36.254)" fill="#00d8a2"/>
        <path id="Trazado_725342" data-name="Trazado 725342" d="M138.747,46.166H118.678a1.3,1.3,0,0,1-1.295-1.295v-3.15a1.3,1.3,0,0,1,1.295-1.295h20.07a1.3,1.3,0,0,1,1.295,1.295v3.15A1.3,1.3,0,0,1,138.747,46.166Z" transform="translate(-103.455 -36.255)" fill="none" stroke="#000" stroke-linecap="round" stroke-linejoin="round" stroke-miterlimit="10" stroke-width="1.5"/>
        <g id="Grupo_957781" data-name="Grupo 957781" transform="translate(11.253 14.685)">
          <line id="Línea_157" data-name="Línea 157" x2="28.008" transform="translate(0 36.35)" fill="none" stroke="#000" stroke-linecap="round" stroke-linejoin="round" stroke-miterlimit="10" stroke-width="1.5"/>
          <line id="Línea_158" data-name="Línea 158" x2="28.008" transform="translate(0 31.806)" fill="none" stroke="#000" stroke-linecap="round" stroke-linejoin="round" stroke-miterlimit="10" stroke-width="1.5"/>
          <line id="Línea_159" data-name="Línea 159" x2="28.008" transform="translate(0 27.263)" fill="none" stroke="#000" stroke-linecap="round" stroke-linejoin="round" stroke-miterlimit="10" stroke-width="1.5"/>
          <line id="Línea_160" data-name="Línea 160" x2="28.008" transform="translate(0 22.719)" fill="none" stroke="#000" stroke-linecap="round" stroke-linejoin="round" stroke-miterlimit="10" stroke-width="1.5"/>
          <line id="Línea_161" data-name="Línea 161" x2="28.008" transform="translate(0 18.175)" fill="none" stroke="#000" stroke-linecap="round" stroke-linejoin="round" stroke-miterlimit="10" stroke-width="1.5"/>
          <line id="Línea_162" data-name="Línea 162" x2="28.008" transform="translate(0 13.631)" fill="none" stroke="#000" stroke-linecap="round" stroke-linejoin="round" stroke-miterlimit="10" stroke-width="1.5"/>
          <line id="Línea_163" data-name="Línea 163" x2="28.008" transform="translate(0 9.088)" fill="none" stroke="#000" stroke-linecap="round" stroke-linejoin="round" stroke-miterlimit="10" stroke-width="1.5"/>
          <line id="Línea_164" data-name="Línea 164" x2="28.008" transform="translate(0 4.544)" fill="none" stroke="#000" stroke-linecap="round" stroke-linejoin="round" stroke-miterlimit="10" stroke-width="1.5"/>
          <line id="Línea_165" data-name="Línea 165" x2="28.008" transform="translate(0)" fill="none" stroke="#000" stroke-linecap="round" stroke-linejoin="round" stroke-miterlimit="10" stroke-width="1.5"/>
        </g>
        <circle id="Elipse_6719" data-name="Elipse 6719" cx="15.083" cy="15.083" r="15.083" transform="translate(32.834 23.772)" fill="#6ce79a"/>
        <path id="Trazado_725343" data-name="Trazado 725343" d="M373.637,195.063a15.23,15.23,0,0,0-1.727.1,15.083,15.083,0,0,1,0,29.968,15.237,15.237,0,0,0,1.727.1,15.083,15.083,0,1,0,0-30.166Z" transform="translate(-325.72 -171.291)" fill="#00d8a2"/>
        <g id="Grupo_957782" data-name="Grupo 957782" transform="translate(38.837 32.062)">
          <path id="Trazado_725344" data-name="Trazado 725344" d="M320.593,274.051a2.113,2.113,0,0,1-1.5-.621l-4.574-4.574a2.12,2.12,0,0,1,3-3l3.075,3.075,7.847-7.846a2.12,2.12,0,1,1,3,3l-9.346,9.346A2.113,2.113,0,0,1,320.593,274.051Z" transform="translate(-313.899 -260.465)" fill="#faf7f8"/>
        </g>
        <g id="Grupo_957783" data-name="Grupo 957783" transform="translate(38.837 32.062)">
          <path id="Trazado_725345" data-name="Trazado 725345" d="M320.593,274.051a2.113,2.113,0,0,1-1.5-.621l-4.574-4.574a2.12,2.12,0,0,1,3-3l3.075,3.075,7.847-7.846a2.12,2.12,0,1,1,3,3l-9.346,9.346A2.113,2.113,0,0,1,320.593,274.051Z" transform="translate(-313.899 -260.465)" fill="none" stroke="#000" stroke-linecap="round" stroke-linejoin="round" stroke-miterlimit="10" stroke-width="1.5"/>
        </g>
        <path id="Trazado_725346" data-name="Trazado 725346" d="M291.346,198.616a15.075,15.075,0,1,0,2.5,2.7" transform="translate(-233.706 -171.291)" fill="none" stroke="#000" stroke-linecap="round" stroke-linejoin="round" stroke-miterlimit="10" stroke-width="1.5"/>
      </g>
    </g>
    <g id="sin-carro" transform="translate(249 6463.84)">
      <g id="Grupo_957832" data-name="Grupo 957832" transform="translate(72.566 44.494)">
        <path id="Trazado_725385" data-name="Trazado 725385" d="M48.827,199.259a9.01,9.01,0,0,1-11.43-9.97,5.415,5.415,0,1,1-3.749-10.127,7.146,7.146,0,0,1,3.063-.124,8.76,8.76,0,0,1-2.074-2.982,8.115,8.115,0,0,1,15.322-5.29c.307-.117.617-.229.938-.321a11.753,11.753,0,1,1,3.988,23.021H49.369" transform="translate(-27.91 -163.864)" fill="#fff"/>
        <path id="Trazado_725386" data-name="Trazado 725386" d="M44.117,199.23a10.88,10.88,0,0,0,3.011-.426,1.808,1.808,0,0,0-1-3.475,7.2,7.2,0,0,1-9.14-7.975,1.809,1.809,0,0,0-2.541-1.9,3.689,3.689,0,0,1-.5.208,3.616,3.616,0,1,1-2-6.951,5.389,5.389,0,0,1,2.177-.1,1.808,1.808,0,0,0,1.759-2.945l-.417-.474a5.74,5.74,0,0,1-1.291-1.83,6.307,6.307,0,0,1,11.91-4.109,1.806,1.806,0,0,0,2.32,1.009c.258-.1.519-.194.789-.272a9.945,9.945,0,1,1,5.493,19.116,10.091,10.091,0,0,1-2.119.362l-5.4,0a1.808,1.808,0,1,0,0,3.616h5.516a13.763,13.763,0,0,0,3-.5,13.561,13.561,0,0,0-7.014-26.2A9.923,9.923,0,0,0,30.7,174.362a5.176,5.176,0,0,0,.327.848l-.078.022a7.234,7.234,0,0,0,2.387,14.175,10.508,10.508,0,0,0,.369,1.965,10.862,10.862,0,0,0,10.411,7.856Z" transform="translate(-25.712 -161.67)"/>
      </g>
      <g id="Grupo_957833" data-name="Grupo 957833" transform="translate(7.233 0)">
        <path id="Trazado_725387" data-name="Trazado 725387" d="M108.1,206.856h7.233a1.808,1.808,0,1,0,0-3.616H108.1a1.808,1.808,0,1,0,0,3.616Z" transform="translate(-48.427 -139.955)" fill="#4c241d"/>
        <path id="Trazado_725388" data-name="Trazado 725388" d="M64.1,194.856h7.233a1.808,1.808,0,1,0,0-3.616H64.1a1.808,1.808,0,1,0,0,3.616Z" transform="translate(15.463 -133.379)"/>
        <ellipse id="Elipse_6749" data-name="Elipse 6749" cx="2.712" cy="2.712" rx="2.712" ry="2.712" transform="translate(0 0)"/>
        <path id="Trazado_725389" data-name="Trazado 725389" d="M211.329,102.089A1.808,1.808,0,0,0,212.607,99l-7.233-7.233a1.808,1.808,0,0,0-2.557,2.557l7.233,7.233A1.8,1.8,0,0,0,211.329,102.089Z" transform="translate(-182.823 -78.583)"/>
        <path id="Trazado_725390" data-name="Trazado 725390" d="M204.1,102.089a1.8,1.8,0,0,0,1.278-.53l7.233-7.233a1.808,1.808,0,1,0-2.557-2.557L202.818,99a1.808,1.808,0,0,0,1.278,3.087Z" transform="translate(-182.823 -78.583)"/>
      </g>
      <g id="Grupo_957834" data-name="Grupo 957834" transform="translate(0 30.739)">
        <path id="Trazado_725391" data-name="Trazado 725391" d="M142.288,135.24h27.1a6.993,6.993,0,0,1,5.728,2.983l8.644,12.348a6.448,6.448,0,0,0,5.283,2.75h4.991a6.117,6.117,0,0,1,6.117,6.117V171.4l-18.082,3.616H142.288Z" transform="translate(-140.48 -133.432)" fill="#34bc85"/>
        <path id="Trazado_725392" data-name="Trazado 725392" d="M140.1,174.636h39.779a1.769,1.769,0,0,0,.355-.035l18.082-3.616a1.809,1.809,0,0,0,1.453-1.773V157.246a7.933,7.933,0,0,0-7.925-7.925h-4.992a4.643,4.643,0,0,1-3.8-1.979l-8.645-12.35a8.809,8.809,0,0,0-7.21-3.753H140.1a1.808,1.808,0,0,0-1.808,1.808v39.779a1.807,1.807,0,0,0,1.808,1.808Zm39.6-3.616H141.9V134.856h25.289a5.189,5.189,0,0,1,4.247,2.211l8.645,12.35a8.263,8.263,0,0,0,6.763,3.521h4.992a4.314,4.314,0,0,1,4.308,4.308v10.482Z" transform="translate(-138.288 -131.24)"/>
      </g>
      <g id="Grupo_957835" data-name="Grupo 957835" transform="translate(43.396 65.094)">
        <path id="Trazado_725393" data-name="Trazado 725393" d="M134.288,218.473h14.465a3.616,3.616,0,1,0,0-7.233H134.288Z" transform="translate(-132.48 -209.432)" fill="#fc8c29"/>
        <path id="Trazado_725394" data-name="Trazado 725394" d="M132.1,218.089h14.465a5.424,5.424,0,1,0,0-10.849H132.1a1.808,1.808,0,0,0-1.808,1.808v7.233A1.808,1.808,0,0,0,132.1,218.089Zm14.465-7.233a1.808,1.808,0,1,1,0,3.616H133.9v-3.616Z" transform="translate(-130.288 -207.24)"/>
      </g>
      <path id="Trazado_725395" data-name="Trazado 725395" d="M252.1,190.856H253.9a1.808,1.808,0,1,0,0-3.616H252.1a1.808,1.808,0,0,0,0,3.616Z" transform="translate(-244.864 -131.187)"/>
      <path id="Trazado_725396" data-name="Trazado 725396" d="M240.1,185.595a1.808,1.808,0,0,0,1.808-1.808V153.048a1.808,1.808,0,1,0-3.616,0v30.739A1.808,1.808,0,0,0,240.1,185.595Z" transform="translate(-225.631 -111.46)"/>
      <g id="Grupo_957836" data-name="Grupo 957836" transform="translate(35.579 64.509)">
        <ellipse id="Elipse_6750" data-name="Elipse 6750" cx="6.913" cy="6.913" rx="6.913" ry="6.913" transform="translate(1.808 1.808)" fill="#fff"/>
        <path id="Trazado_725397" data-name="Trazado 725397" d="M165.716,223.389a8.721,8.721,0,1,0-8.721-8.721A8.731,8.731,0,0,0,165.716,223.389Zm0-13.826a5.1,5.1,0,1,1-5.1,5.1A5.111,5.111,0,0,1,165.716,209.563Z" transform="translate(-156.995 -205.947)"/>
      </g>
      <ellipse id="Elipse_6751" data-name="Elipse 6751" cx="1.828" cy="1.828" rx="1.828" ry="1.828" transform="translate(42.472 71.402)"/>
      <g id="Grupo_957837" data-name="Grupo 957837" transform="translate(0 39.78)">
        <path id="Trazado_725398" data-name="Trazado 725398" d="M194.288,155.325a5.46,5.46,0,0,1,.764-.085h23.418a5.493,5.493,0,0,1,4.57,2.446l5.6,8.4H194.288Z" transform="translate(-192.48 -153.432)" fill="#9dc1e4"/>
        <path id="Trazado_725399" data-name="Trazado 725399" d="M192.092,165.706h34.36a1.81,1.81,0,0,0,1.444-2.894l-5.547-8.32a7.294,7.294,0,0,0-6.076-3.251H192.857a5.835,5.835,0,0,0-.881.082,1.978,1.978,0,0,0-1.692,1.811V163.9A1.808,1.808,0,0,0,192.092,165.706Zm30.977-3.616H193.9v-7.233h22.374a3.686,3.686,0,0,1,3.069,1.642Z" transform="translate(-190.284 -151.241)"/>
      </g>
      <path id="Trazado_725400" data-name="Trazado 725400" d="M108.1,206.856h7.233a1.808,1.808,0,1,0,0-3.616H108.1a1.808,1.808,0,1,0,0,3.616Z" transform="translate(-41.194 -139.954)"/>
    </g>
  </g>
</svg>
