<svg xmlns="http://www.w3.org/2000/svg" width="109" height="109" viewBox="0 0 109 109">
  <g id="_9" data-name="9" transform="translate(-552 -3694)">
    <circle id="Elipse_6718" data-name="Elipse 6718" cx="54.5" cy="54.5" r="54.5" transform="translate(552 3694)" fill="#faedc0"/>
    <g id="sequia" transform="translate(559 3667.634)">
      <circle id="Elipse_6717" data-name="Elipse 6717" cx="14.935" cy="14.935" r="14.935" transform="translate(32.762 73.023)" fill="#ffe17d"/>
      <path id="Trazado_725254" data-name="Trazado 725254" d="M201.023,257.321a8.961,8.961,0,1,0-17.9-.659q0,.327.024.648a2.214,2.214,0,0,1-2.233,2.339h-3.465a14.92,14.92,0,0,0,5.7,8.961h17.868a14.921,14.921,0,0,0,5.7-8.961h-3.464A2.211,2.211,0,0,1,201.023,257.321Z" transform="translate(-144.388 -168.704)" fill="#ffedb1"/>
      <path id="Trazado_725255" data-name="Trazado 725255" d="M106.233,111.426a34.7,34.7,0,0,0-34.1,28.582,33.428,33.428,0,0,0-.357,8.918,1.489,1.489,0,0,0,1.491,1.332h6.012a1.482,1.482,0,0,0,1.478-1.65,23.772,23.772,0,0,1,.749-9.35A25.79,25.79,0,0,1,106.776,120.4a25.391,25.391,0,0,1,24.6,25.378,24.359,24.359,0,0,1-.168,2.849,1.479,1.479,0,0,0,1.483,1.632H138.7a1.485,1.485,0,0,0,1.487-1.329q.144-1.556.147-3.151A34.352,34.352,0,0,0,106.233,111.426Z" transform="translate(-58.283 -57.82)" fill="#fff6d8"/>
      <path id="Trazado_725256" data-name="Trazado 725256" d="M15.516,343.893c0,11.548,20.061,20.91,44.807,20.91s44.807-9.362,44.807-20.91Z" transform="translate(-12.625 -246.974)" fill="#f7d291"/>
      <path id="Trazado_725257" data-name="Trazado 725257" d="M94,336.392H73.089a1.4,1.4,0,0,0,0,2.795H75.16l-7.24,7.747-12.353-4.76,1.867-2.987h9.68a1.4,1.4,0,0,0,0-2.795H1.4a1.4,1.4,0,0,0,0,2.795H7.73l2.014,9.606-2.886,1.138a1.4,1.4,0,1,0,1.026,2.6l11.383-4.49,4.982,5.611a1.4,1.4,0,0,0,1.82.235l4.4-2.934,3.27,3.815-4.669,2.724a1.4,1.4,0,1,0,1.408,2.414l5.11-2.981,3.58,4.177a1.4,1.4,0,0,0,1.734.316l12.162-6.677,8.261,3.621a1.4,1.4,0,1,0,1.122-2.56l-3.414-1.5,5.989-5.492,13.537,5.216a1.4,1.4,0,0,0,1.732-.641l3.538-6.562,3.752,1.251a1.4,1.4,0,0,0,1.737-.8l3.286-8.09H94a1.4,1.4,0,1,0,0-2.795Zm-39.86,2.795-6.364,10.184-4.983-2.184-3.428-8Zm-41.756,8.566-1.8-8.566H24.755L23.09,343.53Zm13.15,3.134-3.5-3.938,2.651-1.046a1.4,1.4,0,0,0,.792-.8l2.27-5.918h8.573l1.5,3.506Zm15.021,7.534-7.74-9.029,6.131-4.087,1.5,3.49a1.4,1.4,0,0,0,.723.729l8.673,3.8Zm15.684-5.343-5.869-2.572,3.691-5.919,8.054,3.1Zm22.181-2.1-7.684-2.961,3.96-4.238,6.447,2.149Zm8.806-5.968-10.431-3.477,2.193-2.347h10.6Z" transform="translate(0 -240.871)"/>
      <path id="Trazado_725258" data-name="Trazado 725258" d="M249.9,46.148a1.4,1.4,0,0,0,1.4-1.4V41.763a1.4,1.4,0,0,0-2.795,0V44.75A1.4,1.4,0,0,0,249.9,46.148Z" transform="translate(-202.2 0)"/>
      <path id="Trazado_725259" data-name="Trazado 725259" d="M249.9,106.193a1.4,1.4,0,0,0,1.4-1.4V89.86a1.4,1.4,0,0,0-2.795,0V104.8A1.4,1.4,0,0,0,249.9,106.193Z" transform="translate(-202.2 -39.136)"/>
      <path id="Trazado_725260" data-name="Trazado 725260" d="M482.365,291.661h2.987a1.4,1.4,0,0,0,0-2.795h-2.987a1.4,1.4,0,0,0,0,2.795Z" transform="translate(-391.354 -202.2)"/>
      <path id="Trazado_725261" data-name="Trazado 725261" d="M368.742,290.263a1.4,1.4,0,0,0,1.4,1.4h14.936a1.4,1.4,0,1,0,0-2.795H370.139A1.4,1.4,0,0,0,368.742,290.263Z" transform="translate(-300.038 -202.2)"/>
      <path id="Trazado_725262" data-name="Trazado 725262" d="M1.4,291.661H4.384a1.4,1.4,0,0,0,0-2.795H1.4a1.4,1.4,0,0,0,0,2.795Z" transform="translate(0 -202.2)"/>
      <path id="Trazado_725263" data-name="Trazado 725263" d="M49.494,291.661H64.43a1.4,1.4,0,0,0,0-2.795H49.494a1.4,1.4,0,0,0,0,2.795Z" transform="translate(-39.136 -202.2)"/>
      <path id="Trazado_725264" data-name="Trazado 725264" d="M309.319,119.556a1.4,1.4,0,0,0,1.909-.511l8.961-15.522a1.4,1.4,0,0,0-2.42-1.4l-8.961,15.522A1.4,1.4,0,0,0,309.319,119.556Z" transform="translate(-251.118 -49.683)"/>
      <path id="Trazado_725265" data-name="Trazado 725265" d="M149.43,119.044a1.4,1.4,0,0,0,2.42-1.4l-8.961-15.522a1.4,1.4,0,1,0-2.42,1.4Z" transform="translate(-114.144 -49.684)"/>
      <path id="Trazado_725266" data-name="Trazado 725266" d="M61.759,183.254l15.522,8.961a1.4,1.4,0,0,0,1.4-2.42l-15.522-8.961a1.4,1.4,0,0,0-1.4,2.42Z" transform="translate(-49.684 -114.143)"/>
      <path id="Trazado_725267" data-name="Trazado 725267" d="M352.818,191.7a1.4,1.4,0,0,0,1.909.511l15.522-8.961a1.4,1.4,0,1,0-1.4-2.42L353.33,189.8A1.4,1.4,0,0,0,352.818,191.7Z" transform="translate(-286.929 -114.144)"/>
      <path id="Trazado_725268" data-name="Trazado 725268" d="M199.029,228.824a1.4,1.4,0,0,0,1.648-1.091,16.333,16.333,0,1,0-32.011,0,1.4,1.4,0,0,0,2.739-.557,13.538,13.538,0,1,1,26.534,0A1.4,1.4,0,0,0,199.029,228.824Z" transform="translate(-136.974 -136.51)"/>
    </g>
  </g>
</svg>
