<svg xmlns="http://www.w3.org/2000/svg" xmlns:xlink="http://www.w3.org/1999/xlink" width="87.082" height="87.082" viewBox="0 0 87.082 87.082">
  <defs>
    <clipPath id="clip-path">
      <path id="path11617" d="M0-682.665H87.082v87.082H0Z" transform="translate(0 682.665)"/>
    </clipPath>
  </defs>
  <g id="a2" transform="translate(0 682.665)">
    <g id="g11609" transform="translate(32.172 -613.151)">
      <path id="path11611" d="M-28.277-58.517l3.916-.505.51-3.916-4.139-4.135-3.9.364-.52,4.057Z" transform="translate(32.412 67.073)" fill="#ffd772" fill-rule="evenodd"/>
    </g>
    <g id="g11613" transform="translate(0 -682.665)">
      <g id="g11615" clip-path="url(#clip-path)">
        <g id="g11621" transform="translate(36.307 73.649)">
          <path id="path11623" d="M-30.271,0-34.7,4.421l6.821,6.821a3.134,3.134,0,0,0,4.426,0,3.138,3.138,0,0,0,0-4.421Z" transform="translate(34.697)" fill="#34bc85" fill-rule="evenodd"/>
        </g>
        <g id="g11625" transform="translate(34.383 69.514)">
          <path id="path11627" d="M0-15.119l4.135,4.135L6.35-13.195,2.211-17.329Z" transform="translate(0 17.329)" fill="#fbba58" fill-rule="evenodd"/>
        </g>
        <g id="g11629" transform="translate(38.517 73.649)">
          <path id="path11631" d="M-15.151,0l-2.215,2.211,6.826,6.821a3.156,3.156,0,0,1,.807,3.022,3.1,3.1,0,0,0,1.4-.811,3.138,3.138,0,0,0,0-4.421Z" transform="translate(17.367)" fill="#34bc85" fill-rule="evenodd"/>
        </g>
        <g id="g11633" transform="translate(14.828 9.185)">
          <path id="path11635" d="M-155.908-281.685h37.3c5.942,0,10.752-6.107,10.752-10.757s-1.535-6.35-3.945-8.323c1.312-6.958-4.557-11.967-10.11-9.97-.214-10.762-14.26-15.815-21.916-8.172a10.34,10.34,0,0,0-8.153-3.964,10.32,10.32,0,0,0-4.232.9,10.386,10.386,0,0,0-5.971,7.594,10.915,10.915,0,0,0-11.189,9.008,13.082,13.082,0,0,0-.136,3.722c-3.114,1.885-5.194,4.285-5.194,9.207a8.758,8.758,0,0,0,.423,2.624c4.718,4.047,11.7,12.569,22.373,8.133" transform="translate(178.704 322.871)" fill="#eff6ff" fill-rule="evenodd"/>
        </g>
        <g id="g11637" transform="translate(1.409 1.276)">
          <path id="path11639" d="M-128.228-173.789c9.362,3.989,25.225-7.288,17.16-16.6a7.294,7.294,0,0,0-6.19-4.149,7.279,7.279,0,0,0-6.792-4.659,7.269,7.269,0,0,0-7.04,5.442,7.247,7.247,0,0,0-3.3-.792,7.276,7.276,0,0,0-7.273,7.278,7.373,7.373,0,0,0,.33,2.186,5.663,5.663,0,0,0-5.646,5.646,5.664,5.664,0,0,0,5.646,5.65Z" transform="translate(146.977 199.199)" fill="#eff6ff" fill-rule="evenodd"/>
        </g>
        <g id="g11641" transform="translate(3.685 41.026)">
          <path id="path11643" d="M-225.073-194.842a18.134,18.134,0,0,0,1.03-19.143,18.077,18.077,0,0,0-3.051-4.047,18.105,18.105,0,0,0-19.322-4.086,18.076,18.076,0,0,0-6.268,4.086,18.1,18.1,0,0,0,0,25.59,18.108,18.108,0,0,0,23.189,2.021Z" transform="translate(257.982 223.33)" fill="#feb12e" fill-rule="evenodd"/>
        </g>
        <g id="g11645" transform="translate(9.396 46.674)">
          <path id="path11647" d="M-169.931-84.967A12.424,12.424,0,0,0-182.354-97.39a12.421,12.421,0,0,0-12.423,12.423,12.418,12.418,0,0,0,12.423,12.423,12.421,12.421,0,0,0,12.423-12.423" transform="translate(194.777 97.39)" fill="#9fd4fe" fill-rule="evenodd"/>
        </g>
        <g id="g11649" transform="translate(8.823 1.276)">
          <path id="path11651" d="M-106.1,0a7.254,7.254,0,0,0-5.543,2.565,16.017,16.017,0,0,1,2.337,8.449c0,7.948-5.509,14.4-12.306,14.4h11.335A10.915,10.915,0,0,1-99.088,16.4a10.386,10.386,0,0,1,5.971-7.594,7.293,7.293,0,0,0-6.19-4.149A7.28,7.28,0,0,0-106.1,0" transform="translate(121.612)" fill="#d9eeff" fill-rule="evenodd"/>
        </g>
        <g id="g11653" transform="translate(54.778 9.479)">
          <path id="path11655" d="M-63.7-128.348a29.728,29.728,0,0,1-9.314,22.126H-52.87c5.942,0,10.752-6.107,10.752-10.757s-1.535-6.35-3.945-8.323c1.312-6.958-4.557-11.967-10.11-9.97-.146-7.482-6.982-12.2-13.706-11.821a30.613,30.613,0,0,1,6.18,18.744" transform="translate(73.013 147.114)" fill="#d9eeff" fill-rule="evenodd"/>
        </g>
        <g id="g11657" transform="translate(15.969 41.026)">
          <path id="path11659" d="M-107.826-72.458a12.343,12.343,0,0,1,2.507,7.477,12.426,12.426,0,0,1-10.392,12.258l-2.264,2.264a17.981,17.981,0,0,1-5.616,2.638,18.119,18.119,0,0,0,16.2-2.322l4.421-4.421a18.133,18.133,0,0,0,1.03-19.143,18.081,18.081,0,0,0-3.051-4.047,18.083,18.083,0,0,0-17.573-4.659,17.972,17.972,0,0,1,6.991,4.344c.345.35.675.7.991,1.074a12.433,12.433,0,0,1,6.753,4.538" transform="translate(123.592 83.052)" fill="#feb12e" fill-rule="evenodd"/>
        </g>
        <g id="g11661" transform="translate(23.85 47.082)">
          <path id="path11663" d="M-71.077-82.176a12.343,12.343,0,0,0-2.507-7.477,12.434,12.434,0,0,0-6.753-4.538,17.861,17.861,0,0,1,2.055,2.974c.165.3.316.593.462.894a18.11,18.11,0,0,1-1.492,18.249l-2.157,2.157A12.426,12.426,0,0,0-71.077-82.176" transform="translate(81.469 94.192)" fill="#85beef" fill-rule="evenodd"/>
        </g>
        <g id="g11665" transform="translate(32.211 23.824)">
          <path id="path11667" d="M-69.248-7.576a6.457,6.457,0,0,0-3.629-1.108,6.5,6.5,0,0,0-6.5,6.5,6.5,6.5,0,0,0,6.5,6.5,5.216,5.216,0,0,0,3.566-1.292,5.044,5.044,0,0,0,.525-.544" transform="translate(79.373 8.684)" fill="none" stroke="#000" stroke-linecap="round" stroke-linejoin="round" stroke-miterlimit="10" stroke-width="3"/>
        </g>
        <g id="g11669" transform="translate(46.845 23.824)">
          <path id="path11671" d="M-88.819-44.428a6.507,6.507,0,0,0-6.491-6.5,6.508,6.508,0,0,0-6.5,6.5,6.508,6.508,0,0,0,6.5,6.5A6.507,6.507,0,0,0-88.819-44.428Z" transform="translate(101.805 50.924)" fill="none" stroke="#000" stroke-linecap="round" stroke-linejoin="round" stroke-miterlimit="10" stroke-width="3"/>
        </g>
        <g id="g11673" transform="translate(65.9 28.722)">
          <path id="path11675" d="M-41.5-76.893s-5.374.063-5.631-.019.408-.535,3.935-5.568a7.2,7.2,0,0,0,1.176-2.4l.054-.428A2.83,2.83,0,0,0-44.8-88.136a2.831,2.831,0,0,0-2.774,2.279" transform="translate(47.571 88.136)" fill="none" stroke="#000" stroke-linecap="round" stroke-linejoin="round" stroke-miterlimit="10" stroke-width="3"/>
        </g>
        <g id="g11677" transform="translate(14.828 9.185)">
          <path id="path11679" d="M-342.121-281.685h10.072c5.942,0,10.752-6.107,10.752-10.757s-1.536-6.35-3.945-8.323c1.312-6.958-4.557-11.967-10.11-9.97-.214-10.762-14.259-15.815-21.916-8.172a10.34,10.34,0,0,0-8.153-3.964,10.377,10.377,0,0,0-10.2,8.493c-6.607-.189-12.1,5.2-11.325,12.729-3.114,1.885-5.194,4.285-5.194,9.207a8.943,8.943,0,0,0,.452,2.721m22.344,8.036h21.295" transform="translate(392.143 322.871)" fill="none" stroke="#000" stroke-linecap="round" stroke-linejoin="round" stroke-miterlimit="10" stroke-width="3"/>
        </g>
        <g id="g11681" transform="translate(1.409 1.276)">
          <path id="path11683" d="M-97.028-173.789h4.567m17.155-16.6a7.294,7.294,0,0,0-6.19-4.149,7.279,7.279,0,0,0-6.792-4.659,7.269,7.269,0,0,0-7.04,5.442,7.247,7.247,0,0,0-3.3-.792,7.276,7.276,0,0,0-7.273,7.278,7.373,7.373,0,0,0,.33,2.186,5.663,5.663,0,0,0-5.646,5.646,5.664,5.664,0,0,0,5.646,5.65h2.609" transform="translate(111.214 199.199)" fill="none" stroke="#000" stroke-linecap="round" stroke-linejoin="round" stroke-miterlimit="10" stroke-width="3"/>
        </g>
        <g id="g11685" transform="translate(54.876 55.235)">
          <path id="path11687" d="M0-52.835H18.982a3.851,3.851,0,0,0,2.73-1.127,3.862,3.862,0,0,0,0-5.466,3.857,3.857,0,0,0-2.73-1.132,3.848,3.848,0,0,0-2.73,1.132" transform="translate(0 60.56)" fill="none" stroke="#000" stroke-linecap="round" stroke-linejoin="round" stroke-miterlimit="10" stroke-width="3"/>
        </g>
        <g id="g11689" transform="translate(51.771 68.902)">
          <path id="path11691" d="M0,0H12.923" fill="none" stroke="#000" stroke-linecap="round" stroke-linejoin="round" stroke-miterlimit="10" stroke-width="3"/>
        </g>
        <g id="g11693" transform="translate(61.41 74.839)">
          <path id="path11695" d="M-83.237,0h6.812A3.857,3.857,0,0,1-73.7,1.132a3.857,3.857,0,0,1,0,5.461,3.836,3.836,0,0,1-2.73,1.132,3.828,3.828,0,0,1-2.73-1.132M-95.408,0h5.636" transform="translate(95.408)" fill="none" stroke="#000" stroke-linecap="round" stroke-linejoin="round" stroke-miterlimit="10" stroke-width="3"/>
        </g>
        <g id="g11697" transform="translate(32.172 69.364)">
          <path id="path11699" d="M0-31.269l4.567-4.572" transform="translate(0 35.841)" fill="none" stroke="#000" stroke-linecap="round" stroke-linejoin="round" stroke-miterlimit="10" stroke-width="3"/>
        </g>
        <g id="g11701" transform="translate(9.396 46.674)">
          <path id="path11703" d="M-84.965-169.935a12.446,12.446,0,0,0,12.423-12.423,12.449,12.449,0,0,0-12.423-12.423,12.446,12.446,0,0,0-12.423,12.423A12.443,12.443,0,0,0-84.965-169.935Z" transform="translate(97.388 194.782)" fill="none" stroke="#000" stroke-linecap="round" stroke-linejoin="round" stroke-miterlimit="10" stroke-width="3"/>
        </g>
        <g id="g11705" transform="translate(3.685 41.026)">
          <path id="path11707" d="M-194.836-225.079l10.956,10.956a3.134,3.134,0,0,0,4.426,0,3.138,3.138,0,0,0,0-4.421L-190.415-229.5a18.1,18.1,0,0,0-2.021-23.19,18.1,18.1,0,0,0-25.59,0,18.1,18.1,0,0,0,0,25.59A18.108,18.108,0,0,0-194.836-225.079Z" transform="translate(223.323 257.989)" fill="none" stroke="#000" stroke-linecap="round" stroke-linejoin="round" stroke-miterlimit="10" stroke-width="3"/>
        </g>
        <g id="g11709" transform="translate(35.408 72.915)">
          <path id="path11711" d="M0-41.4l6.058-6.054" transform="translate(0 47.459)" fill="none" stroke="#000" stroke-linecap="round" stroke-linejoin="round" stroke-miterlimit="10" stroke-width="3"/>
        </g>
      </g>
    </g>
  </g>
</svg>
