<svg xmlns="http://www.w3.org/2000/svg" xmlns:xlink="http://www.w3.org/1999/xlink" width="102" height="102" viewBox="0 0 102 102">
  <defs>
    <clipPath id="clip-path">
      <path id="path5865" d="M0-682.665H102v102H0Z" transform="translate(0 682.665)"/>
    </clipPath>
  </defs>
  <g id="a3" transform="translate(0 682.665)">
    <g id="g5861" transform="translate(0 -682.665)">
      <g id="g5863" clip-path="url(#clip-path)">
        <g id="g5869" transform="translate(40.242 40.242)">
          <path id="path5871" d="M-170.117,0A29.881,29.881,0,0,0-200,29.883a29.884,29.884,0,0,0,29.883,29.883,29.883,29.883,0,0,0,29.883-29.883A29.883,29.883,0,0,0-170.117,0" transform="translate(200)" fill="#72d8ff"/>
        </g>
        <g id="g5873" transform="translate(85.066 81.331)">
          <path id="path5875" d="M-42.529,0a9.053,9.053,0,0,1,4.745,1.277,29.983,29.983,0,0,1-9.1,11.33A12.19,12.19,0,0,1-50,5.6C-50,2.508-46.655,0-42.529,0" transform="translate(50)" fill="#a0e892"/>
        </g>
        <g id="g5877" transform="translate(66.333 40.242)">
          <path id="path5879" d="M-21.586,0A29.891,29.891,0,0,1,5.767,17.83C-4.565,22.954-6.306,37.7-11.338,37.7c-4.1,0-11.732-12.951-11.732-16.354,0-6.172,12.716-1.385,12.716-6.728,0-4.8-18.854-3.8-14.32-14.459A30.431,30.431,0,0,1-21.586,0" transform="translate(25.378)" fill="#a0e892"/>
        </g>
        <g id="g5881" transform="translate(40.242 57.349)">
          <path id="path5883" d="M-85.058-136.524c3.17,8.2,11.328-2.57,14.2,18.667A29.882,29.882,0,0,1-100-147.73a29.759,29.759,0,0,1,2.861-12.776c12.925,4.64,16.394,8.224,16.394,11.445,0,4.275-6.1,7.911-4.313,12.537" transform="translate(100 160.506)" fill="#a0e892"/>
        </g>
        <g id="g5885" transform="translate(5.578 7.969)">
          <path id="path5887" d="M-136.093-68.047a11.954,11.954,0,0,1-11.953,11.953A11.954,11.954,0,0,1-160-68.047,11.953,11.953,0,0,1-148.046-80a11.953,11.953,0,0,1,11.953,11.953" transform="translate(160 80)" fill="#ffda8f"/>
        </g>
        <g id="g5889" transform="translate(22.791 52.474)">
          <path id="path5891" d="M0,0,5.977,5.977" fill="none" stroke="#000" stroke-linecap="round" stroke-linejoin="round" stroke-miterlimit="10" stroke-width="3"/>
        </g>
        <g id="g5893" transform="translate(34.266 64.148)">
          <path id="path5895" d="M0,0,5.977,5.977" fill="none" stroke="#000" stroke-linecap="round" stroke-linejoin="round" stroke-miterlimit="10" stroke-width="3"/>
        </g>
        <g id="g5897" transform="translate(66.333 40.4)">
          <path id="path5899" d="M-4.007,0c-4.534,10.664,14.32,9.656,14.32,14.459,0,5.343-12.716.556-12.716,6.728,0,3.4,7.628,16.354,11.732,16.354,5.032,0,6.773-14.744,17.1-19.868" transform="translate(4.711)" fill="none" stroke="#000" stroke-linecap="round" stroke-linejoin="round" stroke-miterlimit="10" stroke-width="3"/>
        </g>
        <g id="g5901" transform="translate(43.103 57.349)">
          <path id="path5903" d="M0,0C12.925,4.64,16.394,8.224,16.394,11.445c0,4.275-6.1,7.911-4.313,12.537,3.17,8.2,11.328-2.57,14.2,18.667" fill="none" stroke="#000" stroke-linecap="round" stroke-linejoin="round" stroke-miterlimit="10" stroke-width="3"/>
        </g>
        <g id="g5905" transform="translate(85.066 81.331)">
          <path id="path5907" d="M-17.726-71.767a12.19,12.19,0,0,1-3.114-7c0-3.094,3.345-5.6,7.471-5.6A9.053,9.053,0,0,1-8.624-83.1h0" transform="translate(20.84 84.373)" fill="none" stroke="#000" stroke-linecap="round" stroke-linejoin="round" stroke-miterlimit="10" stroke-width="3"/>
        </g>
        <g id="g5909" transform="translate(5.578 7.969)">
          <path id="path5911" d="M-126.986-34.012a11.916,11.916,0,0,1,1.6,5.979,11.891,11.891,0,0,1-1.6,5.977A11.948,11.948,0,0,1-137.34-16.08a11.948,11.948,0,0,1-10.353-5.977,11.889,11.889,0,0,1-1.6-5.977,11.916,11.916,0,0,1,1.6-5.979,11.947,11.947,0,0,1,10.353-5.975A11.948,11.948,0,0,1-126.986-34.012Z" transform="translate(149.293 39.987)" fill="none" stroke="#000" stroke-linecap="round" stroke-linejoin="round" stroke-miterlimit="10" stroke-width="3"/>
        </g>
        <g id="g5913" transform="translate(17.531 1.992)">
          <path id="path5915" d="M0,0V5.977" fill="none" stroke="#000" stroke-linecap="round" stroke-linejoin="round" stroke-miterlimit="10" stroke-width="3"/>
        </g>
        <g id="g5917" transform="translate(17.531 31.875)">
          <path id="path5919" d="M0,0V5.977" fill="none" stroke="#000" stroke-linecap="round" stroke-linejoin="round" stroke-miterlimit="10" stroke-width="3"/>
        </g>
        <g id="g5921" transform="translate(2.004 10.957)">
          <path id="path5923" d="M0,0,5.174,2.986" fill="none" stroke="#000" stroke-linecap="round" stroke-linejoin="round" stroke-miterlimit="10" stroke-width="3"/>
        </g>
        <g id="g5925" transform="translate(27.885 25.898)">
          <path id="path5927" d="M0,0,5.174,2.988" fill="none" stroke="#000" stroke-linecap="round" stroke-linejoin="round" stroke-miterlimit="10" stroke-width="3"/>
        </g>
        <g id="g5929" transform="translate(2.004 25.898)">
          <path id="path5931" d="M0-17.012,5.174-20" transform="translate(0 20)" fill="none" stroke="#000" stroke-linecap="round" stroke-linejoin="round" stroke-miterlimit="10" stroke-width="3"/>
        </g>
        <g id="g5933" transform="translate(27.885 10.957)">
          <path id="path5935" d="M0-17l5.174-2.986" transform="translate(0 19.987)" fill="none" stroke="#000" stroke-linecap="round" stroke-linejoin="round" stroke-miterlimit="10" stroke-width="3"/>
        </g>
        <g id="g5937" transform="translate(70.125 16.934)">
          <path id="path5939" d="M0-132.691,23.309-156" transform="translate(0 156)" fill="none" stroke="#000" stroke-linecap="round" stroke-linejoin="round" stroke-miterlimit="10" stroke-width="3"/>
        </g>
        <g id="g5941" transform="translate(82.078 16.336)">
          <path id="path5943" d="M0,0H11.953V11.953" fill="none" stroke="#000" stroke-linecap="round" stroke-linejoin="round" stroke-miterlimit="10" stroke-width="3"/>
        </g>
        <g id="g5945" transform="translate(16.336 82.078)">
          <path id="path5947" d="M0,0V11.953H11.953" fill="none" stroke="#000" stroke-linecap="round" stroke-linejoin="round" stroke-miterlimit="10" stroke-width="3"/>
        </g>
        <g id="g5949" transform="translate(16.934 70.125)">
          <path id="path5951" d="M0-132.691,23.309-156" transform="translate(0 156)" fill="none" stroke="#000" stroke-linecap="round" stroke-linejoin="round" stroke-miterlimit="10" stroke-width="3"/>
        </g>
        <g id="g5953" transform="translate(52.674 22.591)">
          <path id="path5955" d="M0,0,5.977,5.977" fill="none" stroke="#000" stroke-linecap="round" stroke-linejoin="round" stroke-miterlimit="10" stroke-width="3"/>
        </g>
        <g id="g5957" transform="translate(64.148 34.266)">
          <path id="path5959" d="M0,0,5.977,5.977" fill="none" stroke="#000" stroke-linecap="round" stroke-linejoin="round" stroke-miterlimit="10" stroke-width="3"/>
        </g>
        <g id="g5961" transform="translate(46.219 88.453)">
          <path id="path5963" d="M-22.682-11.341a1.992,1.992,0,0,1-1.992,1.992,1.992,1.992,0,0,1-1.992-1.992,1.992,1.992,0,0,1,1.992-1.992,1.992,1.992,0,0,1,1.992,1.992" transform="translate(26.667 13.333)"/>
        </g>
        <g id="g5965" transform="translate(40.242 40.242)">
          <path id="path5967" d="M-16.657-243.621a29.766,29.766,0,0,1-2.926-12.912,29.758,29.758,0,0,1,2.861-12.776,29.9,29.9,0,0,1,23.934-16.95,30.375,30.375,0,0,1,3.088-.158,29.891,29.891,0,0,1,27.353,17.83,29.794,29.794,0,0,1,2.53,12.053,29.773,29.773,0,0,1-2.725,12.483,29.985,29.985,0,0,1-9.1,11.33A29.748,29.748,0,0,1,10.3-226.65c-.247,0-.494,0-.741-.01a29.727,29.727,0,0,1-14.165-3.968" transform="translate(19.583 286.415)" fill="none" stroke="#000" stroke-linecap="round" stroke-linejoin="round" stroke-miterlimit="10" stroke-width="3"/>
        </g>
      </g>
    </g>
  </g>
</svg>
