<?xml version="1.0" encoding="UTF-8" standalone="no"?>
<!DOCTYPE svg PUBLIC "-//W3C//DTD SVG 1.1//EN" "http://www.w3.org/Graphics/SVG/1.1/DTD/svg11.dtd">
<svg width="100%" height="100%" viewBox="0 0 57 57" version="1.1" xmlns="http://www.w3.org/2000/svg" xmlns:xlink="http://www.w3.org/1999/xlink" xml:space="preserve" xmlns:serif="http://www.serif.com/" style="fill-rule:evenodd;clip-rule:evenodd;">
    <g transform="matrix(1,0,0,1,-3830.48,-14613.2)">
        <g transform="matrix(1,0,0,1,3600,13887)">
            <g transform="matrix(1,0,0,-1,235,772)">
                <path d="M17.5,35C18.073,35 18.645,34.972 19.215,34.916C19.786,34.86 20.352,34.776 20.914,34.664C21.476,34.552 22.032,34.413 22.58,34.246C23.128,34.08 23.667,33.887 24.197,33.668C24.726,33.449 25.244,33.204 25.749,32.934C26.255,32.663 26.746,32.369 27.222,32.051C27.699,31.732 28.159,31.391 28.602,31.028C29.045,30.664 29.469,30.28 29.874,29.874C30.28,29.469 30.664,29.045 31.028,28.602C31.391,28.159 31.732,27.699 32.051,27.222C32.369,26.746 32.663,26.255 32.934,25.749C33.204,25.244 33.449,24.726 33.668,24.197C33.887,23.667 34.08,23.128 34.246,22.58C34.413,22.032 34.552,21.476 34.664,20.914C34.776,20.352 34.86,19.786 34.916,19.215C34.972,18.645 35,18.073 35,17.5C35,16.927 34.972,16.355 34.916,15.785C34.86,15.214 34.776,14.648 34.664,14.086C34.552,13.524 34.413,12.968 34.246,12.42C34.08,11.872 33.887,11.333 33.668,10.803C33.449,10.274 33.204,9.756 32.934,9.251C32.663,8.745 32.369,8.254 32.051,7.778C31.732,7.301 31.391,6.841 31.028,6.398C30.664,5.955 30.28,5.531 29.874,5.126C29.469,4.72 29.045,4.336 28.602,3.972C28.159,3.609 27.699,3.268 27.222,2.949C26.746,2.631 26.255,2.337 25.749,2.066C25.244,1.796 24.726,1.551 24.197,1.332C23.667,1.113 23.128,0.92 22.58,0.754C22.032,0.587 21.476,0.448 20.914,0.336C20.352,0.224 19.786,0.14 19.215,0.084C18.645,0.028 18.073,0 17.5,0C16.927,0 16.355,0.028 15.785,0.084C15.214,0.14 14.648,0.224 14.086,0.336C13.524,0.448 12.968,0.587 12.42,0.754C11.872,0.92 11.333,1.113 10.803,1.332C10.274,1.551 9.756,1.796 9.251,2.066C8.745,2.337 8.254,2.631 7.778,2.949C7.301,3.268 6.841,3.609 6.398,3.972C5.955,4.336 5.531,4.72 5.126,5.126C4.72,5.531 4.336,5.955 3.972,6.398C3.609,6.841 3.268,7.301 2.949,7.778C2.631,8.254 2.337,8.745 2.066,9.251C1.796,9.756 1.551,10.274 1.332,10.803C1.113,11.333 0.92,11.872 0.754,12.42C0.587,12.968 0.448,13.524 0.336,14.086C0.224,14.648 0.14,15.214 0.084,15.785C0.028,16.355 0,16.927 0,17.5C0,18.073 0.028,18.645 0.084,19.215C0.14,19.786 0.224,20.352 0.336,20.914C0.448,21.476 0.587,22.032 0.754,22.58C0.92,23.128 1.113,23.667 1.332,24.197C1.551,24.726 1.796,25.244 2.066,25.749C2.337,26.255 2.631,26.746 2.949,27.222C3.268,27.699 3.609,28.159 3.972,28.602C4.336,29.045 4.72,29.469 5.126,29.874C5.531,30.28 5.955,30.664 6.398,31.028C6.841,31.391 7.301,31.732 7.778,32.051C8.254,32.369 8.745,32.663 9.251,32.934C9.756,33.204 10.274,33.449 10.803,33.668C11.333,33.887 11.872,34.08 12.42,34.246C12.968,34.413 13.524,34.552 14.086,34.664C14.648,34.776 15.214,34.86 15.785,34.916C16.355,34.972 16.927,35 17.5,35Z" style="fill:rgb(14,73,77);fill-rule:nonzero;"/>
            </g>
            <g transform="matrix(-1,0,0,1,285,728.271)">
                <path d="M26.229,52.457C11.765,52.457 0,40.692 0,26.229C0,11.765 11.765,0 26.229,0C40.692,0 52.457,11.765 52.457,26.229C52.457,40.692 40.692,52.457 26.229,52.457ZM35.278,32.009C35.278,27.185 31.515,23.28 26.803,22.927L26.825,19.279C26.829,18.245 25.994,17.402 24.959,17.398C23.926,17.394 23.085,18.227 23.078,19.261L23.045,24.687C23.04,25.624 23.727,26.421 24.655,26.554C25.189,26.619 25.656,26.553 26.163,26.542C29.136,26.542 31.531,28.955 31.531,32.009C31.531,35.064 29.136,37.476 26.163,37.476C23.538,37.476 21.372,35.579 20.894,33.048C20.701,32.032 19.722,31.363 18.705,31.555C17.688,31.746 17.017,32.726 17.209,33.744C18.011,37.993 21.494,41.223 26.226,41.223C30.957,41.223 35.278,37.062 35.278,32.01L35.278,32.009ZM25.017,14.694C25.946,14.694 26.699,13.938 26.701,13.004C26.701,12.069 25.947,11.31 25.017,11.31C24.087,11.31 23.334,12.069 23.334,13.004C23.335,13.938 24.089,14.694 25.017,14.694Z" style="fill:rgb(254,177,46);fill-rule:nonzero;stroke:rgb(14,73,77);stroke-width:1px;"/>
            </g>
        </g>
    </g>
</svg>
